%TF.GenerationSoftware,KiCad,Pcbnew,8.0.1*%
%TF.CreationDate,2024-08-29T16:15:39+09:00*%
%TF.ProjectId,PW-3-mini2-v1,50572d33-2d6d-4696-9e69-322d76312e6b,rev?*%
%TF.SameCoordinates,Original*%
%TF.FileFunction,Legend,Bot*%
%TF.FilePolarity,Positive*%
%FSLAX46Y46*%
G04 Gerber Fmt 4.6, Leading zero omitted, Abs format (unit mm)*
G04 Created by KiCad (PCBNEW 8.0.1) date 2024-08-29 16:15:39*
%MOMM*%
%LPD*%
G01*
G04 APERTURE LIST*
%ADD10C,0.150000*%
%ADD11C,0.300000*%
%ADD12C,0.120000*%
%ADD13C,0.010000*%
G04 APERTURE END LIST*
D10*
X171663220Y-81369819D02*
X171663220Y-80369819D01*
X171663220Y-80369819D02*
X171282268Y-80369819D01*
X171282268Y-80369819D02*
X171187030Y-80417438D01*
X171187030Y-80417438D02*
X171139411Y-80465057D01*
X171139411Y-80465057D02*
X171091792Y-80560295D01*
X171091792Y-80560295D02*
X171091792Y-80703152D01*
X171091792Y-80703152D02*
X171139411Y-80798390D01*
X171139411Y-80798390D02*
X171187030Y-80846009D01*
X171187030Y-80846009D02*
X171282268Y-80893628D01*
X171282268Y-80893628D02*
X171663220Y-80893628D01*
X170520363Y-81369819D02*
X170615601Y-81322200D01*
X170615601Y-81322200D02*
X170663220Y-81274580D01*
X170663220Y-81274580D02*
X170710839Y-81179342D01*
X170710839Y-81179342D02*
X170710839Y-80893628D01*
X170710839Y-80893628D02*
X170663220Y-80798390D01*
X170663220Y-80798390D02*
X170615601Y-80750771D01*
X170615601Y-80750771D02*
X170520363Y-80703152D01*
X170520363Y-80703152D02*
X170377506Y-80703152D01*
X170377506Y-80703152D02*
X170282268Y-80750771D01*
X170282268Y-80750771D02*
X170234649Y-80798390D01*
X170234649Y-80798390D02*
X170187030Y-80893628D01*
X170187030Y-80893628D02*
X170187030Y-81179342D01*
X170187030Y-81179342D02*
X170234649Y-81274580D01*
X170234649Y-81274580D02*
X170282268Y-81322200D01*
X170282268Y-81322200D02*
X170377506Y-81369819D01*
X170377506Y-81369819D02*
X170520363Y-81369819D01*
X169853696Y-80703152D02*
X169663220Y-81369819D01*
X169663220Y-81369819D02*
X169472744Y-80893628D01*
X169472744Y-80893628D02*
X169282268Y-81369819D01*
X169282268Y-81369819D02*
X169091792Y-80703152D01*
X168329887Y-81322200D02*
X168425125Y-81369819D01*
X168425125Y-81369819D02*
X168615601Y-81369819D01*
X168615601Y-81369819D02*
X168710839Y-81322200D01*
X168710839Y-81322200D02*
X168758458Y-81226961D01*
X168758458Y-81226961D02*
X168758458Y-80846009D01*
X168758458Y-80846009D02*
X168710839Y-80750771D01*
X168710839Y-80750771D02*
X168615601Y-80703152D01*
X168615601Y-80703152D02*
X168425125Y-80703152D01*
X168425125Y-80703152D02*
X168329887Y-80750771D01*
X168329887Y-80750771D02*
X168282268Y-80846009D01*
X168282268Y-80846009D02*
X168282268Y-80941247D01*
X168282268Y-80941247D02*
X168758458Y-81036485D01*
X167853696Y-81369819D02*
X167853696Y-80703152D01*
X167853696Y-80893628D02*
X167806077Y-80798390D01*
X167806077Y-80798390D02*
X167758458Y-80750771D01*
X167758458Y-80750771D02*
X167663220Y-80703152D01*
X167663220Y-80703152D02*
X167567982Y-80703152D01*
X166520362Y-81322200D02*
X166425124Y-81369819D01*
X166425124Y-81369819D02*
X166234648Y-81369819D01*
X166234648Y-81369819D02*
X166139410Y-81322200D01*
X166139410Y-81322200D02*
X166091791Y-81226961D01*
X166091791Y-81226961D02*
X166091791Y-81179342D01*
X166091791Y-81179342D02*
X166139410Y-81084104D01*
X166139410Y-81084104D02*
X166234648Y-81036485D01*
X166234648Y-81036485D02*
X166377505Y-81036485D01*
X166377505Y-81036485D02*
X166472743Y-80988866D01*
X166472743Y-80988866D02*
X166520362Y-80893628D01*
X166520362Y-80893628D02*
X166520362Y-80846009D01*
X166520362Y-80846009D02*
X166472743Y-80750771D01*
X166472743Y-80750771D02*
X166377505Y-80703152D01*
X166377505Y-80703152D02*
X166234648Y-80703152D01*
X166234648Y-80703152D02*
X166139410Y-80750771D01*
X165234648Y-80703152D02*
X165234648Y-81369819D01*
X165663219Y-80703152D02*
X165663219Y-81226961D01*
X165663219Y-81226961D02*
X165615600Y-81322200D01*
X165615600Y-81322200D02*
X165520362Y-81369819D01*
X165520362Y-81369819D02*
X165377505Y-81369819D01*
X165377505Y-81369819D02*
X165282267Y-81322200D01*
X165282267Y-81322200D02*
X165234648Y-81274580D01*
X164758457Y-80703152D02*
X164758457Y-81703152D01*
X164758457Y-80750771D02*
X164663219Y-80703152D01*
X164663219Y-80703152D02*
X164472743Y-80703152D01*
X164472743Y-80703152D02*
X164377505Y-80750771D01*
X164377505Y-80750771D02*
X164329886Y-80798390D01*
X164329886Y-80798390D02*
X164282267Y-80893628D01*
X164282267Y-80893628D02*
X164282267Y-81179342D01*
X164282267Y-81179342D02*
X164329886Y-81274580D01*
X164329886Y-81274580D02*
X164377505Y-81322200D01*
X164377505Y-81322200D02*
X164472743Y-81369819D01*
X164472743Y-81369819D02*
X164663219Y-81369819D01*
X164663219Y-81369819D02*
X164758457Y-81322200D01*
X163853695Y-80703152D02*
X163853695Y-81703152D01*
X163853695Y-80750771D02*
X163758457Y-80703152D01*
X163758457Y-80703152D02*
X163567981Y-80703152D01*
X163567981Y-80703152D02*
X163472743Y-80750771D01*
X163472743Y-80750771D02*
X163425124Y-80798390D01*
X163425124Y-80798390D02*
X163377505Y-80893628D01*
X163377505Y-80893628D02*
X163377505Y-81179342D01*
X163377505Y-81179342D02*
X163425124Y-81274580D01*
X163425124Y-81274580D02*
X163472743Y-81322200D01*
X163472743Y-81322200D02*
X163567981Y-81369819D01*
X163567981Y-81369819D02*
X163758457Y-81369819D01*
X163758457Y-81369819D02*
X163853695Y-81322200D01*
X162806076Y-81369819D02*
X162901314Y-81322200D01*
X162901314Y-81322200D02*
X162948933Y-81226961D01*
X162948933Y-81226961D02*
X162948933Y-80369819D01*
X162520361Y-80703152D02*
X162282266Y-81369819D01*
X162044171Y-80703152D02*
X162282266Y-81369819D01*
X162282266Y-81369819D02*
X162377504Y-81607914D01*
X162377504Y-81607914D02*
X162425123Y-81655533D01*
X162425123Y-81655533D02*
X162520361Y-81703152D01*
X160901313Y-81369819D02*
X160901313Y-80369819D01*
X160901313Y-80750771D02*
X160806075Y-80703152D01*
X160806075Y-80703152D02*
X160615599Y-80703152D01*
X160615599Y-80703152D02*
X160520361Y-80750771D01*
X160520361Y-80750771D02*
X160472742Y-80798390D01*
X160472742Y-80798390D02*
X160425123Y-80893628D01*
X160425123Y-80893628D02*
X160425123Y-81179342D01*
X160425123Y-81179342D02*
X160472742Y-81274580D01*
X160472742Y-81274580D02*
X160520361Y-81322200D01*
X160520361Y-81322200D02*
X160615599Y-81369819D01*
X160615599Y-81369819D02*
X160806075Y-81369819D01*
X160806075Y-81369819D02*
X160901313Y-81322200D01*
X159853694Y-81369819D02*
X159948932Y-81322200D01*
X159948932Y-81322200D02*
X159996551Y-81274580D01*
X159996551Y-81274580D02*
X160044170Y-81179342D01*
X160044170Y-81179342D02*
X160044170Y-80893628D01*
X160044170Y-80893628D02*
X159996551Y-80798390D01*
X159996551Y-80798390D02*
X159948932Y-80750771D01*
X159948932Y-80750771D02*
X159853694Y-80703152D01*
X159853694Y-80703152D02*
X159710837Y-80703152D01*
X159710837Y-80703152D02*
X159615599Y-80750771D01*
X159615599Y-80750771D02*
X159567980Y-80798390D01*
X159567980Y-80798390D02*
X159520361Y-80893628D01*
X159520361Y-80893628D02*
X159520361Y-81179342D01*
X159520361Y-81179342D02*
X159567980Y-81274580D01*
X159567980Y-81274580D02*
X159615599Y-81322200D01*
X159615599Y-81322200D02*
X159710837Y-81369819D01*
X159710837Y-81369819D02*
X159853694Y-81369819D01*
X158663218Y-81369819D02*
X158663218Y-80846009D01*
X158663218Y-80846009D02*
X158710837Y-80750771D01*
X158710837Y-80750771D02*
X158806075Y-80703152D01*
X158806075Y-80703152D02*
X158996551Y-80703152D01*
X158996551Y-80703152D02*
X159091789Y-80750771D01*
X158663218Y-81322200D02*
X158758456Y-81369819D01*
X158758456Y-81369819D02*
X158996551Y-81369819D01*
X158996551Y-81369819D02*
X159091789Y-81322200D01*
X159091789Y-81322200D02*
X159139408Y-81226961D01*
X159139408Y-81226961D02*
X159139408Y-81131723D01*
X159139408Y-81131723D02*
X159091789Y-81036485D01*
X159091789Y-81036485D02*
X158996551Y-80988866D01*
X158996551Y-80988866D02*
X158758456Y-80988866D01*
X158758456Y-80988866D02*
X158663218Y-80941247D01*
X158187027Y-81369819D02*
X158187027Y-80703152D01*
X158187027Y-80893628D02*
X158139408Y-80798390D01*
X158139408Y-80798390D02*
X158091789Y-80750771D01*
X158091789Y-80750771D02*
X157996551Y-80703152D01*
X157996551Y-80703152D02*
X157901313Y-80703152D01*
X157139408Y-81369819D02*
X157139408Y-80369819D01*
X157139408Y-81322200D02*
X157234646Y-81369819D01*
X157234646Y-81369819D02*
X157425122Y-81369819D01*
X157425122Y-81369819D02*
X157520360Y-81322200D01*
X157520360Y-81322200D02*
X157567979Y-81274580D01*
X157567979Y-81274580D02*
X157615598Y-81179342D01*
X157615598Y-81179342D02*
X157615598Y-80893628D01*
X157615598Y-80893628D02*
X157567979Y-80798390D01*
X157567979Y-80798390D02*
X157520360Y-80750771D01*
X157520360Y-80750771D02*
X157425122Y-80703152D01*
X157425122Y-80703152D02*
X157234646Y-80703152D01*
X157234646Y-80703152D02*
X157139408Y-80750771D01*
D11*
X144445489Y-90800828D02*
X144445489Y-89300828D01*
X143731203Y-90800828D02*
X143731203Y-89300828D01*
X143731203Y-89300828D02*
X143231203Y-90372257D01*
X143231203Y-90372257D02*
X142731203Y-89300828D01*
X142731203Y-89300828D02*
X142731203Y-90800828D01*
X141945488Y-90800828D02*
X141659774Y-90800828D01*
X141659774Y-90800828D02*
X141516917Y-90729400D01*
X141516917Y-90729400D02*
X141445488Y-90657971D01*
X141445488Y-90657971D02*
X141302631Y-90443685D01*
X141302631Y-90443685D02*
X141231202Y-90157971D01*
X141231202Y-90157971D02*
X141231202Y-89586542D01*
X141231202Y-89586542D02*
X141302631Y-89443685D01*
X141302631Y-89443685D02*
X141374060Y-89372257D01*
X141374060Y-89372257D02*
X141516917Y-89300828D01*
X141516917Y-89300828D02*
X141802631Y-89300828D01*
X141802631Y-89300828D02*
X141945488Y-89372257D01*
X141945488Y-89372257D02*
X142016917Y-89443685D01*
X142016917Y-89443685D02*
X142088345Y-89586542D01*
X142088345Y-89586542D02*
X142088345Y-89943685D01*
X142088345Y-89943685D02*
X142016917Y-90086542D01*
X142016917Y-90086542D02*
X141945488Y-90157971D01*
X141945488Y-90157971D02*
X141802631Y-90229400D01*
X141802631Y-90229400D02*
X141516917Y-90229400D01*
X141516917Y-90229400D02*
X141374060Y-90157971D01*
X141374060Y-90157971D02*
X141302631Y-90086542D01*
X141302631Y-90086542D02*
X141231202Y-89943685D01*
X140659774Y-89443685D02*
X140588346Y-89372257D01*
X140588346Y-89372257D02*
X140445489Y-89300828D01*
X140445489Y-89300828D02*
X140088346Y-89300828D01*
X140088346Y-89300828D02*
X139945489Y-89372257D01*
X139945489Y-89372257D02*
X139874060Y-89443685D01*
X139874060Y-89443685D02*
X139802631Y-89586542D01*
X139802631Y-89586542D02*
X139802631Y-89729400D01*
X139802631Y-89729400D02*
X139874060Y-89943685D01*
X139874060Y-89943685D02*
X140731203Y-90800828D01*
X140731203Y-90800828D02*
X139802631Y-90800828D01*
X138874060Y-89300828D02*
X138731203Y-89300828D01*
X138731203Y-89300828D02*
X138588346Y-89372257D01*
X138588346Y-89372257D02*
X138516918Y-89443685D01*
X138516918Y-89443685D02*
X138445489Y-89586542D01*
X138445489Y-89586542D02*
X138374060Y-89872257D01*
X138374060Y-89872257D02*
X138374060Y-90229400D01*
X138374060Y-90229400D02*
X138445489Y-90515114D01*
X138445489Y-90515114D02*
X138516918Y-90657971D01*
X138516918Y-90657971D02*
X138588346Y-90729400D01*
X138588346Y-90729400D02*
X138731203Y-90800828D01*
X138731203Y-90800828D02*
X138874060Y-90800828D01*
X138874060Y-90800828D02*
X139016918Y-90729400D01*
X139016918Y-90729400D02*
X139088346Y-90657971D01*
X139088346Y-90657971D02*
X139159775Y-90515114D01*
X139159775Y-90515114D02*
X139231203Y-90229400D01*
X139231203Y-90229400D02*
X139231203Y-89872257D01*
X139231203Y-89872257D02*
X139159775Y-89586542D01*
X139159775Y-89586542D02*
X139088346Y-89443685D01*
X139088346Y-89443685D02*
X139016918Y-89372257D01*
X139016918Y-89372257D02*
X138874060Y-89300828D01*
X136588347Y-90800828D02*
X136588347Y-89300828D01*
X135588346Y-89300828D02*
X135302632Y-89300828D01*
X135302632Y-89300828D02*
X135159775Y-89372257D01*
X135159775Y-89372257D02*
X135016918Y-89515114D01*
X135016918Y-89515114D02*
X134945489Y-89800828D01*
X134945489Y-89800828D02*
X134945489Y-90300828D01*
X134945489Y-90300828D02*
X135016918Y-90586542D01*
X135016918Y-90586542D02*
X135159775Y-90729400D01*
X135159775Y-90729400D02*
X135302632Y-90800828D01*
X135302632Y-90800828D02*
X135588346Y-90800828D01*
X135588346Y-90800828D02*
X135731204Y-90729400D01*
X135731204Y-90729400D02*
X135874061Y-90586542D01*
X135874061Y-90586542D02*
X135945489Y-90300828D01*
X135945489Y-90300828D02*
X135945489Y-89800828D01*
X135945489Y-89800828D02*
X135874061Y-89515114D01*
X135874061Y-89515114D02*
X135731204Y-89372257D01*
X135731204Y-89372257D02*
X135588346Y-89300828D01*
X175826441Y-79739638D02*
X175826441Y-77739638D01*
X175826441Y-77739638D02*
X175064536Y-77739638D01*
X175064536Y-77739638D02*
X174874060Y-77834876D01*
X174874060Y-77834876D02*
X174778822Y-77930114D01*
X174778822Y-77930114D02*
X174683584Y-78120590D01*
X174683584Y-78120590D02*
X174683584Y-78406304D01*
X174683584Y-78406304D02*
X174778822Y-78596780D01*
X174778822Y-78596780D02*
X174874060Y-78692019D01*
X174874060Y-78692019D02*
X175064536Y-78787257D01*
X175064536Y-78787257D02*
X175826441Y-78787257D01*
X174016917Y-77739638D02*
X173540727Y-79739638D01*
X173540727Y-79739638D02*
X173159774Y-78311066D01*
X173159774Y-78311066D02*
X172778822Y-79739638D01*
X172778822Y-79739638D02*
X172302632Y-77739638D01*
X171540727Y-78977733D02*
X170016918Y-78977733D01*
X169255013Y-77739638D02*
X168016918Y-77739638D01*
X168016918Y-77739638D02*
X168683585Y-78501542D01*
X168683585Y-78501542D02*
X168397870Y-78501542D01*
X168397870Y-78501542D02*
X168207394Y-78596780D01*
X168207394Y-78596780D02*
X168112156Y-78692019D01*
X168112156Y-78692019D02*
X168016918Y-78882495D01*
X168016918Y-78882495D02*
X168016918Y-79358685D01*
X168016918Y-79358685D02*
X168112156Y-79549161D01*
X168112156Y-79549161D02*
X168207394Y-79644400D01*
X168207394Y-79644400D02*
X168397870Y-79739638D01*
X168397870Y-79739638D02*
X168969299Y-79739638D01*
X168969299Y-79739638D02*
X169159775Y-79644400D01*
X169159775Y-79644400D02*
X169255013Y-79549161D01*
X167159775Y-78977733D02*
X165635966Y-78977733D01*
X164683585Y-79739638D02*
X164683585Y-78406304D01*
X164683585Y-78596780D02*
X164588347Y-78501542D01*
X164588347Y-78501542D02*
X164397871Y-78406304D01*
X164397871Y-78406304D02*
X164112156Y-78406304D01*
X164112156Y-78406304D02*
X163921680Y-78501542D01*
X163921680Y-78501542D02*
X163826442Y-78692019D01*
X163826442Y-78692019D02*
X163826442Y-79739638D01*
X163826442Y-78692019D02*
X163731204Y-78501542D01*
X163731204Y-78501542D02*
X163540728Y-78406304D01*
X163540728Y-78406304D02*
X163255014Y-78406304D01*
X163255014Y-78406304D02*
X163064537Y-78501542D01*
X163064537Y-78501542D02*
X162969299Y-78692019D01*
X162969299Y-78692019D02*
X162969299Y-79739638D01*
X162016918Y-79739638D02*
X162016918Y-78406304D01*
X162016918Y-77739638D02*
X162112156Y-77834876D01*
X162112156Y-77834876D02*
X162016918Y-77930114D01*
X162016918Y-77930114D02*
X161921680Y-77834876D01*
X161921680Y-77834876D02*
X162016918Y-77739638D01*
X162016918Y-77739638D02*
X162016918Y-77930114D01*
X161064537Y-78406304D02*
X161064537Y-79739638D01*
X161064537Y-78596780D02*
X160969299Y-78501542D01*
X160969299Y-78501542D02*
X160778823Y-78406304D01*
X160778823Y-78406304D02*
X160493108Y-78406304D01*
X160493108Y-78406304D02*
X160302632Y-78501542D01*
X160302632Y-78501542D02*
X160207394Y-78692019D01*
X160207394Y-78692019D02*
X160207394Y-79739638D01*
X159255013Y-79739638D02*
X159255013Y-78406304D01*
X159255013Y-77739638D02*
X159350251Y-77834876D01*
X159350251Y-77834876D02*
X159255013Y-77930114D01*
X159255013Y-77930114D02*
X159159775Y-77834876D01*
X159159775Y-77834876D02*
X159255013Y-77739638D01*
X159255013Y-77739638D02*
X159255013Y-77930114D01*
X158397870Y-77930114D02*
X158302632Y-77834876D01*
X158302632Y-77834876D02*
X158112156Y-77739638D01*
X158112156Y-77739638D02*
X157635965Y-77739638D01*
X157635965Y-77739638D02*
X157445489Y-77834876D01*
X157445489Y-77834876D02*
X157350251Y-77930114D01*
X157350251Y-77930114D02*
X157255013Y-78120590D01*
X157255013Y-78120590D02*
X157255013Y-78311066D01*
X157255013Y-78311066D02*
X157350251Y-78596780D01*
X157350251Y-78596780D02*
X158493108Y-79739638D01*
X158493108Y-79739638D02*
X157255013Y-79739638D01*
X156874061Y-79930114D02*
X155350251Y-79930114D01*
X155064536Y-78406304D02*
X154588346Y-79739638D01*
X154588346Y-79739638D02*
X154112155Y-78406304D01*
X152302631Y-79739638D02*
X153445488Y-79739638D01*
X152874060Y-79739638D02*
X152874060Y-77739638D01*
X152874060Y-77739638D02*
X153064536Y-78025352D01*
X153064536Y-78025352D02*
X153255012Y-78215828D01*
X153255012Y-78215828D02*
X153445488Y-78311066D01*
D10*
X173738094Y-84259875D02*
X173738094Y-83259875D01*
X173309523Y-84259875D02*
X173309523Y-83736065D01*
X173309523Y-83736065D02*
X173357142Y-83640827D01*
X173357142Y-83640827D02*
X173452380Y-83593208D01*
X173452380Y-83593208D02*
X173595237Y-83593208D01*
X173595237Y-83593208D02*
X173690475Y-83640827D01*
X173690475Y-83640827D02*
X173738094Y-83688446D01*
X172976189Y-83593208D02*
X172595237Y-83593208D01*
X172833332Y-83259875D02*
X172833332Y-84117017D01*
X172833332Y-84117017D02*
X172785713Y-84212256D01*
X172785713Y-84212256D02*
X172690475Y-84259875D01*
X172690475Y-84259875D02*
X172595237Y-84259875D01*
X172404760Y-83593208D02*
X172023808Y-83593208D01*
X172261903Y-83259875D02*
X172261903Y-84117017D01*
X172261903Y-84117017D02*
X172214284Y-84212256D01*
X172214284Y-84212256D02*
X172119046Y-84259875D01*
X172119046Y-84259875D02*
X172023808Y-84259875D01*
X171690474Y-83593208D02*
X171690474Y-84593208D01*
X171690474Y-83640827D02*
X171595236Y-83593208D01*
X171595236Y-83593208D02*
X171404760Y-83593208D01*
X171404760Y-83593208D02*
X171309522Y-83640827D01*
X171309522Y-83640827D02*
X171261903Y-83688446D01*
X171261903Y-83688446D02*
X171214284Y-83783684D01*
X171214284Y-83783684D02*
X171214284Y-84069398D01*
X171214284Y-84069398D02*
X171261903Y-84164636D01*
X171261903Y-84164636D02*
X171309522Y-84212256D01*
X171309522Y-84212256D02*
X171404760Y-84259875D01*
X171404760Y-84259875D02*
X171595236Y-84259875D01*
X171595236Y-84259875D02*
X171690474Y-84212256D01*
X170833331Y-84212256D02*
X170738093Y-84259875D01*
X170738093Y-84259875D02*
X170547617Y-84259875D01*
X170547617Y-84259875D02*
X170452379Y-84212256D01*
X170452379Y-84212256D02*
X170404760Y-84117017D01*
X170404760Y-84117017D02*
X170404760Y-84069398D01*
X170404760Y-84069398D02*
X170452379Y-83974160D01*
X170452379Y-83974160D02*
X170547617Y-83926541D01*
X170547617Y-83926541D02*
X170690474Y-83926541D01*
X170690474Y-83926541D02*
X170785712Y-83878922D01*
X170785712Y-83878922D02*
X170833331Y-83783684D01*
X170833331Y-83783684D02*
X170833331Y-83736065D01*
X170833331Y-83736065D02*
X170785712Y-83640827D01*
X170785712Y-83640827D02*
X170690474Y-83593208D01*
X170690474Y-83593208D02*
X170547617Y-83593208D01*
X170547617Y-83593208D02*
X170452379Y-83640827D01*
X169976188Y-84164636D02*
X169928569Y-84212256D01*
X169928569Y-84212256D02*
X169976188Y-84259875D01*
X169976188Y-84259875D02*
X170023807Y-84212256D01*
X170023807Y-84212256D02*
X169976188Y-84164636D01*
X169976188Y-84164636D02*
X169976188Y-84259875D01*
X169976188Y-83640827D02*
X169928569Y-83688446D01*
X169928569Y-83688446D02*
X169976188Y-83736065D01*
X169976188Y-83736065D02*
X170023807Y-83688446D01*
X170023807Y-83688446D02*
X169976188Y-83640827D01*
X169976188Y-83640827D02*
X169976188Y-83736065D01*
X168785713Y-83212256D02*
X169642855Y-84497970D01*
X167738094Y-83212256D02*
X168595236Y-84497970D01*
X166976189Y-83593208D02*
X166976189Y-84402732D01*
X166976189Y-84402732D02*
X167023808Y-84497970D01*
X167023808Y-84497970D02*
X167071427Y-84545589D01*
X167071427Y-84545589D02*
X167166665Y-84593208D01*
X167166665Y-84593208D02*
X167309522Y-84593208D01*
X167309522Y-84593208D02*
X167404760Y-84545589D01*
X166976189Y-84212256D02*
X167071427Y-84259875D01*
X167071427Y-84259875D02*
X167261903Y-84259875D01*
X167261903Y-84259875D02*
X167357141Y-84212256D01*
X167357141Y-84212256D02*
X167404760Y-84164636D01*
X167404760Y-84164636D02*
X167452379Y-84069398D01*
X167452379Y-84069398D02*
X167452379Y-83783684D01*
X167452379Y-83783684D02*
X167404760Y-83688446D01*
X167404760Y-83688446D02*
X167357141Y-83640827D01*
X167357141Y-83640827D02*
X167261903Y-83593208D01*
X167261903Y-83593208D02*
X167071427Y-83593208D01*
X167071427Y-83593208D02*
X166976189Y-83640827D01*
X166499998Y-84259875D02*
X166499998Y-83593208D01*
X166499998Y-83259875D02*
X166547617Y-83307494D01*
X166547617Y-83307494D02*
X166499998Y-83355113D01*
X166499998Y-83355113D02*
X166452379Y-83307494D01*
X166452379Y-83307494D02*
X166499998Y-83259875D01*
X166499998Y-83259875D02*
X166499998Y-83355113D01*
X166166665Y-83593208D02*
X165785713Y-83593208D01*
X166023808Y-83259875D02*
X166023808Y-84117017D01*
X166023808Y-84117017D02*
X165976189Y-84212256D01*
X165976189Y-84212256D02*
X165880951Y-84259875D01*
X165880951Y-84259875D02*
X165785713Y-84259875D01*
X165452379Y-84259875D02*
X165452379Y-83259875D01*
X165023808Y-84259875D02*
X165023808Y-83736065D01*
X165023808Y-83736065D02*
X165071427Y-83640827D01*
X165071427Y-83640827D02*
X165166665Y-83593208D01*
X165166665Y-83593208D02*
X165309522Y-83593208D01*
X165309522Y-83593208D02*
X165404760Y-83640827D01*
X165404760Y-83640827D02*
X165452379Y-83688446D01*
X164119046Y-83593208D02*
X164119046Y-84259875D01*
X164547617Y-83593208D02*
X164547617Y-84117017D01*
X164547617Y-84117017D02*
X164499998Y-84212256D01*
X164499998Y-84212256D02*
X164404760Y-84259875D01*
X164404760Y-84259875D02*
X164261903Y-84259875D01*
X164261903Y-84259875D02*
X164166665Y-84212256D01*
X164166665Y-84212256D02*
X164119046Y-84164636D01*
X163642855Y-84259875D02*
X163642855Y-83259875D01*
X163642855Y-83640827D02*
X163547617Y-83593208D01*
X163547617Y-83593208D02*
X163357141Y-83593208D01*
X163357141Y-83593208D02*
X163261903Y-83640827D01*
X163261903Y-83640827D02*
X163214284Y-83688446D01*
X163214284Y-83688446D02*
X163166665Y-83783684D01*
X163166665Y-83783684D02*
X163166665Y-84069398D01*
X163166665Y-84069398D02*
X163214284Y-84164636D01*
X163214284Y-84164636D02*
X163261903Y-84212256D01*
X163261903Y-84212256D02*
X163357141Y-84259875D01*
X163357141Y-84259875D02*
X163547617Y-84259875D01*
X163547617Y-84259875D02*
X163642855Y-84212256D01*
X162738093Y-84164636D02*
X162690474Y-84212256D01*
X162690474Y-84212256D02*
X162738093Y-84259875D01*
X162738093Y-84259875D02*
X162785712Y-84212256D01*
X162785712Y-84212256D02*
X162738093Y-84164636D01*
X162738093Y-84164636D02*
X162738093Y-84259875D01*
X161833332Y-84212256D02*
X161928570Y-84259875D01*
X161928570Y-84259875D02*
X162119046Y-84259875D01*
X162119046Y-84259875D02*
X162214284Y-84212256D01*
X162214284Y-84212256D02*
X162261903Y-84164636D01*
X162261903Y-84164636D02*
X162309522Y-84069398D01*
X162309522Y-84069398D02*
X162309522Y-83783684D01*
X162309522Y-83783684D02*
X162261903Y-83688446D01*
X162261903Y-83688446D02*
X162214284Y-83640827D01*
X162214284Y-83640827D02*
X162119046Y-83593208D01*
X162119046Y-83593208D02*
X161928570Y-83593208D01*
X161928570Y-83593208D02*
X161833332Y-83640827D01*
X161261903Y-84259875D02*
X161357141Y-84212256D01*
X161357141Y-84212256D02*
X161404760Y-84164636D01*
X161404760Y-84164636D02*
X161452379Y-84069398D01*
X161452379Y-84069398D02*
X161452379Y-83783684D01*
X161452379Y-83783684D02*
X161404760Y-83688446D01*
X161404760Y-83688446D02*
X161357141Y-83640827D01*
X161357141Y-83640827D02*
X161261903Y-83593208D01*
X161261903Y-83593208D02*
X161119046Y-83593208D01*
X161119046Y-83593208D02*
X161023808Y-83640827D01*
X161023808Y-83640827D02*
X160976189Y-83688446D01*
X160976189Y-83688446D02*
X160928570Y-83783684D01*
X160928570Y-83783684D02*
X160928570Y-84069398D01*
X160928570Y-84069398D02*
X160976189Y-84164636D01*
X160976189Y-84164636D02*
X161023808Y-84212256D01*
X161023808Y-84212256D02*
X161119046Y-84259875D01*
X161119046Y-84259875D02*
X161261903Y-84259875D01*
X160499998Y-84259875D02*
X160499998Y-83593208D01*
X160499998Y-83688446D02*
X160452379Y-83640827D01*
X160452379Y-83640827D02*
X160357141Y-83593208D01*
X160357141Y-83593208D02*
X160214284Y-83593208D01*
X160214284Y-83593208D02*
X160119046Y-83640827D01*
X160119046Y-83640827D02*
X160071427Y-83736065D01*
X160071427Y-83736065D02*
X160071427Y-84259875D01*
X160071427Y-83736065D02*
X160023808Y-83640827D01*
X160023808Y-83640827D02*
X159928570Y-83593208D01*
X159928570Y-83593208D02*
X159785713Y-83593208D01*
X159785713Y-83593208D02*
X159690474Y-83640827D01*
X159690474Y-83640827D02*
X159642855Y-83736065D01*
X159642855Y-83736065D02*
X159642855Y-84259875D01*
X158452380Y-83212256D02*
X159309522Y-84497970D01*
X158119046Y-84259875D02*
X158119046Y-83593208D01*
X158119046Y-83259875D02*
X158166665Y-83307494D01*
X158166665Y-83307494D02*
X158119046Y-83355113D01*
X158119046Y-83355113D02*
X158071427Y-83307494D01*
X158071427Y-83307494D02*
X158119046Y-83259875D01*
X158119046Y-83259875D02*
X158119046Y-83355113D01*
X157214285Y-83593208D02*
X157214285Y-84402732D01*
X157214285Y-84402732D02*
X157261904Y-84497970D01*
X157261904Y-84497970D02*
X157309523Y-84545589D01*
X157309523Y-84545589D02*
X157404761Y-84593208D01*
X157404761Y-84593208D02*
X157547618Y-84593208D01*
X157547618Y-84593208D02*
X157642856Y-84545589D01*
X157214285Y-84212256D02*
X157309523Y-84259875D01*
X157309523Y-84259875D02*
X157499999Y-84259875D01*
X157499999Y-84259875D02*
X157595237Y-84212256D01*
X157595237Y-84212256D02*
X157642856Y-84164636D01*
X157642856Y-84164636D02*
X157690475Y-84069398D01*
X157690475Y-84069398D02*
X157690475Y-83783684D01*
X157690475Y-83783684D02*
X157642856Y-83688446D01*
X157642856Y-83688446D02*
X157595237Y-83640827D01*
X157595237Y-83640827D02*
X157499999Y-83593208D01*
X157499999Y-83593208D02*
X157309523Y-83593208D01*
X157309523Y-83593208D02*
X157214285Y-83640827D01*
X156595237Y-84259875D02*
X156690475Y-84212256D01*
X156690475Y-84212256D02*
X156738094Y-84164636D01*
X156738094Y-84164636D02*
X156785713Y-84069398D01*
X156785713Y-84069398D02*
X156785713Y-83783684D01*
X156785713Y-83783684D02*
X156738094Y-83688446D01*
X156738094Y-83688446D02*
X156690475Y-83640827D01*
X156690475Y-83640827D02*
X156595237Y-83593208D01*
X156595237Y-83593208D02*
X156452380Y-83593208D01*
X156452380Y-83593208D02*
X156357142Y-83640827D01*
X156357142Y-83640827D02*
X156309523Y-83688446D01*
X156309523Y-83688446D02*
X156261904Y-83783684D01*
X156261904Y-83783684D02*
X156261904Y-84069398D01*
X156261904Y-84069398D02*
X156309523Y-84164636D01*
X156309523Y-84164636D02*
X156357142Y-84212256D01*
X156357142Y-84212256D02*
X156452380Y-84259875D01*
X156452380Y-84259875D02*
X156595237Y-84259875D01*
X155833332Y-84259875D02*
X155833332Y-83593208D01*
X155833332Y-83783684D02*
X155785713Y-83688446D01*
X155785713Y-83688446D02*
X155738094Y-83640827D01*
X155738094Y-83640827D02*
X155642856Y-83593208D01*
X155642856Y-83593208D02*
X155547618Y-83593208D01*
X155214284Y-84259875D02*
X155214284Y-83593208D01*
X155214284Y-83259875D02*
X155261903Y-83307494D01*
X155261903Y-83307494D02*
X155214284Y-83355113D01*
X155214284Y-83355113D02*
X155166665Y-83307494D01*
X155166665Y-83307494D02*
X155214284Y-83259875D01*
X155214284Y-83259875D02*
X155214284Y-83355113D01*
X154261904Y-83259875D02*
X154738094Y-83259875D01*
X154738094Y-83259875D02*
X154785713Y-83736065D01*
X154785713Y-83736065D02*
X154738094Y-83688446D01*
X154738094Y-83688446D02*
X154642856Y-83640827D01*
X154642856Y-83640827D02*
X154404761Y-83640827D01*
X154404761Y-83640827D02*
X154309523Y-83688446D01*
X154309523Y-83688446D02*
X154261904Y-83736065D01*
X154261904Y-83736065D02*
X154214285Y-83831303D01*
X154214285Y-83831303D02*
X154214285Y-84069398D01*
X154214285Y-84069398D02*
X154261904Y-84164636D01*
X154261904Y-84164636D02*
X154309523Y-84212256D01*
X154309523Y-84212256D02*
X154404761Y-84259875D01*
X154404761Y-84259875D02*
X154642856Y-84259875D01*
X154642856Y-84259875D02*
X154738094Y-84212256D01*
X154738094Y-84212256D02*
X154785713Y-84164636D01*
X169904761Y-84822200D02*
X170761903Y-86107914D01*
X169571427Y-85869819D02*
X169571427Y-84869819D01*
X169571427Y-84869819D02*
X169190475Y-84869819D01*
X169190475Y-84869819D02*
X169095237Y-84917438D01*
X169095237Y-84917438D02*
X169047618Y-84965057D01*
X169047618Y-84965057D02*
X168999999Y-85060295D01*
X168999999Y-85060295D02*
X168999999Y-85203152D01*
X168999999Y-85203152D02*
X169047618Y-85298390D01*
X169047618Y-85298390D02*
X169095237Y-85346009D01*
X169095237Y-85346009D02*
X169190475Y-85393628D01*
X169190475Y-85393628D02*
X169571427Y-85393628D01*
X168666665Y-84869819D02*
X168428570Y-85869819D01*
X168428570Y-85869819D02*
X168238094Y-85155533D01*
X168238094Y-85155533D02*
X168047618Y-85869819D01*
X168047618Y-85869819D02*
X167809523Y-84869819D01*
X167428570Y-85488866D02*
X166666666Y-85488866D01*
X166285713Y-84869819D02*
X165666666Y-84869819D01*
X165666666Y-84869819D02*
X165999999Y-85250771D01*
X165999999Y-85250771D02*
X165857142Y-85250771D01*
X165857142Y-85250771D02*
X165761904Y-85298390D01*
X165761904Y-85298390D02*
X165714285Y-85346009D01*
X165714285Y-85346009D02*
X165666666Y-85441247D01*
X165666666Y-85441247D02*
X165666666Y-85679342D01*
X165666666Y-85679342D02*
X165714285Y-85774580D01*
X165714285Y-85774580D02*
X165761904Y-85822200D01*
X165761904Y-85822200D02*
X165857142Y-85869819D01*
X165857142Y-85869819D02*
X166142856Y-85869819D01*
X166142856Y-85869819D02*
X166238094Y-85822200D01*
X166238094Y-85822200D02*
X166285713Y-85774580D01*
X165238094Y-85488866D02*
X164476190Y-85488866D01*
X163999999Y-85869819D02*
X163999999Y-85203152D01*
X163999999Y-85298390D02*
X163952380Y-85250771D01*
X163952380Y-85250771D02*
X163857142Y-85203152D01*
X163857142Y-85203152D02*
X163714285Y-85203152D01*
X163714285Y-85203152D02*
X163619047Y-85250771D01*
X163619047Y-85250771D02*
X163571428Y-85346009D01*
X163571428Y-85346009D02*
X163571428Y-85869819D01*
X163571428Y-85346009D02*
X163523809Y-85250771D01*
X163523809Y-85250771D02*
X163428571Y-85203152D01*
X163428571Y-85203152D02*
X163285714Y-85203152D01*
X163285714Y-85203152D02*
X163190475Y-85250771D01*
X163190475Y-85250771D02*
X163142856Y-85346009D01*
X163142856Y-85346009D02*
X163142856Y-85869819D01*
X162666666Y-85869819D02*
X162666666Y-85203152D01*
X162666666Y-84869819D02*
X162714285Y-84917438D01*
X162714285Y-84917438D02*
X162666666Y-84965057D01*
X162666666Y-84965057D02*
X162619047Y-84917438D01*
X162619047Y-84917438D02*
X162666666Y-84869819D01*
X162666666Y-84869819D02*
X162666666Y-84965057D01*
X162190476Y-85203152D02*
X162190476Y-85869819D01*
X162190476Y-85298390D02*
X162142857Y-85250771D01*
X162142857Y-85250771D02*
X162047619Y-85203152D01*
X162047619Y-85203152D02*
X161904762Y-85203152D01*
X161904762Y-85203152D02*
X161809524Y-85250771D01*
X161809524Y-85250771D02*
X161761905Y-85346009D01*
X161761905Y-85346009D02*
X161761905Y-85869819D01*
X161285714Y-85869819D02*
X161285714Y-85203152D01*
X161285714Y-84869819D02*
X161333333Y-84917438D01*
X161333333Y-84917438D02*
X161285714Y-84965057D01*
X161285714Y-84965057D02*
X161238095Y-84917438D01*
X161238095Y-84917438D02*
X161285714Y-84869819D01*
X161285714Y-84869819D02*
X161285714Y-84965057D01*
X160857143Y-84965057D02*
X160809524Y-84917438D01*
X160809524Y-84917438D02*
X160714286Y-84869819D01*
X160714286Y-84869819D02*
X160476191Y-84869819D01*
X160476191Y-84869819D02*
X160380953Y-84917438D01*
X160380953Y-84917438D02*
X160333334Y-84965057D01*
X160333334Y-84965057D02*
X160285715Y-85060295D01*
X160285715Y-85060295D02*
X160285715Y-85155533D01*
X160285715Y-85155533D02*
X160333334Y-85298390D01*
X160333334Y-85298390D02*
X160904762Y-85869819D01*
X160904762Y-85869819D02*
X160285715Y-85869819D01*
X159857143Y-85488866D02*
X159095239Y-85488866D01*
X158714286Y-85203152D02*
X158476191Y-85869819D01*
X158476191Y-85869819D02*
X158238096Y-85203152D01*
X157333334Y-85869819D02*
X157904762Y-85869819D01*
X157619048Y-85869819D02*
X157619048Y-84869819D01*
X157619048Y-84869819D02*
X157714286Y-85012676D01*
X157714286Y-85012676D02*
X157809524Y-85107914D01*
X157809524Y-85107914D02*
X157904762Y-85155533D01*
X170663220Y-82869819D02*
X170663220Y-81869819D01*
X170663220Y-81869819D02*
X170425125Y-81869819D01*
X170425125Y-81869819D02*
X170282268Y-81917438D01*
X170282268Y-81917438D02*
X170187030Y-82012676D01*
X170187030Y-82012676D02*
X170139411Y-82107914D01*
X170139411Y-82107914D02*
X170091792Y-82298390D01*
X170091792Y-82298390D02*
X170091792Y-82441247D01*
X170091792Y-82441247D02*
X170139411Y-82631723D01*
X170139411Y-82631723D02*
X170187030Y-82726961D01*
X170187030Y-82726961D02*
X170282268Y-82822200D01*
X170282268Y-82822200D02*
X170425125Y-82869819D01*
X170425125Y-82869819D02*
X170663220Y-82869819D01*
X169282268Y-82822200D02*
X169377506Y-82869819D01*
X169377506Y-82869819D02*
X169567982Y-82869819D01*
X169567982Y-82869819D02*
X169663220Y-82822200D01*
X169663220Y-82822200D02*
X169710839Y-82726961D01*
X169710839Y-82726961D02*
X169710839Y-82346009D01*
X169710839Y-82346009D02*
X169663220Y-82250771D01*
X169663220Y-82250771D02*
X169567982Y-82203152D01*
X169567982Y-82203152D02*
X169377506Y-82203152D01*
X169377506Y-82203152D02*
X169282268Y-82250771D01*
X169282268Y-82250771D02*
X169234649Y-82346009D01*
X169234649Y-82346009D02*
X169234649Y-82441247D01*
X169234649Y-82441247D02*
X169710839Y-82536485D01*
X168853696Y-82822200D02*
X168758458Y-82869819D01*
X168758458Y-82869819D02*
X168567982Y-82869819D01*
X168567982Y-82869819D02*
X168472744Y-82822200D01*
X168472744Y-82822200D02*
X168425125Y-82726961D01*
X168425125Y-82726961D02*
X168425125Y-82679342D01*
X168425125Y-82679342D02*
X168472744Y-82584104D01*
X168472744Y-82584104D02*
X168567982Y-82536485D01*
X168567982Y-82536485D02*
X168710839Y-82536485D01*
X168710839Y-82536485D02*
X168806077Y-82488866D01*
X168806077Y-82488866D02*
X168853696Y-82393628D01*
X168853696Y-82393628D02*
X168853696Y-82346009D01*
X168853696Y-82346009D02*
X168806077Y-82250771D01*
X168806077Y-82250771D02*
X168710839Y-82203152D01*
X168710839Y-82203152D02*
X168567982Y-82203152D01*
X168567982Y-82203152D02*
X168472744Y-82250771D01*
X167996553Y-82869819D02*
X167996553Y-82203152D01*
X167996553Y-81869819D02*
X168044172Y-81917438D01*
X168044172Y-81917438D02*
X167996553Y-81965057D01*
X167996553Y-81965057D02*
X167948934Y-81917438D01*
X167948934Y-81917438D02*
X167996553Y-81869819D01*
X167996553Y-81869819D02*
X167996553Y-81965057D01*
X167091792Y-82203152D02*
X167091792Y-83012676D01*
X167091792Y-83012676D02*
X167139411Y-83107914D01*
X167139411Y-83107914D02*
X167187030Y-83155533D01*
X167187030Y-83155533D02*
X167282268Y-83203152D01*
X167282268Y-83203152D02*
X167425125Y-83203152D01*
X167425125Y-83203152D02*
X167520363Y-83155533D01*
X167091792Y-82822200D02*
X167187030Y-82869819D01*
X167187030Y-82869819D02*
X167377506Y-82869819D01*
X167377506Y-82869819D02*
X167472744Y-82822200D01*
X167472744Y-82822200D02*
X167520363Y-82774580D01*
X167520363Y-82774580D02*
X167567982Y-82679342D01*
X167567982Y-82679342D02*
X167567982Y-82393628D01*
X167567982Y-82393628D02*
X167520363Y-82298390D01*
X167520363Y-82298390D02*
X167472744Y-82250771D01*
X167472744Y-82250771D02*
X167377506Y-82203152D01*
X167377506Y-82203152D02*
X167187030Y-82203152D01*
X167187030Y-82203152D02*
X167091792Y-82250771D01*
X166615601Y-82203152D02*
X166615601Y-82869819D01*
X166615601Y-82298390D02*
X166567982Y-82250771D01*
X166567982Y-82250771D02*
X166472744Y-82203152D01*
X166472744Y-82203152D02*
X166329887Y-82203152D01*
X166329887Y-82203152D02*
X166234649Y-82250771D01*
X166234649Y-82250771D02*
X166187030Y-82346009D01*
X166187030Y-82346009D02*
X166187030Y-82869819D01*
X165329887Y-82822200D02*
X165425125Y-82869819D01*
X165425125Y-82869819D02*
X165615601Y-82869819D01*
X165615601Y-82869819D02*
X165710839Y-82822200D01*
X165710839Y-82822200D02*
X165758458Y-82726961D01*
X165758458Y-82726961D02*
X165758458Y-82346009D01*
X165758458Y-82346009D02*
X165710839Y-82250771D01*
X165710839Y-82250771D02*
X165615601Y-82203152D01*
X165615601Y-82203152D02*
X165425125Y-82203152D01*
X165425125Y-82203152D02*
X165329887Y-82250771D01*
X165329887Y-82250771D02*
X165282268Y-82346009D01*
X165282268Y-82346009D02*
X165282268Y-82441247D01*
X165282268Y-82441247D02*
X165758458Y-82536485D01*
X164425125Y-82869819D02*
X164425125Y-81869819D01*
X164425125Y-82822200D02*
X164520363Y-82869819D01*
X164520363Y-82869819D02*
X164710839Y-82869819D01*
X164710839Y-82869819D02*
X164806077Y-82822200D01*
X164806077Y-82822200D02*
X164853696Y-82774580D01*
X164853696Y-82774580D02*
X164901315Y-82679342D01*
X164901315Y-82679342D02*
X164901315Y-82393628D01*
X164901315Y-82393628D02*
X164853696Y-82298390D01*
X164853696Y-82298390D02*
X164806077Y-82250771D01*
X164806077Y-82250771D02*
X164710839Y-82203152D01*
X164710839Y-82203152D02*
X164520363Y-82203152D01*
X164520363Y-82203152D02*
X164425125Y-82250771D01*
X163187029Y-82869819D02*
X163187029Y-81869819D01*
X163187029Y-82250771D02*
X163091791Y-82203152D01*
X163091791Y-82203152D02*
X162901315Y-82203152D01*
X162901315Y-82203152D02*
X162806077Y-82250771D01*
X162806077Y-82250771D02*
X162758458Y-82298390D01*
X162758458Y-82298390D02*
X162710839Y-82393628D01*
X162710839Y-82393628D02*
X162710839Y-82679342D01*
X162710839Y-82679342D02*
X162758458Y-82774580D01*
X162758458Y-82774580D02*
X162806077Y-82822200D01*
X162806077Y-82822200D02*
X162901315Y-82869819D01*
X162901315Y-82869819D02*
X163091791Y-82869819D01*
X163091791Y-82869819D02*
X163187029Y-82822200D01*
X162377505Y-82203152D02*
X162139410Y-82869819D01*
X161901315Y-82203152D02*
X162139410Y-82869819D01*
X162139410Y-82869819D02*
X162234648Y-83107914D01*
X162234648Y-83107914D02*
X162282267Y-83155533D01*
X162282267Y-83155533D02*
X162377505Y-83203152D01*
X160758457Y-82869819D02*
X160758457Y-82203152D01*
X160758457Y-81869819D02*
X160806076Y-81917438D01*
X160806076Y-81917438D02*
X160758457Y-81965057D01*
X160758457Y-81965057D02*
X160710838Y-81917438D01*
X160710838Y-81917438D02*
X160758457Y-81869819D01*
X160758457Y-81869819D02*
X160758457Y-81965057D01*
X160282267Y-82203152D02*
X160282267Y-82869819D01*
X160282267Y-82298390D02*
X160234648Y-82250771D01*
X160234648Y-82250771D02*
X160139410Y-82203152D01*
X160139410Y-82203152D02*
X159996553Y-82203152D01*
X159996553Y-82203152D02*
X159901315Y-82250771D01*
X159901315Y-82250771D02*
X159853696Y-82346009D01*
X159853696Y-82346009D02*
X159853696Y-82869819D01*
X159520362Y-82203152D02*
X159139410Y-82203152D01*
X159377505Y-81869819D02*
X159377505Y-82726961D01*
X159377505Y-82726961D02*
X159329886Y-82822200D01*
X159329886Y-82822200D02*
X159234648Y-82869819D01*
X159234648Y-82869819D02*
X159139410Y-82869819D01*
X158425124Y-82822200D02*
X158520362Y-82869819D01*
X158520362Y-82869819D02*
X158710838Y-82869819D01*
X158710838Y-82869819D02*
X158806076Y-82822200D01*
X158806076Y-82822200D02*
X158853695Y-82726961D01*
X158853695Y-82726961D02*
X158853695Y-82346009D01*
X158853695Y-82346009D02*
X158806076Y-82250771D01*
X158806076Y-82250771D02*
X158710838Y-82203152D01*
X158710838Y-82203152D02*
X158520362Y-82203152D01*
X158520362Y-82203152D02*
X158425124Y-82250771D01*
X158425124Y-82250771D02*
X158377505Y-82346009D01*
X158377505Y-82346009D02*
X158377505Y-82441247D01*
X158377505Y-82441247D02*
X158853695Y-82536485D01*
X157806076Y-82869819D02*
X157901314Y-82822200D01*
X157901314Y-82822200D02*
X157948933Y-82726961D01*
X157948933Y-82726961D02*
X157948933Y-81869819D01*
X140833333Y-81204819D02*
X140833333Y-81919104D01*
X140833333Y-81919104D02*
X140880952Y-82061961D01*
X140880952Y-82061961D02*
X140976190Y-82157200D01*
X140976190Y-82157200D02*
X141119047Y-82204819D01*
X141119047Y-82204819D02*
X141214285Y-82204819D01*
X140357142Y-82204819D02*
X140357142Y-81204819D01*
X140357142Y-81204819D02*
X139976190Y-81204819D01*
X139976190Y-81204819D02*
X139880952Y-81252438D01*
X139880952Y-81252438D02*
X139833333Y-81300057D01*
X139833333Y-81300057D02*
X139785714Y-81395295D01*
X139785714Y-81395295D02*
X139785714Y-81538152D01*
X139785714Y-81538152D02*
X139833333Y-81633390D01*
X139833333Y-81633390D02*
X139880952Y-81681009D01*
X139880952Y-81681009D02*
X139976190Y-81728628D01*
X139976190Y-81728628D02*
X140357142Y-81728628D01*
X138880952Y-81204819D02*
X139357142Y-81204819D01*
X139357142Y-81204819D02*
X139404761Y-81681009D01*
X139404761Y-81681009D02*
X139357142Y-81633390D01*
X139357142Y-81633390D02*
X139261904Y-81585771D01*
X139261904Y-81585771D02*
X139023809Y-81585771D01*
X139023809Y-81585771D02*
X138928571Y-81633390D01*
X138928571Y-81633390D02*
X138880952Y-81681009D01*
X138880952Y-81681009D02*
X138833333Y-81776247D01*
X138833333Y-81776247D02*
X138833333Y-82014342D01*
X138833333Y-82014342D02*
X138880952Y-82109580D01*
X138880952Y-82109580D02*
X138928571Y-82157200D01*
X138928571Y-82157200D02*
X139023809Y-82204819D01*
X139023809Y-82204819D02*
X139261904Y-82204819D01*
X139261904Y-82204819D02*
X139357142Y-82157200D01*
X139357142Y-82157200D02*
X139404761Y-82109580D01*
X140833333Y-77704819D02*
X140833333Y-78419104D01*
X140833333Y-78419104D02*
X140880952Y-78561961D01*
X140880952Y-78561961D02*
X140976190Y-78657200D01*
X140976190Y-78657200D02*
X141119047Y-78704819D01*
X141119047Y-78704819D02*
X141214285Y-78704819D01*
X140357142Y-78704819D02*
X140357142Y-77704819D01*
X140357142Y-77704819D02*
X139976190Y-77704819D01*
X139976190Y-77704819D02*
X139880952Y-77752438D01*
X139880952Y-77752438D02*
X139833333Y-77800057D01*
X139833333Y-77800057D02*
X139785714Y-77895295D01*
X139785714Y-77895295D02*
X139785714Y-78038152D01*
X139785714Y-78038152D02*
X139833333Y-78133390D01*
X139833333Y-78133390D02*
X139880952Y-78181009D01*
X139880952Y-78181009D02*
X139976190Y-78228628D01*
X139976190Y-78228628D02*
X140357142Y-78228628D01*
X138928571Y-77704819D02*
X139119047Y-77704819D01*
X139119047Y-77704819D02*
X139214285Y-77752438D01*
X139214285Y-77752438D02*
X139261904Y-77800057D01*
X139261904Y-77800057D02*
X139357142Y-77942914D01*
X139357142Y-77942914D02*
X139404761Y-78133390D01*
X139404761Y-78133390D02*
X139404761Y-78514342D01*
X139404761Y-78514342D02*
X139357142Y-78609580D01*
X139357142Y-78609580D02*
X139309523Y-78657200D01*
X139309523Y-78657200D02*
X139214285Y-78704819D01*
X139214285Y-78704819D02*
X139023809Y-78704819D01*
X139023809Y-78704819D02*
X138928571Y-78657200D01*
X138928571Y-78657200D02*
X138880952Y-78609580D01*
X138880952Y-78609580D02*
X138833333Y-78514342D01*
X138833333Y-78514342D02*
X138833333Y-78276247D01*
X138833333Y-78276247D02*
X138880952Y-78181009D01*
X138880952Y-78181009D02*
X138928571Y-78133390D01*
X138928571Y-78133390D02*
X139023809Y-78085771D01*
X139023809Y-78085771D02*
X139214285Y-78085771D01*
X139214285Y-78085771D02*
X139309523Y-78133390D01*
X139309523Y-78133390D02*
X139357142Y-78181009D01*
X139357142Y-78181009D02*
X139404761Y-78276247D01*
X145083333Y-81204819D02*
X145083333Y-81919104D01*
X145083333Y-81919104D02*
X145130952Y-82061961D01*
X145130952Y-82061961D02*
X145226190Y-82157200D01*
X145226190Y-82157200D02*
X145369047Y-82204819D01*
X145369047Y-82204819D02*
X145464285Y-82204819D01*
X144607142Y-82204819D02*
X144607142Y-81204819D01*
X144607142Y-81204819D02*
X144226190Y-81204819D01*
X144226190Y-81204819D02*
X144130952Y-81252438D01*
X144130952Y-81252438D02*
X144083333Y-81300057D01*
X144083333Y-81300057D02*
X144035714Y-81395295D01*
X144035714Y-81395295D02*
X144035714Y-81538152D01*
X144035714Y-81538152D02*
X144083333Y-81633390D01*
X144083333Y-81633390D02*
X144130952Y-81681009D01*
X144130952Y-81681009D02*
X144226190Y-81728628D01*
X144226190Y-81728628D02*
X144607142Y-81728628D01*
X143464285Y-81633390D02*
X143559523Y-81585771D01*
X143559523Y-81585771D02*
X143607142Y-81538152D01*
X143607142Y-81538152D02*
X143654761Y-81442914D01*
X143654761Y-81442914D02*
X143654761Y-81395295D01*
X143654761Y-81395295D02*
X143607142Y-81300057D01*
X143607142Y-81300057D02*
X143559523Y-81252438D01*
X143559523Y-81252438D02*
X143464285Y-81204819D01*
X143464285Y-81204819D02*
X143273809Y-81204819D01*
X143273809Y-81204819D02*
X143178571Y-81252438D01*
X143178571Y-81252438D02*
X143130952Y-81300057D01*
X143130952Y-81300057D02*
X143083333Y-81395295D01*
X143083333Y-81395295D02*
X143083333Y-81442914D01*
X143083333Y-81442914D02*
X143130952Y-81538152D01*
X143130952Y-81538152D02*
X143178571Y-81585771D01*
X143178571Y-81585771D02*
X143273809Y-81633390D01*
X143273809Y-81633390D02*
X143464285Y-81633390D01*
X143464285Y-81633390D02*
X143559523Y-81681009D01*
X143559523Y-81681009D02*
X143607142Y-81728628D01*
X143607142Y-81728628D02*
X143654761Y-81823866D01*
X143654761Y-81823866D02*
X143654761Y-82014342D01*
X143654761Y-82014342D02*
X143607142Y-82109580D01*
X143607142Y-82109580D02*
X143559523Y-82157200D01*
X143559523Y-82157200D02*
X143464285Y-82204819D01*
X143464285Y-82204819D02*
X143273809Y-82204819D01*
X143273809Y-82204819D02*
X143178571Y-82157200D01*
X143178571Y-82157200D02*
X143130952Y-82109580D01*
X143130952Y-82109580D02*
X143083333Y-82014342D01*
X143083333Y-82014342D02*
X143083333Y-81823866D01*
X143083333Y-81823866D02*
X143130952Y-81728628D01*
X143130952Y-81728628D02*
X143178571Y-81681009D01*
X143178571Y-81681009D02*
X143273809Y-81633390D01*
X140833333Y-84704819D02*
X140833333Y-85419104D01*
X140833333Y-85419104D02*
X140880952Y-85561961D01*
X140880952Y-85561961D02*
X140976190Y-85657200D01*
X140976190Y-85657200D02*
X141119047Y-85704819D01*
X141119047Y-85704819D02*
X141214285Y-85704819D01*
X140357142Y-85704819D02*
X140357142Y-84704819D01*
X140357142Y-84704819D02*
X139976190Y-84704819D01*
X139976190Y-84704819D02*
X139880952Y-84752438D01*
X139880952Y-84752438D02*
X139833333Y-84800057D01*
X139833333Y-84800057D02*
X139785714Y-84895295D01*
X139785714Y-84895295D02*
X139785714Y-85038152D01*
X139785714Y-85038152D02*
X139833333Y-85133390D01*
X139833333Y-85133390D02*
X139880952Y-85181009D01*
X139880952Y-85181009D02*
X139976190Y-85228628D01*
X139976190Y-85228628D02*
X140357142Y-85228628D01*
X138928571Y-85038152D02*
X138928571Y-85704819D01*
X139166666Y-84657200D02*
X139404761Y-85371485D01*
X139404761Y-85371485D02*
X138785714Y-85371485D01*
X145083333Y-77704819D02*
X145083333Y-78419104D01*
X145083333Y-78419104D02*
X145130952Y-78561961D01*
X145130952Y-78561961D02*
X145226190Y-78657200D01*
X145226190Y-78657200D02*
X145369047Y-78704819D01*
X145369047Y-78704819D02*
X145464285Y-78704819D01*
X144607142Y-78704819D02*
X144607142Y-77704819D01*
X144607142Y-77704819D02*
X144226190Y-77704819D01*
X144226190Y-77704819D02*
X144130952Y-77752438D01*
X144130952Y-77752438D02*
X144083333Y-77800057D01*
X144083333Y-77800057D02*
X144035714Y-77895295D01*
X144035714Y-77895295D02*
X144035714Y-78038152D01*
X144035714Y-78038152D02*
X144083333Y-78133390D01*
X144083333Y-78133390D02*
X144130952Y-78181009D01*
X144130952Y-78181009D02*
X144226190Y-78228628D01*
X144226190Y-78228628D02*
X144607142Y-78228628D01*
X143559523Y-78704819D02*
X143369047Y-78704819D01*
X143369047Y-78704819D02*
X143273809Y-78657200D01*
X143273809Y-78657200D02*
X143226190Y-78609580D01*
X143226190Y-78609580D02*
X143130952Y-78466723D01*
X143130952Y-78466723D02*
X143083333Y-78276247D01*
X143083333Y-78276247D02*
X143083333Y-77895295D01*
X143083333Y-77895295D02*
X143130952Y-77800057D01*
X143130952Y-77800057D02*
X143178571Y-77752438D01*
X143178571Y-77752438D02*
X143273809Y-77704819D01*
X143273809Y-77704819D02*
X143464285Y-77704819D01*
X143464285Y-77704819D02*
X143559523Y-77752438D01*
X143559523Y-77752438D02*
X143607142Y-77800057D01*
X143607142Y-77800057D02*
X143654761Y-77895295D01*
X143654761Y-77895295D02*
X143654761Y-78133390D01*
X143654761Y-78133390D02*
X143607142Y-78228628D01*
X143607142Y-78228628D02*
X143559523Y-78276247D01*
X143559523Y-78276247D02*
X143464285Y-78323866D01*
X143464285Y-78323866D02*
X143273809Y-78323866D01*
X143273809Y-78323866D02*
X143178571Y-78276247D01*
X143178571Y-78276247D02*
X143130952Y-78228628D01*
X143130952Y-78228628D02*
X143083333Y-78133390D01*
X136633333Y-81204819D02*
X136633333Y-81919104D01*
X136633333Y-81919104D02*
X136680952Y-82061961D01*
X136680952Y-82061961D02*
X136776190Y-82157200D01*
X136776190Y-82157200D02*
X136919047Y-82204819D01*
X136919047Y-82204819D02*
X137014285Y-82204819D01*
X136157142Y-82204819D02*
X136157142Y-81204819D01*
X136157142Y-81204819D02*
X135776190Y-81204819D01*
X135776190Y-81204819D02*
X135680952Y-81252438D01*
X135680952Y-81252438D02*
X135633333Y-81300057D01*
X135633333Y-81300057D02*
X135585714Y-81395295D01*
X135585714Y-81395295D02*
X135585714Y-81538152D01*
X135585714Y-81538152D02*
X135633333Y-81633390D01*
X135633333Y-81633390D02*
X135680952Y-81681009D01*
X135680952Y-81681009D02*
X135776190Y-81728628D01*
X135776190Y-81728628D02*
X136157142Y-81728628D01*
X135204761Y-81300057D02*
X135157142Y-81252438D01*
X135157142Y-81252438D02*
X135061904Y-81204819D01*
X135061904Y-81204819D02*
X134823809Y-81204819D01*
X134823809Y-81204819D02*
X134728571Y-81252438D01*
X134728571Y-81252438D02*
X134680952Y-81300057D01*
X134680952Y-81300057D02*
X134633333Y-81395295D01*
X134633333Y-81395295D02*
X134633333Y-81490533D01*
X134633333Y-81490533D02*
X134680952Y-81633390D01*
X134680952Y-81633390D02*
X135252380Y-82204819D01*
X135252380Y-82204819D02*
X134633333Y-82204819D01*
X145083333Y-84704819D02*
X145083333Y-85419104D01*
X145083333Y-85419104D02*
X145130952Y-85561961D01*
X145130952Y-85561961D02*
X145226190Y-85657200D01*
X145226190Y-85657200D02*
X145369047Y-85704819D01*
X145369047Y-85704819D02*
X145464285Y-85704819D01*
X144607142Y-85704819D02*
X144607142Y-84704819D01*
X144607142Y-84704819D02*
X144226190Y-84704819D01*
X144226190Y-84704819D02*
X144130952Y-84752438D01*
X144130952Y-84752438D02*
X144083333Y-84800057D01*
X144083333Y-84800057D02*
X144035714Y-84895295D01*
X144035714Y-84895295D02*
X144035714Y-85038152D01*
X144035714Y-85038152D02*
X144083333Y-85133390D01*
X144083333Y-85133390D02*
X144130952Y-85181009D01*
X144130952Y-85181009D02*
X144226190Y-85228628D01*
X144226190Y-85228628D02*
X144607142Y-85228628D01*
X143702380Y-84704819D02*
X143035714Y-84704819D01*
X143035714Y-84704819D02*
X143464285Y-85704819D01*
X136633333Y-84704819D02*
X136633333Y-85419104D01*
X136633333Y-85419104D02*
X136680952Y-85561961D01*
X136680952Y-85561961D02*
X136776190Y-85657200D01*
X136776190Y-85657200D02*
X136919047Y-85704819D01*
X136919047Y-85704819D02*
X137014285Y-85704819D01*
X136157142Y-85704819D02*
X136157142Y-84704819D01*
X136157142Y-84704819D02*
X135776190Y-84704819D01*
X135776190Y-84704819D02*
X135680952Y-84752438D01*
X135680952Y-84752438D02*
X135633333Y-84800057D01*
X135633333Y-84800057D02*
X135585714Y-84895295D01*
X135585714Y-84895295D02*
X135585714Y-85038152D01*
X135585714Y-85038152D02*
X135633333Y-85133390D01*
X135633333Y-85133390D02*
X135680952Y-85181009D01*
X135680952Y-85181009D02*
X135776190Y-85228628D01*
X135776190Y-85228628D02*
X136157142Y-85228628D01*
X134633333Y-85704819D02*
X135204761Y-85704819D01*
X134919047Y-85704819D02*
X134919047Y-84704819D01*
X134919047Y-84704819D02*
X135014285Y-84847676D01*
X135014285Y-84847676D02*
X135109523Y-84942914D01*
X135109523Y-84942914D02*
X135204761Y-84990533D01*
X136633333Y-77654819D02*
X136633333Y-78369104D01*
X136633333Y-78369104D02*
X136680952Y-78511961D01*
X136680952Y-78511961D02*
X136776190Y-78607200D01*
X136776190Y-78607200D02*
X136919047Y-78654819D01*
X136919047Y-78654819D02*
X137014285Y-78654819D01*
X136157142Y-78654819D02*
X136157142Y-77654819D01*
X136157142Y-77654819D02*
X135776190Y-77654819D01*
X135776190Y-77654819D02*
X135680952Y-77702438D01*
X135680952Y-77702438D02*
X135633333Y-77750057D01*
X135633333Y-77750057D02*
X135585714Y-77845295D01*
X135585714Y-77845295D02*
X135585714Y-77988152D01*
X135585714Y-77988152D02*
X135633333Y-78083390D01*
X135633333Y-78083390D02*
X135680952Y-78131009D01*
X135680952Y-78131009D02*
X135776190Y-78178628D01*
X135776190Y-78178628D02*
X136157142Y-78178628D01*
X135252380Y-77654819D02*
X134633333Y-77654819D01*
X134633333Y-77654819D02*
X134966666Y-78035771D01*
X134966666Y-78035771D02*
X134823809Y-78035771D01*
X134823809Y-78035771D02*
X134728571Y-78083390D01*
X134728571Y-78083390D02*
X134680952Y-78131009D01*
X134680952Y-78131009D02*
X134633333Y-78226247D01*
X134633333Y-78226247D02*
X134633333Y-78464342D01*
X134633333Y-78464342D02*
X134680952Y-78559580D01*
X134680952Y-78559580D02*
X134728571Y-78607200D01*
X134728571Y-78607200D02*
X134823809Y-78654819D01*
X134823809Y-78654819D02*
X135109523Y-78654819D01*
X135109523Y-78654819D02*
X135204761Y-78607200D01*
X135204761Y-78607200D02*
X135252380Y-78559580D01*
D12*
%TO.C,JP5*%
X138600000Y-83800000D02*
X138600000Y-83200000D01*
X139300000Y-82500000D02*
X140700000Y-82500000D01*
X140700000Y-84500000D02*
X139300000Y-84500000D01*
X141400000Y-83200000D02*
X141400000Y-83800000D01*
X138600000Y-83200000D02*
G75*
G02*
X139300000Y-82500000I700000J0D01*
G01*
X139300000Y-84500000D02*
G75*
G02*
X138600000Y-83800000I0J700000D01*
G01*
X140700000Y-82500000D02*
G75*
G02*
X141400000Y-83200000I1J-699999D01*
G01*
X141400000Y-83800000D02*
G75*
G02*
X140700000Y-84500000I-699999J-1D01*
G01*
%TO.C,JP6*%
X138600000Y-80300000D02*
X138600000Y-79700000D01*
X139300000Y-79000000D02*
X140700000Y-79000000D01*
X140700000Y-81000000D02*
X139300000Y-81000000D01*
X141400000Y-79700000D02*
X141400000Y-80300000D01*
X138600000Y-79700000D02*
G75*
G02*
X139300000Y-79000000I700000J0D01*
G01*
X139300000Y-81000000D02*
G75*
G02*
X138600000Y-80300000I0J700000D01*
G01*
X140700000Y-79000000D02*
G75*
G02*
X141400000Y-79700000I1J-699999D01*
G01*
X141400000Y-80300000D02*
G75*
G02*
X140700000Y-81000000I-699999J-1D01*
G01*
%TO.C,JP8*%
X142850000Y-83800000D02*
X142850000Y-83200000D01*
X143550000Y-82500000D02*
X144950000Y-82500000D01*
X144950000Y-84500000D02*
X143550000Y-84500000D01*
X145650000Y-83200000D02*
X145650000Y-83800000D01*
X142850000Y-83200000D02*
G75*
G02*
X143550000Y-82500000I700000J0D01*
G01*
X143550000Y-84500000D02*
G75*
G02*
X142850000Y-83800000I0J700000D01*
G01*
X144950000Y-82500000D02*
G75*
G02*
X145650000Y-83200000I1J-699999D01*
G01*
X145650000Y-83800000D02*
G75*
G02*
X144950000Y-84500000I-699999J-1D01*
G01*
%TO.C,JP4*%
X138600000Y-87300000D02*
X138600000Y-86700000D01*
X139300000Y-86000000D02*
X140700000Y-86000000D01*
X140700000Y-88000000D02*
X139300000Y-88000000D01*
X141400000Y-86700000D02*
X141400000Y-87300000D01*
X138600000Y-86700000D02*
G75*
G02*
X139300000Y-86000000I700000J0D01*
G01*
X139300000Y-88000000D02*
G75*
G02*
X138600000Y-87300000I0J700000D01*
G01*
X140700000Y-86000000D02*
G75*
G02*
X141400000Y-86700000I1J-699999D01*
G01*
X141400000Y-87300000D02*
G75*
G02*
X140700000Y-88000000I-699999J-1D01*
G01*
%TO.C,JP9*%
X142850000Y-80300000D02*
X142850000Y-79700000D01*
X143550000Y-79000000D02*
X144950000Y-79000000D01*
X144950000Y-81000000D02*
X143550000Y-81000000D01*
X145650000Y-79700000D02*
X145650000Y-80300000D01*
X142850000Y-79700000D02*
G75*
G02*
X143550000Y-79000000I700000J0D01*
G01*
X143550000Y-81000000D02*
G75*
G02*
X142850000Y-80300000I0J700000D01*
G01*
X144950000Y-79000000D02*
G75*
G02*
X145650000Y-79700000I1J-699999D01*
G01*
X145650000Y-80300000D02*
G75*
G02*
X144950000Y-81000000I-699999J-1D01*
G01*
%TO.C,JP2*%
X134400000Y-83800000D02*
X134400000Y-83200000D01*
X135100000Y-82500000D02*
X136500000Y-82500000D01*
X136500000Y-84500000D02*
X135100000Y-84500000D01*
X137200000Y-83200000D02*
X137200000Y-83800000D01*
X134400000Y-83200000D02*
G75*
G02*
X135100000Y-82500000I700000J0D01*
G01*
X135100000Y-84500000D02*
G75*
G02*
X134400000Y-83800000I0J700000D01*
G01*
X136500000Y-82500000D02*
G75*
G02*
X137200000Y-83200000I1J-699999D01*
G01*
X137200000Y-83800000D02*
G75*
G02*
X136500000Y-84500000I-699999J-1D01*
G01*
%TO.C,JP7*%
X142850000Y-87300000D02*
X142850000Y-86700000D01*
X143550000Y-86000000D02*
X144950000Y-86000000D01*
X144950000Y-88000000D02*
X143550000Y-88000000D01*
X145650000Y-86700000D02*
X145650000Y-87300000D01*
X142850000Y-86700000D02*
G75*
G02*
X143550000Y-86000000I700000J0D01*
G01*
X143550000Y-88000000D02*
G75*
G02*
X142850000Y-87300000I0J700000D01*
G01*
X144950000Y-86000000D02*
G75*
G02*
X145650000Y-86700000I1J-699999D01*
G01*
X145650000Y-87300000D02*
G75*
G02*
X144950000Y-88000000I-699999J-1D01*
G01*
D13*
%TO.C,REF\u002A\u002A*%
X158843698Y-68641141D02*
X158869419Y-68656839D01*
X158896070Y-68678419D01*
X158896070Y-69325876D01*
X158869419Y-69347456D01*
X158838059Y-69364931D01*
X158802258Y-69365767D01*
X158770820Y-69345274D01*
X158766944Y-69340608D01*
X158761478Y-69331141D01*
X158757271Y-69317459D01*
X158754159Y-69296940D01*
X158751979Y-69266960D01*
X158750568Y-69224896D01*
X158749763Y-69168124D01*
X158749399Y-69094022D01*
X158749314Y-68999965D01*
X158749314Y-68678419D01*
X158775965Y-68656839D01*
X158799678Y-68642069D01*
X158822692Y-68635259D01*
X158843698Y-68641141D01*
G36*
X158843698Y-68641141D02*
G01*
X158869419Y-68656839D01*
X158896070Y-68678419D01*
X158896070Y-69325876D01*
X158869419Y-69347456D01*
X158838059Y-69364931D01*
X158802258Y-69365767D01*
X158770820Y-69345274D01*
X158766944Y-69340608D01*
X158761478Y-69331141D01*
X158757271Y-69317459D01*
X158754159Y-69296940D01*
X158751979Y-69266960D01*
X158750568Y-69224896D01*
X158749763Y-69168124D01*
X158749399Y-69094022D01*
X158749314Y-68999965D01*
X158749314Y-68678419D01*
X158775965Y-68656839D01*
X158799678Y-68642069D01*
X158822692Y-68635259D01*
X158843698Y-68641141D01*
G37*
X165974429Y-68639655D02*
X166008583Y-68662968D01*
X166036292Y-68690677D01*
X166036292Y-69003729D01*
X166036251Y-69087759D01*
X166035993Y-69161981D01*
X166035322Y-69218733D01*
X166034044Y-69260704D01*
X166031965Y-69290581D01*
X166028891Y-69311053D01*
X166024626Y-69324806D01*
X166018976Y-69334529D01*
X166011747Y-69342909D01*
X165980283Y-69364373D01*
X165945118Y-69366139D01*
X165912114Y-69346459D01*
X165906808Y-69340590D01*
X165901358Y-69331506D01*
X165897192Y-69318165D01*
X165894138Y-69297949D01*
X165892024Y-69268241D01*
X165890678Y-69226424D01*
X165889930Y-69169881D01*
X165889606Y-69095994D01*
X165889537Y-69002148D01*
X165889576Y-68926486D01*
X165889831Y-68848577D01*
X165890475Y-68788567D01*
X165891679Y-68743840D01*
X165893616Y-68711777D01*
X165896456Y-68689763D01*
X165900371Y-68675179D01*
X165905534Y-68665410D01*
X165912114Y-68657837D01*
X165941298Y-68638815D01*
X165974429Y-68639655D01*
G36*
X165974429Y-68639655D02*
G01*
X166008583Y-68662968D01*
X166036292Y-68690677D01*
X166036292Y-69003729D01*
X166036251Y-69087759D01*
X166035993Y-69161981D01*
X166035322Y-69218733D01*
X166034044Y-69260704D01*
X166031965Y-69290581D01*
X166028891Y-69311053D01*
X166024626Y-69324806D01*
X166018976Y-69334529D01*
X166011747Y-69342909D01*
X165980283Y-69364373D01*
X165945118Y-69366139D01*
X165912114Y-69346459D01*
X165906808Y-69340590D01*
X165901358Y-69331506D01*
X165897192Y-69318165D01*
X165894138Y-69297949D01*
X165892024Y-69268241D01*
X165890678Y-69226424D01*
X165889930Y-69169881D01*
X165889606Y-69095994D01*
X165889537Y-69002148D01*
X165889576Y-68926486D01*
X165889831Y-68848577D01*
X165890475Y-68788567D01*
X165891679Y-68743840D01*
X165893616Y-68711777D01*
X165896456Y-68689763D01*
X165900371Y-68675179D01*
X165905534Y-68665410D01*
X165912114Y-68657837D01*
X165941298Y-68638815D01*
X165974429Y-68639655D01*
G37*
X165941012Y-62026581D02*
X166046536Y-62052436D01*
X166146560Y-62098841D01*
X166237934Y-62165803D01*
X166317505Y-62253328D01*
X166382120Y-62361426D01*
X166399443Y-62399506D01*
X166413477Y-62438103D01*
X166421352Y-62476689D01*
X166424803Y-62524415D01*
X166425568Y-62590433D01*
X166425105Y-62645381D01*
X166422319Y-62695880D01*
X166415487Y-62735280D01*
X166402904Y-62772628D01*
X166382864Y-62816973D01*
X166377066Y-62828791D01*
X166308545Y-62937001D01*
X166222365Y-63026033D01*
X166120972Y-63093797D01*
X166006811Y-63138206D01*
X165948234Y-63150598D01*
X165829399Y-63156397D01*
X165714300Y-63137634D01*
X165606312Y-63096232D01*
X165508809Y-63034115D01*
X165425168Y-62953207D01*
X165358763Y-62855432D01*
X165312969Y-62742714D01*
X165296214Y-62650471D01*
X165294705Y-62548677D01*
X165308332Y-62449660D01*
X165336445Y-62363892D01*
X165368930Y-62302573D01*
X165441247Y-62205288D01*
X165526978Y-62128507D01*
X165622973Y-62072238D01*
X165726079Y-62036490D01*
X165833142Y-62021268D01*
X165941012Y-62026581D01*
G36*
X165941012Y-62026581D02*
G01*
X166046536Y-62052436D01*
X166146560Y-62098841D01*
X166237934Y-62165803D01*
X166317505Y-62253328D01*
X166382120Y-62361426D01*
X166399443Y-62399506D01*
X166413477Y-62438103D01*
X166421352Y-62476689D01*
X166424803Y-62524415D01*
X166425568Y-62590433D01*
X166425105Y-62645381D01*
X166422319Y-62695880D01*
X166415487Y-62735280D01*
X166402904Y-62772628D01*
X166382864Y-62816973D01*
X166377066Y-62828791D01*
X166308545Y-62937001D01*
X166222365Y-63026033D01*
X166120972Y-63093797D01*
X166006811Y-63138206D01*
X165948234Y-63150598D01*
X165829399Y-63156397D01*
X165714300Y-63137634D01*
X165606312Y-63096232D01*
X165508809Y-63034115D01*
X165425168Y-62953207D01*
X165358763Y-62855432D01*
X165312969Y-62742714D01*
X165296214Y-62650471D01*
X165294705Y-62548677D01*
X165308332Y-62449660D01*
X165336445Y-62363892D01*
X165368930Y-62302573D01*
X165441247Y-62205288D01*
X165526978Y-62128507D01*
X165622973Y-62072238D01*
X165726079Y-62036490D01*
X165833142Y-62021268D01*
X165941012Y-62026581D01*
G37*
X158144059Y-68635260D02*
X158238182Y-68635350D01*
X158312697Y-68635690D01*
X158370103Y-68636431D01*
X158412903Y-68637727D01*
X158443596Y-68639729D01*
X158464683Y-68642588D01*
X158478665Y-68646458D01*
X158488042Y-68651490D01*
X158495314Y-68657837D01*
X158514120Y-68690554D01*
X158515567Y-68728131D01*
X158499209Y-68761370D01*
X158497849Y-68762823D01*
X158486646Y-68771184D01*
X158469544Y-68776739D01*
X158442374Y-68780032D01*
X158400970Y-68781610D01*
X158341165Y-68782014D01*
X158201803Y-68782014D01*
X158201803Y-69045781D01*
X158201728Y-69121609D01*
X158201320Y-69188275D01*
X158200338Y-69238059D01*
X158198542Y-69273976D01*
X158195691Y-69299042D01*
X158191545Y-69316273D01*
X158185863Y-69328684D01*
X158178406Y-69339292D01*
X158176116Y-69342098D01*
X158144938Y-69364740D01*
X158110558Y-69366304D01*
X158077626Y-69346459D01*
X158070647Y-69338383D01*
X158065175Y-69327785D01*
X158061155Y-69311941D01*
X158058364Y-69287965D01*
X158056580Y-69252966D01*
X158055581Y-69204056D01*
X158055144Y-69138346D01*
X158055048Y-69052948D01*
X158055048Y-68782014D01*
X157909112Y-68782014D01*
X157898012Y-68782013D01*
X157841494Y-68781788D01*
X157802650Y-68780649D01*
X157777257Y-68777849D01*
X157761096Y-68772642D01*
X157749944Y-68764281D01*
X157739581Y-68752018D01*
X157723733Y-68721330D01*
X157726835Y-68687550D01*
X157752479Y-68655014D01*
X157757421Y-68651297D01*
X157767630Y-68646461D01*
X157783056Y-68642698D01*
X157806178Y-68639875D01*
X157839475Y-68637862D01*
X157885429Y-68636525D01*
X157946520Y-68635734D01*
X158025227Y-68635355D01*
X158124032Y-68635259D01*
X158144059Y-68635260D01*
G36*
X158144059Y-68635260D02*
G01*
X158238182Y-68635350D01*
X158312697Y-68635690D01*
X158370103Y-68636431D01*
X158412903Y-68637727D01*
X158443596Y-68639729D01*
X158464683Y-68642588D01*
X158478665Y-68646458D01*
X158488042Y-68651490D01*
X158495314Y-68657837D01*
X158514120Y-68690554D01*
X158515567Y-68728131D01*
X158499209Y-68761370D01*
X158497849Y-68762823D01*
X158486646Y-68771184D01*
X158469544Y-68776739D01*
X158442374Y-68780032D01*
X158400970Y-68781610D01*
X158341165Y-68782014D01*
X158201803Y-68782014D01*
X158201803Y-69045781D01*
X158201728Y-69121609D01*
X158201320Y-69188275D01*
X158200338Y-69238059D01*
X158198542Y-69273976D01*
X158195691Y-69299042D01*
X158191545Y-69316273D01*
X158185863Y-69328684D01*
X158178406Y-69339292D01*
X158176116Y-69342098D01*
X158144938Y-69364740D01*
X158110558Y-69366304D01*
X158077626Y-69346459D01*
X158070647Y-69338383D01*
X158065175Y-69327785D01*
X158061155Y-69311941D01*
X158058364Y-69287965D01*
X158056580Y-69252966D01*
X158055581Y-69204056D01*
X158055144Y-69138346D01*
X158055048Y-69052948D01*
X158055048Y-68782014D01*
X157909112Y-68782014D01*
X157898012Y-68782013D01*
X157841494Y-68781788D01*
X157802650Y-68780649D01*
X157777257Y-68777849D01*
X157761096Y-68772642D01*
X157749944Y-68764281D01*
X157739581Y-68752018D01*
X157723733Y-68721330D01*
X157726835Y-68687550D01*
X157752479Y-68655014D01*
X157757421Y-68651297D01*
X157767630Y-68646461D01*
X157783056Y-68642698D01*
X157806178Y-68639875D01*
X157839475Y-68637862D01*
X157885429Y-68636525D01*
X157946520Y-68635734D01*
X158025227Y-68635355D01*
X158124032Y-68635259D01*
X158144059Y-68635260D01*
G37*
X157468026Y-68657837D02*
X157473658Y-68664027D01*
X157478748Y-68672233D01*
X157482835Y-68684009D01*
X157486013Y-68701468D01*
X157488379Y-68726722D01*
X157490030Y-68761882D01*
X157491061Y-68809061D01*
X157491569Y-68870369D01*
X157491651Y-68947919D01*
X157491401Y-69043823D01*
X157490917Y-69160192D01*
X157490849Y-69174367D01*
X157490263Y-69236129D01*
X157488940Y-69279812D01*
X157486395Y-69309193D01*
X157482140Y-69328047D01*
X157475688Y-69340151D01*
X157466554Y-69349281D01*
X157433096Y-69366698D01*
X157398148Y-69363796D01*
X157367245Y-69339292D01*
X157358236Y-69326089D01*
X157350784Y-69307553D01*
X157346416Y-69281525D01*
X157344361Y-69242979D01*
X157343848Y-69186892D01*
X157343848Y-69064237D01*
X156847137Y-69064237D01*
X156847137Y-69199063D01*
X156847064Y-69234854D01*
X156846301Y-69281184D01*
X156844125Y-69311718D01*
X156839828Y-69330749D01*
X156832704Y-69342566D01*
X156822047Y-69351463D01*
X156789796Y-69366533D01*
X156754509Y-69363865D01*
X156723778Y-69339292D01*
X156719123Y-69333037D01*
X156713187Y-69322513D01*
X156708656Y-69308583D01*
X156705340Y-69288509D01*
X156703051Y-69259552D01*
X156701600Y-69218972D01*
X156700797Y-69164032D01*
X156700454Y-69091991D01*
X156700381Y-69000112D01*
X156700381Y-68690677D01*
X156728090Y-68662968D01*
X156759469Y-68640725D01*
X156792698Y-68638036D01*
X156824559Y-68657837D01*
X156832845Y-68667607D01*
X156840257Y-68683499D01*
X156844594Y-68707467D01*
X156846630Y-68744340D01*
X156847137Y-68798948D01*
X156847137Y-68917481D01*
X157343848Y-68917481D01*
X157343848Y-68801968D01*
X157344286Y-68750270D01*
X157346250Y-68715746D01*
X157350766Y-68693170D01*
X157358859Y-68677318D01*
X157371557Y-68662968D01*
X157402935Y-68640725D01*
X157436164Y-68638036D01*
X157468026Y-68657837D01*
G36*
X157468026Y-68657837D02*
G01*
X157473658Y-68664027D01*
X157478748Y-68672233D01*
X157482835Y-68684009D01*
X157486013Y-68701468D01*
X157488379Y-68726722D01*
X157490030Y-68761882D01*
X157491061Y-68809061D01*
X157491569Y-68870369D01*
X157491651Y-68947919D01*
X157491401Y-69043823D01*
X157490917Y-69160192D01*
X157490849Y-69174367D01*
X157490263Y-69236129D01*
X157488940Y-69279812D01*
X157486395Y-69309193D01*
X157482140Y-69328047D01*
X157475688Y-69340151D01*
X157466554Y-69349281D01*
X157433096Y-69366698D01*
X157398148Y-69363796D01*
X157367245Y-69339292D01*
X157358236Y-69326089D01*
X157350784Y-69307553D01*
X157346416Y-69281525D01*
X157344361Y-69242979D01*
X157343848Y-69186892D01*
X157343848Y-69064237D01*
X156847137Y-69064237D01*
X156847137Y-69199063D01*
X156847064Y-69234854D01*
X156846301Y-69281184D01*
X156844125Y-69311718D01*
X156839828Y-69330749D01*
X156832704Y-69342566D01*
X156822047Y-69351463D01*
X156789796Y-69366533D01*
X156754509Y-69363865D01*
X156723778Y-69339292D01*
X156719123Y-69333037D01*
X156713187Y-69322513D01*
X156708656Y-69308583D01*
X156705340Y-69288509D01*
X156703051Y-69259552D01*
X156701600Y-69218972D01*
X156700797Y-69164032D01*
X156700454Y-69091991D01*
X156700381Y-69000112D01*
X156700381Y-68690677D01*
X156728090Y-68662968D01*
X156759469Y-68640725D01*
X156792698Y-68638036D01*
X156824559Y-68657837D01*
X156832845Y-68667607D01*
X156840257Y-68683499D01*
X156844594Y-68707467D01*
X156846630Y-68744340D01*
X156847137Y-68798948D01*
X156847137Y-68917481D01*
X157343848Y-68917481D01*
X157343848Y-68801968D01*
X157344286Y-68750270D01*
X157346250Y-68715746D01*
X157350766Y-68693170D01*
X157358859Y-68677318D01*
X157371557Y-68662968D01*
X157402935Y-68640725D01*
X157436164Y-68638036D01*
X157468026Y-68657837D01*
G37*
X162173425Y-69246588D02*
X162171455Y-69279367D01*
X162168527Y-69302287D01*
X162164450Y-69318089D01*
X162159035Y-69329511D01*
X162152095Y-69339292D01*
X162128698Y-69369037D01*
X161963006Y-69368443D01*
X161928210Y-69368145D01*
X161829727Y-69364714D01*
X161748765Y-69357031D01*
X161681671Y-69344474D01*
X161624788Y-69326419D01*
X161574461Y-69302244D01*
X161571102Y-69300327D01*
X161513290Y-69263609D01*
X161470936Y-69226643D01*
X161438120Y-69183158D01*
X161408920Y-69126881D01*
X161404638Y-69117265D01*
X161382061Y-69054079D01*
X161376326Y-69008525D01*
X161525571Y-69008525D01*
X161531184Y-69033253D01*
X161536910Y-69049131D01*
X161569840Y-69109039D01*
X161617178Y-69154792D01*
X161680944Y-69187928D01*
X161763153Y-69209982D01*
X161765947Y-69210484D01*
X161812232Y-69216447D01*
X161868628Y-69220675D01*
X161923566Y-69222281D01*
X162017448Y-69222281D01*
X162017448Y-68782014D01*
X161929959Y-68782462D01*
X161863039Y-68784938D01*
X161770641Y-68796190D01*
X161691326Y-68815729D01*
X161629352Y-68842703D01*
X161598412Y-68863432D01*
X161570292Y-68893198D01*
X161546952Y-68935626D01*
X161539825Y-68951592D01*
X161528001Y-68984094D01*
X161525571Y-69008525D01*
X161376326Y-69008525D01*
X161375089Y-68998701D01*
X161383691Y-68943675D01*
X161407833Y-68881543D01*
X161408629Y-68879850D01*
X161449080Y-68810428D01*
X161499765Y-68753830D01*
X161562490Y-68709262D01*
X161639066Y-68675933D01*
X161731301Y-68653053D01*
X161841004Y-68639828D01*
X161969983Y-68635467D01*
X161973555Y-68635462D01*
X162033575Y-68635602D01*
X162075506Y-68636638D01*
X162103620Y-68639232D01*
X162122189Y-68644045D01*
X162135486Y-68651736D01*
X162147783Y-68662968D01*
X162175492Y-68690677D01*
X162175492Y-69000112D01*
X162175467Y-69061718D01*
X162175242Y-69140503D01*
X162174624Y-69201213D01*
X162174067Y-69222281D01*
X162173425Y-69246588D01*
G36*
X162173425Y-69246588D02*
G01*
X162171455Y-69279367D01*
X162168527Y-69302287D01*
X162164450Y-69318089D01*
X162159035Y-69329511D01*
X162152095Y-69339292D01*
X162128698Y-69369037D01*
X161963006Y-69368443D01*
X161928210Y-69368145D01*
X161829727Y-69364714D01*
X161748765Y-69357031D01*
X161681671Y-69344474D01*
X161624788Y-69326419D01*
X161574461Y-69302244D01*
X161571102Y-69300327D01*
X161513290Y-69263609D01*
X161470936Y-69226643D01*
X161438120Y-69183158D01*
X161408920Y-69126881D01*
X161404638Y-69117265D01*
X161382061Y-69054079D01*
X161376326Y-69008525D01*
X161525571Y-69008525D01*
X161531184Y-69033253D01*
X161536910Y-69049131D01*
X161569840Y-69109039D01*
X161617178Y-69154792D01*
X161680944Y-69187928D01*
X161763153Y-69209982D01*
X161765947Y-69210484D01*
X161812232Y-69216447D01*
X161868628Y-69220675D01*
X161923566Y-69222281D01*
X162017448Y-69222281D01*
X162017448Y-68782014D01*
X161929959Y-68782462D01*
X161863039Y-68784938D01*
X161770641Y-68796190D01*
X161691326Y-68815729D01*
X161629352Y-68842703D01*
X161598412Y-68863432D01*
X161570292Y-68893198D01*
X161546952Y-68935626D01*
X161539825Y-68951592D01*
X161528001Y-68984094D01*
X161525571Y-69008525D01*
X161376326Y-69008525D01*
X161375089Y-68998701D01*
X161383691Y-68943675D01*
X161407833Y-68881543D01*
X161408629Y-68879850D01*
X161449080Y-68810428D01*
X161499765Y-68753830D01*
X161562490Y-68709262D01*
X161639066Y-68675933D01*
X161731301Y-68653053D01*
X161841004Y-68639828D01*
X161969983Y-68635467D01*
X161973555Y-68635462D01*
X162033575Y-68635602D01*
X162075506Y-68636638D01*
X162103620Y-68639232D01*
X162122189Y-68644045D01*
X162135486Y-68651736D01*
X162147783Y-68662968D01*
X162175492Y-68690677D01*
X162175492Y-69000112D01*
X162175467Y-69061718D01*
X162175242Y-69140503D01*
X162174624Y-69201213D01*
X162174067Y-69222281D01*
X162173425Y-69246588D01*
G37*
X169265109Y-68820619D02*
X169265162Y-68901233D01*
X169264914Y-69002148D01*
X169264875Y-69077809D01*
X169264620Y-69155718D01*
X169263976Y-69215728D01*
X169262772Y-69260456D01*
X169260835Y-69292518D01*
X169257995Y-69314532D01*
X169254080Y-69329116D01*
X169248918Y-69338886D01*
X169242337Y-69346459D01*
X169235369Y-69352693D01*
X169222371Y-69359993D01*
X169203223Y-69364746D01*
X169173820Y-69367484D01*
X169130054Y-69368737D01*
X169067820Y-69369037D01*
X169018874Y-69368661D01*
X168912014Y-69364233D01*
X168822786Y-69354145D01*
X168747988Y-69337557D01*
X168684417Y-69313627D01*
X168628871Y-69281513D01*
X168578146Y-69240374D01*
X168572158Y-69234522D01*
X168535291Y-69186013D01*
X168504191Y-69125205D01*
X168482709Y-69060961D01*
X168477428Y-69022218D01*
X168624645Y-69022218D01*
X168642927Y-69073153D01*
X168672597Y-69119070D01*
X168719294Y-69161479D01*
X168780684Y-69191282D01*
X168859830Y-69210418D01*
X168861320Y-69210656D01*
X168910291Y-69216448D01*
X168968985Y-69220588D01*
X169025026Y-69222196D01*
X169118159Y-69222281D01*
X169118159Y-68782014D01*
X169041959Y-68782000D01*
X169038931Y-68782009D01*
X168987811Y-68783974D01*
X168927708Y-68788699D01*
X168871000Y-68795227D01*
X168821042Y-68804523D01*
X168746290Y-68830792D01*
X168688781Y-68870091D01*
X168647280Y-68923125D01*
X168626063Y-68974392D01*
X168624645Y-69022218D01*
X168477428Y-69022218D01*
X168474692Y-69002148D01*
X168475971Y-68980931D01*
X168488283Y-68923515D01*
X168510812Y-68863605D01*
X168540042Y-68809555D01*
X168572459Y-68769724D01*
X168592000Y-68752702D01*
X168646712Y-68713514D01*
X168707015Y-68683385D01*
X168776211Y-68661424D01*
X168857603Y-68646742D01*
X168954492Y-68638451D01*
X169070181Y-68635659D01*
X169109663Y-68635258D01*
X169155374Y-68634845D01*
X169191175Y-68636649D01*
X169218266Y-68642931D01*
X169237848Y-68655951D01*
X169251122Y-68677970D01*
X169259290Y-68711247D01*
X169263552Y-68758043D01*
X169264149Y-68782014D01*
X169265109Y-68820619D01*
G36*
X169265109Y-68820619D02*
G01*
X169265162Y-68901233D01*
X169264914Y-69002148D01*
X169264875Y-69077809D01*
X169264620Y-69155718D01*
X169263976Y-69215728D01*
X169262772Y-69260456D01*
X169260835Y-69292518D01*
X169257995Y-69314532D01*
X169254080Y-69329116D01*
X169248918Y-69338886D01*
X169242337Y-69346459D01*
X169235369Y-69352693D01*
X169222371Y-69359993D01*
X169203223Y-69364746D01*
X169173820Y-69367484D01*
X169130054Y-69368737D01*
X169067820Y-69369037D01*
X169018874Y-69368661D01*
X168912014Y-69364233D01*
X168822786Y-69354145D01*
X168747988Y-69337557D01*
X168684417Y-69313627D01*
X168628871Y-69281513D01*
X168578146Y-69240374D01*
X168572158Y-69234522D01*
X168535291Y-69186013D01*
X168504191Y-69125205D01*
X168482709Y-69060961D01*
X168477428Y-69022218D01*
X168624645Y-69022218D01*
X168642927Y-69073153D01*
X168672597Y-69119070D01*
X168719294Y-69161479D01*
X168780684Y-69191282D01*
X168859830Y-69210418D01*
X168861320Y-69210656D01*
X168910291Y-69216448D01*
X168968985Y-69220588D01*
X169025026Y-69222196D01*
X169118159Y-69222281D01*
X169118159Y-68782014D01*
X169041959Y-68782000D01*
X169038931Y-68782009D01*
X168987811Y-68783974D01*
X168927708Y-68788699D01*
X168871000Y-68795227D01*
X168821042Y-68804523D01*
X168746290Y-68830792D01*
X168688781Y-68870091D01*
X168647280Y-68923125D01*
X168626063Y-68974392D01*
X168624645Y-69022218D01*
X168477428Y-69022218D01*
X168474692Y-69002148D01*
X168475971Y-68980931D01*
X168488283Y-68923515D01*
X168510812Y-68863605D01*
X168540042Y-68809555D01*
X168572459Y-68769724D01*
X168592000Y-68752702D01*
X168646712Y-68713514D01*
X168707015Y-68683385D01*
X168776211Y-68661424D01*
X168857603Y-68646742D01*
X168954492Y-68638451D01*
X169070181Y-68635659D01*
X169109663Y-68635258D01*
X169155374Y-68634845D01*
X169191175Y-68636649D01*
X169218266Y-68642931D01*
X169237848Y-68655951D01*
X169251122Y-68677970D01*
X169259290Y-68711247D01*
X169263552Y-68758043D01*
X169264149Y-68782014D01*
X169265109Y-68820619D01*
G37*
X164320185Y-68634084D02*
X164331593Y-68640221D01*
X164342142Y-68650883D01*
X164353428Y-68665003D01*
X164357881Y-68670964D01*
X164363880Y-68681460D01*
X164368459Y-68695285D01*
X164371811Y-68715190D01*
X164374125Y-68743924D01*
X164375593Y-68784237D01*
X164376405Y-68838879D01*
X164376752Y-68910599D01*
X164376826Y-69002148D01*
X164376803Y-69060678D01*
X164376584Y-69139765D01*
X164375975Y-69200708D01*
X164374784Y-69246254D01*
X164372821Y-69279155D01*
X164369895Y-69302160D01*
X164365815Y-69318018D01*
X164360389Y-69329478D01*
X164353428Y-69339292D01*
X164323000Y-69363685D01*
X164288057Y-69366564D01*
X164251076Y-69347474D01*
X164246892Y-69343999D01*
X164238716Y-69335471D01*
X164232656Y-69323920D01*
X164228273Y-69306088D01*
X164225131Y-69278716D01*
X164222794Y-69238546D01*
X164220823Y-69182320D01*
X164218781Y-69106781D01*
X164213137Y-68887650D01*
X163947848Y-69128291D01*
X163874014Y-69195067D01*
X163808834Y-69253183D01*
X163756640Y-69298141D01*
X163715565Y-69331063D01*
X163683747Y-69353071D01*
X163659318Y-69365286D01*
X163640416Y-69368831D01*
X163625175Y-69364828D01*
X163611731Y-69354399D01*
X163598219Y-69338666D01*
X163591974Y-69330183D01*
X163586342Y-69319605D01*
X163582131Y-69305447D01*
X163579179Y-69284995D01*
X163577324Y-69255534D01*
X163576405Y-69214353D01*
X163576260Y-69158736D01*
X163576727Y-69085971D01*
X163577644Y-68993343D01*
X163580959Y-68678391D01*
X163607610Y-68656825D01*
X163633675Y-68640633D01*
X163666533Y-68637862D01*
X163701064Y-68656815D01*
X163705376Y-68660400D01*
X163713508Y-68668929D01*
X163719537Y-68680521D01*
X163723898Y-68698427D01*
X163727026Y-68725898D01*
X163729355Y-68766186D01*
X163731321Y-68822543D01*
X163733359Y-68898221D01*
X163739003Y-69118070D01*
X163919626Y-68954276D01*
X164006364Y-68875643D01*
X164082135Y-68807250D01*
X164144272Y-68751900D01*
X164194370Y-68708530D01*
X164234027Y-68676073D01*
X164264840Y-68653465D01*
X164288406Y-68639640D01*
X164306322Y-68633535D01*
X164320185Y-68634084D01*
G36*
X164320185Y-68634084D02*
G01*
X164331593Y-68640221D01*
X164342142Y-68650883D01*
X164353428Y-68665003D01*
X164357881Y-68670964D01*
X164363880Y-68681460D01*
X164368459Y-68695285D01*
X164371811Y-68715190D01*
X164374125Y-68743924D01*
X164375593Y-68784237D01*
X164376405Y-68838879D01*
X164376752Y-68910599D01*
X164376826Y-69002148D01*
X164376803Y-69060678D01*
X164376584Y-69139765D01*
X164375975Y-69200708D01*
X164374784Y-69246254D01*
X164372821Y-69279155D01*
X164369895Y-69302160D01*
X164365815Y-69318018D01*
X164360389Y-69329478D01*
X164353428Y-69339292D01*
X164323000Y-69363685D01*
X164288057Y-69366564D01*
X164251076Y-69347474D01*
X164246892Y-69343999D01*
X164238716Y-69335471D01*
X164232656Y-69323920D01*
X164228273Y-69306088D01*
X164225131Y-69278716D01*
X164222794Y-69238546D01*
X164220823Y-69182320D01*
X164218781Y-69106781D01*
X164213137Y-68887650D01*
X163947848Y-69128291D01*
X163874014Y-69195067D01*
X163808834Y-69253183D01*
X163756640Y-69298141D01*
X163715565Y-69331063D01*
X163683747Y-69353071D01*
X163659318Y-69365286D01*
X163640416Y-69368831D01*
X163625175Y-69364828D01*
X163611731Y-69354399D01*
X163598219Y-69338666D01*
X163591974Y-69330183D01*
X163586342Y-69319605D01*
X163582131Y-69305447D01*
X163579179Y-69284995D01*
X163577324Y-69255534D01*
X163576405Y-69214353D01*
X163576260Y-69158736D01*
X163576727Y-69085971D01*
X163577644Y-68993343D01*
X163580959Y-68678391D01*
X163607610Y-68656825D01*
X163633675Y-68640633D01*
X163666533Y-68637862D01*
X163701064Y-68656815D01*
X163705376Y-68660400D01*
X163713508Y-68668929D01*
X163719537Y-68680521D01*
X163723898Y-68698427D01*
X163727026Y-68725898D01*
X163729355Y-68766186D01*
X163731321Y-68822543D01*
X163733359Y-68898221D01*
X163739003Y-69118070D01*
X163919626Y-68954276D01*
X164006364Y-68875643D01*
X164082135Y-68807250D01*
X164144272Y-68751900D01*
X164194370Y-68708530D01*
X164234027Y-68676073D01*
X164264840Y-68653465D01*
X164288406Y-68639640D01*
X164306322Y-68633535D01*
X164320185Y-68634084D01*
G37*
X165117442Y-68640371D02*
X165223449Y-68656686D01*
X165317261Y-68684737D01*
X165396057Y-68723644D01*
X165457011Y-68772526D01*
X165483081Y-68805387D01*
X165512589Y-68854586D01*
X165537860Y-68908444D01*
X165555510Y-68959611D01*
X165562150Y-69000736D01*
X165560590Y-69020451D01*
X165547649Y-69071784D01*
X165524486Y-69128310D01*
X165494594Y-69182227D01*
X165461465Y-69225731D01*
X165451269Y-69236079D01*
X165384184Y-69287854D01*
X165304058Y-69327746D01*
X165217848Y-69352148D01*
X165162884Y-69360260D01*
X165069431Y-69366865D01*
X164979650Y-69364778D01*
X164897161Y-69354532D01*
X164825578Y-69336662D01*
X164768520Y-69311700D01*
X164729603Y-69280180D01*
X164728228Y-69278204D01*
X164721140Y-69252978D01*
X164716901Y-69205727D01*
X164715492Y-69136263D01*
X164716352Y-69074030D01*
X164721072Y-69026648D01*
X164732762Y-68994545D01*
X164754531Y-68974992D01*
X164789490Y-68965262D01*
X164840748Y-68962625D01*
X164911415Y-68964353D01*
X164960035Y-68967365D01*
X165010231Y-68975558D01*
X165042725Y-68989611D01*
X165060184Y-69010846D01*
X165065275Y-69040586D01*
X165065169Y-69045128D01*
X165056467Y-69079922D01*
X165032457Y-69103339D01*
X164991192Y-69116539D01*
X164930723Y-69120681D01*
X164862248Y-69120681D01*
X164862248Y-69159033D01*
X164862298Y-69168168D01*
X164864519Y-69185419D01*
X164873786Y-69195713D01*
X164895167Y-69202651D01*
X164933728Y-69209833D01*
X164939202Y-69210767D01*
X165036152Y-69220670D01*
X165126144Y-69217751D01*
X165207052Y-69203021D01*
X165276751Y-69177491D01*
X165333116Y-69142170D01*
X165374021Y-69098071D01*
X165397343Y-69046204D01*
X165400955Y-68987580D01*
X165395437Y-68958686D01*
X165368753Y-68902796D01*
X165322565Y-68857137D01*
X165257583Y-68822300D01*
X165174521Y-68798882D01*
X165149847Y-68794433D01*
X165060518Y-68783934D01*
X164980711Y-68785163D01*
X164902618Y-68798098D01*
X164867475Y-68804888D01*
X164822037Y-68805905D01*
X164790722Y-68793374D01*
X164770569Y-68766587D01*
X164764185Y-68738340D01*
X164773671Y-68707116D01*
X164783000Y-68693691D01*
X164817235Y-68670159D01*
X164869857Y-68652287D01*
X164938373Y-68640791D01*
X165020292Y-68636384D01*
X165117442Y-68640371D01*
G36*
X165117442Y-68640371D02*
G01*
X165223449Y-68656686D01*
X165317261Y-68684737D01*
X165396057Y-68723644D01*
X165457011Y-68772526D01*
X165483081Y-68805387D01*
X165512589Y-68854586D01*
X165537860Y-68908444D01*
X165555510Y-68959611D01*
X165562150Y-69000736D01*
X165560590Y-69020451D01*
X165547649Y-69071784D01*
X165524486Y-69128310D01*
X165494594Y-69182227D01*
X165461465Y-69225731D01*
X165451269Y-69236079D01*
X165384184Y-69287854D01*
X165304058Y-69327746D01*
X165217848Y-69352148D01*
X165162884Y-69360260D01*
X165069431Y-69366865D01*
X164979650Y-69364778D01*
X164897161Y-69354532D01*
X164825578Y-69336662D01*
X164768520Y-69311700D01*
X164729603Y-69280180D01*
X164728228Y-69278204D01*
X164721140Y-69252978D01*
X164716901Y-69205727D01*
X164715492Y-69136263D01*
X164716352Y-69074030D01*
X164721072Y-69026648D01*
X164732762Y-68994545D01*
X164754531Y-68974992D01*
X164789490Y-68965262D01*
X164840748Y-68962625D01*
X164911415Y-68964353D01*
X164960035Y-68967365D01*
X165010231Y-68975558D01*
X165042725Y-68989611D01*
X165060184Y-69010846D01*
X165065275Y-69040586D01*
X165065169Y-69045128D01*
X165056467Y-69079922D01*
X165032457Y-69103339D01*
X164991192Y-69116539D01*
X164930723Y-69120681D01*
X164862248Y-69120681D01*
X164862248Y-69159033D01*
X164862298Y-69168168D01*
X164864519Y-69185419D01*
X164873786Y-69195713D01*
X164895167Y-69202651D01*
X164933728Y-69209833D01*
X164939202Y-69210767D01*
X165036152Y-69220670D01*
X165126144Y-69217751D01*
X165207052Y-69203021D01*
X165276751Y-69177491D01*
X165333116Y-69142170D01*
X165374021Y-69098071D01*
X165397343Y-69046204D01*
X165400955Y-68987580D01*
X165395437Y-68958686D01*
X165368753Y-68902796D01*
X165322565Y-68857137D01*
X165257583Y-68822300D01*
X165174521Y-68798882D01*
X165149847Y-68794433D01*
X165060518Y-68783934D01*
X164980711Y-68785163D01*
X164902618Y-68798098D01*
X164867475Y-68804888D01*
X164822037Y-68805905D01*
X164790722Y-68793374D01*
X164770569Y-68766587D01*
X164764185Y-68738340D01*
X164773671Y-68707116D01*
X164783000Y-68693691D01*
X164817235Y-68670159D01*
X164869857Y-68652287D01*
X164938373Y-68640791D01*
X165020292Y-68636384D01*
X165117442Y-68640371D01*
G37*
X163168095Y-68665003D02*
X163173044Y-68671687D01*
X163178888Y-68682258D01*
X163183349Y-68696345D01*
X163186613Y-68716670D01*
X163188866Y-68745957D01*
X163190294Y-68786929D01*
X163191084Y-68842309D01*
X163191421Y-68914820D01*
X163191492Y-69007186D01*
X163191463Y-69073103D01*
X163191231Y-69151420D01*
X163190611Y-69211688D01*
X163189418Y-69256585D01*
X163187471Y-69288794D01*
X163184586Y-69310992D01*
X163180580Y-69325861D01*
X163175271Y-69336081D01*
X163168475Y-69344330D01*
X163163960Y-69348987D01*
X163155730Y-69355474D01*
X163144370Y-69360386D01*
X163127102Y-69363941D01*
X163101147Y-69366359D01*
X163063728Y-69367859D01*
X163012065Y-69368659D01*
X162943381Y-69368979D01*
X162854898Y-69369037D01*
X162835223Y-69369030D01*
X162748198Y-69368764D01*
X162680546Y-69367998D01*
X162629591Y-69366584D01*
X162592659Y-69364372D01*
X162567075Y-69361214D01*
X162550163Y-69356961D01*
X162539249Y-69351463D01*
X162528756Y-69341477D01*
X162515495Y-69310360D01*
X162516678Y-69274472D01*
X162532842Y-69242925D01*
X162535031Y-69240649D01*
X162543719Y-69234381D01*
X162557061Y-69229715D01*
X162578044Y-69226419D01*
X162609655Y-69224260D01*
X162654882Y-69223006D01*
X162716712Y-69222423D01*
X162798131Y-69222281D01*
X163044737Y-69222281D01*
X163044737Y-69064237D01*
X162882298Y-69064237D01*
X162846630Y-69064156D01*
X162790860Y-69063359D01*
X162751722Y-69061354D01*
X162725268Y-69057713D01*
X162707551Y-69052004D01*
X162694621Y-69043799D01*
X162690978Y-69040615D01*
X162672570Y-69009640D01*
X162671936Y-68973304D01*
X162689475Y-68939685D01*
X162689537Y-68939616D01*
X162699208Y-68930990D01*
X162712501Y-68924934D01*
X162733209Y-68921003D01*
X162765120Y-68918748D01*
X162812026Y-68917723D01*
X162877716Y-68917481D01*
X163045863Y-68917481D01*
X163042478Y-68852570D01*
X163039092Y-68787659D01*
X162797015Y-68784606D01*
X162771999Y-68784278D01*
X162690379Y-68782798D01*
X162628060Y-68780414D01*
X162582446Y-68776419D01*
X162550944Y-68770105D01*
X162530959Y-68760766D01*
X162519896Y-68747695D01*
X162515161Y-68730184D01*
X162514159Y-68707527D01*
X162514165Y-68705162D01*
X162515319Y-68685131D01*
X162520116Y-68669338D01*
X162530924Y-68657282D01*
X162550109Y-68648459D01*
X162580037Y-68642367D01*
X162623075Y-68638503D01*
X162681591Y-68636366D01*
X162757949Y-68635452D01*
X162854518Y-68635259D01*
X163144698Y-68635259D01*
X163168095Y-68665003D01*
G36*
X163168095Y-68665003D02*
G01*
X163173044Y-68671687D01*
X163178888Y-68682258D01*
X163183349Y-68696345D01*
X163186613Y-68716670D01*
X163188866Y-68745957D01*
X163190294Y-68786929D01*
X163191084Y-68842309D01*
X163191421Y-68914820D01*
X163191492Y-69007186D01*
X163191463Y-69073103D01*
X163191231Y-69151420D01*
X163190611Y-69211688D01*
X163189418Y-69256585D01*
X163187471Y-69288794D01*
X163184586Y-69310992D01*
X163180580Y-69325861D01*
X163175271Y-69336081D01*
X163168475Y-69344330D01*
X163163960Y-69348987D01*
X163155730Y-69355474D01*
X163144370Y-69360386D01*
X163127102Y-69363941D01*
X163101147Y-69366359D01*
X163063728Y-69367859D01*
X163012065Y-69368659D01*
X162943381Y-69368979D01*
X162854898Y-69369037D01*
X162835223Y-69369030D01*
X162748198Y-69368764D01*
X162680546Y-69367998D01*
X162629591Y-69366584D01*
X162592659Y-69364372D01*
X162567075Y-69361214D01*
X162550163Y-69356961D01*
X162539249Y-69351463D01*
X162528756Y-69341477D01*
X162515495Y-69310360D01*
X162516678Y-69274472D01*
X162532842Y-69242925D01*
X162535031Y-69240649D01*
X162543719Y-69234381D01*
X162557061Y-69229715D01*
X162578044Y-69226419D01*
X162609655Y-69224260D01*
X162654882Y-69223006D01*
X162716712Y-69222423D01*
X162798131Y-69222281D01*
X163044737Y-69222281D01*
X163044737Y-69064237D01*
X162882298Y-69064237D01*
X162846630Y-69064156D01*
X162790860Y-69063359D01*
X162751722Y-69061354D01*
X162725268Y-69057713D01*
X162707551Y-69052004D01*
X162694621Y-69043799D01*
X162690978Y-69040615D01*
X162672570Y-69009640D01*
X162671936Y-68973304D01*
X162689475Y-68939685D01*
X162689537Y-68939616D01*
X162699208Y-68930990D01*
X162712501Y-68924934D01*
X162733209Y-68921003D01*
X162765120Y-68918748D01*
X162812026Y-68917723D01*
X162877716Y-68917481D01*
X163045863Y-68917481D01*
X163042478Y-68852570D01*
X163039092Y-68787659D01*
X162797015Y-68784606D01*
X162771999Y-68784278D01*
X162690379Y-68782798D01*
X162628060Y-68780414D01*
X162582446Y-68776419D01*
X162550944Y-68770105D01*
X162530959Y-68760766D01*
X162519896Y-68747695D01*
X162515161Y-68730184D01*
X162514159Y-68707527D01*
X162514165Y-68705162D01*
X162515319Y-68685131D01*
X162520116Y-68669338D01*
X162530924Y-68657282D01*
X162550109Y-68648459D01*
X162580037Y-68642367D01*
X162623075Y-68638503D01*
X162681591Y-68636366D01*
X162757949Y-68635452D01*
X162854518Y-68635259D01*
X163144698Y-68635259D01*
X163168095Y-68665003D01*
G37*
X167845026Y-68635275D02*
X167922123Y-68635467D01*
X167981069Y-68636052D01*
X168024656Y-68637243D01*
X168055675Y-68639256D01*
X168076917Y-68642304D01*
X168091174Y-68646601D01*
X168101237Y-68652364D01*
X168109898Y-68659804D01*
X168111683Y-68661485D01*
X168118927Y-68669024D01*
X168124569Y-68678042D01*
X168128809Y-68691176D01*
X168131848Y-68711064D01*
X168133886Y-68740343D01*
X168135122Y-68781650D01*
X168135757Y-68837623D01*
X168135992Y-68910899D01*
X168136026Y-69004115D01*
X168135989Y-69076905D01*
X168135740Y-69155081D01*
X168135104Y-69215295D01*
X168133907Y-69260174D01*
X168131976Y-69292344D01*
X168129138Y-69314431D01*
X168125219Y-69329062D01*
X168120047Y-69338862D01*
X168113448Y-69346459D01*
X168110114Y-69349636D01*
X168101592Y-69355746D01*
X168089590Y-69360421D01*
X168071379Y-69363851D01*
X168044232Y-69366228D01*
X168005421Y-69367744D01*
X167952216Y-69368590D01*
X167881890Y-69368957D01*
X167791714Y-69369037D01*
X167749606Y-69369025D01*
X167668459Y-69368843D01*
X167605967Y-69368290D01*
X167559401Y-69367174D01*
X167526033Y-69365305D01*
X167503136Y-69362490D01*
X167487980Y-69358538D01*
X167477838Y-69353258D01*
X167469981Y-69346459D01*
X167455255Y-69324859D01*
X167447403Y-69295659D01*
X167452902Y-69271752D01*
X167469981Y-69244859D01*
X167474960Y-69240251D01*
X167484735Y-69233964D01*
X167498851Y-69229338D01*
X167520346Y-69226122D01*
X167552260Y-69224062D01*
X167597634Y-69222904D01*
X167659505Y-69222394D01*
X167740914Y-69222281D01*
X167989270Y-69222281D01*
X167989270Y-69064237D01*
X167828093Y-69064237D01*
X167792275Y-69064091D01*
X167726651Y-69062368D01*
X167679410Y-69057933D01*
X167647675Y-69049829D01*
X167628569Y-69037098D01*
X167619215Y-69018784D01*
X167616737Y-68993930D01*
X167617534Y-68973674D01*
X167622786Y-68951848D01*
X167635580Y-68936496D01*
X167658920Y-68926501D01*
X167695809Y-68920745D01*
X167749251Y-68918111D01*
X167822250Y-68917481D01*
X167990397Y-68917481D01*
X167987011Y-68852570D01*
X167983626Y-68787659D01*
X167735909Y-68784610D01*
X167673318Y-68783731D01*
X167604857Y-68782287D01*
X167553953Y-68780356D01*
X167517700Y-68777706D01*
X167493193Y-68774102D01*
X167477527Y-68769313D01*
X167467798Y-68763105D01*
X167461783Y-68756702D01*
X167448774Y-68725020D01*
X167452335Y-68689334D01*
X167472110Y-68658276D01*
X167475361Y-68655353D01*
X167484341Y-68649002D01*
X167496445Y-68644149D01*
X167514451Y-68640595D01*
X167541139Y-68638138D01*
X167579289Y-68636577D01*
X167631678Y-68635710D01*
X167701086Y-68635338D01*
X167790293Y-68635259D01*
X167845026Y-68635275D01*
G36*
X167845026Y-68635275D02*
G01*
X167922123Y-68635467D01*
X167981069Y-68636052D01*
X168024656Y-68637243D01*
X168055675Y-68639256D01*
X168076917Y-68642304D01*
X168091174Y-68646601D01*
X168101237Y-68652364D01*
X168109898Y-68659804D01*
X168111683Y-68661485D01*
X168118927Y-68669024D01*
X168124569Y-68678042D01*
X168128809Y-68691176D01*
X168131848Y-68711064D01*
X168133886Y-68740343D01*
X168135122Y-68781650D01*
X168135757Y-68837623D01*
X168135992Y-68910899D01*
X168136026Y-69004115D01*
X168135989Y-69076905D01*
X168135740Y-69155081D01*
X168135104Y-69215295D01*
X168133907Y-69260174D01*
X168131976Y-69292344D01*
X168129138Y-69314431D01*
X168125219Y-69329062D01*
X168120047Y-69338862D01*
X168113448Y-69346459D01*
X168110114Y-69349636D01*
X168101592Y-69355746D01*
X168089590Y-69360421D01*
X168071379Y-69363851D01*
X168044232Y-69366228D01*
X168005421Y-69367744D01*
X167952216Y-69368590D01*
X167881890Y-69368957D01*
X167791714Y-69369037D01*
X167749606Y-69369025D01*
X167668459Y-69368843D01*
X167605967Y-69368290D01*
X167559401Y-69367174D01*
X167526033Y-69365305D01*
X167503136Y-69362490D01*
X167487980Y-69358538D01*
X167477838Y-69353258D01*
X167469981Y-69346459D01*
X167455255Y-69324859D01*
X167447403Y-69295659D01*
X167452902Y-69271752D01*
X167469981Y-69244859D01*
X167474960Y-69240251D01*
X167484735Y-69233964D01*
X167498851Y-69229338D01*
X167520346Y-69226122D01*
X167552260Y-69224062D01*
X167597634Y-69222904D01*
X167659505Y-69222394D01*
X167740914Y-69222281D01*
X167989270Y-69222281D01*
X167989270Y-69064237D01*
X167828093Y-69064237D01*
X167792275Y-69064091D01*
X167726651Y-69062368D01*
X167679410Y-69057933D01*
X167647675Y-69049829D01*
X167628569Y-69037098D01*
X167619215Y-69018784D01*
X167616737Y-68993930D01*
X167617534Y-68973674D01*
X167622786Y-68951848D01*
X167635580Y-68936496D01*
X167658920Y-68926501D01*
X167695809Y-68920745D01*
X167749251Y-68918111D01*
X167822250Y-68917481D01*
X167990397Y-68917481D01*
X167987011Y-68852570D01*
X167983626Y-68787659D01*
X167735909Y-68784610D01*
X167673318Y-68783731D01*
X167604857Y-68782287D01*
X167553953Y-68780356D01*
X167517700Y-68777706D01*
X167493193Y-68774102D01*
X167477527Y-68769313D01*
X167467798Y-68763105D01*
X167461783Y-68756702D01*
X167448774Y-68725020D01*
X167452335Y-68689334D01*
X167472110Y-68658276D01*
X167475361Y-68655353D01*
X167484341Y-68649002D01*
X167496445Y-68644149D01*
X167514451Y-68640595D01*
X167541139Y-68638138D01*
X167579289Y-68636577D01*
X167631678Y-68635710D01*
X167701086Y-68635338D01*
X167790293Y-68635259D01*
X167845026Y-68635275D01*
G37*
X159277994Y-68644670D02*
X159295955Y-68663181D01*
X159316555Y-68694263D01*
X159341387Y-68739948D01*
X159372042Y-68802270D01*
X159410112Y-68883263D01*
X159424746Y-68914646D01*
X159454495Y-68977830D01*
X159480589Y-69032436D01*
X159501584Y-69075482D01*
X159516031Y-69103985D01*
X159522483Y-69114962D01*
X159523842Y-69114381D01*
X159533834Y-69100434D01*
X159551125Y-69070896D01*
X159573722Y-69029279D01*
X159599630Y-68979095D01*
X159615603Y-68947606D01*
X159644553Y-68892253D01*
X159667041Y-68853236D01*
X159685257Y-68827758D01*
X159701388Y-68813023D01*
X159717622Y-68806234D01*
X159736149Y-68804592D01*
X159746652Y-68805067D01*
X159762768Y-68809274D01*
X159778082Y-68820138D01*
X159794680Y-68840411D01*
X159814649Y-68872846D01*
X159840075Y-68920196D01*
X159873044Y-68985214D01*
X159882777Y-69004469D01*
X159907235Y-69051138D01*
X159927470Y-69087301D01*
X159941603Y-69109689D01*
X159947752Y-69115037D01*
X159949119Y-69111765D01*
X159958494Y-69090856D01*
X159975354Y-69053917D01*
X159998271Y-69004066D01*
X160025812Y-68944418D01*
X160056547Y-68878090D01*
X160083262Y-68820869D01*
X160112885Y-68758880D01*
X160135956Y-68713141D01*
X160153935Y-68681100D01*
X160168282Y-68660206D01*
X160180458Y-68647910D01*
X160191924Y-68641658D01*
X160201334Y-68638766D01*
X160226439Y-68638617D01*
X160253582Y-68653960D01*
X160254882Y-68654945D01*
X160276966Y-68677580D01*
X160288015Y-68699805D01*
X160288061Y-68700445D01*
X160283520Y-68718107D01*
X160270656Y-68752673D01*
X160250897Y-68801018D01*
X160225673Y-68860017D01*
X160196411Y-68926547D01*
X160164542Y-68997483D01*
X160131493Y-69069699D01*
X160098693Y-69140072D01*
X160067572Y-69205477D01*
X160039557Y-69262789D01*
X160016078Y-69308884D01*
X159998564Y-69340638D01*
X159988443Y-69354925D01*
X159954035Y-69368294D01*
X159912338Y-69361933D01*
X159906973Y-69357236D01*
X159891144Y-69335085D01*
X159868942Y-69298324D01*
X159842525Y-69250607D01*
X159814052Y-69195585D01*
X159734278Y-69036342D01*
X159661091Y-69182934D01*
X159651395Y-69202224D01*
X159624417Y-69254572D01*
X159600388Y-69299362D01*
X159581624Y-69332346D01*
X159570438Y-69349281D01*
X159569292Y-69350524D01*
X159541171Y-69365811D01*
X159506109Y-69367494D01*
X159475068Y-69354925D01*
X159472642Y-69352076D01*
X159460382Y-69331451D01*
X159440644Y-69293900D01*
X159414740Y-69242072D01*
X159383977Y-69178615D01*
X159349667Y-69106177D01*
X159313117Y-69027408D01*
X159292877Y-68983285D01*
X159256104Y-68902557D01*
X159227647Y-68838879D01*
X159206623Y-68789944D01*
X159192146Y-68753449D01*
X159183331Y-68727087D01*
X159179296Y-68708553D01*
X159179154Y-68695544D01*
X159182022Y-68685753D01*
X159196679Y-68664870D01*
X159223282Y-68644569D01*
X159224037Y-68644227D01*
X159243627Y-68637226D01*
X159261082Y-68636696D01*
X159277994Y-68644670D01*
G36*
X159277994Y-68644670D02*
G01*
X159295955Y-68663181D01*
X159316555Y-68694263D01*
X159341387Y-68739948D01*
X159372042Y-68802270D01*
X159410112Y-68883263D01*
X159424746Y-68914646D01*
X159454495Y-68977830D01*
X159480589Y-69032436D01*
X159501584Y-69075482D01*
X159516031Y-69103985D01*
X159522483Y-69114962D01*
X159523842Y-69114381D01*
X159533834Y-69100434D01*
X159551125Y-69070896D01*
X159573722Y-69029279D01*
X159599630Y-68979095D01*
X159615603Y-68947606D01*
X159644553Y-68892253D01*
X159667041Y-68853236D01*
X159685257Y-68827758D01*
X159701388Y-68813023D01*
X159717622Y-68806234D01*
X159736149Y-68804592D01*
X159746652Y-68805067D01*
X159762768Y-68809274D01*
X159778082Y-68820138D01*
X159794680Y-68840411D01*
X159814649Y-68872846D01*
X159840075Y-68920196D01*
X159873044Y-68985214D01*
X159882777Y-69004469D01*
X159907235Y-69051138D01*
X159927470Y-69087301D01*
X159941603Y-69109689D01*
X159947752Y-69115037D01*
X159949119Y-69111765D01*
X159958494Y-69090856D01*
X159975354Y-69053917D01*
X159998271Y-69004066D01*
X160025812Y-68944418D01*
X160056547Y-68878090D01*
X160083262Y-68820869D01*
X160112885Y-68758880D01*
X160135956Y-68713141D01*
X160153935Y-68681100D01*
X160168282Y-68660206D01*
X160180458Y-68647910D01*
X160191924Y-68641658D01*
X160201334Y-68638766D01*
X160226439Y-68638617D01*
X160253582Y-68653960D01*
X160254882Y-68654945D01*
X160276966Y-68677580D01*
X160288015Y-68699805D01*
X160288061Y-68700445D01*
X160283520Y-68718107D01*
X160270656Y-68752673D01*
X160250897Y-68801018D01*
X160225673Y-68860017D01*
X160196411Y-68926547D01*
X160164542Y-68997483D01*
X160131493Y-69069699D01*
X160098693Y-69140072D01*
X160067572Y-69205477D01*
X160039557Y-69262789D01*
X160016078Y-69308884D01*
X159998564Y-69340638D01*
X159988443Y-69354925D01*
X159954035Y-69368294D01*
X159912338Y-69361933D01*
X159906973Y-69357236D01*
X159891144Y-69335085D01*
X159868942Y-69298324D01*
X159842525Y-69250607D01*
X159814052Y-69195585D01*
X159734278Y-69036342D01*
X159661091Y-69182934D01*
X159651395Y-69202224D01*
X159624417Y-69254572D01*
X159600388Y-69299362D01*
X159581624Y-69332346D01*
X159570438Y-69349281D01*
X159569292Y-69350524D01*
X159541171Y-69365811D01*
X159506109Y-69367494D01*
X159475068Y-69354925D01*
X159472642Y-69352076D01*
X159460382Y-69331451D01*
X159440644Y-69293900D01*
X159414740Y-69242072D01*
X159383977Y-69178615D01*
X159349667Y-69106177D01*
X159313117Y-69027408D01*
X159292877Y-68983285D01*
X159256104Y-68902557D01*
X159227647Y-68838879D01*
X159206623Y-68789944D01*
X159192146Y-68753449D01*
X159183331Y-68727087D01*
X159179296Y-68708553D01*
X159179154Y-68695544D01*
X159182022Y-68685753D01*
X159196679Y-68664870D01*
X159223282Y-68644569D01*
X159224037Y-68644227D01*
X159243627Y-68637226D01*
X159261082Y-68636696D01*
X159277994Y-68644670D01*
G37*
X166829145Y-68636128D02*
X166895392Y-68641558D01*
X166950692Y-68651156D01*
X167001575Y-68666017D01*
X167072887Y-68699150D01*
X167124044Y-68741832D01*
X167154867Y-68793897D01*
X167165181Y-68855175D01*
X167164244Y-68886424D01*
X167158452Y-68911221D01*
X167143645Y-68932891D01*
X167115672Y-68960241D01*
X167107694Y-68967570D01*
X167083984Y-68988473D01*
X167061590Y-69005443D01*
X167037557Y-69019397D01*
X167008929Y-69031248D01*
X166972752Y-69041912D01*
X166926072Y-69052303D01*
X166865933Y-69063338D01*
X166789382Y-69075930D01*
X166693463Y-69090996D01*
X166675100Y-69094030D01*
X166612770Y-69107650D01*
X166567552Y-69123384D01*
X166541268Y-69140455D01*
X166535739Y-69158089D01*
X166538360Y-69162360D01*
X166556292Y-69177425D01*
X166584418Y-69194059D01*
X166597218Y-69200049D01*
X166618516Y-69207242D01*
X166644902Y-69212019D01*
X166680746Y-69214838D01*
X166730420Y-69216156D01*
X166798292Y-69216429D01*
X166816077Y-69216356D01*
X166883698Y-69215245D01*
X166948637Y-69213020D01*
X167004262Y-69209954D01*
X167043943Y-69206319D01*
X167079454Y-69202251D01*
X167108707Y-69201468D01*
X167127607Y-69206068D01*
X167142721Y-69216743D01*
X167146377Y-69220336D01*
X167162719Y-69252110D01*
X167161399Y-69287764D01*
X167142442Y-69318382D01*
X167122072Y-69329988D01*
X167086088Y-69342683D01*
X167043664Y-69352733D01*
X167040214Y-69353332D01*
X166997544Y-69358548D01*
X166940158Y-69362922D01*
X166875141Y-69366010D01*
X166809581Y-69367369D01*
X166793349Y-69367410D01*
X166695036Y-69364933D01*
X166614984Y-69356927D01*
X166549805Y-69342395D01*
X166496109Y-69320341D01*
X166450508Y-69289768D01*
X166409615Y-69249678D01*
X166389494Y-69223451D01*
X166377868Y-69193904D01*
X166374959Y-69154187D01*
X166375100Y-69142218D01*
X166378973Y-69109537D01*
X166391357Y-69083011D01*
X166416522Y-69052163D01*
X166437734Y-69030023D01*
X166464130Y-69007477D01*
X166493847Y-68989109D01*
X166530077Y-68973853D01*
X166576009Y-68960641D01*
X166634836Y-68948406D01*
X166709748Y-68936081D01*
X166803937Y-68922598D01*
X166849249Y-68915588D01*
X166917203Y-68901029D01*
X166966339Y-68884529D01*
X166995906Y-68866631D01*
X167005156Y-68847877D01*
X166993340Y-68828807D01*
X166959708Y-68809963D01*
X166956662Y-68808749D01*
X166910303Y-68796671D01*
X166847653Y-68788471D01*
X166774219Y-68784311D01*
X166695509Y-68784353D01*
X166617031Y-68788761D01*
X166544292Y-68797697D01*
X166540365Y-68798346D01*
X166491549Y-68806053D01*
X166459297Y-68809665D01*
X166438300Y-68809068D01*
X166423246Y-68804146D01*
X166408826Y-68794788D01*
X166407656Y-68793917D01*
X166383139Y-68763543D01*
X166378346Y-68728042D01*
X166394152Y-68693461D01*
X166398698Y-68689005D01*
X166428312Y-68673865D01*
X166475294Y-68660742D01*
X166535598Y-68649942D01*
X166605180Y-68641773D01*
X166679995Y-68636543D01*
X166755998Y-68634559D01*
X166829145Y-68636128D01*
G36*
X166829145Y-68636128D02*
G01*
X166895392Y-68641558D01*
X166950692Y-68651156D01*
X167001575Y-68666017D01*
X167072887Y-68699150D01*
X167124044Y-68741832D01*
X167154867Y-68793897D01*
X167165181Y-68855175D01*
X167164244Y-68886424D01*
X167158452Y-68911221D01*
X167143645Y-68932891D01*
X167115672Y-68960241D01*
X167107694Y-68967570D01*
X167083984Y-68988473D01*
X167061590Y-69005443D01*
X167037557Y-69019397D01*
X167008929Y-69031248D01*
X166972752Y-69041912D01*
X166926072Y-69052303D01*
X166865933Y-69063338D01*
X166789382Y-69075930D01*
X166693463Y-69090996D01*
X166675100Y-69094030D01*
X166612770Y-69107650D01*
X166567552Y-69123384D01*
X166541268Y-69140455D01*
X166535739Y-69158089D01*
X166538360Y-69162360D01*
X166556292Y-69177425D01*
X166584418Y-69194059D01*
X166597218Y-69200049D01*
X166618516Y-69207242D01*
X166644902Y-69212019D01*
X166680746Y-69214838D01*
X166730420Y-69216156D01*
X166798292Y-69216429D01*
X166816077Y-69216356D01*
X166883698Y-69215245D01*
X166948637Y-69213020D01*
X167004262Y-69209954D01*
X167043943Y-69206319D01*
X167079454Y-69202251D01*
X167108707Y-69201468D01*
X167127607Y-69206068D01*
X167142721Y-69216743D01*
X167146377Y-69220336D01*
X167162719Y-69252110D01*
X167161399Y-69287764D01*
X167142442Y-69318382D01*
X167122072Y-69329988D01*
X167086088Y-69342683D01*
X167043664Y-69352733D01*
X167040214Y-69353332D01*
X166997544Y-69358548D01*
X166940158Y-69362922D01*
X166875141Y-69366010D01*
X166809581Y-69367369D01*
X166793349Y-69367410D01*
X166695036Y-69364933D01*
X166614984Y-69356927D01*
X166549805Y-69342395D01*
X166496109Y-69320341D01*
X166450508Y-69289768D01*
X166409615Y-69249678D01*
X166389494Y-69223451D01*
X166377868Y-69193904D01*
X166374959Y-69154187D01*
X166375100Y-69142218D01*
X166378973Y-69109537D01*
X166391357Y-69083011D01*
X166416522Y-69052163D01*
X166437734Y-69030023D01*
X166464130Y-69007477D01*
X166493847Y-68989109D01*
X166530077Y-68973853D01*
X166576009Y-68960641D01*
X166634836Y-68948406D01*
X166709748Y-68936081D01*
X166803937Y-68922598D01*
X166849249Y-68915588D01*
X166917203Y-68901029D01*
X166966339Y-68884529D01*
X166995906Y-68866631D01*
X167005156Y-68847877D01*
X166993340Y-68828807D01*
X166959708Y-68809963D01*
X166956662Y-68808749D01*
X166910303Y-68796671D01*
X166847653Y-68788471D01*
X166774219Y-68784311D01*
X166695509Y-68784353D01*
X166617031Y-68788761D01*
X166544292Y-68797697D01*
X166540365Y-68798346D01*
X166491549Y-68806053D01*
X166459297Y-68809665D01*
X166438300Y-68809068D01*
X166423246Y-68804146D01*
X166408826Y-68794788D01*
X166407656Y-68793917D01*
X166383139Y-68763543D01*
X166378346Y-68728042D01*
X166394152Y-68693461D01*
X166398698Y-68689005D01*
X166428312Y-68673865D01*
X166475294Y-68660742D01*
X166535598Y-68649942D01*
X166605180Y-68641773D01*
X166679995Y-68636543D01*
X166755998Y-68634559D01*
X166829145Y-68636128D01*
G37*
X162828847Y-63158078D02*
X163013348Y-63175015D01*
X163184749Y-63209174D01*
X163349427Y-63261991D01*
X163513756Y-63334905D01*
X163676424Y-63428001D01*
X163850999Y-63554914D01*
X164012888Y-63701650D01*
X164158528Y-63864576D01*
X164284352Y-64040059D01*
X164386797Y-64224468D01*
X164396096Y-64244196D01*
X164473973Y-64434613D01*
X164533148Y-64632477D01*
X164574387Y-64841570D01*
X164598452Y-65065670D01*
X164606111Y-65308559D01*
X164596799Y-65559643D01*
X164567244Y-65806912D01*
X164516987Y-66038383D01*
X164445577Y-66255699D01*
X164352566Y-66460502D01*
X164237504Y-66654433D01*
X164129422Y-66802594D01*
X163980184Y-66969300D01*
X163817521Y-67112089D01*
X163641505Y-67230914D01*
X163452207Y-67325729D01*
X163249697Y-67396487D01*
X163034048Y-67443142D01*
X163031587Y-67443505D01*
X162990058Y-67447149D01*
X162927388Y-67449852D01*
X162849373Y-67451487D01*
X162761808Y-67451930D01*
X162670487Y-67451052D01*
X162606484Y-67449767D01*
X162511523Y-67446790D01*
X162435428Y-67442528D01*
X162372712Y-67436526D01*
X162317885Y-67428329D01*
X162265460Y-67417482D01*
X162206477Y-67403465D01*
X162144940Y-67387503D01*
X162089286Y-67370758D01*
X162034463Y-67351268D01*
X161975422Y-67327073D01*
X161907111Y-67296210D01*
X161824478Y-67256719D01*
X161722473Y-67206639D01*
X161440352Y-67067215D01*
X161666313Y-66696067D01*
X161695896Y-66647490D01*
X161749043Y-66560289D01*
X161796614Y-66482331D01*
X161836868Y-66416458D01*
X161868068Y-66365516D01*
X161888476Y-66332347D01*
X161896352Y-66319795D01*
X161898542Y-66320170D01*
X161916188Y-66332454D01*
X161947189Y-66357947D01*
X161986647Y-66392694D01*
X162056920Y-66452729D01*
X162182371Y-66541506D01*
X162304089Y-66603394D01*
X162392045Y-66634300D01*
X162540817Y-66665885D01*
X162686989Y-66671484D01*
X162828443Y-66651477D01*
X162963058Y-66606246D01*
X163088714Y-66536173D01*
X163203293Y-66441639D01*
X163267049Y-66372011D01*
X163356867Y-66243224D01*
X163430567Y-66093773D01*
X163488501Y-65922892D01*
X163531021Y-65729817D01*
X163532951Y-65717831D01*
X163541863Y-65640143D01*
X163548497Y-65543617D01*
X163552800Y-65434849D01*
X163554719Y-65320434D01*
X163554198Y-65206968D01*
X163551185Y-65101046D01*
X163545626Y-65009263D01*
X163537467Y-64938217D01*
X163506194Y-64777280D01*
X163453574Y-64589286D01*
X163387395Y-64424700D01*
X163307747Y-64283649D01*
X163214717Y-64166260D01*
X163108394Y-64072663D01*
X162988867Y-64002982D01*
X162856224Y-63957347D01*
X162826795Y-63951683D01*
X162753044Y-63944288D01*
X162666856Y-63941874D01*
X162577884Y-63944308D01*
X162495786Y-63951460D01*
X162430217Y-63963195D01*
X162320986Y-64000561D01*
X162194227Y-64068778D01*
X162081358Y-64158550D01*
X162061437Y-64177461D01*
X162025340Y-64210918D01*
X161999829Y-64233438D01*
X161989464Y-64240928D01*
X161986913Y-64237346D01*
X161971206Y-64214723D01*
X161942832Y-64173647D01*
X161903664Y-64116836D01*
X161855578Y-64047012D01*
X161800448Y-63966893D01*
X161740149Y-63879201D01*
X161493514Y-63520402D01*
X161548611Y-63503895D01*
X161554360Y-63502024D01*
X161591785Y-63487166D01*
X161645744Y-63463208D01*
X161709902Y-63433031D01*
X161777929Y-63399517D01*
X161807572Y-63384700D01*
X161972176Y-63308201D01*
X162123890Y-63249045D01*
X162268548Y-63205718D01*
X162411986Y-63176707D01*
X162560038Y-63160499D01*
X162718541Y-63155580D01*
X162828847Y-63158078D01*
G36*
X162828847Y-63158078D02*
G01*
X163013348Y-63175015D01*
X163184749Y-63209174D01*
X163349427Y-63261991D01*
X163513756Y-63334905D01*
X163676424Y-63428001D01*
X163850999Y-63554914D01*
X164012888Y-63701650D01*
X164158528Y-63864576D01*
X164284352Y-64040059D01*
X164386797Y-64224468D01*
X164396096Y-64244196D01*
X164473973Y-64434613D01*
X164533148Y-64632477D01*
X164574387Y-64841570D01*
X164598452Y-65065670D01*
X164606111Y-65308559D01*
X164596799Y-65559643D01*
X164567244Y-65806912D01*
X164516987Y-66038383D01*
X164445577Y-66255699D01*
X164352566Y-66460502D01*
X164237504Y-66654433D01*
X164129422Y-66802594D01*
X163980184Y-66969300D01*
X163817521Y-67112089D01*
X163641505Y-67230914D01*
X163452207Y-67325729D01*
X163249697Y-67396487D01*
X163034048Y-67443142D01*
X163031587Y-67443505D01*
X162990058Y-67447149D01*
X162927388Y-67449852D01*
X162849373Y-67451487D01*
X162761808Y-67451930D01*
X162670487Y-67451052D01*
X162606484Y-67449767D01*
X162511523Y-67446790D01*
X162435428Y-67442528D01*
X162372712Y-67436526D01*
X162317885Y-67428329D01*
X162265460Y-67417482D01*
X162206477Y-67403465D01*
X162144940Y-67387503D01*
X162089286Y-67370758D01*
X162034463Y-67351268D01*
X161975422Y-67327073D01*
X161907111Y-67296210D01*
X161824478Y-67256719D01*
X161722473Y-67206639D01*
X161440352Y-67067215D01*
X161666313Y-66696067D01*
X161695896Y-66647490D01*
X161749043Y-66560289D01*
X161796614Y-66482331D01*
X161836868Y-66416458D01*
X161868068Y-66365516D01*
X161888476Y-66332347D01*
X161896352Y-66319795D01*
X161898542Y-66320170D01*
X161916188Y-66332454D01*
X161947189Y-66357947D01*
X161986647Y-66392694D01*
X162056920Y-66452729D01*
X162182371Y-66541506D01*
X162304089Y-66603394D01*
X162392045Y-66634300D01*
X162540817Y-66665885D01*
X162686989Y-66671484D01*
X162828443Y-66651477D01*
X162963058Y-66606246D01*
X163088714Y-66536173D01*
X163203293Y-66441639D01*
X163267049Y-66372011D01*
X163356867Y-66243224D01*
X163430567Y-66093773D01*
X163488501Y-65922892D01*
X163531021Y-65729817D01*
X163532951Y-65717831D01*
X163541863Y-65640143D01*
X163548497Y-65543617D01*
X163552800Y-65434849D01*
X163554719Y-65320434D01*
X163554198Y-65206968D01*
X163551185Y-65101046D01*
X163545626Y-65009263D01*
X163537467Y-64938217D01*
X163506194Y-64777280D01*
X163453574Y-64589286D01*
X163387395Y-64424700D01*
X163307747Y-64283649D01*
X163214717Y-64166260D01*
X163108394Y-64072663D01*
X162988867Y-64002982D01*
X162856224Y-63957347D01*
X162826795Y-63951683D01*
X162753044Y-63944288D01*
X162666856Y-63941874D01*
X162577884Y-63944308D01*
X162495786Y-63951460D01*
X162430217Y-63963195D01*
X162320986Y-64000561D01*
X162194227Y-64068778D01*
X162081358Y-64158550D01*
X162061437Y-64177461D01*
X162025340Y-64210918D01*
X161999829Y-64233438D01*
X161989464Y-64240928D01*
X161986913Y-64237346D01*
X161971206Y-64214723D01*
X161942832Y-64173647D01*
X161903664Y-64116836D01*
X161855578Y-64047012D01*
X161800448Y-63966893D01*
X161740149Y-63879201D01*
X161493514Y-63520402D01*
X161548611Y-63503895D01*
X161554360Y-63502024D01*
X161591785Y-63487166D01*
X161645744Y-63463208D01*
X161709902Y-63433031D01*
X161777929Y-63399517D01*
X161807572Y-63384700D01*
X161972176Y-63308201D01*
X162123890Y-63249045D01*
X162268548Y-63205718D01*
X162411986Y-63176707D01*
X162560038Y-63160499D01*
X162718541Y-63155580D01*
X162828847Y-63158078D01*
G37*
X158343755Y-66019001D02*
X158340842Y-66146057D01*
X158332512Y-66258109D01*
X158318120Y-66361252D01*
X158297021Y-66461581D01*
X158268570Y-66565190D01*
X158225428Y-66689033D01*
X158146190Y-66856216D01*
X158048993Y-67005961D01*
X157935325Y-67136852D01*
X157806672Y-67247474D01*
X157664521Y-67336412D01*
X157510359Y-67402250D01*
X157345674Y-67443574D01*
X157343692Y-67443906D01*
X157223337Y-67455486D01*
X157091099Y-67453941D01*
X156956404Y-67440222D01*
X156828684Y-67415283D01*
X156717366Y-67380077D01*
X156669851Y-67358653D01*
X156607969Y-67326090D01*
X156544380Y-67288846D01*
X156485721Y-67251021D01*
X156438626Y-67216714D01*
X156409730Y-67190024D01*
X156403097Y-67182696D01*
X156395189Y-67180135D01*
X156389903Y-67192851D01*
X156386008Y-67224899D01*
X156382271Y-67280331D01*
X156375406Y-67395838D01*
X155849569Y-67399434D01*
X155323732Y-67403031D01*
X155360116Y-67340946D01*
X155362285Y-67337276D01*
X155372865Y-67320044D01*
X155382463Y-67304693D01*
X155391131Y-67289889D01*
X155398920Y-67274299D01*
X155405882Y-67256589D01*
X155412069Y-67235424D01*
X155417531Y-67209473D01*
X155422322Y-67177400D01*
X155426492Y-67137872D01*
X155430094Y-67089557D01*
X155433178Y-67031119D01*
X155435797Y-66961226D01*
X155438002Y-66878544D01*
X155439844Y-66781739D01*
X155441376Y-66669477D01*
X155442612Y-66544205D01*
X156444054Y-66544205D01*
X156512703Y-66589233D01*
X156539103Y-66605453D01*
X156599552Y-66637857D01*
X156656865Y-66663661D01*
X156681965Y-66672398D01*
X156761831Y-66689841D01*
X156862811Y-66698748D01*
X156914159Y-66700601D01*
X156961823Y-66700179D01*
X156997304Y-66695419D01*
X157029129Y-66685014D01*
X157065823Y-66667659D01*
X157136342Y-66621169D01*
X157197435Y-66555406D01*
X157246337Y-66470658D01*
X157283515Y-66365597D01*
X157309432Y-66238895D01*
X157324556Y-66089222D01*
X157329350Y-65915252D01*
X157329117Y-65875700D01*
X157322225Y-65692444D01*
X157305488Y-65532985D01*
X157278501Y-65395643D01*
X157240855Y-65278734D01*
X157192144Y-65180577D01*
X157131961Y-65099488D01*
X157106993Y-65074740D01*
X157029613Y-65023181D01*
X156938776Y-64991807D01*
X156838419Y-64980795D01*
X156732475Y-64990324D01*
X156624879Y-65020572D01*
X156519568Y-65071718D01*
X156444054Y-65116982D01*
X156444054Y-66544205D01*
X155442612Y-66544205D01*
X155442649Y-66540425D01*
X155443715Y-66393250D01*
X155444625Y-66226618D01*
X155445431Y-66039194D01*
X155446185Y-65829646D01*
X155446938Y-65596640D01*
X155447742Y-65338842D01*
X155448649Y-65054919D01*
X155455514Y-62961135D01*
X156001271Y-62957545D01*
X156040959Y-62957304D01*
X156157730Y-62956825D01*
X156264535Y-62956727D01*
X156358458Y-62956992D01*
X156436584Y-62957599D01*
X156495998Y-62958528D01*
X156533784Y-62959759D01*
X156547027Y-62961272D01*
X156545333Y-62966069D01*
X156532694Y-62988810D01*
X156511760Y-63021881D01*
X156509672Y-63025043D01*
X156493442Y-63050577D01*
X156479833Y-63075421D01*
X156468616Y-63102134D01*
X156459559Y-63133274D01*
X156452431Y-63171402D01*
X156447003Y-63219075D01*
X156443043Y-63278853D01*
X156440320Y-63353295D01*
X156438605Y-63444960D01*
X156437665Y-63556408D01*
X156437270Y-63690196D01*
X156437189Y-63848885D01*
X156437333Y-63972781D01*
X156437774Y-64094419D01*
X156438479Y-64204711D01*
X156439417Y-64300973D01*
X156440557Y-64380519D01*
X156441865Y-64440663D01*
X156443310Y-64478718D01*
X156444859Y-64492000D01*
X156449858Y-64489939D01*
X156471831Y-64475422D01*
X156503211Y-64451581D01*
X156548704Y-64419519D01*
X156634178Y-64372279D01*
X156731872Y-64330140D01*
X156832666Y-64297370D01*
X156917352Y-64280660D01*
X157022823Y-64270009D01*
X157136971Y-64266318D01*
X157250989Y-64269594D01*
X157356067Y-64279840D01*
X157443396Y-64297060D01*
X157532317Y-64326068D01*
X157680658Y-64396389D01*
X157818010Y-64489877D01*
X157941841Y-64604377D01*
X158049615Y-64737739D01*
X158138799Y-64887808D01*
X158160940Y-64933826D01*
X158222987Y-65089048D01*
X158271496Y-65257513D01*
X158307080Y-65442192D01*
X158330353Y-65646053D01*
X158341927Y-65872067D01*
X158342465Y-65915252D01*
X158343755Y-66019001D01*
G36*
X158343755Y-66019001D02*
G01*
X158340842Y-66146057D01*
X158332512Y-66258109D01*
X158318120Y-66361252D01*
X158297021Y-66461581D01*
X158268570Y-66565190D01*
X158225428Y-66689033D01*
X158146190Y-66856216D01*
X158048993Y-67005961D01*
X157935325Y-67136852D01*
X157806672Y-67247474D01*
X157664521Y-67336412D01*
X157510359Y-67402250D01*
X157345674Y-67443574D01*
X157343692Y-67443906D01*
X157223337Y-67455486D01*
X157091099Y-67453941D01*
X156956404Y-67440222D01*
X156828684Y-67415283D01*
X156717366Y-67380077D01*
X156669851Y-67358653D01*
X156607969Y-67326090D01*
X156544380Y-67288846D01*
X156485721Y-67251021D01*
X156438626Y-67216714D01*
X156409730Y-67190024D01*
X156403097Y-67182696D01*
X156395189Y-67180135D01*
X156389903Y-67192851D01*
X156386008Y-67224899D01*
X156382271Y-67280331D01*
X156375406Y-67395838D01*
X155849569Y-67399434D01*
X155323732Y-67403031D01*
X155360116Y-67340946D01*
X155362285Y-67337276D01*
X155372865Y-67320044D01*
X155382463Y-67304693D01*
X155391131Y-67289889D01*
X155398920Y-67274299D01*
X155405882Y-67256589D01*
X155412069Y-67235424D01*
X155417531Y-67209473D01*
X155422322Y-67177400D01*
X155426492Y-67137872D01*
X155430094Y-67089557D01*
X155433178Y-67031119D01*
X155435797Y-66961226D01*
X155438002Y-66878544D01*
X155439844Y-66781739D01*
X155441376Y-66669477D01*
X155442612Y-66544205D01*
X156444054Y-66544205D01*
X156512703Y-66589233D01*
X156539103Y-66605453D01*
X156599552Y-66637857D01*
X156656865Y-66663661D01*
X156681965Y-66672398D01*
X156761831Y-66689841D01*
X156862811Y-66698748D01*
X156914159Y-66700601D01*
X156961823Y-66700179D01*
X156997304Y-66695419D01*
X157029129Y-66685014D01*
X157065823Y-66667659D01*
X157136342Y-66621169D01*
X157197435Y-66555406D01*
X157246337Y-66470658D01*
X157283515Y-66365597D01*
X157309432Y-66238895D01*
X157324556Y-66089222D01*
X157329350Y-65915252D01*
X157329117Y-65875700D01*
X157322225Y-65692444D01*
X157305488Y-65532985D01*
X157278501Y-65395643D01*
X157240855Y-65278734D01*
X157192144Y-65180577D01*
X157131961Y-65099488D01*
X157106993Y-65074740D01*
X157029613Y-65023181D01*
X156938776Y-64991807D01*
X156838419Y-64980795D01*
X156732475Y-64990324D01*
X156624879Y-65020572D01*
X156519568Y-65071718D01*
X156444054Y-65116982D01*
X156444054Y-66544205D01*
X155442612Y-66544205D01*
X155442649Y-66540425D01*
X155443715Y-66393250D01*
X155444625Y-66226618D01*
X155445431Y-66039194D01*
X155446185Y-65829646D01*
X155446938Y-65596640D01*
X155447742Y-65338842D01*
X155448649Y-65054919D01*
X155455514Y-62961135D01*
X156001271Y-62957545D01*
X156040959Y-62957304D01*
X156157730Y-62956825D01*
X156264535Y-62956727D01*
X156358458Y-62956992D01*
X156436584Y-62957599D01*
X156495998Y-62958528D01*
X156533784Y-62959759D01*
X156547027Y-62961272D01*
X156545333Y-62966069D01*
X156532694Y-62988810D01*
X156511760Y-63021881D01*
X156509672Y-63025043D01*
X156493442Y-63050577D01*
X156479833Y-63075421D01*
X156468616Y-63102134D01*
X156459559Y-63133274D01*
X156452431Y-63171402D01*
X156447003Y-63219075D01*
X156443043Y-63278853D01*
X156440320Y-63353295D01*
X156438605Y-63444960D01*
X156437665Y-63556408D01*
X156437270Y-63690196D01*
X156437189Y-63848885D01*
X156437333Y-63972781D01*
X156437774Y-64094419D01*
X156438479Y-64204711D01*
X156439417Y-64300973D01*
X156440557Y-64380519D01*
X156441865Y-64440663D01*
X156443310Y-64478718D01*
X156444859Y-64492000D01*
X156449858Y-64489939D01*
X156471831Y-64475422D01*
X156503211Y-64451581D01*
X156548704Y-64419519D01*
X156634178Y-64372279D01*
X156731872Y-64330140D01*
X156832666Y-64297370D01*
X156917352Y-64280660D01*
X157022823Y-64270009D01*
X157136971Y-64266318D01*
X157250989Y-64269594D01*
X157356067Y-64279840D01*
X157443396Y-64297060D01*
X157532317Y-64326068D01*
X157680658Y-64396389D01*
X157818010Y-64489877D01*
X157941841Y-64604377D01*
X158049615Y-64737739D01*
X158138799Y-64887808D01*
X158160940Y-64933826D01*
X158222987Y-65089048D01*
X158271496Y-65257513D01*
X158307080Y-65442192D01*
X158330353Y-65646053D01*
X158341927Y-65872067D01*
X158342465Y-65915252D01*
X158343755Y-66019001D01*
G37*
X161447128Y-66451034D02*
X161440962Y-66561736D01*
X161427635Y-66664739D01*
X161407526Y-66750541D01*
X161375440Y-66838818D01*
X161301063Y-66984299D01*
X161205994Y-67112295D01*
X161091218Y-67221933D01*
X160957719Y-67312342D01*
X160806480Y-67382648D01*
X160638487Y-67431981D01*
X160569983Y-67443108D01*
X160472093Y-67450841D01*
X160365484Y-67452580D01*
X160259065Y-67448465D01*
X160161745Y-67438637D01*
X160082433Y-67423236D01*
X160042579Y-67411110D01*
X159952063Y-67375626D01*
X159860052Y-67330575D01*
X159776038Y-67280843D01*
X159709515Y-67231316D01*
X159708697Y-67230601D01*
X159672243Y-67199692D01*
X159644196Y-67177683D01*
X159630569Y-67169298D01*
X159629079Y-67171300D01*
X159625708Y-67192926D01*
X159623365Y-67233260D01*
X159622487Y-67286000D01*
X159622487Y-67402703D01*
X159107622Y-67402703D01*
X159093916Y-67402701D01*
X158978965Y-67402500D01*
X158873464Y-67401999D01*
X158780414Y-67401237D01*
X158702817Y-67400249D01*
X158643674Y-67399074D01*
X158605986Y-67397749D01*
X158592757Y-67396311D01*
X158593065Y-67395054D01*
X158601720Y-67376501D01*
X158619863Y-67341645D01*
X158644244Y-67296770D01*
X158695730Y-67203622D01*
X158703279Y-66283981D01*
X159677406Y-66283981D01*
X159677789Y-66356640D01*
X159679644Y-66432985D01*
X159683279Y-66488168D01*
X159688958Y-66525782D01*
X159696946Y-66549421D01*
X159707222Y-66566301D01*
X159745918Y-66612317D01*
X159797765Y-66660221D01*
X159854592Y-66702904D01*
X159908225Y-66733253D01*
X159937982Y-66744389D01*
X160006499Y-66759216D01*
X160095988Y-66766796D01*
X160190338Y-66765648D01*
X160279934Y-66750056D01*
X160354718Y-66717846D01*
X160419421Y-66667567D01*
X160437622Y-66648970D01*
X160485011Y-66585546D01*
X160510652Y-66517184D01*
X160518352Y-66434925D01*
X160516266Y-66391467D01*
X160495635Y-66302005D01*
X160452295Y-66225219D01*
X160385457Y-66160243D01*
X160294331Y-66106215D01*
X160178128Y-66062270D01*
X160131281Y-66050738D01*
X160074568Y-66042842D01*
X160003195Y-66038457D01*
X159910811Y-66036982D01*
X159895804Y-66036983D01*
X159826689Y-66037827D01*
X159767320Y-66039866D01*
X159723600Y-66042833D01*
X159701433Y-66046461D01*
X159698882Y-66047639D01*
X159690635Y-66055035D01*
X159684794Y-66069899D01*
X159680955Y-66096227D01*
X159678713Y-66138018D01*
X159677665Y-66199270D01*
X159677406Y-66283981D01*
X158703279Y-66283981D01*
X158703676Y-66235676D01*
X158704857Y-66094695D01*
X158706509Y-65914893D01*
X158708243Y-65758799D01*
X158710200Y-65624205D01*
X158712519Y-65508905D01*
X158715340Y-65410689D01*
X158718804Y-65327352D01*
X158723050Y-65256685D01*
X158728220Y-65196480D01*
X158734452Y-65144531D01*
X158741887Y-65098630D01*
X158750666Y-65056569D01*
X158760927Y-65016141D01*
X158772813Y-64975137D01*
X158786461Y-64931352D01*
X158840230Y-64794085D01*
X158913865Y-64667222D01*
X159005566Y-64558608D01*
X159116175Y-64467674D01*
X159246530Y-64393853D01*
X159397471Y-64336575D01*
X159569837Y-64295273D01*
X159764469Y-64269378D01*
X159832495Y-64264229D01*
X159947062Y-64260464D01*
X160060616Y-64263854D01*
X160178473Y-64274972D01*
X160305950Y-64294388D01*
X160448363Y-64322674D01*
X160611027Y-64360403D01*
X160648627Y-64369532D01*
X160743049Y-64391996D01*
X160832543Y-64412679D01*
X160911681Y-64430361D01*
X160975036Y-64443820D01*
X161017180Y-64451833D01*
X161114414Y-64467803D01*
X160977716Y-64799118D01*
X160943523Y-64881840D01*
X160909885Y-64962896D01*
X160881023Y-65032101D01*
X160858355Y-65086068D01*
X160843297Y-65121412D01*
X160837267Y-65134746D01*
X160836319Y-65134937D01*
X160818844Y-65128984D01*
X160784483Y-65113728D01*
X160739434Y-65091883D01*
X160645802Y-65049343D01*
X160516958Y-65002830D01*
X160385086Y-64967210D01*
X160255344Y-64943378D01*
X160132889Y-64932227D01*
X160022877Y-64934654D01*
X159930465Y-64951552D01*
X159865969Y-64978364D01*
X159792720Y-65033310D01*
X159736333Y-65107852D01*
X159698421Y-65199695D01*
X159680599Y-65306547D01*
X159674323Y-65405027D01*
X160001945Y-65405924D01*
X160112432Y-65406851D01*
X160234638Y-65410141D01*
X160339035Y-65416351D01*
X160431024Y-65426084D01*
X160516004Y-65439943D01*
X160599377Y-65458533D01*
X160686541Y-65482458D01*
X160816960Y-65527996D01*
X160970360Y-65602988D01*
X161104988Y-65694847D01*
X161219516Y-65802280D01*
X161312616Y-65923995D01*
X161382961Y-66058701D01*
X161429223Y-66205105D01*
X161436468Y-66244536D01*
X161445756Y-66342133D01*
X161446926Y-66434925D01*
X161447128Y-66451034D01*
G36*
X161447128Y-66451034D02*
G01*
X161440962Y-66561736D01*
X161427635Y-66664739D01*
X161407526Y-66750541D01*
X161375440Y-66838818D01*
X161301063Y-66984299D01*
X161205994Y-67112295D01*
X161091218Y-67221933D01*
X160957719Y-67312342D01*
X160806480Y-67382648D01*
X160638487Y-67431981D01*
X160569983Y-67443108D01*
X160472093Y-67450841D01*
X160365484Y-67452580D01*
X160259065Y-67448465D01*
X160161745Y-67438637D01*
X160082433Y-67423236D01*
X160042579Y-67411110D01*
X159952063Y-67375626D01*
X159860052Y-67330575D01*
X159776038Y-67280843D01*
X159709515Y-67231316D01*
X159708697Y-67230601D01*
X159672243Y-67199692D01*
X159644196Y-67177683D01*
X159630569Y-67169298D01*
X159629079Y-67171300D01*
X159625708Y-67192926D01*
X159623365Y-67233260D01*
X159622487Y-67286000D01*
X159622487Y-67402703D01*
X159107622Y-67402703D01*
X159093916Y-67402701D01*
X158978965Y-67402500D01*
X158873464Y-67401999D01*
X158780414Y-67401237D01*
X158702817Y-67400249D01*
X158643674Y-67399074D01*
X158605986Y-67397749D01*
X158592757Y-67396311D01*
X158593065Y-67395054D01*
X158601720Y-67376501D01*
X158619863Y-67341645D01*
X158644244Y-67296770D01*
X158695730Y-67203622D01*
X158703279Y-66283981D01*
X159677406Y-66283981D01*
X159677789Y-66356640D01*
X159679644Y-66432985D01*
X159683279Y-66488168D01*
X159688958Y-66525782D01*
X159696946Y-66549421D01*
X159707222Y-66566301D01*
X159745918Y-66612317D01*
X159797765Y-66660221D01*
X159854592Y-66702904D01*
X159908225Y-66733253D01*
X159937982Y-66744389D01*
X160006499Y-66759216D01*
X160095988Y-66766796D01*
X160190338Y-66765648D01*
X160279934Y-66750056D01*
X160354718Y-66717846D01*
X160419421Y-66667567D01*
X160437622Y-66648970D01*
X160485011Y-66585546D01*
X160510652Y-66517184D01*
X160518352Y-66434925D01*
X160516266Y-66391467D01*
X160495635Y-66302005D01*
X160452295Y-66225219D01*
X160385457Y-66160243D01*
X160294331Y-66106215D01*
X160178128Y-66062270D01*
X160131281Y-66050738D01*
X160074568Y-66042842D01*
X160003195Y-66038457D01*
X159910811Y-66036982D01*
X159895804Y-66036983D01*
X159826689Y-66037827D01*
X159767320Y-66039866D01*
X159723600Y-66042833D01*
X159701433Y-66046461D01*
X159698882Y-66047639D01*
X159690635Y-66055035D01*
X159684794Y-66069899D01*
X159680955Y-66096227D01*
X159678713Y-66138018D01*
X159677665Y-66199270D01*
X159677406Y-66283981D01*
X158703279Y-66283981D01*
X158703676Y-66235676D01*
X158704857Y-66094695D01*
X158706509Y-65914893D01*
X158708243Y-65758799D01*
X158710200Y-65624205D01*
X158712519Y-65508905D01*
X158715340Y-65410689D01*
X158718804Y-65327352D01*
X158723050Y-65256685D01*
X158728220Y-65196480D01*
X158734452Y-65144531D01*
X158741887Y-65098630D01*
X158750666Y-65056569D01*
X158760927Y-65016141D01*
X158772813Y-64975137D01*
X158786461Y-64931352D01*
X158840230Y-64794085D01*
X158913865Y-64667222D01*
X159005566Y-64558608D01*
X159116175Y-64467674D01*
X159246530Y-64393853D01*
X159397471Y-64336575D01*
X159569837Y-64295273D01*
X159764469Y-64269378D01*
X159832495Y-64264229D01*
X159947062Y-64260464D01*
X160060616Y-64263854D01*
X160178473Y-64274972D01*
X160305950Y-64294388D01*
X160448363Y-64322674D01*
X160611027Y-64360403D01*
X160648627Y-64369532D01*
X160743049Y-64391996D01*
X160832543Y-64412679D01*
X160911681Y-64430361D01*
X160975036Y-64443820D01*
X161017180Y-64451833D01*
X161114414Y-64467803D01*
X160977716Y-64799118D01*
X160943523Y-64881840D01*
X160909885Y-64962896D01*
X160881023Y-65032101D01*
X160858355Y-65086068D01*
X160843297Y-65121412D01*
X160837267Y-65134746D01*
X160836319Y-65134937D01*
X160818844Y-65128984D01*
X160784483Y-65113728D01*
X160739434Y-65091883D01*
X160645802Y-65049343D01*
X160516958Y-65002830D01*
X160385086Y-64967210D01*
X160255344Y-64943378D01*
X160132889Y-64932227D01*
X160022877Y-64934654D01*
X159930465Y-64951552D01*
X159865969Y-64978364D01*
X159792720Y-65033310D01*
X159736333Y-65107852D01*
X159698421Y-65199695D01*
X159680599Y-65306547D01*
X159674323Y-65405027D01*
X160001945Y-65405924D01*
X160112432Y-65406851D01*
X160234638Y-65410141D01*
X160339035Y-65416351D01*
X160431024Y-65426084D01*
X160516004Y-65439943D01*
X160599377Y-65458533D01*
X160686541Y-65482458D01*
X160816960Y-65527996D01*
X160970360Y-65602988D01*
X161104988Y-65694847D01*
X161219516Y-65802280D01*
X161312616Y-65923995D01*
X161382961Y-66058701D01*
X161429223Y-66205105D01*
X161436468Y-66244536D01*
X161445756Y-66342133D01*
X161446926Y-66434925D01*
X161447128Y-66451034D01*
G37*
X170657945Y-67429840D02*
X170656532Y-67536310D01*
X170654777Y-67628024D01*
X170652646Y-67706117D01*
X170650102Y-67771724D01*
X170647111Y-67825981D01*
X170643635Y-67870023D01*
X170639640Y-67904985D01*
X170635089Y-67932003D01*
X170629947Y-67952212D01*
X170624179Y-67966747D01*
X170617748Y-67976744D01*
X170610619Y-67983338D01*
X170602755Y-67987665D01*
X170594122Y-67990859D01*
X170584684Y-67994056D01*
X170574404Y-67998391D01*
X170568620Y-68000563D01*
X170558010Y-68002936D01*
X170542245Y-68005110D01*
X170520210Y-68007093D01*
X170490790Y-68008896D01*
X170452869Y-68010525D01*
X170405332Y-68011991D01*
X170347064Y-68013301D01*
X170276950Y-68014465D01*
X170193874Y-68015491D01*
X170096721Y-68016388D01*
X169984376Y-68017165D01*
X169855725Y-68017830D01*
X169709650Y-68018392D01*
X169545038Y-68018860D01*
X169360773Y-68019242D01*
X169155740Y-68019548D01*
X168928824Y-68019785D01*
X168678909Y-68019963D01*
X168404881Y-68020091D01*
X168105623Y-68020176D01*
X167780021Y-68020228D01*
X167676839Y-68020238D01*
X167358303Y-68020245D01*
X167065787Y-68020205D01*
X166798188Y-68020110D01*
X166554404Y-68019953D01*
X166333332Y-68019725D01*
X166133872Y-68019419D01*
X165954921Y-68019025D01*
X165795376Y-68018538D01*
X165654136Y-68017947D01*
X165530099Y-68017247D01*
X165422163Y-68016427D01*
X165329226Y-68015481D01*
X165250185Y-68014400D01*
X165183939Y-68013177D01*
X165129385Y-68011803D01*
X165085422Y-68010271D01*
X165050947Y-68008572D01*
X165024859Y-68006698D01*
X165006056Y-68004642D01*
X164993435Y-68002396D01*
X164985894Y-67999950D01*
X164983495Y-67998862D01*
X164973673Y-67995287D01*
X164964666Y-67992676D01*
X164956437Y-67989893D01*
X164948950Y-67985800D01*
X164942168Y-67979260D01*
X164936055Y-67969137D01*
X164930575Y-67954293D01*
X164925690Y-67933591D01*
X164921364Y-67905895D01*
X164917561Y-67870068D01*
X164914244Y-67824973D01*
X164911376Y-67769472D01*
X164908922Y-67702429D01*
X164906844Y-67622707D01*
X164905107Y-67529170D01*
X164903673Y-67420679D01*
X164903202Y-67370440D01*
X165265255Y-67370440D01*
X165265652Y-67375251D01*
X165272935Y-67379150D01*
X165289389Y-67382232D01*
X165317301Y-67384594D01*
X165358957Y-67386330D01*
X165416642Y-67387536D01*
X165492642Y-67388308D01*
X165589244Y-67388741D01*
X165708734Y-67388931D01*
X165853396Y-67388973D01*
X166459373Y-67388973D01*
X166408146Y-67296298D01*
X166356919Y-67203622D01*
X166356919Y-64512595D01*
X166408146Y-64419919D01*
X166459373Y-64327244D01*
X165376211Y-64327244D01*
X165368379Y-67176162D01*
X165329981Y-67258168D01*
X165309736Y-67298815D01*
X165286813Y-67339532D01*
X165269501Y-67364574D01*
X165269458Y-67364622D01*
X165265255Y-67370440D01*
X164903202Y-67370440D01*
X164902506Y-67296098D01*
X164901570Y-67154290D01*
X164900828Y-66994119D01*
X164900243Y-66814447D01*
X164899779Y-66614137D01*
X164899400Y-66392052D01*
X164899069Y-66147056D01*
X164898749Y-65878012D01*
X164898404Y-65583782D01*
X164897998Y-65263230D01*
X164897945Y-65224424D01*
X164897492Y-64905903D01*
X164897059Y-64613572D01*
X164896677Y-64346293D01*
X164896380Y-64102929D01*
X164896198Y-63882342D01*
X164896165Y-63683395D01*
X164896311Y-63504950D01*
X164896670Y-63345871D01*
X164897274Y-63205019D01*
X164898154Y-63081257D01*
X164899342Y-62973447D01*
X164900871Y-62880453D01*
X164902772Y-62801137D01*
X164905078Y-62734360D01*
X164907821Y-62678987D01*
X164911032Y-62633879D01*
X164914745Y-62597899D01*
X164918990Y-62569909D01*
X164923801Y-62548772D01*
X164929208Y-62533351D01*
X164935245Y-62522508D01*
X164941943Y-62515106D01*
X164949335Y-62510007D01*
X164957451Y-62506073D01*
X164966325Y-62502168D01*
X164975989Y-62497154D01*
X164978817Y-62495556D01*
X165021604Y-62480089D01*
X165068443Y-62473732D01*
X165121244Y-62473734D01*
X165122124Y-62593867D01*
X165122347Y-62607692D01*
X165139129Y-62748215D01*
X165181873Y-62880435D01*
X165249983Y-63002952D01*
X165342868Y-63114363D01*
X165392712Y-63159803D01*
X165503695Y-63235120D01*
X165624788Y-63287643D01*
X165752465Y-63317342D01*
X165883197Y-63324190D01*
X166013460Y-63308159D01*
X166139725Y-63269221D01*
X166243522Y-63215135D01*
X166702907Y-63215135D01*
X166763319Y-63258599D01*
X166814410Y-63299448D01*
X166886403Y-63366076D01*
X166968060Y-63449580D01*
X167056290Y-63546778D01*
X167148000Y-63654487D01*
X167171617Y-63683290D01*
X167211827Y-63732692D01*
X167264387Y-63797505D01*
X167327556Y-63875566D01*
X167399592Y-63964711D01*
X167478754Y-64062778D01*
X167563302Y-64167604D01*
X167651493Y-64277024D01*
X167691944Y-64327244D01*
X167741586Y-64388876D01*
X167831840Y-64500997D01*
X167920515Y-64611224D01*
X168005868Y-64717392D01*
X168086158Y-64817340D01*
X168159644Y-64908903D01*
X168224585Y-64989919D01*
X168279240Y-65058224D01*
X168321866Y-65111655D01*
X168350724Y-65148048D01*
X168364071Y-65165242D01*
X168365173Y-65171703D01*
X168361508Y-65183992D01*
X168352013Y-65203325D01*
X168335738Y-65231074D01*
X168311736Y-65268610D01*
X168279060Y-65317304D01*
X168236761Y-65378529D01*
X168183891Y-65453654D01*
X168119503Y-65544052D01*
X168042648Y-65651094D01*
X167952380Y-65776152D01*
X167847749Y-65920596D01*
X167727809Y-66085798D01*
X167632242Y-66217297D01*
X167515648Y-66377605D01*
X167413088Y-66518387D01*
X167323369Y-66641204D01*
X167245300Y-66747619D01*
X167177688Y-66839195D01*
X167119338Y-66917494D01*
X167069060Y-66984079D01*
X167025661Y-67040511D01*
X166987946Y-67088354D01*
X166954725Y-67129169D01*
X166924803Y-67164520D01*
X166896989Y-67195968D01*
X166870090Y-67225076D01*
X166842913Y-67253406D01*
X166814265Y-67282522D01*
X166708692Y-67388973D01*
X168128054Y-67389031D01*
X168123595Y-67303019D01*
X168123379Y-67298697D01*
X168122532Y-67264313D01*
X168124137Y-67231368D01*
X168129266Y-67198058D01*
X168138993Y-67162578D01*
X168154391Y-67123125D01*
X168176534Y-67077893D01*
X168206495Y-67025077D01*
X168245348Y-66962874D01*
X168294166Y-66889477D01*
X168354022Y-66803084D01*
X168425990Y-66701890D01*
X168511143Y-66584088D01*
X168610554Y-66447876D01*
X168725298Y-66291449D01*
X169130325Y-65740041D01*
X169133893Y-66379382D01*
X169134209Y-66439020D01*
X169134767Y-66599657D01*
X169134513Y-66736289D01*
X169133150Y-66851502D01*
X169130377Y-66947883D01*
X169125898Y-67028016D01*
X169119413Y-67094487D01*
X169110623Y-67149883D01*
X169099230Y-67196788D01*
X169084935Y-67237788D01*
X169067440Y-67275469D01*
X169046447Y-67312417D01*
X169021655Y-67351217D01*
X168996734Y-67388973D01*
X170291884Y-67388973D01*
X170258429Y-67344352D01*
X170253190Y-67337293D01*
X170211302Y-67272594D01*
X170182427Y-67207190D01*
X170163466Y-67132248D01*
X170151321Y-67038933D01*
X170150987Y-67034865D01*
X170149225Y-66996375D01*
X170147633Y-66932156D01*
X170146220Y-66843676D01*
X170144992Y-66732403D01*
X170143956Y-66599803D01*
X170143118Y-66447345D01*
X170142486Y-66276496D01*
X170142067Y-66088722D01*
X170141868Y-65885493D01*
X170141895Y-65668274D01*
X170142155Y-65438535D01*
X170142655Y-65197741D01*
X170143185Y-64981748D01*
X170143752Y-64746635D01*
X170144311Y-64536279D01*
X170144930Y-64349206D01*
X170145681Y-64183942D01*
X170146634Y-64039013D01*
X170147858Y-63912947D01*
X170149423Y-63804268D01*
X170151401Y-63711504D01*
X170153860Y-63633180D01*
X170156871Y-63567822D01*
X170160504Y-63513958D01*
X170164829Y-63470113D01*
X170169916Y-63434813D01*
X170175835Y-63406585D01*
X170182657Y-63383955D01*
X170190451Y-63365449D01*
X170199288Y-63349594D01*
X170209237Y-63334915D01*
X170220369Y-63319940D01*
X170232754Y-63303193D01*
X170244732Y-63286412D01*
X170267885Y-63253231D01*
X170281753Y-63232298D01*
X170282088Y-63231421D01*
X170277246Y-63227462D01*
X170260157Y-63224159D01*
X170228921Y-63221461D01*
X170181635Y-63219317D01*
X170116398Y-63217676D01*
X170031310Y-63216489D01*
X169924467Y-63215703D01*
X169793969Y-63215269D01*
X169637914Y-63215135D01*
X168983722Y-63215135D01*
X169018200Y-63256110D01*
X169038182Y-63284253D01*
X169071443Y-63350608D01*
X169100591Y-63433135D01*
X169122838Y-63524679D01*
X169124256Y-63533369D01*
X169128474Y-63579183D01*
X169131669Y-63649989D01*
X169133849Y-63746275D01*
X169135021Y-63868532D01*
X169135195Y-64017251D01*
X169134378Y-64192922D01*
X169130325Y-64779412D01*
X168711568Y-64249859D01*
X168699574Y-64234690D01*
X168593381Y-64100255D01*
X168502721Y-63985124D01*
X168426151Y-63887339D01*
X168362227Y-63804943D01*
X168309507Y-63735978D01*
X168266549Y-63678486D01*
X168231909Y-63630510D01*
X168204145Y-63590093D01*
X168181814Y-63555276D01*
X168163472Y-63524103D01*
X168147678Y-63494615D01*
X168132988Y-63464855D01*
X168110390Y-63412177D01*
X168095791Y-63356606D01*
X168091908Y-63296666D01*
X168092298Y-63215135D01*
X166702907Y-63215135D01*
X166243522Y-63215135D01*
X166258466Y-63207348D01*
X166366157Y-63122511D01*
X166396094Y-63092602D01*
X166484577Y-62981862D01*
X166547364Y-62861684D01*
X166584789Y-62731291D01*
X166597189Y-62589910D01*
X166597189Y-62473730D01*
X168568088Y-62473730D01*
X168691220Y-62473725D01*
X168955743Y-62473689D01*
X169194702Y-62473663D01*
X169409418Y-62473699D01*
X169601213Y-62473849D01*
X169771407Y-62474166D01*
X169921323Y-62474702D01*
X170052282Y-62475508D01*
X170165605Y-62476638D01*
X170262614Y-62478144D01*
X170344629Y-62480077D01*
X170412974Y-62482491D01*
X170468968Y-62485436D01*
X170513933Y-62488966D01*
X170549191Y-62493133D01*
X170576063Y-62497989D01*
X170595871Y-62503586D01*
X170609935Y-62509976D01*
X170619578Y-62517212D01*
X170626121Y-62525346D01*
X170630885Y-62534431D01*
X170635192Y-62544518D01*
X170640363Y-62555659D01*
X170640455Y-62555841D01*
X170642966Y-62563134D01*
X170645268Y-62575347D01*
X170647372Y-62593605D01*
X170649286Y-62619037D01*
X170651018Y-62652769D01*
X170652578Y-62695928D01*
X170653973Y-62749641D01*
X170655213Y-62815035D01*
X170656307Y-62893238D01*
X170657263Y-62985376D01*
X170658090Y-63092576D01*
X170658797Y-63215966D01*
X170659393Y-63356671D01*
X170659885Y-63515820D01*
X170660284Y-63694540D01*
X170660597Y-63893957D01*
X170660833Y-64115198D01*
X170661002Y-64359390D01*
X170661112Y-64627661D01*
X170661172Y-64921137D01*
X170661189Y-65240946D01*
X170661190Y-65303773D01*
X170661220Y-65620249D01*
X170661267Y-65910615D01*
X170661295Y-66176007D01*
X170661267Y-66417560D01*
X170661150Y-66636410D01*
X170660905Y-66833691D01*
X170660498Y-67010539D01*
X170659893Y-67168090D01*
X170659054Y-67307479D01*
X170658315Y-67388973D01*
X170657945Y-67429840D01*
G36*
X170657945Y-67429840D02*
G01*
X170656532Y-67536310D01*
X170654777Y-67628024D01*
X170652646Y-67706117D01*
X170650102Y-67771724D01*
X170647111Y-67825981D01*
X170643635Y-67870023D01*
X170639640Y-67904985D01*
X170635089Y-67932003D01*
X170629947Y-67952212D01*
X170624179Y-67966747D01*
X170617748Y-67976744D01*
X170610619Y-67983338D01*
X170602755Y-67987665D01*
X170594122Y-67990859D01*
X170584684Y-67994056D01*
X170574404Y-67998391D01*
X170568620Y-68000563D01*
X170558010Y-68002936D01*
X170542245Y-68005110D01*
X170520210Y-68007093D01*
X170490790Y-68008896D01*
X170452869Y-68010525D01*
X170405332Y-68011991D01*
X170347064Y-68013301D01*
X170276950Y-68014465D01*
X170193874Y-68015491D01*
X170096721Y-68016388D01*
X169984376Y-68017165D01*
X169855725Y-68017830D01*
X169709650Y-68018392D01*
X169545038Y-68018860D01*
X169360773Y-68019242D01*
X169155740Y-68019548D01*
X168928824Y-68019785D01*
X168678909Y-68019963D01*
X168404881Y-68020091D01*
X168105623Y-68020176D01*
X167780021Y-68020228D01*
X167676839Y-68020238D01*
X167358303Y-68020245D01*
X167065787Y-68020205D01*
X166798188Y-68020110D01*
X166554404Y-68019953D01*
X166333332Y-68019725D01*
X166133872Y-68019419D01*
X165954921Y-68019025D01*
X165795376Y-68018538D01*
X165654136Y-68017947D01*
X165530099Y-68017247D01*
X165422163Y-68016427D01*
X165329226Y-68015481D01*
X165250185Y-68014400D01*
X165183939Y-68013177D01*
X165129385Y-68011803D01*
X165085422Y-68010271D01*
X165050947Y-68008572D01*
X165024859Y-68006698D01*
X165006056Y-68004642D01*
X164993435Y-68002396D01*
X164985894Y-67999950D01*
X164983495Y-67998862D01*
X164973673Y-67995287D01*
X164964666Y-67992676D01*
X164956437Y-67989893D01*
X164948950Y-67985800D01*
X164942168Y-67979260D01*
X164936055Y-67969137D01*
X164930575Y-67954293D01*
X164925690Y-67933591D01*
X164921364Y-67905895D01*
X164917561Y-67870068D01*
X164914244Y-67824973D01*
X164911376Y-67769472D01*
X164908922Y-67702429D01*
X164906844Y-67622707D01*
X164905107Y-67529170D01*
X164903673Y-67420679D01*
X164903202Y-67370440D01*
X165265255Y-67370440D01*
X165265652Y-67375251D01*
X165272935Y-67379150D01*
X165289389Y-67382232D01*
X165317301Y-67384594D01*
X165358957Y-67386330D01*
X165416642Y-67387536D01*
X165492642Y-67388308D01*
X165589244Y-67388741D01*
X165708734Y-67388931D01*
X165853396Y-67388973D01*
X166459373Y-67388973D01*
X166408146Y-67296298D01*
X166356919Y-67203622D01*
X166356919Y-64512595D01*
X166408146Y-64419919D01*
X166459373Y-64327244D01*
X165376211Y-64327244D01*
X165368379Y-67176162D01*
X165329981Y-67258168D01*
X165309736Y-67298815D01*
X165286813Y-67339532D01*
X165269501Y-67364574D01*
X165269458Y-67364622D01*
X165265255Y-67370440D01*
X164903202Y-67370440D01*
X164902506Y-67296098D01*
X164901570Y-67154290D01*
X164900828Y-66994119D01*
X164900243Y-66814447D01*
X164899779Y-66614137D01*
X164899400Y-66392052D01*
X164899069Y-66147056D01*
X164898749Y-65878012D01*
X164898404Y-65583782D01*
X164897998Y-65263230D01*
X164897945Y-65224424D01*
X164897492Y-64905903D01*
X164897059Y-64613572D01*
X164896677Y-64346293D01*
X164896380Y-64102929D01*
X164896198Y-63882342D01*
X164896165Y-63683395D01*
X164896311Y-63504950D01*
X164896670Y-63345871D01*
X164897274Y-63205019D01*
X164898154Y-63081257D01*
X164899342Y-62973447D01*
X164900871Y-62880453D01*
X164902772Y-62801137D01*
X164905078Y-62734360D01*
X164907821Y-62678987D01*
X164911032Y-62633879D01*
X164914745Y-62597899D01*
X164918990Y-62569909D01*
X164923801Y-62548772D01*
X164929208Y-62533351D01*
X164935245Y-62522508D01*
X164941943Y-62515106D01*
X164949335Y-62510007D01*
X164957451Y-62506073D01*
X164966325Y-62502168D01*
X164975989Y-62497154D01*
X164978817Y-62495556D01*
X165021604Y-62480089D01*
X165068443Y-62473732D01*
X165121244Y-62473734D01*
X165122124Y-62593867D01*
X165122347Y-62607692D01*
X165139129Y-62748215D01*
X165181873Y-62880435D01*
X165249983Y-63002952D01*
X165342868Y-63114363D01*
X165392712Y-63159803D01*
X165503695Y-63235120D01*
X165624788Y-63287643D01*
X165752465Y-63317342D01*
X165883197Y-63324190D01*
X166013460Y-63308159D01*
X166139725Y-63269221D01*
X166243522Y-63215135D01*
X166702907Y-63215135D01*
X166763319Y-63258599D01*
X166814410Y-63299448D01*
X166886403Y-63366076D01*
X166968060Y-63449580D01*
X167056290Y-63546778D01*
X167148000Y-63654487D01*
X167171617Y-63683290D01*
X167211827Y-63732692D01*
X167264387Y-63797505D01*
X167327556Y-63875566D01*
X167399592Y-63964711D01*
X167478754Y-64062778D01*
X167563302Y-64167604D01*
X167651493Y-64277024D01*
X167691944Y-64327244D01*
X167741586Y-64388876D01*
X167831840Y-64500997D01*
X167920515Y-64611224D01*
X168005868Y-64717392D01*
X168086158Y-64817340D01*
X168159644Y-64908903D01*
X168224585Y-64989919D01*
X168279240Y-65058224D01*
X168321866Y-65111655D01*
X168350724Y-65148048D01*
X168364071Y-65165242D01*
X168365173Y-65171703D01*
X168361508Y-65183992D01*
X168352013Y-65203325D01*
X168335738Y-65231074D01*
X168311736Y-65268610D01*
X168279060Y-65317304D01*
X168236761Y-65378529D01*
X168183891Y-65453654D01*
X168119503Y-65544052D01*
X168042648Y-65651094D01*
X167952380Y-65776152D01*
X167847749Y-65920596D01*
X167727809Y-66085798D01*
X167632242Y-66217297D01*
X167515648Y-66377605D01*
X167413088Y-66518387D01*
X167323369Y-66641204D01*
X167245300Y-66747619D01*
X167177688Y-66839195D01*
X167119338Y-66917494D01*
X167069060Y-66984079D01*
X167025661Y-67040511D01*
X166987946Y-67088354D01*
X166954725Y-67129169D01*
X166924803Y-67164520D01*
X166896989Y-67195968D01*
X166870090Y-67225076D01*
X166842913Y-67253406D01*
X166814265Y-67282522D01*
X166708692Y-67388973D01*
X168128054Y-67389031D01*
X168123595Y-67303019D01*
X168123379Y-67298697D01*
X168122532Y-67264313D01*
X168124137Y-67231368D01*
X168129266Y-67198058D01*
X168138993Y-67162578D01*
X168154391Y-67123125D01*
X168176534Y-67077893D01*
X168206495Y-67025077D01*
X168245348Y-66962874D01*
X168294166Y-66889477D01*
X168354022Y-66803084D01*
X168425990Y-66701890D01*
X168511143Y-66584088D01*
X168610554Y-66447876D01*
X168725298Y-66291449D01*
X169130325Y-65740041D01*
X169133893Y-66379382D01*
X169134209Y-66439020D01*
X169134767Y-66599657D01*
X169134513Y-66736289D01*
X169133150Y-66851502D01*
X169130377Y-66947883D01*
X169125898Y-67028016D01*
X169119413Y-67094487D01*
X169110623Y-67149883D01*
X169099230Y-67196788D01*
X169084935Y-67237788D01*
X169067440Y-67275469D01*
X169046447Y-67312417D01*
X169021655Y-67351217D01*
X168996734Y-67388973D01*
X170291884Y-67388973D01*
X170258429Y-67344352D01*
X170253190Y-67337293D01*
X170211302Y-67272594D01*
X170182427Y-67207190D01*
X170163466Y-67132248D01*
X170151321Y-67038933D01*
X170150987Y-67034865D01*
X170149225Y-66996375D01*
X170147633Y-66932156D01*
X170146220Y-66843676D01*
X170144992Y-66732403D01*
X170143956Y-66599803D01*
X170143118Y-66447345D01*
X170142486Y-66276496D01*
X170142067Y-66088722D01*
X170141868Y-65885493D01*
X170141895Y-65668274D01*
X170142155Y-65438535D01*
X170142655Y-65197741D01*
X170143185Y-64981748D01*
X170143752Y-64746635D01*
X170144311Y-64536279D01*
X170144930Y-64349206D01*
X170145681Y-64183942D01*
X170146634Y-64039013D01*
X170147858Y-63912947D01*
X170149423Y-63804268D01*
X170151401Y-63711504D01*
X170153860Y-63633180D01*
X170156871Y-63567822D01*
X170160504Y-63513958D01*
X170164829Y-63470113D01*
X170169916Y-63434813D01*
X170175835Y-63406585D01*
X170182657Y-63383955D01*
X170190451Y-63365449D01*
X170199288Y-63349594D01*
X170209237Y-63334915D01*
X170220369Y-63319940D01*
X170232754Y-63303193D01*
X170244732Y-63286412D01*
X170267885Y-63253231D01*
X170281753Y-63232298D01*
X170282088Y-63231421D01*
X170277246Y-63227462D01*
X170260157Y-63224159D01*
X170228921Y-63221461D01*
X170181635Y-63219317D01*
X170116398Y-63217676D01*
X170031310Y-63216489D01*
X169924467Y-63215703D01*
X169793969Y-63215269D01*
X169637914Y-63215135D01*
X168983722Y-63215135D01*
X169018200Y-63256110D01*
X169038182Y-63284253D01*
X169071443Y-63350608D01*
X169100591Y-63433135D01*
X169122838Y-63524679D01*
X169124256Y-63533369D01*
X169128474Y-63579183D01*
X169131669Y-63649989D01*
X169133849Y-63746275D01*
X169135021Y-63868532D01*
X169135195Y-64017251D01*
X169134378Y-64192922D01*
X169130325Y-64779412D01*
X168711568Y-64249859D01*
X168699574Y-64234690D01*
X168593381Y-64100255D01*
X168502721Y-63985124D01*
X168426151Y-63887339D01*
X168362227Y-63804943D01*
X168309507Y-63735978D01*
X168266549Y-63678486D01*
X168231909Y-63630510D01*
X168204145Y-63590093D01*
X168181814Y-63555276D01*
X168163472Y-63524103D01*
X168147678Y-63494615D01*
X168132988Y-63464855D01*
X168110390Y-63412177D01*
X168095791Y-63356606D01*
X168091908Y-63296666D01*
X168092298Y-63215135D01*
X166702907Y-63215135D01*
X166243522Y-63215135D01*
X166258466Y-63207348D01*
X166366157Y-63122511D01*
X166396094Y-63092602D01*
X166484577Y-62981862D01*
X166547364Y-62861684D01*
X166584789Y-62731291D01*
X166597189Y-62589910D01*
X166597189Y-62473730D01*
X168568088Y-62473730D01*
X168691220Y-62473725D01*
X168955743Y-62473689D01*
X169194702Y-62473663D01*
X169409418Y-62473699D01*
X169601213Y-62473849D01*
X169771407Y-62474166D01*
X169921323Y-62474702D01*
X170052282Y-62475508D01*
X170165605Y-62476638D01*
X170262614Y-62478144D01*
X170344629Y-62480077D01*
X170412974Y-62482491D01*
X170468968Y-62485436D01*
X170513933Y-62488966D01*
X170549191Y-62493133D01*
X170576063Y-62497989D01*
X170595871Y-62503586D01*
X170609935Y-62509976D01*
X170619578Y-62517212D01*
X170626121Y-62525346D01*
X170630885Y-62534431D01*
X170635192Y-62544518D01*
X170640363Y-62555659D01*
X170640455Y-62555841D01*
X170642966Y-62563134D01*
X170645268Y-62575347D01*
X170647372Y-62593605D01*
X170649286Y-62619037D01*
X170651018Y-62652769D01*
X170652578Y-62695928D01*
X170653973Y-62749641D01*
X170655213Y-62815035D01*
X170656307Y-62893238D01*
X170657263Y-62985376D01*
X170658090Y-63092576D01*
X170658797Y-63215966D01*
X170659393Y-63356671D01*
X170659885Y-63515820D01*
X170660284Y-63694540D01*
X170660597Y-63893957D01*
X170660833Y-64115198D01*
X170661002Y-64359390D01*
X170661112Y-64627661D01*
X170661172Y-64921137D01*
X170661189Y-65240946D01*
X170661190Y-65303773D01*
X170661220Y-65620249D01*
X170661267Y-65910615D01*
X170661295Y-66176007D01*
X170661267Y-66417560D01*
X170661150Y-66636410D01*
X170660905Y-66833691D01*
X170660498Y-67010539D01*
X170659893Y-67168090D01*
X170659054Y-67307479D01*
X170658315Y-67388973D01*
X170657945Y-67429840D01*
G37*
D12*
%TO.C,JP1*%
X134400000Y-87300000D02*
X134400000Y-86700000D01*
X135100000Y-86000000D02*
X136500000Y-86000000D01*
X136500000Y-88000000D02*
X135100000Y-88000000D01*
X137200000Y-86700000D02*
X137200000Y-87300000D01*
X134400000Y-86700000D02*
G75*
G02*
X135100000Y-86000000I700000J0D01*
G01*
X135100000Y-88000000D02*
G75*
G02*
X134400000Y-87300000I0J700000D01*
G01*
X136500000Y-86000000D02*
G75*
G02*
X137200000Y-86700000I1J-699999D01*
G01*
X137200000Y-87300000D02*
G75*
G02*
X136500000Y-88000000I-699999J-1D01*
G01*
%TO.C,JP3*%
X134400000Y-80300000D02*
X134400000Y-79700000D01*
X135100000Y-79000000D02*
X136500000Y-79000000D01*
X136500000Y-81000000D02*
X135100000Y-81000000D01*
X137200000Y-79700000D02*
X137200000Y-80300000D01*
X134400000Y-79700000D02*
G75*
G02*
X135100000Y-79000000I700000J0D01*
G01*
X135100000Y-81000000D02*
G75*
G02*
X134400000Y-80300000I0J700000D01*
G01*
X136500000Y-79000000D02*
G75*
G02*
X137200000Y-79700000I1J-699999D01*
G01*
X137200000Y-80300000D02*
G75*
G02*
X136500000Y-81000000I-699999J-1D01*
G01*
%TD*%
M02*
