%TF.GenerationSoftware,KiCad,Pcbnew,8.0.1*%
%TF.CreationDate,2024-08-29T16:15:39+09:00*%
%TF.ProjectId,PW-3-mini2-v1,50572d33-2d6d-4696-9e69-322d76312e6b,rev?*%
%TF.SameCoordinates,Original*%
%TF.FileFunction,Soldermask,Bot*%
%TF.FilePolarity,Negative*%
%FSLAX46Y46*%
G04 Gerber Fmt 4.6, Leading zero omitted, Abs format (unit mm)*
G04 Created by KiCad (PCBNEW 8.0.1) date 2024-08-29 16:15:39*
%MOMM*%
%LPD*%
G01*
G04 APERTURE LIST*
G04 Aperture macros list*
%AMRoundRect*
0 Rectangle with rounded corners*
0 $1 Rounding radius*
0 $2 $3 $4 $5 $6 $7 $8 $9 X,Y pos of 4 corners*
0 Add a 4 corners polygon primitive as box body*
4,1,4,$2,$3,$4,$5,$6,$7,$8,$9,$2,$3,0*
0 Add four circle primitives for the rounded corners*
1,1,$1+$1,$2,$3*
1,1,$1+$1,$4,$5*
1,1,$1+$1,$6,$7*
1,1,$1+$1,$8,$9*
0 Add four rect primitives between the rounded corners*
20,1,$1+$1,$2,$3,$4,$5,0*
20,1,$1+$1,$4,$5,$6,$7,0*
20,1,$1+$1,$6,$7,$8,$9,0*
20,1,$1+$1,$8,$9,$2,$3,0*%
%AMFreePoly0*
4,1,19,0.500000,-0.750000,0.000000,-0.750000,0.000000,-0.744911,-0.071157,-0.744911,-0.207708,-0.704816,-0.327430,-0.627875,-0.420627,-0.520320,-0.479746,-0.390866,-0.500000,-0.250000,-0.500000,0.250000,-0.479746,0.390866,-0.420627,0.520320,-0.327430,0.627875,-0.207708,0.704816,-0.071157,0.744911,0.000000,0.744911,0.000000,0.750000,0.500000,0.750000,0.500000,-0.750000,0.500000,-0.750000,
$1*%
%AMFreePoly1*
4,1,19,0.000000,0.744911,0.071157,0.744911,0.207708,0.704816,0.327430,0.627875,0.420627,0.520320,0.479746,0.390866,0.500000,0.250000,0.500000,-0.250000,0.479746,-0.390866,0.420627,-0.520320,0.327430,-0.627875,0.207708,-0.704816,0.071157,-0.744911,0.000000,-0.744911,0.000000,-0.750000,-0.500000,-0.750000,-0.500000,0.750000,0.000000,0.750000,0.000000,0.744911,0.000000,0.744911,
$1*%
G04 Aperture macros list end*
%ADD10R,1.700000X1.700000*%
%ADD11O,1.700000X1.700000*%
%ADD12R,1.600000X1.600000*%
%ADD13C,1.600000*%
%ADD14O,2.000000X2.800000*%
%ADD15RoundRect,0.250000X-0.725000X0.600000X-0.725000X-0.600000X0.725000X-0.600000X0.725000X0.600000X0*%
%ADD16O,1.950000X1.700000*%
%ADD17R,0.900000X2.000000*%
%ADD18RoundRect,1.025000X1.025000X1.025000X-1.025000X1.025000X-1.025000X-1.025000X1.025000X-1.025000X0*%
%ADD19C,4.100000*%
%ADD20RoundRect,0.250000X0.725000X-0.600000X0.725000X0.600000X-0.725000X0.600000X-0.725000X-0.600000X0*%
%ADD21C,4.400000*%
%ADD22C,3.200000*%
%ADD23C,2.000000*%
%ADD24O,2.800000X2.000000*%
%ADD25RoundRect,0.250000X0.600000X0.725000X-0.600000X0.725000X-0.600000X-0.725000X0.600000X-0.725000X0*%
%ADD26O,1.700000X1.950000*%
%ADD27R,1.500000X1.500000*%
%ADD28C,1.500000*%
%ADD29C,3.000000*%
%ADD30O,2.300000X1.200000*%
%ADD31RoundRect,0.500000X0.500000X0.500000X-0.500000X0.500000X-0.500000X-0.500000X0.500000X-0.500000X0*%
%ADD32FreePoly0,180.000000*%
%ADD33FreePoly1,180.000000*%
G04 APERTURE END LIST*
D10*
%TO.C,SW2*%
X115500000Y-102540000D03*
D11*
X115500000Y-100000000D03*
X115500000Y-97460000D03*
%TD*%
D12*
%TO.C,C5*%
X156500000Y-58817621D03*
D13*
X156500000Y-61317621D03*
%TD*%
D14*
%TO.C,J8*%
X115500000Y-63500000D03*
D15*
X122000000Y-62250000D03*
D16*
X122000000Y-64750000D03*
%TD*%
D17*
%TO.C,J1*%
X169750000Y-107350000D03*
X156250000Y-107350000D03*
D18*
X166600000Y-101350000D03*
D19*
X159400000Y-101350000D03*
%TD*%
D20*
%TO.C,J10*%
X176000000Y-104250000D03*
D16*
X176000000Y-101750000D03*
%TD*%
D21*
%TO.C,U2*%
X129500000Y-97400000D03*
X129000000Y-72000000D03*
%TD*%
D22*
%TO.C,H1*%
X116000000Y-54000000D03*
%TD*%
%TO.C,H2*%
X176000000Y-54000000D03*
%TD*%
D23*
%TO.C,L1*%
X165500000Y-57040000D03*
X165500000Y-51960000D03*
%TD*%
D12*
%TO.C,C4*%
X172000000Y-64932380D03*
D13*
X172000000Y-62432380D03*
%TD*%
D14*
%TO.C,J13*%
X115500000Y-88000000D03*
D15*
X122000000Y-84250000D03*
D16*
X122000000Y-86750000D03*
X122000000Y-89250000D03*
X122000000Y-91750000D03*
%TD*%
D10*
%TO.C,J3*%
X140275000Y-66000000D03*
D11*
X137735000Y-66000000D03*
%TD*%
D24*
%TO.C,J5*%
X147500000Y-53400000D03*
D25*
X148750000Y-59900000D03*
D26*
X146250000Y-59900000D03*
%TD*%
D17*
%TO.C,J9*%
X152750000Y-108350000D03*
X139250000Y-108350000D03*
D18*
X142400000Y-102350000D03*
D19*
X149600000Y-102350000D03*
%TD*%
D10*
%TO.C,SW1*%
X123000000Y-57000000D03*
D11*
X123000000Y-54460000D03*
X123000000Y-51920000D03*
%TD*%
D27*
%TO.C,J11*%
X124500000Y-102120000D03*
D28*
X127000000Y-102120000D03*
X129000000Y-102120000D03*
X131500000Y-102120000D03*
X124500000Y-104740000D03*
X127000000Y-104740000D03*
X129000000Y-104740000D03*
X131500000Y-104740000D03*
D29*
X121430000Y-101770000D03*
X121430000Y-107450000D03*
X134570000Y-101770000D03*
X134570000Y-107450000D03*
%TD*%
D10*
%TO.C,J4*%
X131775000Y-66000000D03*
D11*
X129235000Y-66000000D03*
%TD*%
D30*
%TO.C,F1*%
X159700000Y-95950000D03*
X159700000Y-92550000D03*
X149800000Y-95950000D03*
X149800000Y-92550000D03*
%TD*%
D14*
%TO.C,J12*%
X115500000Y-74500000D03*
D15*
X122000000Y-70750000D03*
D16*
X122000000Y-73250000D03*
X122000000Y-75750000D03*
X122000000Y-78250000D03*
%TD*%
D10*
%TO.C,J2*%
X148775000Y-66000000D03*
D11*
X146235000Y-66000000D03*
%TD*%
D22*
%TO.C,H4*%
X176000000Y-114000000D03*
%TD*%
D24*
%TO.C,J7*%
X130500000Y-53400000D03*
D25*
X131750000Y-59900000D03*
D26*
X129250000Y-59900000D03*
%TD*%
D22*
%TO.C,H3*%
X116000000Y-114000000D03*
%TD*%
D29*
%TO.C,K1*%
X166260000Y-72100000D03*
X176400000Y-89900000D03*
X168800000Y-89900000D03*
D31*
X153600000Y-75900000D03*
D23*
X153600000Y-86100000D03*
%TD*%
D24*
%TO.C,J6*%
X139000000Y-53400000D03*
D25*
X140250000Y-59900000D03*
D26*
X137750000Y-59900000D03*
%TD*%
D32*
%TO.C,JP5*%
X140650000Y-83500000D03*
D33*
X139350000Y-83500000D03*
%TD*%
D32*
%TO.C,JP6*%
X140650000Y-80000000D03*
D33*
X139350000Y-80000000D03*
%TD*%
D32*
%TO.C,JP8*%
X144900000Y-83500000D03*
D33*
X143600000Y-83500000D03*
%TD*%
D32*
%TO.C,JP4*%
X140650000Y-87000000D03*
D33*
X139350000Y-87000000D03*
%TD*%
D32*
%TO.C,JP9*%
X144900000Y-80000000D03*
D33*
X143600000Y-80000000D03*
%TD*%
D32*
%TO.C,JP2*%
X136450000Y-83500000D03*
D33*
X135150000Y-83500000D03*
%TD*%
D32*
%TO.C,JP7*%
X144900000Y-87000000D03*
D33*
X143600000Y-87000000D03*
%TD*%
D32*
%TO.C,JP1*%
X136450000Y-87000000D03*
D33*
X135150000Y-87000000D03*
%TD*%
D32*
%TO.C,JP3*%
X136450000Y-80000000D03*
D33*
X135150000Y-80000000D03*
%TD*%
M02*
