M48
; DRILL file {KiCad 8.0.1} date 2024-08-29T16:15:44+0900
; FORMAT={-:-/ absolute / metric / decimal}
; #@! TF.CreationDate,2024-08-29T16:15:44+09:00
; #@! TF.GenerationSoftware,Kicad,Pcbnew,8.0.1
; #@! TF.FileFunction,Plated,1,2,PTH
FMAT,2
METRIC
; #@! TA.AperFunction,Plated,PTH,ViaDrill
T1C0.400
; #@! TA.AperFunction,Plated,PTH,ComponentDrill
T2C0.500
; #@! TA.AperFunction,Plated,PTH,ComponentDrill
T3C0.600
; #@! TA.AperFunction,Plated,PTH,ComponentDrill
T4C0.800
; #@! TA.AperFunction,Plated,PTH,ComponentDrill
T5C0.920
; #@! TA.AperFunction,Plated,PTH,ComponentDrill
T6C0.950
; #@! TA.AperFunction,Plated,PTH,ComponentDrill
T7C1.000
; #@! TA.AperFunction,Plated,PTH,ComponentDrill
T8C1.100
; #@! TA.AperFunction,Plated,PTH,ComponentDrill
T9C1.600
; #@! TA.AperFunction,Plated,PTH,ComponentDrill
T10C2.200
; #@! TA.AperFunction,Plated,PTH,ComponentDrill
T11C2.300
; #@! TA.AperFunction,Plated,PTH,ComponentDrill
T12C2.700
%
G90
G05
T1
X113.0Y-60.0
X113.0Y-63.0
X113.0Y-66.0
X113.0Y-69.0
X113.0Y-72.0
X113.0Y-75.0
X113.0Y-78.0
X113.0Y-81.0
X113.0Y-84.0
X113.0Y-87.0
X113.0Y-90.0
X113.0Y-93.0
X113.0Y-96.0
X113.0Y-99.0
X113.0Y-102.0
X113.0Y-105.0
X113.0Y-108.0
X117.0Y-83.5
X120.0Y-92.0
X120.0Y-94.0
X122.0Y-117.0
X122.5Y-94.0
X122.5Y-96.0
X122.5Y-98.0
X125.0Y-51.0
X125.0Y-117.0
X126.5Y-74.5
X126.5Y-77.0
X126.5Y-79.5
X126.5Y-82.5
X126.5Y-84.5
X126.5Y-87.5
X126.5Y-89.5
X126.5Y-91.5
X126.5Y-94.0
X126.5Y-96.0
X126.5Y-98.0
X127.0Y-63.0
X127.0Y-65.0
X127.0Y-67.0
X127.0Y-69.0
X128.0Y-51.0
X128.0Y-117.0
X129.563Y-84.013
X131.0Y-51.0
X131.0Y-117.0
X131.5Y-68.0
X132.5Y-69.0
X132.5Y-77.0
X132.5Y-79.5
X132.5Y-82.0
X132.5Y-85.5
X132.5Y-87.5
X132.5Y-89.5
X133.5Y-70.0
X133.5Y-71.5
X134.0Y-51.0
X134.0Y-61.0
X134.0Y-117.0
X134.25Y-78.5
X135.0Y-61.0
X135.5Y-73.5
X135.5Y-93.5
X136.0Y-61.0
X136.0Y-71.0
X137.0Y-51.0
X137.0Y-73.5
X137.0Y-90.0
X137.0Y-117.0
X137.775Y-78.5
X138.5Y-73.25
X139.0Y-90.0
X139.25Y-78.5
X139.5Y-73.25
X140.0Y-51.0
X140.0Y-117.0
X140.138Y-76.862
X140.25Y-75.75
X140.5Y-72.0
X141.0Y-73.0
X141.0Y-90.0
X142.0Y-61.0
X142.0Y-73.0
X142.0Y-76.0
X143.0Y-51.0
X143.0Y-61.0
X143.0Y-76.0
X143.0Y-117.0
X144.0Y-61.0
X146.0Y-51.0
X146.0Y-117.0
X146.5Y-74.5
X146.5Y-76.5
X146.5Y-78.5
X146.5Y-80.5
X146.5Y-82.5
X146.5Y-84.5
X146.5Y-86.5
X147.0Y-106.0
X147.0Y-108.0
X147.0Y-110.0
X148.0Y-112.0
X149.0Y-51.0
X149.0Y-117.0
X149.5Y-54.0
X150.0Y-114.0
X150.25Y-60.0
X150.75Y-54.25
X151.0Y-71.0
X151.0Y-73.0
X151.0Y-75.0
X151.0Y-77.0
X151.0Y-79.0
X151.0Y-81.0
X151.0Y-83.0
X151.0Y-85.0
X152.0Y-60.0
X152.0Y-62.0
X152.0Y-64.0
X152.0Y-66.0
X152.0Y-106.0
X152.0Y-115.0
X152.0Y-117.0
X154.0Y-66.0
X154.0Y-115.0
X155.0Y-79.0
X155.0Y-81.0
X155.0Y-83.0
X155.0Y-85.0
X155.0Y-110.0
X155.0Y-117.0
X156.0Y-66.0
X156.0Y-115.0
X157.0Y-77.0
X157.0Y-85.0
X157.0Y-110.0
X158.0Y-66.5
X158.0Y-71.0
X158.0Y-73.0
X158.0Y-75.0
X158.0Y-115.0
X158.0Y-117.0
X158.5Y-68.5
X159.0Y-60.0
X159.0Y-62.0
X159.0Y-64.0
X159.0Y-85.0
X159.0Y-110.0
X160.0Y-115.0
X160.5Y-66.0
X161.0Y-58.0
X161.0Y-60.0
X161.0Y-62.0
X161.0Y-85.0
X161.0Y-110.0
X161.0Y-117.0
X162.0Y-56.6
X162.0Y-57.4
X162.0Y-58.2
X162.0Y-115.0
X162.2Y-61.6
X162.2Y-62.4
X162.2Y-63.2
X162.8Y-56.6
X162.8Y-57.4
X162.8Y-58.2
X163.0Y-61.6
X163.0Y-62.4
X163.0Y-63.2
X163.0Y-67.0
X163.0Y-85.0
X163.0Y-110.0
X163.6Y-56.6
X163.6Y-57.4
X163.6Y-58.2
X163.8Y-61.6
X163.8Y-62.4
X163.8Y-63.2
X164.0Y-115.0
X164.0Y-117.0
X164.6Y-61.6
X164.6Y-62.4
X164.6Y-63.2
X165.0Y-67.0
X165.0Y-85.0
X165.0Y-110.0
X165.4Y-61.6
X165.4Y-62.4
X165.4Y-63.2
X166.0Y-115.0
X166.2Y-61.6
X166.2Y-62.4
X166.2Y-63.2
X167.0Y-51.0
X167.0Y-63.0
X167.0Y-67.0
X167.0Y-85.0
X167.0Y-110.0
X167.0Y-117.0
X168.0Y-115.0
X169.0Y-63.0
X169.0Y-67.0
X169.0Y-85.0
X169.0Y-93.0
X169.0Y-110.0
X170.0Y-51.0
X170.0Y-53.5
X170.0Y-56.0
X170.0Y-59.5
X170.0Y-115.0
X170.0Y-117.0
X171.0Y-67.0
X171.0Y-69.0
X171.0Y-71.0
X171.0Y-73.0
X171.0Y-75.0
X171.0Y-77.0
X171.0Y-79.0
X171.0Y-81.0
X171.0Y-83.0
X171.0Y-85.0
X171.0Y-93.0
X171.0Y-95.0
X171.0Y-97.0
X171.0Y-99.0
X171.0Y-101.0
X171.0Y-103.0
X171.0Y-105.0
X171.0Y-109.0
X172.5Y-59.5
X173.5Y-63.5
X175.0Y-59.5
X175.0Y-65.0
X175.0Y-67.0
X175.0Y-69.0
X175.0Y-71.0
X175.0Y-73.0
X175.0Y-75.0
X175.0Y-77.0
X175.0Y-79.0
X175.0Y-81.0
X175.0Y-83.0
X175.0Y-85.0
X175.0Y-87.0
X175.0Y-92.0
X175.0Y-94.0
X175.0Y-96.0
X175.0Y-98.0
X175.0Y-100.0
X175.0Y-106.0
X175.0Y-108.0
X179.0Y-66.0
X179.0Y-69.0
X179.0Y-72.0
X179.0Y-75.0
X179.0Y-78.0
X179.0Y-81.0
X179.0Y-84.0
X179.0Y-87.0
X179.0Y-90.0
X179.0Y-93.0
X179.0Y-96.0
X179.0Y-99.0
X179.0Y-102.0
X179.0Y-105.0
X179.0Y-108.0
T4
X156.5Y-58.818
X156.5Y-61.318
X172.0Y-62.432
X172.0Y-64.932
T5
X124.5Y-102.12
X124.5Y-104.74
X127.0Y-102.12
X127.0Y-104.74
X129.0Y-102.12
X129.0Y-104.74
X131.5Y-102.12
X131.5Y-104.74
T6
X122.0Y-62.25
X122.0Y-64.75
X122.0Y-70.75
X122.0Y-73.25
X122.0Y-75.75
X122.0Y-78.25
X122.0Y-84.25
X122.0Y-86.75
X122.0Y-89.25
X122.0Y-91.75
X129.25Y-59.9
X131.75Y-59.9
X137.75Y-59.9
X140.25Y-59.9
X146.25Y-59.9
X148.75Y-59.9
X176.0Y-101.75
X176.0Y-104.25
T7
X115.5Y-97.46
X115.5Y-100.0
X115.5Y-102.54
X123.0Y-51.92
X123.0Y-54.46
X123.0Y-57.0
X129.235Y-66.0
X131.775Y-66.0
X137.735Y-66.0
X140.275Y-66.0
X146.235Y-66.0
X148.775Y-66.0
X165.5Y-51.96
X165.5Y-57.04
T8
X153.6Y-75.9
X153.6Y-86.1
T9
X166.26Y-72.1
X168.8Y-89.9
X176.4Y-89.9
T10
X129.0Y-72.0
X129.5Y-97.4
T11
X121.43Y-101.77
X121.43Y-107.45
X134.57Y-101.77
X134.57Y-107.45
T12
X142.4Y-102.35
X149.6Y-102.35
X159.4Y-101.35
X166.6Y-101.35
T2
G00X150.35Y-92.55
M15
G01X149.25Y-92.55
M16
G05
G00X150.35Y-95.95
M15
G01X149.25Y-95.95
M16
G05
G00X160.25Y-92.55
M15
G01X159.15Y-92.55
M16
G05
G00X160.25Y-95.95
M15
G01X159.15Y-95.95
M16
G05
T3
G00X139.25Y-108.9
M15
G01X139.25Y-107.8
M16
G05
G00X152.75Y-108.9
M15
G01X152.75Y-107.8
M16
G05
G00X156.25Y-107.9
M15
G01X156.25Y-106.8
M16
G05
G00X169.75Y-107.9
M15
G01X169.75Y-106.8
M16
G05
M30
