%TF.GenerationSoftware,KiCad,Pcbnew,8.0.1*%
%TF.CreationDate,2024-08-29T16:15:39+09:00*%
%TF.ProjectId,PW-3-mini2-v1,50572d33-2d6d-4696-9e69-322d76312e6b,rev?*%
%TF.SameCoordinates,Original*%
%TF.FileFunction,Copper,L1,Top*%
%TF.FilePolarity,Positive*%
%FSLAX46Y46*%
G04 Gerber Fmt 4.6, Leading zero omitted, Abs format (unit mm)*
G04 Created by KiCad (PCBNEW 8.0.1) date 2024-08-29 16:15:39*
%MOMM*%
%LPD*%
G01*
G04 APERTURE LIST*
G04 Aperture macros list*
%AMRoundRect*
0 Rectangle with rounded corners*
0 $1 Rounding radius*
0 $2 $3 $4 $5 $6 $7 $8 $9 X,Y pos of 4 corners*
0 Add a 4 corners polygon primitive as box body*
4,1,4,$2,$3,$4,$5,$6,$7,$8,$9,$2,$3,0*
0 Add four circle primitives for the rounded corners*
1,1,$1+$1,$2,$3*
1,1,$1+$1,$4,$5*
1,1,$1+$1,$6,$7*
1,1,$1+$1,$8,$9*
0 Add four rect primitives between the rounded corners*
20,1,$1+$1,$2,$3,$4,$5,0*
20,1,$1+$1,$4,$5,$6,$7,0*
20,1,$1+$1,$6,$7,$8,$9,0*
20,1,$1+$1,$8,$9,$2,$3,0*%
%AMFreePoly0*
4,1,19,0.500000,-0.750000,0.000000,-0.750000,0.000000,-0.744911,-0.071157,-0.744911,-0.207708,-0.704816,-0.327430,-0.627875,-0.420627,-0.520320,-0.479746,-0.390866,-0.500000,-0.250000,-0.500000,0.250000,-0.479746,0.390866,-0.420627,0.520320,-0.327430,0.627875,-0.207708,0.704816,-0.071157,0.744911,0.000000,0.744911,0.000000,0.750000,0.500000,0.750000,0.500000,-0.750000,0.500000,-0.750000,
$1*%
%AMFreePoly1*
4,1,19,0.000000,0.744911,0.071157,0.744911,0.207708,0.704816,0.327430,0.627875,0.420627,0.520320,0.479746,0.390866,0.500000,0.250000,0.500000,-0.250000,0.479746,-0.390866,0.420627,-0.520320,0.327430,-0.627875,0.207708,-0.704816,0.071157,-0.744911,0.000000,-0.744911,0.000000,-0.750000,-0.500000,-0.750000,-0.500000,0.750000,0.000000,0.750000,0.000000,0.744911,0.000000,0.744911,
$1*%
G04 Aperture macros list end*
%TA.AperFunction,ComponentPad*%
%ADD10R,1.700000X1.700000*%
%TD*%
%TA.AperFunction,ComponentPad*%
%ADD11O,1.700000X1.700000*%
%TD*%
%TA.AperFunction,SMDPad,CuDef*%
%ADD12RoundRect,0.150000X0.150000X-0.587500X0.150000X0.587500X-0.150000X0.587500X-0.150000X-0.587500X0*%
%TD*%
%TA.AperFunction,SMDPad,CuDef*%
%ADD13FreePoly0,0.000000*%
%TD*%
%TA.AperFunction,SMDPad,CuDef*%
%ADD14FreePoly1,0.000000*%
%TD*%
%TA.AperFunction,SMDPad,CuDef*%
%ADD15RoundRect,0.200000X0.275000X-0.200000X0.275000X0.200000X-0.275000X0.200000X-0.275000X-0.200000X0*%
%TD*%
%TA.AperFunction,SMDPad,CuDef*%
%ADD16RoundRect,0.150000X0.150000X-0.512500X0.150000X0.512500X-0.150000X0.512500X-0.150000X-0.512500X0*%
%TD*%
%TA.AperFunction,SMDPad,CuDef*%
%ADD17RoundRect,0.225000X0.225000X0.250000X-0.225000X0.250000X-0.225000X-0.250000X0.225000X-0.250000X0*%
%TD*%
%TA.AperFunction,ComponentPad*%
%ADD18R,1.600000X1.600000*%
%TD*%
%TA.AperFunction,ComponentPad*%
%ADD19C,1.600000*%
%TD*%
%TA.AperFunction,SMDPad,CuDef*%
%ADD20RoundRect,0.225000X-0.250000X0.225000X-0.250000X-0.225000X0.250000X-0.225000X0.250000X0.225000X0*%
%TD*%
%TA.AperFunction,SMDPad,CuDef*%
%ADD21RoundRect,0.200000X-0.275000X0.200000X-0.275000X-0.200000X0.275000X-0.200000X0.275000X0.200000X0*%
%TD*%
%TA.AperFunction,ComponentPad*%
%ADD22RoundRect,0.250000X-0.725000X0.600000X-0.725000X-0.600000X0.725000X-0.600000X0.725000X0.600000X0*%
%TD*%
%TA.AperFunction,ComponentPad*%
%ADD23O,1.950000X1.700000*%
%TD*%
%TA.AperFunction,ComponentPad*%
%ADD24R,0.900000X2.000000*%
%TD*%
%TA.AperFunction,ComponentPad*%
%ADD25RoundRect,1.025000X1.025000X1.025000X-1.025000X1.025000X-1.025000X-1.025000X1.025000X-1.025000X0*%
%TD*%
%TA.AperFunction,ComponentPad*%
%ADD26C,4.100000*%
%TD*%
%TA.AperFunction,ComponentPad*%
%ADD27RoundRect,0.250000X0.725000X-0.600000X0.725000X0.600000X-0.725000X0.600000X-0.725000X-0.600000X0*%
%TD*%
%TA.AperFunction,SMDPad,CuDef*%
%ADD28RoundRect,0.010000X-0.190000X-0.540000X0.190000X-0.540000X0.190000X0.540000X-0.190000X0.540000X0*%
%TD*%
%TA.AperFunction,SMDPad,CuDef*%
%ADD29RoundRect,0.010000X0.190000X0.540000X-0.190000X0.540000X-0.190000X-0.540000X0.190000X-0.540000X0*%
%TD*%
%TA.AperFunction,SMDPad,CuDef*%
%ADD30RoundRect,0.007500X-0.142500X-0.542500X0.142500X-0.542500X0.142500X0.542500X-0.142500X0.542500X0*%
%TD*%
%TA.AperFunction,SMDPad,CuDef*%
%ADD31RoundRect,0.007500X0.142500X0.542500X-0.142500X0.542500X-0.142500X-0.542500X0.142500X-0.542500X0*%
%TD*%
%TA.AperFunction,ComponentPad*%
%ADD32C,4.400000*%
%TD*%
%TA.AperFunction,SMDPad,CuDef*%
%ADD33RoundRect,0.200000X0.200000X0.275000X-0.200000X0.275000X-0.200000X-0.275000X0.200000X-0.275000X0*%
%TD*%
%TA.AperFunction,SMDPad,CuDef*%
%ADD34RoundRect,0.225000X-0.225000X-0.250000X0.225000X-0.250000X0.225000X0.250000X-0.225000X0.250000X0*%
%TD*%
%TA.AperFunction,ComponentPad*%
%ADD35C,2.000000*%
%TD*%
%TA.AperFunction,SMDPad,CuDef*%
%ADD36RoundRect,0.150000X0.150000X-0.825000X0.150000X0.825000X-0.150000X0.825000X-0.150000X-0.825000X0*%
%TD*%
%TA.AperFunction,SMDPad,CuDef*%
%ADD37RoundRect,0.218750X-0.218750X-0.256250X0.218750X-0.256250X0.218750X0.256250X-0.218750X0.256250X0*%
%TD*%
%TA.AperFunction,ComponentPad*%
%ADD38RoundRect,0.250000X0.600000X0.725000X-0.600000X0.725000X-0.600000X-0.725000X0.600000X-0.725000X0*%
%TD*%
%TA.AperFunction,ComponentPad*%
%ADD39O,1.700000X1.950000*%
%TD*%
%TA.AperFunction,ComponentPad*%
%ADD40R,1.500000X1.500000*%
%TD*%
%TA.AperFunction,ComponentPad*%
%ADD41C,1.500000*%
%TD*%
%TA.AperFunction,ComponentPad*%
%ADD42C,3.000000*%
%TD*%
%TA.AperFunction,SMDPad,CuDef*%
%ADD43RoundRect,0.218750X0.256250X-0.218750X0.256250X0.218750X-0.256250X0.218750X-0.256250X-0.218750X0*%
%TD*%
%TA.AperFunction,ComponentPad*%
%ADD44O,2.300000X1.200000*%
%TD*%
%TA.AperFunction,ComponentPad*%
%ADD45RoundRect,0.500000X0.500000X0.500000X-0.500000X0.500000X-0.500000X-0.500000X0.500000X-0.500000X0*%
%TD*%
%TA.AperFunction,SMDPad,CuDef*%
%ADD46RoundRect,0.225000X0.225000X0.375000X-0.225000X0.375000X-0.225000X-0.375000X0.225000X-0.375000X0*%
%TD*%
%TA.AperFunction,ViaPad*%
%ADD47C,0.800000*%
%TD*%
%TA.AperFunction,Conductor*%
%ADD48C,0.250000*%
%TD*%
%TA.AperFunction,Conductor*%
%ADD49C,2.000000*%
%TD*%
%TA.AperFunction,Conductor*%
%ADD50C,0.400000*%
%TD*%
%TA.AperFunction,Conductor*%
%ADD51C,0.200000*%
%TD*%
%TA.AperFunction,Conductor*%
%ADD52C,1.000000*%
%TD*%
G04 APERTURE END LIST*
D10*
%TO.P,SW2,1,A*%
%TO.N,unconnected-(SW2-A-Pad1)*%
X115500000Y-102540000D03*
D11*
%TO.P,SW2,2,B*%
%TO.N,Net-(SW2-B)*%
X115500000Y-100000000D03*
%TO.P,SW2,3,C*%
%TO.N,/CANH*%
X115500000Y-97460000D03*
%TD*%
D12*
%TO.P,Q1,1,B*%
%TO.N,Net-(Q1-B)*%
X128550000Y-89500000D03*
%TO.P,Q1,2,E*%
%TO.N,GND*%
X130450000Y-89500000D03*
%TO.P,Q1,3,C*%
%TO.N,Net-(Q1-C)*%
X129500000Y-87625000D03*
%TD*%
D13*
%TO.P,JP10,1,A*%
%TO.N,Net-(J4-Pin_2)*%
X129200000Y-77000000D03*
D14*
%TO.P,JP10,2,B*%
%TO.N,GND*%
X130500000Y-77000000D03*
%TD*%
D15*
%TO.P,R6,1*%
%TO.N,Net-(SW2-B)*%
X119000000Y-97825000D03*
%TO.P,R6,2*%
%TO.N,/CANL*%
X119000000Y-96175000D03*
%TD*%
D16*
%TO.P,U1,1,VIN*%
%TO.N,+5V*%
X139006249Y-85750000D03*
%TO.P,U1,2,GND*%
%TO.N,GND*%
X139956249Y-85750000D03*
%TO.P,U1,3,EN*%
%TO.N,Net-(U1-EN)*%
X140906249Y-85750000D03*
%TO.P,U1,4,NC*%
%TO.N,unconnected-(U1-NC-Pad4)*%
X140906249Y-83475000D03*
%TO.P,U1,5,VOUT*%
%TO.N,+3V3*%
X139006249Y-83475000D03*
%TD*%
D17*
%TO.P,C1,1*%
%TO.N,GND*%
X140676249Y-88505000D03*
%TO.P,C1,2*%
%TO.N,+5V*%
X139126249Y-88505000D03*
%TD*%
D15*
%TO.P,R1,1*%
%TO.N,/IM920_IN*%
X130500000Y-93500000D03*
%TO.P,R1,2*%
%TO.N,Net-(Q1-B)*%
X130500000Y-91850000D03*
%TD*%
D18*
%TO.P,C5,1*%
%TO.N,+5V*%
X156500000Y-58817621D03*
D19*
%TO.P,C5,2*%
%TO.N,GND*%
X156500000Y-61317621D03*
%TD*%
D20*
%TO.P,C3,1*%
%TO.N,GND*%
X144750000Y-71725000D03*
%TO.P,C3,2*%
%TO.N,+3V3*%
X144750000Y-73275000D03*
%TD*%
D15*
%TO.P,R3,1*%
%TO.N,Net-(Q1-C)*%
X130500000Y-85325000D03*
%TO.P,R3,2*%
%TO.N,+5V*%
X130500000Y-83675000D03*
%TD*%
D21*
%TO.P,R8,1*%
%TO.N,GND*%
X117000000Y-106462500D03*
%TO.P,R8,2*%
%TO.N,Net-(D3-K)*%
X117000000Y-108112500D03*
%TD*%
D22*
%TO.P,J8,1,Pin_1*%
%TO.N,+5V*%
X122000000Y-62250000D03*
D23*
%TO.P,J8,2,Pin_2*%
%TO.N,GND*%
X122000000Y-64750000D03*
%TD*%
D24*
%TO.P,J1,*%
%TO.N,*%
X169750000Y-107350000D03*
X156250000Y-107350000D03*
D25*
%TO.P,J1,1,Pin_1*%
%TO.N,GND*%
X166600000Y-101350000D03*
D26*
%TO.P,J1,2,Pin_2*%
%TO.N,Net-(J1-Pin_2)*%
X159400000Y-101350000D03*
%TD*%
D27*
%TO.P,J10,1,Pin_1*%
%TO.N,+BATT*%
X176000000Y-104250000D03*
D23*
%TO.P,J10,2,Pin_2*%
%TO.N,GND*%
X176000000Y-101750000D03*
%TD*%
D28*
%TO.P,U2,1,IO1/BUSY*%
%TO.N,/IM920_IO1*%
X137700000Y-70550000D03*
D29*
%TO.P,U2,2,IO2*%
%TO.N,/IM920_IO2*%
X137700000Y-74450000D03*
D30*
%TO.P,U2,3,IO3/XMIT*%
%TO.N,/IM920_IO3*%
X138250000Y-70550000D03*
D31*
%TO.P,U2,4,IO4/SLEEP*%
%TO.N,/IM920_IO4*%
X138250000Y-74450000D03*
D30*
%TO.P,U2,5,IO5*%
%TO.N,/IM920_IO5*%
X138750000Y-70550000D03*
D31*
%TO.P,U2,6,IO6/RxD*%
%TO.N,/IM920_IO6*%
X138750000Y-74450000D03*
D30*
%TO.P,U2,7,IO7/TxD*%
%TO.N,/IM920_IO7*%
X139250000Y-70550000D03*
D31*
%TO.P,U2,8,IO8*%
%TO.N,/IM920_IO8*%
X139250000Y-74450000D03*
D30*
%TO.P,U2,9,IO9*%
%TO.N,unconnected-(U2-IO9-Pad9)*%
X139750000Y-70550000D03*
D31*
%TO.P,U2,10,IO10*%
%TO.N,/IM920_IO10*%
X139750000Y-74450000D03*
D30*
%TO.P,U2,11,NC*%
%TO.N,unconnected-(U2-NC-Pad11)*%
X140250000Y-70550000D03*
D31*
%TO.P,U2,12,NC*%
%TO.N,unconnected-(U2-NC-Pad12)*%
X140250000Y-74450000D03*
D30*
%TO.P,U2,13,NC*%
%TO.N,unconnected-(U2-NC-Pad13)*%
X140750000Y-70550000D03*
D31*
%TO.P,U2,14,NC*%
%TO.N,unconnected-(U2-NC-Pad14)*%
X140750000Y-74450000D03*
D30*
%TO.P,U2,15,STATUS*%
%TO.N,Net-(D3-A)*%
X141250000Y-70550000D03*
D31*
%TO.P,U2,16,REG*%
%TO.N,unconnected-(U2-REG-Pad16)*%
X141250000Y-74450000D03*
D30*
%TO.P,U2,17,VCC*%
%TO.N,+3V3*%
X141750000Y-70550000D03*
D31*
%TO.P,U2,18,GND*%
%TO.N,GND*%
X141750000Y-74450000D03*
D32*
X129500000Y-97400000D03*
X129000000Y-72000000D03*
D28*
%TO.P,U2,19,RESET*%
%TO.N,/IM920_RESET*%
X142300000Y-70550000D03*
D29*
%TO.P,U2,20,RSV*%
%TO.N,unconnected-(U2-RSV-Pad20)*%
X142300000Y-74450000D03*
%TD*%
D33*
%TO.P,R5,1*%
%TO.N,+BATT*%
X157737500Y-51750000D03*
%TO.P,R5,2*%
%TO.N,Net-(D2-A)*%
X156087500Y-51750000D03*
%TD*%
D34*
%TO.P,C2,1*%
%TO.N,GND*%
X139131249Y-80750000D03*
%TO.P,C2,2*%
%TO.N,+3V3*%
X140681249Y-80750000D03*
%TD*%
D35*
%TO.P,L1,1,1*%
%TO.N,Net-(L1-Pad1)*%
X165500000Y-57040000D03*
%TO.P,L1,2,2*%
%TO.N,+5V*%
X165500000Y-51960000D03*
%TD*%
D36*
%TO.P,U3,1,FB*%
%TO.N,+5V*%
X162250000Y-64950000D03*
%TO.P,U3,2,NC*%
%TO.N,unconnected-(U3-NC-Pad2)*%
X163520000Y-64950000D03*
%TO.P,U3,3,NC*%
%TO.N,unconnected-(U3-NC-Pad3)*%
X164790000Y-64950000D03*
%TO.P,U3,4,VCC*%
%TO.N,+BATT*%
X166060000Y-64950000D03*
%TO.P,U3,5,OUT*%
%TO.N,Net-(L1-Pad1)*%
X166060000Y-60000000D03*
%TO.P,U3,6,OUT*%
X164790000Y-60000000D03*
%TO.P,U3,7,GND*%
%TO.N,GND*%
X163520000Y-60000000D03*
%TO.P,U3,8,GND*%
X162250000Y-60000000D03*
%TD*%
D18*
%TO.P,C4,1*%
%TO.N,+BATT*%
X172000000Y-64932380D03*
D19*
%TO.P,C4,2*%
%TO.N,GND*%
X172000000Y-62432380D03*
%TD*%
D37*
%TO.P,D2,1,K*%
%TO.N,Net-(D1-A)*%
X152837500Y-51750000D03*
%TO.P,D2,2,A*%
%TO.N,Net-(D2-A)*%
X154412500Y-51750000D03*
%TD*%
D22*
%TO.P,J13,1,Pin_1*%
%TO.N,+5V*%
X122000000Y-84250000D03*
D23*
%TO.P,J13,2,Pin_2*%
%TO.N,/CANH*%
X122000000Y-86750000D03*
%TO.P,J13,3,Pin_3*%
%TO.N,/CANL*%
X122000000Y-89250000D03*
%TO.P,J13,4,Pin_4*%
%TO.N,GND*%
X122000000Y-91750000D03*
%TD*%
D10*
%TO.P,J3,1,Pin_1*%
%TO.N,Net-(J2-Pin_2)*%
X140275000Y-66000000D03*
D11*
%TO.P,J3,2,Pin_2*%
%TO.N,Net-(J3-Pin_2)*%
X137735000Y-66000000D03*
%TD*%
D38*
%TO.P,J5,1,Pin_1*%
%TO.N,Net-(D1-A)*%
X148750000Y-59900000D03*
D39*
%TO.P,J5,2,Pin_2*%
%TO.N,Net-(J2-Pin_2)*%
X146250000Y-59900000D03*
%TD*%
D21*
%TO.P,R9,1*%
%TO.N,+5V*%
X178250000Y-58675000D03*
%TO.P,R9,2*%
%TO.N,Net-(D4-A)*%
X178250000Y-60325000D03*
%TD*%
D24*
%TO.P,J9,*%
%TO.N,*%
X152750000Y-108350000D03*
X139250000Y-108350000D03*
D25*
%TO.P,J9,1,Pin_1*%
%TO.N,/Vout-*%
X142400000Y-102350000D03*
D26*
%TO.P,J9,2,Pin_2*%
%TO.N,+BATT*%
X149600000Y-102350000D03*
%TD*%
D10*
%TO.P,SW1,1,A*%
%TO.N,Net-(J4-Pin_2)*%
X123000000Y-57000000D03*
D11*
%TO.P,SW1,2,B*%
%TO.N,Net-(J3-Pin_2)*%
X123000000Y-54460000D03*
%TO.P,SW1,3,C*%
%TO.N,unconnected-(SW1-C-Pad3)*%
X123000000Y-51920000D03*
%TD*%
D40*
%TO.P,J11,1,VBUS1*%
%TO.N,+5V*%
X124500000Y-102120000D03*
D41*
%TO.P,J11,2,D1-*%
%TO.N,Net-(J11-D1+)*%
X127000000Y-102120000D03*
%TO.P,J11,3,D1+*%
X129000000Y-102120000D03*
%TO.P,J11,4,GND1*%
%TO.N,GND*%
X131500000Y-102120000D03*
%TO.P,J11,5,VBUS2*%
%TO.N,+5V*%
X124500000Y-104740000D03*
%TO.P,J11,6,D2-*%
%TO.N,Net-(J11-D2+)*%
X127000000Y-104740000D03*
%TO.P,J11,7,D2+*%
X129000000Y-104740000D03*
%TO.P,J11,8,GND2*%
%TO.N,GND*%
X131500000Y-104740000D03*
D42*
%TO.P,J11,9,Shield*%
X121430000Y-101770000D03*
X121430000Y-107450000D03*
X134570000Y-101770000D03*
X134570000Y-107450000D03*
%TD*%
D43*
%TO.P,D4,1,K*%
%TO.N,GND*%
X178250000Y-63537500D03*
%TO.P,D4,2,A*%
%TO.N,Net-(D4-A)*%
X178250000Y-61962500D03*
%TD*%
D10*
%TO.P,J4,1,Pin_1*%
%TO.N,Net-(J3-Pin_2)*%
X131775000Y-66000000D03*
D11*
%TO.P,J4,2,Pin_2*%
%TO.N,Net-(J4-Pin_2)*%
X129235000Y-66000000D03*
%TD*%
D44*
%TO.P,F1,1*%
%TO.N,Net-(J1-Pin_2)*%
X159700000Y-95950000D03*
X159700000Y-92550000D03*
%TO.P,F1,2*%
%TO.N,+BATT*%
X149800000Y-95950000D03*
X149800000Y-92550000D03*
%TD*%
D22*
%TO.P,J12,1,Pin_1*%
%TO.N,+5V*%
X122000000Y-70750000D03*
D23*
%TO.P,J12,2,Pin_2*%
%TO.N,/CANH*%
X122000000Y-73250000D03*
%TO.P,J12,3,Pin_3*%
%TO.N,/CANL*%
X122000000Y-75750000D03*
%TO.P,J12,4,Pin_4*%
%TO.N,GND*%
X122000000Y-78250000D03*
%TD*%
D10*
%TO.P,J2,1,Pin_1*%
%TO.N,Net-(D1-A)*%
X148775000Y-66000000D03*
D11*
%TO.P,J2,2,Pin_2*%
%TO.N,Net-(J2-Pin_2)*%
X146235000Y-66000000D03*
%TD*%
D12*
%TO.P,Q2,1,G*%
%TO.N,Net-(Q2-G)*%
X128550000Y-81437500D03*
%TO.P,Q2,2,S*%
%TO.N,GND*%
X130450000Y-81437500D03*
%TO.P,Q2,3,D*%
%TO.N,Net-(J4-Pin_2)*%
X129500000Y-79562500D03*
%TD*%
D38*
%TO.P,J7,1,Pin_1*%
%TO.N,Net-(J3-Pin_2)*%
X131750000Y-59900000D03*
D39*
%TO.P,J7,2,Pin_2*%
%TO.N,Net-(J4-Pin_2)*%
X129250000Y-59900000D03*
%TD*%
D21*
%TO.P,R4,1*%
%TO.N,Net-(Q2-G)*%
X128500000Y-83675000D03*
%TO.P,R4,2*%
%TO.N,Net-(Q1-C)*%
X128500000Y-85325000D03*
%TD*%
D42*
%TO.P,K1,11*%
%TO.N,GND*%
X166260000Y-72100000D03*
%TO.P,K1,12*%
%TO.N,unconnected-(K1-Pad12)*%
X176400000Y-89900000D03*
%TO.P,K1,14*%
%TO.N,/Vout-*%
X168800000Y-89900000D03*
D45*
%TO.P,K1,A1*%
%TO.N,Net-(D1-A)*%
X153600000Y-75900000D03*
D35*
%TO.P,K1,A2*%
%TO.N,+BATT*%
X153600000Y-86100000D03*
%TD*%
D43*
%TO.P,D3,1,K*%
%TO.N,Net-(D3-K)*%
X115000000Y-108075000D03*
%TO.P,D3,2,A*%
%TO.N,Net-(D3-A)*%
X115000000Y-106500000D03*
%TD*%
D38*
%TO.P,J6,1,Pin_1*%
%TO.N,Net-(J2-Pin_2)*%
X140250000Y-59900000D03*
D39*
%TO.P,J6,2,Pin_2*%
%TO.N,Net-(J3-Pin_2)*%
X137750000Y-59900000D03*
%TD*%
D21*
%TO.P,R7,1*%
%TO.N,+5V*%
X143406249Y-83925000D03*
%TO.P,R7,2*%
%TO.N,Net-(U1-EN)*%
X143406249Y-85575000D03*
%TD*%
%TO.P,R2,1*%
%TO.N,Net-(Q1-B)*%
X128500000Y-91850000D03*
%TO.P,R2,2*%
%TO.N,GND*%
X128500000Y-93500000D03*
%TD*%
D46*
%TO.P,D1,1,K*%
%TO.N,+BATT*%
X156900000Y-68500000D03*
%TO.P,D1,2,A*%
%TO.N,Net-(D1-A)*%
X153600000Y-68500000D03*
%TD*%
D47*
%TO.N,Net-(D3-A)*%
X117000000Y-83500000D03*
%TO.N,/IM920_IN*%
X135500000Y-93500000D03*
%TO.N,GND*%
X126500000Y-98000000D03*
X126500000Y-96000000D03*
X126500000Y-94000000D03*
X122500000Y-98000000D03*
X122500000Y-96000000D03*
X122500000Y-94000000D03*
X126500000Y-74500000D03*
X126500000Y-77000000D03*
X126500000Y-79500000D03*
X126500000Y-82500000D03*
X126500000Y-84500000D03*
X132500000Y-77000000D03*
X132500000Y-79500000D03*
X132500000Y-82000000D03*
X132500000Y-85500000D03*
X132500000Y-87500000D03*
X132500000Y-89500000D03*
X126500000Y-89500000D03*
X126500000Y-87500000D03*
X126500000Y-91500000D03*
%TO.N,+5V*%
X129563285Y-84012693D03*
%TO.N,GND*%
X160500000Y-66000000D03*
X175000000Y-59500000D03*
X172500000Y-59500000D03*
X170000000Y-59500000D03*
X161000000Y-58000000D03*
X161000000Y-60000000D03*
X161000000Y-62000000D03*
X159000000Y-64000000D03*
X159000000Y-62000000D03*
X159000000Y-60000000D03*
X167000000Y-63000000D03*
X169000000Y-63000000D03*
X173500000Y-63500000D03*
X170000000Y-56000000D03*
X170000000Y-53500000D03*
X179000000Y-72000000D03*
X113000000Y-63000000D03*
X162800000Y-58200000D03*
X169000000Y-67000000D03*
X166000000Y-115000000D03*
X151000000Y-79000000D03*
X166200000Y-61600000D03*
X162000000Y-56600000D03*
X134000000Y-61000000D03*
X128000000Y-51000000D03*
X171000000Y-103000000D03*
X161000000Y-85000000D03*
X158000000Y-117000000D03*
X167000000Y-110000000D03*
X166200000Y-62400000D03*
X164600000Y-63200000D03*
X155000000Y-81000000D03*
X142000000Y-61000000D03*
X171000000Y-79000000D03*
X122000000Y-117000000D03*
X159000000Y-110000000D03*
X162200000Y-62400000D03*
X151000000Y-85000000D03*
X132500000Y-69000000D03*
X131500000Y-68000000D03*
X171000000Y-97000000D03*
X152000000Y-62000000D03*
X165400000Y-62400000D03*
X163000000Y-62400000D03*
X152000000Y-66000000D03*
X152000000Y-115000000D03*
X136000000Y-71000000D03*
X179000000Y-66000000D03*
X125000000Y-117000000D03*
X157000000Y-110000000D03*
X164000000Y-117000000D03*
X113000000Y-66000000D03*
X158000000Y-71000000D03*
X163000000Y-61600000D03*
X146500000Y-82500000D03*
X163000000Y-85000000D03*
X179000000Y-96000000D03*
X171000000Y-83000000D03*
X125000000Y-51000000D03*
X156000000Y-66000000D03*
X167000000Y-85000000D03*
X152000000Y-64000000D03*
X136000000Y-61000000D03*
X175000000Y-92000000D03*
X158000000Y-75000000D03*
X163000000Y-63200000D03*
X163000000Y-67000000D03*
X171000000Y-69000000D03*
X148000000Y-112000000D03*
X175000000Y-98000000D03*
X179000000Y-69000000D03*
X163800000Y-62400000D03*
X113000000Y-90000000D03*
X134000000Y-51000000D03*
X151000000Y-77000000D03*
X113000000Y-87000000D03*
X165400000Y-63200000D03*
X162000000Y-58200000D03*
X163600000Y-57400000D03*
X171000000Y-93000000D03*
X163800000Y-61600000D03*
X131000000Y-117000000D03*
X171000000Y-101000000D03*
X113000000Y-105000000D03*
X179000000Y-93000000D03*
X169000000Y-85000000D03*
X171000000Y-67000000D03*
X134000000Y-117000000D03*
X162000000Y-115000000D03*
X171000000Y-77000000D03*
X113000000Y-99000000D03*
X158000000Y-73000000D03*
X163800000Y-63200000D03*
X127000000Y-65000000D03*
X120000000Y-92000000D03*
X147000000Y-106000000D03*
X179000000Y-102000000D03*
X113000000Y-60000000D03*
X158000000Y-115000000D03*
X175000000Y-75000000D03*
X175000000Y-87000000D03*
X155000000Y-110000000D03*
X163600000Y-56600000D03*
X154000000Y-66000000D03*
X157000000Y-85000000D03*
X179000000Y-90000000D03*
X179000000Y-81000000D03*
X171000000Y-85000000D03*
X113000000Y-78000000D03*
X143000000Y-117000000D03*
X113000000Y-81000000D03*
X171000000Y-95000000D03*
X167000000Y-67000000D03*
X155000000Y-79000000D03*
X159000000Y-85000000D03*
X170000000Y-115000000D03*
X162800000Y-56600000D03*
X175000000Y-81000000D03*
X167000000Y-51000000D03*
X164600000Y-62400000D03*
X179000000Y-87000000D03*
X171000000Y-109000000D03*
X179000000Y-105000000D03*
X141000000Y-73000000D03*
X162800000Y-57400000D03*
X171000000Y-73000000D03*
X161000000Y-110000000D03*
X175000000Y-73000000D03*
X137000000Y-117000000D03*
X146500000Y-84500000D03*
X155000000Y-85000000D03*
X158000000Y-66500000D03*
X165400000Y-61600000D03*
X113000000Y-75000000D03*
X165000000Y-85000000D03*
X120000000Y-94000000D03*
X137000000Y-90000000D03*
X113000000Y-93000000D03*
X113000000Y-69000000D03*
X146500000Y-78500000D03*
X131000000Y-51000000D03*
X151000000Y-73000000D03*
X133500000Y-70000000D03*
X155000000Y-83000000D03*
X133500000Y-71500000D03*
X179000000Y-78000000D03*
X149000000Y-117000000D03*
X155000000Y-117000000D03*
X179000000Y-99000000D03*
X175000000Y-108000000D03*
X151000000Y-83000000D03*
X163600000Y-58200000D03*
X161000000Y-117000000D03*
X166200000Y-63200000D03*
X179000000Y-75000000D03*
X140000000Y-51000000D03*
X179000000Y-108000000D03*
X162000000Y-57400000D03*
X113000000Y-108000000D03*
X128000000Y-117000000D03*
X151000000Y-71000000D03*
X175000000Y-106000000D03*
X169000000Y-93000000D03*
X143000000Y-51000000D03*
X146500000Y-74500000D03*
X146500000Y-80500000D03*
X171000000Y-99000000D03*
X175000000Y-77000000D03*
X168000000Y-115000000D03*
X146500000Y-86500000D03*
X175000000Y-100000000D03*
X162200000Y-61600000D03*
X164000000Y-115000000D03*
X127000000Y-63000000D03*
X175000000Y-85000000D03*
X140000000Y-117000000D03*
X163000000Y-110000000D03*
X113000000Y-102000000D03*
X113000000Y-84000000D03*
X171000000Y-75000000D03*
X157000000Y-77000000D03*
X165000000Y-110000000D03*
X143000000Y-61000000D03*
X175000000Y-65000000D03*
X147000000Y-108000000D03*
X142000000Y-76000000D03*
X146000000Y-117000000D03*
X158500000Y-68500000D03*
X170000000Y-117000000D03*
X175000000Y-96000000D03*
X175000000Y-79000000D03*
X160000000Y-115000000D03*
X164600000Y-61600000D03*
X152000000Y-60000000D03*
X171000000Y-81000000D03*
X143000000Y-76000000D03*
X135000000Y-61000000D03*
X175000000Y-67000000D03*
X144000000Y-61000000D03*
X139000000Y-90000000D03*
X142000000Y-73000000D03*
X146500000Y-76500000D03*
X127000000Y-69000000D03*
X170000000Y-51000000D03*
X165000000Y-67000000D03*
X152000000Y-106000000D03*
X179000000Y-84000000D03*
X175000000Y-69000000D03*
X175000000Y-83000000D03*
X113000000Y-96000000D03*
X171000000Y-105000000D03*
X154000000Y-115000000D03*
X167000000Y-117000000D03*
X147000000Y-110000000D03*
X175000000Y-71000000D03*
X127000000Y-67000000D03*
X151000000Y-75000000D03*
X171000000Y-71000000D03*
X149000000Y-51000000D03*
X150000000Y-114000000D03*
X175000000Y-94000000D03*
X152000000Y-117000000D03*
X162200000Y-63200000D03*
X146000000Y-51000000D03*
X156000000Y-115000000D03*
X169000000Y-110000000D03*
X151000000Y-81000000D03*
X137000000Y-51000000D03*
X141000000Y-90000000D03*
X113000000Y-72000000D03*
%TO.N,Net-(D1-A)*%
X149500000Y-54000000D03*
%TO.N,Net-(D3-A)*%
X140500000Y-72000000D03*
%TO.N,+BATT*%
X150250000Y-60000000D03*
X150750000Y-54250000D03*
%TO.N,/IM920_IO1*%
X135500000Y-73500000D03*
%TO.N,/IM920_IO2*%
X134250000Y-78500000D03*
%TO.N,/IM920_IO6*%
X139250000Y-78500000D03*
%TO.N,/IM920_IO7*%
X139500000Y-73250000D03*
%TO.N,/IM920_IO5*%
X138500000Y-73250000D03*
%TO.N,/IM920_IO3*%
X137000000Y-73500000D03*
%TO.N,/IM920_IO4*%
X137775000Y-78500000D03*
%TO.N,/IM920_IO8*%
X140137653Y-76862347D03*
%TO.N,/IM920_IO10*%
X140250000Y-75750000D03*
%TD*%
D48*
%TO.N,Net-(D3-A)*%
X114500000Y-86000000D02*
X117000000Y-83500000D01*
X114000000Y-86500000D02*
X114500000Y-86000000D01*
X114000000Y-103500000D02*
X114000000Y-93000000D01*
X114000000Y-104000000D02*
X114000000Y-103500000D01*
X114000000Y-93000000D02*
X114000000Y-86500000D01*
X115000000Y-105000000D02*
X114000000Y-104000000D01*
%TO.N,/IM920_IN*%
X130500000Y-93500000D02*
X135500000Y-93500000D01*
%TO.N,/CANL*%
X122000000Y-89250000D02*
X120750000Y-89250000D01*
X120750000Y-89250000D02*
X119000000Y-91000000D01*
D49*
%TO.N,Net-(L1-Pad1)*%
X167000000Y-57250000D02*
X167000000Y-60000000D01*
X166790000Y-57040000D02*
X167000000Y-57250000D01*
X165500000Y-57040000D02*
X166790000Y-57040000D01*
X167000000Y-60000000D02*
X165500000Y-60000000D01*
X165500000Y-57040000D02*
X165500000Y-60000000D01*
D48*
%TO.N,Net-(D3-A)*%
X115000000Y-106500000D02*
X115000000Y-105000000D01*
%TO.N,Net-(D3-K)*%
X116962500Y-108075000D02*
X117000000Y-108112500D01*
X115000000Y-108075000D02*
X116962500Y-108075000D01*
D50*
%TO.N,Net-(J4-Pin_2)*%
X129200000Y-78375000D02*
X129500000Y-78675000D01*
X129200000Y-77000000D02*
X129200000Y-78375000D01*
X129200000Y-76300000D02*
X129200000Y-77000000D01*
X132000000Y-73500000D02*
X129200000Y-76300000D01*
D48*
%TO.N,+5V*%
X129900978Y-83675000D02*
X129563285Y-84012693D01*
X130500000Y-83675000D02*
X129900978Y-83675000D01*
X135425000Y-83675000D02*
X137500000Y-85750000D01*
X130500000Y-83675000D02*
X135425000Y-83675000D01*
D50*
X160000000Y-63900000D02*
X160000000Y-63500000D01*
X161050000Y-64950000D02*
X160000000Y-63900000D01*
X160000000Y-59500000D02*
X160000000Y-63500000D01*
X161050000Y-64950000D02*
X162250000Y-64950000D01*
X158000000Y-57500000D02*
X160000000Y-59500000D01*
D48*
X178075000Y-58500000D02*
X178250000Y-58675000D01*
X171000000Y-54500000D02*
X171500000Y-55000000D01*
X171500000Y-58000000D02*
X172000000Y-58500000D01*
X172000000Y-58500000D02*
X178075000Y-58500000D01*
X163000000Y-54500000D02*
X171000000Y-54500000D01*
X171500000Y-55000000D02*
X171500000Y-58000000D01*
X162000000Y-53500000D02*
X163000000Y-54500000D01*
%TO.N,GND*%
X141750000Y-74450000D02*
X141750000Y-73250000D01*
X141750000Y-75750000D02*
X142000000Y-76000000D01*
X141750000Y-73250000D02*
X142000000Y-73000000D01*
X141750000Y-74450000D02*
X141750000Y-75750000D01*
%TO.N,Net-(D4-A)*%
X178250000Y-60325000D02*
X178250000Y-61962500D01*
D50*
%TO.N,Net-(D1-A)*%
X148750000Y-65975000D02*
X148775000Y-66000000D01*
D51*
X151750000Y-51750000D02*
X152250000Y-51750000D01*
X149500000Y-54000000D02*
X151750000Y-51750000D01*
D50*
X153600000Y-68500000D02*
X153600000Y-75900000D01*
X148775000Y-66000000D02*
X148775000Y-67025000D01*
X150250000Y-68500000D02*
X153600000Y-68500000D01*
X148775000Y-67025000D02*
X150250000Y-68500000D01*
D51*
X152837500Y-51750000D02*
X152250000Y-51750000D01*
D50*
X148750000Y-59900000D02*
X148750000Y-65975000D01*
D49*
%TO.N,+5V*%
X154500000Y-57500000D02*
X156000000Y-57500000D01*
D48*
X139006249Y-85087501D02*
X139593750Y-84500000D01*
D49*
X156500000Y-58817621D02*
X155817621Y-58817621D01*
X118000000Y-73000000D02*
X118000000Y-82000000D01*
X119750000Y-62250000D02*
X118000000Y-64000000D01*
D48*
X141906249Y-84500000D02*
X142481249Y-83925000D01*
D49*
X155817621Y-58817621D02*
X154500000Y-57500000D01*
X122000000Y-62250000D02*
X119750000Y-62250000D01*
X156500000Y-58817621D02*
X156682379Y-58817621D01*
D48*
X139593750Y-84500000D02*
X141906249Y-84500000D01*
D49*
X122000000Y-70750000D02*
X120250000Y-70750000D01*
X123750000Y-62250000D02*
X128500000Y-57500000D01*
X161000000Y-54500000D02*
X162000000Y-53500000D01*
D48*
X139126249Y-88505000D02*
X139126249Y-87220000D01*
D49*
X161540000Y-51960000D02*
X163540000Y-51960000D01*
D48*
X139006249Y-85750000D02*
X139006249Y-87100000D01*
X142481249Y-83925000D02*
X143406249Y-83925000D01*
D49*
X120250000Y-84250000D02*
X122000000Y-84250000D01*
X128500000Y-57500000D02*
X154500000Y-57500000D01*
X156682379Y-58817621D02*
X158000000Y-57500000D01*
X163540000Y-51960000D02*
X165500000Y-51960000D01*
X162000000Y-53500000D02*
X163540000Y-51960000D01*
X158000000Y-57500000D02*
X161000000Y-54500000D01*
X156000000Y-57500000D02*
X161540000Y-51960000D01*
D48*
X139126249Y-87220000D02*
X139006249Y-87100000D01*
D49*
X118000000Y-82000000D02*
X120250000Y-84250000D01*
X122000000Y-62250000D02*
X123750000Y-62250000D01*
D48*
X137500000Y-85750000D02*
X139006249Y-85750000D01*
D49*
X120250000Y-70750000D02*
X118000000Y-73000000D01*
X156000000Y-57500000D02*
X158000000Y-57500000D01*
D48*
X139006249Y-85750000D02*
X139006249Y-85087501D01*
D49*
X118000000Y-64000000D02*
X118000000Y-68500000D01*
X120250000Y-70750000D02*
X118000000Y-68500000D01*
D48*
%TO.N,Net-(D3-A)*%
X141250000Y-70550000D02*
X141250000Y-71250000D01*
X141250000Y-71250000D02*
X140500000Y-72000000D01*
D49*
%TO.N,+BATT*%
X152000000Y-112500000D02*
X149600000Y-110100000D01*
D48*
X155750000Y-68000000D02*
X155250000Y-67500000D01*
X150250000Y-67000000D02*
X150250000Y-60000000D01*
D50*
X156900000Y-75100000D02*
X156900000Y-68500000D01*
D49*
X173000000Y-86500000D02*
X173000000Y-65932380D01*
D48*
X157737500Y-52262500D02*
X157737500Y-51750000D01*
D49*
X173000000Y-104000000D02*
X173000000Y-86500000D01*
X173000000Y-110000000D02*
X170500000Y-112500000D01*
D48*
X155250000Y-67500000D02*
X152250000Y-67500000D01*
X156250000Y-68500000D02*
X155750000Y-68000000D01*
D49*
X172000000Y-64932380D02*
X173000000Y-65932380D01*
D48*
X157250000Y-52750000D02*
X157737500Y-52262500D01*
X152250000Y-52750000D02*
X157250000Y-52750000D01*
D49*
X170500000Y-112500000D02*
X152000000Y-112500000D01*
D50*
X172600000Y-86100000D02*
X173000000Y-86500000D01*
D49*
X173000000Y-105000000D02*
X173000000Y-104000000D01*
D48*
X150750000Y-54250000D02*
X152250000Y-52750000D01*
D52*
X173250000Y-104250000D02*
X173000000Y-104000000D01*
D48*
X156900000Y-68500000D02*
X156250000Y-68500000D01*
D50*
X153600000Y-78400000D02*
X156900000Y-75100000D01*
D49*
X149600000Y-110100000D02*
X149600000Y-102350000D01*
D48*
X150750000Y-67500000D02*
X150250000Y-67000000D01*
D49*
X172000000Y-64932380D02*
X166777620Y-64932380D01*
D52*
X176000000Y-104250000D02*
X173250000Y-104250000D01*
D49*
X173000000Y-105000000D02*
X173000000Y-110000000D01*
D50*
X153600000Y-86100000D02*
X172600000Y-86100000D01*
D48*
X152250000Y-67500000D02*
X150750000Y-67500000D01*
D50*
X153600000Y-86100000D02*
X153600000Y-78400000D01*
%TO.N,Net-(J2-Pin_2)*%
X140250000Y-59900000D02*
X140250000Y-65975000D01*
X140250000Y-65975000D02*
X140275000Y-66000000D01*
X140250000Y-59900000D02*
X146250000Y-59900000D01*
X146250000Y-65985000D02*
X146235000Y-66000000D01*
X146250000Y-59900000D02*
X146250000Y-65985000D01*
%TO.N,Net-(J3-Pin_2)*%
X131750000Y-59900000D02*
X137750000Y-59900000D01*
X131750000Y-65975000D02*
X131775000Y-66000000D01*
X137735000Y-66000000D02*
X137735000Y-59915000D01*
X137735000Y-59915000D02*
X137750000Y-59900000D01*
X131750000Y-59900000D02*
X131750000Y-65975000D01*
%TO.N,Net-(J4-Pin_2)*%
X129500000Y-78675000D02*
X129500000Y-79562500D01*
X129235000Y-67735000D02*
X132000000Y-70500000D01*
X129250000Y-59900000D02*
X129250000Y-65985000D01*
X132000000Y-70500000D02*
X132000000Y-73500000D01*
X129235000Y-66000000D02*
X129235000Y-67735000D01*
D48*
%TO.N,Net-(SW2-B)*%
X117500000Y-100000000D02*
X119000000Y-98500000D01*
X119000000Y-98500000D02*
X119000000Y-97825000D01*
X115500000Y-100000000D02*
X117500000Y-100000000D01*
%TO.N,Net-(Q1-C)*%
X130500000Y-85325000D02*
X129500000Y-85325000D01*
X129500000Y-85325000D02*
X128500000Y-85325000D01*
X128500000Y-85675000D02*
X129500000Y-86675000D01*
X129500000Y-86675000D02*
X129500000Y-87625000D01*
X128500000Y-85325000D02*
X128500000Y-85675000D01*
%TO.N,Net-(Q2-G)*%
X128550000Y-81437500D02*
X128550000Y-82625000D01*
X128550000Y-82625000D02*
X128500000Y-82675000D01*
X128500000Y-83675000D02*
X128500000Y-82675000D01*
%TO.N,Net-(U1-EN)*%
X142156249Y-85750000D02*
X140906249Y-85750000D01*
X143406249Y-85575000D02*
X142331249Y-85575000D01*
X142331249Y-85575000D02*
X142156249Y-85750000D01*
%TO.N,+3V3*%
X140406249Y-82000000D02*
X140681249Y-81725000D01*
X139006249Y-83475000D02*
X139006249Y-82400000D01*
X139006249Y-82400000D02*
X139406249Y-82000000D01*
X144750000Y-73275000D02*
X143820960Y-73275000D01*
X144750000Y-77406249D02*
X141406249Y-80750000D01*
X140681249Y-81725000D02*
X140681249Y-80750000D01*
X144750000Y-73275000D02*
X144750000Y-77406249D01*
X141750000Y-71204040D02*
X142270960Y-71725000D01*
X139406249Y-82000000D02*
X140406249Y-82000000D01*
X143820960Y-73275000D02*
X142270960Y-71725000D01*
X140681249Y-80750000D02*
X141406249Y-80750000D01*
X141750000Y-70550000D02*
X141750000Y-71204040D01*
%TO.N,Net-(Q1-B)*%
X128550000Y-90625000D02*
X128500000Y-90675000D01*
X128500000Y-90675000D02*
X128500000Y-91875000D01*
X128550000Y-89500000D02*
X128550000Y-90625000D01*
X130500000Y-91875000D02*
X128500000Y-91875000D01*
%TO.N,Net-(D2-A)*%
X154412500Y-51750000D02*
X156087500Y-51750000D01*
%TO.N,/CANH*%
X124000000Y-83500000D02*
X124000000Y-86000000D01*
X123000000Y-82500000D02*
X124000000Y-83500000D01*
X119500000Y-74500000D02*
X119500000Y-80500000D01*
X115500000Y-97460000D02*
X115500000Y-92000000D01*
X123250000Y-86750000D02*
X122000000Y-86750000D01*
X124000000Y-86000000D02*
X123250000Y-86750000D01*
X120750000Y-73250000D02*
X119500000Y-74500000D01*
X122000000Y-73250000D02*
X120750000Y-73250000D01*
X120750000Y-86750000D02*
X122000000Y-86750000D01*
X115500000Y-92000000D02*
X120750000Y-86750000D01*
X119500000Y-80500000D02*
X121500000Y-82500000D01*
X121500000Y-82500000D02*
X123000000Y-82500000D01*
%TO.N,/CANL*%
X123250000Y-89250000D02*
X125000000Y-87500000D01*
X120500000Y-80000000D02*
X120500000Y-76000000D01*
X125000000Y-87500000D02*
X125000000Y-83000000D01*
X119000000Y-91000000D02*
X119000000Y-96175000D01*
X120750000Y-75750000D02*
X122000000Y-75750000D01*
X125000000Y-83000000D02*
X123500000Y-81500000D01*
X122000000Y-81500000D02*
X120500000Y-80000000D01*
X122000000Y-89250000D02*
X123250000Y-89250000D01*
X123500000Y-81500000D02*
X122000000Y-81500000D01*
X120500000Y-76000000D02*
X120750000Y-75750000D01*
%TO.N,/IM920_IO1*%
X137700000Y-71300000D02*
X135500000Y-73500000D01*
X137700000Y-70550000D02*
X137700000Y-71300000D01*
%TO.N,/IM920_IO2*%
X137700000Y-75050000D02*
X137700000Y-74450000D01*
X137700000Y-75050000D02*
X134250000Y-78500000D01*
%TO.N,/IM920_IO6*%
X138750000Y-78000000D02*
X139250000Y-78500000D01*
X138750000Y-74450000D02*
X138750000Y-78000000D01*
%TO.N,/IM920_IO7*%
X139250000Y-72000000D02*
X139250000Y-72250000D01*
X139250000Y-73000000D02*
X139500000Y-73250000D01*
X139250000Y-70550000D02*
X139250000Y-72000000D01*
X139250000Y-72250000D02*
X139250000Y-73000000D01*
%TO.N,/IM920_IO5*%
X138750000Y-70550000D02*
X138750000Y-72067891D01*
X138750000Y-72067891D02*
X138750000Y-73000000D01*
X138750000Y-73000000D02*
X138500000Y-73250000D01*
%TO.N,/IM920_IO3*%
X138250000Y-71775306D02*
X138250000Y-72250000D01*
X138250000Y-72250000D02*
X137000000Y-73500000D01*
X138250000Y-71386396D02*
X138250000Y-71774139D01*
X138250000Y-71774139D02*
X138250000Y-71775306D01*
X138250000Y-70550000D02*
X138250000Y-71386396D01*
%TO.N,/IM920_IO4*%
X137775000Y-78500000D02*
X138250000Y-78025000D01*
X138250000Y-78025000D02*
X138250000Y-74450000D01*
%TO.N,/IM920_IO8*%
X140137653Y-76862347D02*
X139250000Y-75974694D01*
X139250000Y-75974694D02*
X139250000Y-74450000D01*
%TO.N,/IM920_IO10*%
X139750000Y-75250000D02*
X139750000Y-74450000D01*
X140250000Y-75750000D02*
X139750000Y-75250000D01*
%TD*%
%TA.AperFunction,Conductor*%
%TO.N,GND*%
G36*
X171959191Y-50018907D02*
G01*
X171995155Y-50068407D01*
X172000000Y-50099000D01*
X172000000Y-54517822D01*
X171981093Y-54576013D01*
X171931593Y-54611977D01*
X171870407Y-54611977D01*
X171830996Y-54587826D01*
X171420505Y-54177335D01*
X171420505Y-54177334D01*
X171322667Y-54079497D01*
X171322665Y-54079495D01*
X171202836Y-54010312D01*
X171202834Y-54010311D01*
X171202832Y-54010310D01*
X171164350Y-53999999D01*
X171164349Y-53999999D01*
X171069185Y-53974499D01*
X171069183Y-53974499D01*
X170930817Y-53974499D01*
X170924754Y-53974499D01*
X170924738Y-53974500D01*
X163745114Y-53974500D01*
X163686923Y-53955593D01*
X163650959Y-53906093D01*
X163650959Y-53844907D01*
X163675110Y-53805496D01*
X164091110Y-53389496D01*
X164145627Y-53361719D01*
X164161114Y-53360500D01*
X165616049Y-53360500D01*
X165724568Y-53342390D01*
X165725183Y-53342291D01*
X165827951Y-53326015D01*
X165827959Y-53326012D01*
X165831742Y-53325105D01*
X165831765Y-53325204D01*
X165840779Y-53322998D01*
X165844981Y-53322298D01*
X165943071Y-53288622D01*
X165944453Y-53288160D01*
X166037606Y-53257895D01*
X166041764Y-53255776D01*
X166054583Y-53250341D01*
X166055207Y-53250126D01*
X166064503Y-53246936D01*
X166150234Y-53200540D01*
X166152330Y-53199439D01*
X166234022Y-53157815D01*
X166242840Y-53151407D01*
X166253910Y-53144432D01*
X166268626Y-53136470D01*
X166340683Y-53080384D01*
X166343215Y-53078480D01*
X166412365Y-53028242D01*
X166424472Y-53016134D01*
X166433667Y-53008012D01*
X166451784Y-52993913D01*
X166509424Y-52931297D01*
X166512187Y-52928418D01*
X166568242Y-52872365D01*
X166581975Y-52853461D01*
X166589228Y-52844607D01*
X166608979Y-52823153D01*
X166652106Y-52757139D01*
X166654866Y-52753134D01*
X166697815Y-52694022D01*
X166711241Y-52667670D01*
X166716567Y-52658476D01*
X166735923Y-52628850D01*
X166735924Y-52628849D01*
X166765106Y-52562318D01*
X166767542Y-52557173D01*
X166797895Y-52497606D01*
X166808955Y-52463566D01*
X166812443Y-52454402D01*
X166829157Y-52416300D01*
X166845474Y-52351863D01*
X166847271Y-52345638D01*
X166866015Y-52287951D01*
X166872586Y-52246456D01*
X166874385Y-52237694D01*
X166886134Y-52191305D01*
X166891110Y-52131242D01*
X166891984Y-52123986D01*
X166900500Y-52070222D01*
X166900500Y-52022023D01*
X166900838Y-52013848D01*
X166905300Y-51960000D01*
X166900838Y-51906150D01*
X166900500Y-51897975D01*
X166900500Y-51849777D01*
X166899472Y-51843290D01*
X166891985Y-51796018D01*
X166891110Y-51788752D01*
X166886134Y-51728695D01*
X166874390Y-51682321D01*
X166872585Y-51673533D01*
X166866015Y-51632049D01*
X166847279Y-51574386D01*
X166845467Y-51568108D01*
X166829157Y-51503700D01*
X166812440Y-51465588D01*
X166808954Y-51456431D01*
X166802199Y-51435642D01*
X166797895Y-51422394D01*
X166797893Y-51422390D01*
X166767558Y-51362854D01*
X166765105Y-51357677D01*
X166747803Y-51318233D01*
X166735924Y-51291151D01*
X166716563Y-51261517D01*
X166711239Y-51252324D01*
X166697817Y-51225982D01*
X166697813Y-51225974D01*
X166654890Y-51166896D01*
X166652103Y-51162854D01*
X166608979Y-51096847D01*
X166589218Y-51075381D01*
X166581963Y-51066521D01*
X166568242Y-51047635D01*
X166568240Y-51047633D01*
X166512210Y-50991602D01*
X166509377Y-50988650D01*
X166451786Y-50926089D01*
X166451778Y-50926082D01*
X166433674Y-50911991D01*
X166424481Y-50903873D01*
X166412367Y-50891760D01*
X166412360Y-50891754D01*
X166343254Y-50841546D01*
X166340637Y-50839578D01*
X166268630Y-50783532D01*
X166253913Y-50775568D01*
X166242846Y-50768595D01*
X166234031Y-50762191D01*
X166234017Y-50762182D01*
X166152367Y-50720578D01*
X166150195Y-50719437D01*
X166064506Y-50673065D01*
X166054568Y-50669653D01*
X166041782Y-50664232D01*
X166037609Y-50662106D01*
X166037608Y-50662105D01*
X165944537Y-50631865D01*
X165942986Y-50631346D01*
X165844976Y-50597700D01*
X165840762Y-50596997D01*
X165831751Y-50594794D01*
X165831728Y-50594892D01*
X165827943Y-50593983D01*
X165725262Y-50577720D01*
X165724455Y-50577589D01*
X165616050Y-50559500D01*
X165616049Y-50559500D01*
X165610222Y-50559500D01*
X163654324Y-50559500D01*
X163654300Y-50559499D01*
X163650222Y-50559499D01*
X163429778Y-50559499D01*
X163425700Y-50559499D01*
X163425676Y-50559500D01*
X161654324Y-50559500D01*
X161654300Y-50559499D01*
X161650222Y-50559499D01*
X161429778Y-50559499D01*
X161429775Y-50559499D01*
X161212050Y-50593984D01*
X161002400Y-50662102D01*
X160805980Y-50762183D01*
X160776596Y-50783532D01*
X160627635Y-50891758D01*
X160627633Y-50891759D01*
X160627630Y-50891762D01*
X160627629Y-50891763D01*
X160471757Y-51047634D01*
X160471758Y-51047635D01*
X160471755Y-51047638D01*
X155448890Y-56070504D01*
X155394373Y-56098281D01*
X155378886Y-56099500D01*
X154614324Y-56099500D01*
X154614300Y-56099499D01*
X154610222Y-56099499D01*
X154389778Y-56099499D01*
X154385700Y-56099499D01*
X154385676Y-56099500D01*
X128389775Y-56099500D01*
X128172051Y-56133984D01*
X127962400Y-56202102D01*
X127765980Y-56302183D01*
X127717185Y-56337635D01*
X127587635Y-56431758D01*
X127587633Y-56431759D01*
X127587630Y-56431762D01*
X127587629Y-56431763D01*
X127431757Y-56587634D01*
X127431758Y-56587635D01*
X127431755Y-56587638D01*
X123198890Y-60820504D01*
X123144373Y-60848281D01*
X123128886Y-60849500D01*
X119864324Y-60849500D01*
X119864300Y-60849499D01*
X119860222Y-60849499D01*
X119639779Y-60849499D01*
X119639776Y-60849499D01*
X119422051Y-60883984D01*
X119212400Y-60952102D01*
X119015980Y-61052183D01*
X118915791Y-61124975D01*
X118837635Y-61181758D01*
X118837633Y-61181759D01*
X118837630Y-61181762D01*
X118837629Y-61181763D01*
X118681757Y-61337634D01*
X118681758Y-61337635D01*
X118681755Y-61337638D01*
X117087638Y-62931755D01*
X117087635Y-62931758D01*
X117087634Y-62931757D01*
X116931759Y-63087633D01*
X116931749Y-63087645D01*
X116929591Y-63090616D01*
X116880091Y-63126579D01*
X116818905Y-63126578D01*
X116769406Y-63090613D01*
X116750500Y-63032424D01*
X116750500Y-63001579D01*
X116719710Y-62807178D01*
X116717540Y-62800499D01*
X116658884Y-62619975D01*
X116569524Y-62444595D01*
X116453828Y-62285354D01*
X116314646Y-62146172D01*
X116155405Y-62030476D01*
X116155404Y-62030475D01*
X116155402Y-62030474D01*
X115980025Y-61941116D01*
X115792821Y-61880289D01*
X115598420Y-61849500D01*
X115598417Y-61849500D01*
X115401583Y-61849500D01*
X115401580Y-61849500D01*
X115207178Y-61880289D01*
X115019974Y-61941116D01*
X114844597Y-62030474D01*
X114685355Y-62146171D01*
X114546171Y-62285355D01*
X114430474Y-62444597D01*
X114341116Y-62619974D01*
X114280289Y-62807178D01*
X114249500Y-63001579D01*
X114249500Y-63998420D01*
X114280289Y-64192821D01*
X114341116Y-64380025D01*
X114428287Y-64551110D01*
X114430476Y-64555405D01*
X114546172Y-64714646D01*
X114685354Y-64853828D01*
X114844595Y-64969524D01*
X115019975Y-65058884D01*
X115207174Y-65119709D01*
X115207175Y-65119709D01*
X115207178Y-65119710D01*
X115401580Y-65150500D01*
X115401583Y-65150500D01*
X115598420Y-65150500D01*
X115792821Y-65119710D01*
X115792822Y-65119709D01*
X115792826Y-65119709D01*
X115980025Y-65058884D01*
X116155405Y-64969524D01*
X116314646Y-64853828D01*
X116430498Y-64737975D01*
X116485013Y-64710200D01*
X116545445Y-64719771D01*
X116588710Y-64763036D01*
X116599500Y-64807981D01*
X116599500Y-68386250D01*
X116599499Y-68386280D01*
X116599499Y-68610224D01*
X116633147Y-68822659D01*
X116633147Y-68822660D01*
X116633984Y-68827948D01*
X116633985Y-68827952D01*
X116702102Y-69037599D01*
X116702104Y-69037602D01*
X116702105Y-69037606D01*
X116802185Y-69234022D01*
X116931758Y-69412365D01*
X117087635Y-69568242D01*
X117087638Y-69568244D01*
X118199389Y-70679995D01*
X118227166Y-70734512D01*
X118217595Y-70794944D01*
X118199389Y-70820003D01*
X117087638Y-71931755D01*
X117087635Y-71931758D01*
X117087634Y-71931757D01*
X116931759Y-72087633D01*
X116931754Y-72087639D01*
X116813431Y-72250499D01*
X116802185Y-72265977D01*
X116802184Y-72265978D01*
X116702104Y-72462395D01*
X116633984Y-72672050D01*
X116599499Y-72889775D01*
X116599499Y-73114299D01*
X116599500Y-73114324D01*
X116599500Y-73192019D01*
X116580593Y-73250210D01*
X116531093Y-73286174D01*
X116469907Y-73286174D01*
X116430498Y-73262024D01*
X116314646Y-73146172D01*
X116155405Y-73030476D01*
X116155404Y-73030475D01*
X116155402Y-73030474D01*
X115980025Y-72941116D01*
X115792821Y-72880289D01*
X115598420Y-72849500D01*
X115598417Y-72849500D01*
X115401583Y-72849500D01*
X115401580Y-72849500D01*
X115207178Y-72880289D01*
X115019974Y-72941116D01*
X114844597Y-73030474D01*
X114685355Y-73146171D01*
X114546171Y-73285355D01*
X114430474Y-73444597D01*
X114341116Y-73619974D01*
X114280289Y-73807178D01*
X114249500Y-74001579D01*
X114249500Y-74998420D01*
X114280289Y-75192821D01*
X114341116Y-75380025D01*
X114400499Y-75496573D01*
X114430476Y-75555405D01*
X114546172Y-75714646D01*
X114685354Y-75853828D01*
X114844595Y-75969524D01*
X115019975Y-76058884D01*
X115207174Y-76119709D01*
X115207175Y-76119709D01*
X115207178Y-76119710D01*
X115401580Y-76150500D01*
X115401583Y-76150500D01*
X115598420Y-76150500D01*
X115792821Y-76119710D01*
X115792822Y-76119709D01*
X115792826Y-76119709D01*
X115980025Y-76058884D01*
X116155405Y-75969524D01*
X116314646Y-75853828D01*
X116430498Y-75737975D01*
X116485013Y-75710200D01*
X116545445Y-75719771D01*
X116588710Y-75763036D01*
X116599500Y-75807981D01*
X116599500Y-81886250D01*
X116599499Y-81886280D01*
X116599499Y-82110224D01*
X116629109Y-82297164D01*
X116629109Y-82297166D01*
X116633984Y-82327949D01*
X116698172Y-82525500D01*
X116702105Y-82537606D01*
X116711381Y-82555812D01*
X116745164Y-82622113D01*
X116754736Y-82682545D01*
X116726959Y-82737061D01*
X116689654Y-82760502D01*
X116650476Y-82774211D01*
X116497741Y-82870181D01*
X116370181Y-82997741D01*
X116274211Y-83150476D01*
X116274211Y-83150477D01*
X116214633Y-83320738D01*
X116214632Y-83320742D01*
X116204533Y-83410372D01*
X116203206Y-83422159D01*
X116194435Y-83500003D01*
X116195415Y-83508705D01*
X116183139Y-83568646D01*
X116167041Y-83589788D01*
X114177337Y-85579493D01*
X114177335Y-85579495D01*
X113671693Y-86085136D01*
X113671690Y-86085139D01*
X113671689Y-86085138D01*
X113579494Y-86177335D01*
X113510313Y-86297160D01*
X113510311Y-86297165D01*
X113508050Y-86305600D01*
X113508051Y-86305601D01*
X113474499Y-86430817D01*
X113474499Y-86577157D01*
X113474500Y-86577170D01*
X113474500Y-103924737D01*
X113474499Y-103924755D01*
X113474499Y-104069183D01*
X113479726Y-104088688D01*
X113479726Y-104088691D01*
X113479727Y-104088691D01*
X113479727Y-104088692D01*
X113510312Y-104202836D01*
X113579495Y-104322665D01*
X113677335Y-104420505D01*
X113677337Y-104420506D01*
X114445504Y-105188673D01*
X114473281Y-105243190D01*
X114474500Y-105258677D01*
X114474500Y-105664576D01*
X114455593Y-105722767D01*
X114425896Y-105749789D01*
X114361194Y-105788054D01*
X114250554Y-105898694D01*
X114170914Y-106033357D01*
X114170914Y-106033358D01*
X114127262Y-106183609D01*
X114124500Y-106218718D01*
X114124500Y-106781281D01*
X114127263Y-106816391D01*
X114127264Y-106816399D01*
X114158324Y-106923308D01*
X114170249Y-106964354D01*
X114170914Y-106966641D01*
X114170914Y-106966642D01*
X114250554Y-107101305D01*
X114250555Y-107101306D01*
X114250557Y-107101309D01*
X114361191Y-107211943D01*
X114361193Y-107211944D01*
X114365596Y-107216347D01*
X114363788Y-107218154D01*
X114392145Y-107259889D01*
X114390217Y-107321044D01*
X114364030Y-107357087D01*
X114365596Y-107358653D01*
X114361193Y-107363055D01*
X114361191Y-107363057D01*
X114302338Y-107421910D01*
X114250554Y-107473694D01*
X114170914Y-107608357D01*
X114170914Y-107608358D01*
X114127262Y-107758609D01*
X114124500Y-107793718D01*
X114124500Y-108356281D01*
X114127263Y-108391391D01*
X114127264Y-108391399D01*
X114149886Y-108469262D01*
X114168704Y-108534036D01*
X114170914Y-108541641D01*
X114170914Y-108541642D01*
X114250554Y-108676305D01*
X114250555Y-108676306D01*
X114250557Y-108676309D01*
X114361191Y-108786943D01*
X114495861Y-108866587D01*
X114646108Y-108910237D01*
X114681213Y-108913000D01*
X115318786Y-108912999D01*
X115353892Y-108910237D01*
X115504139Y-108866587D01*
X115638809Y-108786943D01*
X115749443Y-108676309D01*
X115754656Y-108667492D01*
X115765533Y-108649104D01*
X115811429Y-108608642D01*
X115850746Y-108600500D01*
X116140255Y-108600500D01*
X116198446Y-108619407D01*
X116218797Y-108639233D01*
X116292777Y-108735647D01*
X116296718Y-108740782D01*
X116422159Y-108837036D01*
X116568238Y-108897544D01*
X116685639Y-108913000D01*
X117314360Y-108912999D01*
X117431762Y-108897544D01*
X117577841Y-108837036D01*
X117703282Y-108740782D01*
X117799536Y-108615341D01*
X117860044Y-108469262D01*
X117875500Y-108351861D01*
X117875499Y-107873140D01*
X117860044Y-107755738D01*
X117799537Y-107609661D01*
X117799537Y-107609660D01*
X117703286Y-107484223D01*
X117703285Y-107484222D01*
X117703282Y-107484218D01*
X117703277Y-107484214D01*
X117703276Y-107484213D01*
X117658688Y-107450000D01*
X119424891Y-107450000D01*
X119445299Y-107735351D01*
X119506113Y-108014908D01*
X119606089Y-108282953D01*
X119606093Y-108282961D01*
X119743188Y-108534033D01*
X119849883Y-108676560D01*
X120457911Y-108068531D01*
X120552829Y-108199175D01*
X120680825Y-108327171D01*
X120811466Y-108422086D01*
X120203437Y-109030116D01*
X120345960Y-109136807D01*
X120345963Y-109136809D01*
X120597038Y-109273906D01*
X120597046Y-109273910D01*
X120865091Y-109373886D01*
X121144648Y-109434700D01*
X121430000Y-109455108D01*
X121715351Y-109434700D01*
X121994908Y-109373886D01*
X122262953Y-109273910D01*
X122262961Y-109273906D01*
X122514036Y-109136809D01*
X122514039Y-109136807D01*
X122656561Y-109030116D01*
X122048532Y-108422087D01*
X122179175Y-108327171D01*
X122307171Y-108199175D01*
X122402087Y-108068532D01*
X123010116Y-108676561D01*
X123116807Y-108534039D01*
X123116809Y-108534036D01*
X123253906Y-108282961D01*
X123253910Y-108282953D01*
X123353886Y-108014908D01*
X123414700Y-107735351D01*
X123435108Y-107450000D01*
X132564891Y-107450000D01*
X132585299Y-107735351D01*
X132646113Y-108014908D01*
X132746089Y-108282953D01*
X132746093Y-108282961D01*
X132883188Y-108534033D01*
X132989883Y-108676560D01*
X133597911Y-108068531D01*
X133692829Y-108199175D01*
X133820825Y-108327171D01*
X133951466Y-108422086D01*
X133343437Y-109030116D01*
X133485960Y-109136807D01*
X133485963Y-109136809D01*
X133737038Y-109273906D01*
X133737046Y-109273910D01*
X134005091Y-109373886D01*
X134284648Y-109434700D01*
X134570000Y-109455108D01*
X134855351Y-109434700D01*
X135099811Y-109381521D01*
X138399500Y-109381521D01*
X138399501Y-109381523D01*
X138414352Y-109475299D01*
X138414354Y-109475304D01*
X138471950Y-109588342D01*
X138561658Y-109678050D01*
X138674696Y-109735646D01*
X138768481Y-109750500D01*
X139731518Y-109750499D01*
X139731521Y-109750499D01*
X139731522Y-109750498D01*
X139778411Y-109743072D01*
X139825299Y-109735647D01*
X139825299Y-109735646D01*
X139825304Y-109735646D01*
X139938342Y-109678050D01*
X140028050Y-109588342D01*
X140085646Y-109475304D01*
X140100500Y-109381519D01*
X140100499Y-107318482D01*
X140100499Y-107318481D01*
X140100499Y-107318478D01*
X140100498Y-107318476D01*
X140085647Y-107224700D01*
X140085646Y-107224698D01*
X140085646Y-107224696D01*
X140028050Y-107111658D01*
X139938342Y-107021950D01*
X139825304Y-106964354D01*
X139825305Y-106964354D01*
X139731521Y-106949500D01*
X138768478Y-106949500D01*
X138768476Y-106949501D01*
X138674700Y-106964352D01*
X138674695Y-106964354D01*
X138561659Y-107021949D01*
X138471949Y-107111659D01*
X138414354Y-107224695D01*
X138399500Y-107318478D01*
X138399500Y-109381521D01*
X135099811Y-109381521D01*
X135134908Y-109373886D01*
X135402953Y-109273910D01*
X135402961Y-109273906D01*
X135654036Y-109136809D01*
X135654039Y-109136807D01*
X135796561Y-109030116D01*
X135188532Y-108422087D01*
X135319175Y-108327171D01*
X135447171Y-108199175D01*
X135542087Y-108068532D01*
X136150116Y-108676561D01*
X136256807Y-108534039D01*
X136256809Y-108534036D01*
X136393906Y-108282961D01*
X136393910Y-108282953D01*
X136493886Y-108014908D01*
X136554700Y-107735351D01*
X136575108Y-107450000D01*
X136554700Y-107164648D01*
X136493886Y-106885091D01*
X136393910Y-106617046D01*
X136393906Y-106617038D01*
X136256809Y-106365963D01*
X136256807Y-106365960D01*
X136150116Y-106223437D01*
X135542086Y-106831466D01*
X135447171Y-106700825D01*
X135319175Y-106572829D01*
X135188531Y-106477911D01*
X135796560Y-105869883D01*
X135654033Y-105763188D01*
X135402961Y-105626093D01*
X135402953Y-105626089D01*
X135134908Y-105526113D01*
X134855351Y-105465299D01*
X134570000Y-105444891D01*
X134284648Y-105465299D01*
X134005091Y-105526113D01*
X133737046Y-105626089D01*
X133737038Y-105626093D01*
X133485960Y-105763191D01*
X133485953Y-105763196D01*
X133343437Y-105869882D01*
X133951467Y-106477912D01*
X133820825Y-106572829D01*
X133692829Y-106700825D01*
X133597912Y-106831467D01*
X132989882Y-106223437D01*
X132883196Y-106365953D01*
X132883191Y-106365960D01*
X132746093Y-106617038D01*
X132746089Y-106617046D01*
X132646113Y-106885091D01*
X132585299Y-107164648D01*
X132564891Y-107450000D01*
X123435108Y-107450000D01*
X123414700Y-107164648D01*
X123353886Y-106885091D01*
X123253910Y-106617046D01*
X123253906Y-106617038D01*
X123116809Y-106365963D01*
X123116807Y-106365960D01*
X123010116Y-106223437D01*
X122402086Y-106831466D01*
X122307171Y-106700825D01*
X122179175Y-106572829D01*
X122048531Y-106477911D01*
X122656560Y-105869883D01*
X122514033Y-105763188D01*
X122262961Y-105626093D01*
X122262953Y-105626089D01*
X121994908Y-105526113D01*
X121715351Y-105465299D01*
X121430000Y-105444891D01*
X121144648Y-105465299D01*
X120865091Y-105526113D01*
X120597046Y-105626089D01*
X120597038Y-105626093D01*
X120345960Y-105763191D01*
X120345953Y-105763196D01*
X120203437Y-105869882D01*
X120811467Y-106477912D01*
X120680825Y-106572829D01*
X120552829Y-106700825D01*
X120457912Y-106831467D01*
X119849882Y-106223437D01*
X119743196Y-106365953D01*
X119743191Y-106365960D01*
X119606093Y-106617038D01*
X119606089Y-106617046D01*
X119506113Y-106885091D01*
X119445299Y-107164648D01*
X119424891Y-107450000D01*
X117658688Y-107450000D01*
X117626841Y-107425563D01*
X117592185Y-107375139D01*
X117593786Y-107313974D01*
X117631034Y-107265433D01*
X117635891Y-107262299D01*
X117709872Y-107217575D01*
X117830075Y-107097372D01*
X117918017Y-106951900D01*
X117918020Y-106951892D01*
X117968589Y-106789610D01*
X117968591Y-106789604D01*
X117974999Y-106719081D01*
X117975000Y-106719068D01*
X117975000Y-106712501D01*
X117974999Y-106712500D01*
X116849000Y-106712500D01*
X116790809Y-106693593D01*
X116754845Y-106644093D01*
X116750000Y-106613500D01*
X116750000Y-106212499D01*
X117250000Y-106212499D01*
X117250001Y-106212500D01*
X117974998Y-106212500D01*
X117974999Y-106212499D01*
X117974999Y-106205933D01*
X117974998Y-106205917D01*
X117968591Y-106135396D01*
X117968589Y-106135390D01*
X117918020Y-105973107D01*
X117918017Y-105973099D01*
X117830075Y-105827627D01*
X117709872Y-105707424D01*
X117564400Y-105619482D01*
X117564392Y-105619479D01*
X117402110Y-105568910D01*
X117402104Y-105568908D01*
X117331581Y-105562500D01*
X117250001Y-105562500D01*
X117250000Y-105562501D01*
X117250000Y-106212499D01*
X116750000Y-106212499D01*
X116750000Y-105562501D01*
X116749998Y-105562499D01*
X116668434Y-105562500D01*
X116668417Y-105562501D01*
X116597896Y-105568908D01*
X116597890Y-105568910D01*
X116435607Y-105619479D01*
X116435599Y-105619482D01*
X116290127Y-105707424D01*
X116169924Y-105827627D01*
X116081982Y-105973099D01*
X116081980Y-105973105D01*
X116039882Y-106108200D01*
X116004519Y-106158130D01*
X115946560Y-106177739D01*
X115888146Y-106159535D01*
X115851587Y-106110473D01*
X115850302Y-106106388D01*
X115829087Y-106033361D01*
X115806267Y-105994775D01*
X115749445Y-105898694D01*
X115749444Y-105898693D01*
X115749443Y-105898691D01*
X115638809Y-105788057D01*
X115638806Y-105788055D01*
X115638805Y-105788054D01*
X115574104Y-105749789D01*
X115533642Y-105703893D01*
X115525500Y-105664576D01*
X115525500Y-105077171D01*
X115525501Y-105077158D01*
X115525501Y-104930818D01*
X115521947Y-104917553D01*
X115489689Y-104797165D01*
X115489687Y-104797162D01*
X115489687Y-104797160D01*
X115456686Y-104740000D01*
X123344571Y-104740000D01*
X123364244Y-104952311D01*
X123365829Y-104957881D01*
X123422595Y-105157389D01*
X123517634Y-105348255D01*
X123646128Y-105518407D01*
X123701525Y-105568908D01*
X123803692Y-105662047D01*
X123803699Y-105662053D01*
X123807774Y-105664576D01*
X123984981Y-105774298D01*
X124183802Y-105851321D01*
X124393390Y-105890500D01*
X124606610Y-105890500D01*
X124816198Y-105851321D01*
X125015019Y-105774298D01*
X125196302Y-105662052D01*
X125353872Y-105518407D01*
X125482366Y-105348255D01*
X125577405Y-105157389D01*
X125635756Y-104952310D01*
X125651422Y-104783236D01*
X125669192Y-104741965D01*
X125664880Y-104738178D01*
X125664833Y-104738032D01*
X125830808Y-104738032D01*
X125835120Y-104741820D01*
X125848577Y-104783235D01*
X125858450Y-104889778D01*
X125864244Y-104952311D01*
X125865829Y-104957881D01*
X125922595Y-105157389D01*
X126017634Y-105348255D01*
X126146128Y-105518407D01*
X126201525Y-105568908D01*
X126303692Y-105662047D01*
X126303699Y-105662053D01*
X126307774Y-105664576D01*
X126484981Y-105774298D01*
X126683802Y-105851321D01*
X126893390Y-105890500D01*
X127106610Y-105890500D01*
X127316198Y-105851321D01*
X127515019Y-105774298D01*
X127696302Y-105662052D01*
X127853872Y-105518407D01*
X127920998Y-105429518D01*
X127971152Y-105394477D01*
X128032327Y-105395608D01*
X128079001Y-105429518D01*
X128146128Y-105518407D01*
X128201525Y-105568908D01*
X128303692Y-105662047D01*
X128303699Y-105662053D01*
X128307774Y-105664576D01*
X128484981Y-105774298D01*
X128683802Y-105851321D01*
X128893390Y-105890500D01*
X129106610Y-105890500D01*
X129316198Y-105851321D01*
X129515019Y-105774298D01*
X129696302Y-105662052D01*
X129853872Y-105518407D01*
X129982366Y-105348255D01*
X130077405Y-105157389D01*
X130103097Y-105067091D01*
X130137205Y-105016300D01*
X130194657Y-104995255D01*
X130253507Y-105011998D01*
X130291276Y-105060135D01*
X130293943Y-105068564D01*
X130320897Y-105169156D01*
X130413332Y-105367386D01*
X130456873Y-105429570D01*
X131049696Y-104836746D01*
X131071349Y-104917553D01*
X131131909Y-105022446D01*
X131217554Y-105108091D01*
X131322447Y-105168651D01*
X131403250Y-105190302D01*
X130810428Y-105783125D01*
X130872610Y-105826666D01*
X131070842Y-105919102D01*
X131282118Y-105975713D01*
X131499997Y-105994775D01*
X131500003Y-105994775D01*
X131717881Y-105975713D01*
X131929157Y-105919102D01*
X132127388Y-105826666D01*
X132127391Y-105826665D01*
X132189571Y-105783125D01*
X131596748Y-105190302D01*
X131677553Y-105168651D01*
X131782446Y-105108091D01*
X131868091Y-105022446D01*
X131928651Y-104917553D01*
X131950302Y-104836748D01*
X132543125Y-105429571D01*
X132586665Y-105367391D01*
X132586666Y-105367388D01*
X132679102Y-105169157D01*
X132735713Y-104957881D01*
X132754775Y-104740003D01*
X132754775Y-104739996D01*
X132735713Y-104522118D01*
X132679102Y-104310842D01*
X132586668Y-104112615D01*
X132543125Y-104050428D01*
X131950302Y-104643250D01*
X131928651Y-104562447D01*
X131868091Y-104457554D01*
X131782446Y-104371909D01*
X131677553Y-104311349D01*
X131596746Y-104289696D01*
X132189570Y-103696873D01*
X132127386Y-103653332D01*
X131929157Y-103560897D01*
X131797525Y-103525627D01*
X131746211Y-103492303D01*
X131724284Y-103435182D01*
X131740119Y-103376081D01*
X131787669Y-103337576D01*
X131797525Y-103334373D01*
X131929157Y-103299102D01*
X132127388Y-103206666D01*
X132127391Y-103206665D01*
X132189571Y-103163125D01*
X131596748Y-102570302D01*
X131677553Y-102548651D01*
X131782446Y-102488091D01*
X131868091Y-102402446D01*
X131928651Y-102297553D01*
X131950302Y-102216748D01*
X132543125Y-102809571D01*
X132586665Y-102747391D01*
X132586668Y-102747384D01*
X132613665Y-102689490D01*
X132655393Y-102644741D01*
X132715454Y-102633066D01*
X132770907Y-102658923D01*
X132790280Y-102683883D01*
X132883188Y-102854033D01*
X132989883Y-102996560D01*
X133597911Y-102388531D01*
X133692829Y-102519175D01*
X133820825Y-102647171D01*
X133951466Y-102742086D01*
X133343437Y-103350116D01*
X133485960Y-103456807D01*
X133485963Y-103456809D01*
X133737038Y-103593906D01*
X133737046Y-103593910D01*
X134005091Y-103693886D01*
X134284648Y-103754700D01*
X134570000Y-103775108D01*
X134855351Y-103754700D01*
X135134908Y-103693886D01*
X135402953Y-103593910D01*
X135402961Y-103593906D01*
X135654036Y-103456809D01*
X135654039Y-103456807D01*
X135796561Y-103350116D01*
X135188532Y-102742087D01*
X135319175Y-102647171D01*
X135447171Y-102519175D01*
X135542087Y-102388532D01*
X136150116Y-102996561D01*
X136256807Y-102854039D01*
X136256809Y-102854036D01*
X136393906Y-102602961D01*
X136393910Y-102602953D01*
X136493886Y-102334908D01*
X136554700Y-102055351D01*
X136575108Y-101770000D01*
X136554700Y-101484648D01*
X136493886Y-101205091D01*
X136393910Y-100937046D01*
X136393906Y-100937038D01*
X136256809Y-100685963D01*
X136256807Y-100685960D01*
X136150116Y-100543437D01*
X135542086Y-101151466D01*
X135447171Y-101020825D01*
X135319175Y-100892829D01*
X135188531Y-100797911D01*
X135796560Y-100189883D01*
X135654033Y-100083188D01*
X135402961Y-99946093D01*
X135402953Y-99946089D01*
X135134908Y-99846113D01*
X134855351Y-99785299D01*
X134570000Y-99764891D01*
X134284648Y-99785299D01*
X134005091Y-99846113D01*
X133737046Y-99946089D01*
X133737038Y-99946093D01*
X133485960Y-100083191D01*
X133485953Y-100083196D01*
X133343437Y-100189882D01*
X133951467Y-100797912D01*
X133820825Y-100892829D01*
X133692829Y-101020825D01*
X133597912Y-101151467D01*
X132989882Y-100543437D01*
X132883196Y-100685953D01*
X132883191Y-100685960D01*
X132746093Y-100937038D01*
X132746089Y-100937046D01*
X132646112Y-101205092D01*
X132646109Y-101205103D01*
X132614614Y-101349884D01*
X132583770Y-101402726D01*
X132560676Y-101412876D01*
X131950302Y-102023249D01*
X131928651Y-101942447D01*
X131868091Y-101837554D01*
X131782446Y-101751909D01*
X131677553Y-101691349D01*
X131596746Y-101669696D01*
X132189570Y-101076873D01*
X132127386Y-101033332D01*
X131929157Y-100940897D01*
X131717881Y-100884286D01*
X131500003Y-100865225D01*
X131499997Y-100865225D01*
X131282118Y-100884286D01*
X131070837Y-100940898D01*
X130872622Y-101033327D01*
X130872611Y-101033334D01*
X130810428Y-101076873D01*
X131403251Y-101669696D01*
X131322447Y-101691349D01*
X131217554Y-101751909D01*
X131131909Y-101837554D01*
X131071349Y-101942447D01*
X131049696Y-102023251D01*
X130456873Y-101430428D01*
X130413334Y-101492611D01*
X130413327Y-101492622D01*
X130320898Y-101690836D01*
X130293943Y-101791436D01*
X130260618Y-101842750D01*
X130203497Y-101864676D01*
X130144396Y-101848840D01*
X130105891Y-101801290D01*
X130103101Y-101792924D01*
X130077405Y-101702611D01*
X129982366Y-101511745D01*
X129853872Y-101341593D01*
X129794734Y-101287681D01*
X129696307Y-101197952D01*
X129696300Y-101197946D01*
X129515024Y-101085705D01*
X129515019Y-101085702D01*
X129316198Y-101008679D01*
X129316197Y-101008678D01*
X129316195Y-101008678D01*
X129106610Y-100969500D01*
X128893390Y-100969500D01*
X128683804Y-101008678D01*
X128484980Y-101085702D01*
X128484975Y-101085705D01*
X128303699Y-101197946D01*
X128303692Y-101197952D01*
X128146135Y-101341586D01*
X128146131Y-101341589D01*
X128146128Y-101341593D01*
X128146125Y-101341596D01*
X128146123Y-101341599D01*
X128079003Y-101430479D01*
X128028847Y-101465521D01*
X127967672Y-101464390D01*
X127920997Y-101430479D01*
X127860133Y-101349884D01*
X127853872Y-101341593D01*
X127794734Y-101287681D01*
X127696307Y-101197952D01*
X127696300Y-101197946D01*
X127515024Y-101085705D01*
X127515019Y-101085702D01*
X127316198Y-101008679D01*
X127316197Y-101008678D01*
X127316195Y-101008678D01*
X127106610Y-100969500D01*
X126893390Y-100969500D01*
X126683804Y-101008678D01*
X126484980Y-101085702D01*
X126484975Y-101085705D01*
X126303699Y-101197946D01*
X126303692Y-101197952D01*
X126146135Y-101341586D01*
X126146131Y-101341589D01*
X126146128Y-101341593D01*
X126146125Y-101341597D01*
X126017635Y-101511743D01*
X126017630Y-101511752D01*
X125922596Y-101702608D01*
X125864244Y-101907688D01*
X125848077Y-102082162D01*
X125832870Y-102117481D01*
X125848077Y-102157837D01*
X125848923Y-102166972D01*
X125864244Y-102332310D01*
X125922595Y-102537389D01*
X125922596Y-102537391D01*
X126016667Y-102726314D01*
X126017634Y-102728255D01*
X126146128Y-102898407D01*
X126191673Y-102939927D01*
X126303692Y-103042047D01*
X126303699Y-103042053D01*
X126407389Y-103106255D01*
X126484981Y-103154298D01*
X126683802Y-103231321D01*
X126893390Y-103270500D01*
X127106610Y-103270500D01*
X127316198Y-103231321D01*
X127515019Y-103154298D01*
X127696302Y-103042052D01*
X127853872Y-102898407D01*
X127920998Y-102809518D01*
X127971152Y-102774477D01*
X128032327Y-102775608D01*
X128079001Y-102809518D01*
X128146128Y-102898407D01*
X128191673Y-102939927D01*
X128303692Y-103042047D01*
X128303699Y-103042053D01*
X128407389Y-103106255D01*
X128484981Y-103154298D01*
X128683802Y-103231321D01*
X128893390Y-103270500D01*
X129106610Y-103270500D01*
X129316198Y-103231321D01*
X129515019Y-103154298D01*
X129696302Y-103042052D01*
X129853872Y-102898407D01*
X129982366Y-102728255D01*
X130077405Y-102537389D01*
X130103097Y-102447091D01*
X130137205Y-102396300D01*
X130194657Y-102375255D01*
X130253507Y-102391998D01*
X130291276Y-102440135D01*
X130293943Y-102448564D01*
X130320897Y-102549156D01*
X130413332Y-102747386D01*
X130456873Y-102809570D01*
X131049696Y-102216746D01*
X131071349Y-102297553D01*
X131131909Y-102402446D01*
X131217554Y-102488091D01*
X131322447Y-102548651D01*
X131403250Y-102570302D01*
X130810428Y-103163125D01*
X130872610Y-103206666D01*
X131070842Y-103299102D01*
X131202474Y-103334373D01*
X131253788Y-103367697D01*
X131275715Y-103424818D01*
X131259880Y-103483919D01*
X131212330Y-103522424D01*
X131202474Y-103525627D01*
X131070838Y-103560898D01*
X130872622Y-103653327D01*
X130872611Y-103653334D01*
X130810428Y-103696873D01*
X131403251Y-104289696D01*
X131322447Y-104311349D01*
X131217554Y-104371909D01*
X131131909Y-104457554D01*
X131071349Y-104562447D01*
X131049696Y-104643251D01*
X130456873Y-104050428D01*
X130413334Y-104112611D01*
X130413327Y-104112622D01*
X130320898Y-104310836D01*
X130293943Y-104411436D01*
X130260618Y-104462750D01*
X130203497Y-104484676D01*
X130144396Y-104468840D01*
X130105891Y-104421290D01*
X130103101Y-104412924D01*
X130077405Y-104322611D01*
X129982366Y-104131745D01*
X129853872Y-103961593D01*
X129799623Y-103912139D01*
X129696307Y-103817952D01*
X129696300Y-103817946D01*
X129515024Y-103705705D01*
X129515019Y-103705702D01*
X129316198Y-103628679D01*
X129316197Y-103628678D01*
X129316195Y-103628678D01*
X129106610Y-103589500D01*
X128893390Y-103589500D01*
X128683804Y-103628678D01*
X128484980Y-103705702D01*
X128484975Y-103705705D01*
X128303699Y-103817946D01*
X128303692Y-103817952D01*
X128146135Y-103961586D01*
X128146131Y-103961589D01*
X128146128Y-103961593D01*
X128146125Y-103961596D01*
X128146123Y-103961599D01*
X128079003Y-104050479D01*
X128028847Y-104085521D01*
X127967672Y-104084390D01*
X127920997Y-104050479D01*
X127871667Y-103985157D01*
X127853872Y-103961593D01*
X127799623Y-103912139D01*
X127696307Y-103817952D01*
X127696300Y-103817946D01*
X127515024Y-103705705D01*
X127515019Y-103705702D01*
X127316198Y-103628679D01*
X127316197Y-103628678D01*
X127316195Y-103628678D01*
X127106610Y-103589500D01*
X126893390Y-103589500D01*
X126683804Y-103628678D01*
X126484980Y-103705702D01*
X126484975Y-103705705D01*
X126303699Y-103817946D01*
X126303692Y-103817952D01*
X126146135Y-103961586D01*
X126146131Y-103961589D01*
X126146128Y-103961593D01*
X126146125Y-103961597D01*
X126017635Y-104131743D01*
X126017630Y-104131752D01*
X125922596Y-104322608D01*
X125864244Y-104527688D01*
X125864244Y-104527690D01*
X125850378Y-104677339D01*
X125848578Y-104696761D01*
X125830808Y-104738032D01*
X125664833Y-104738032D01*
X125651422Y-104696761D01*
X125649817Y-104679440D01*
X125635756Y-104527690D01*
X125577405Y-104322611D01*
X125482366Y-104131745D01*
X125353872Y-103961593D01*
X125299623Y-103912139D01*
X125196307Y-103817952D01*
X125196300Y-103817946D01*
X125015024Y-103705705D01*
X125015019Y-103705702D01*
X124816198Y-103628679D01*
X124816197Y-103628678D01*
X124816195Y-103628678D01*
X124606610Y-103589500D01*
X124393390Y-103589500D01*
X124183804Y-103628678D01*
X123984980Y-103705702D01*
X123984975Y-103705705D01*
X123803699Y-103817946D01*
X123803692Y-103817952D01*
X123646135Y-103961586D01*
X123646131Y-103961589D01*
X123646128Y-103961593D01*
X123646125Y-103961597D01*
X123517635Y-104131743D01*
X123517630Y-104131752D01*
X123422596Y-104322608D01*
X123364244Y-104527688D01*
X123344571Y-104740000D01*
X115456686Y-104740000D01*
X115420508Y-104677339D01*
X115420507Y-104677338D01*
X115420506Y-104677337D01*
X115420505Y-104677335D01*
X114702673Y-103959503D01*
X114674896Y-103904986D01*
X114684467Y-103844554D01*
X114727732Y-103801289D01*
X114772673Y-103790499D01*
X116381518Y-103790499D01*
X116381521Y-103790499D01*
X116381522Y-103790498D01*
X116433099Y-103782330D01*
X116475299Y-103775647D01*
X116475299Y-103775646D01*
X116475304Y-103775646D01*
X116588342Y-103718050D01*
X116678050Y-103628342D01*
X116735646Y-103515304D01*
X116750500Y-103421519D01*
X116750499Y-101770000D01*
X119424891Y-101770000D01*
X119445299Y-102055351D01*
X119506113Y-102334908D01*
X119606089Y-102602953D01*
X119606093Y-102602961D01*
X119743188Y-102854033D01*
X119849883Y-102996560D01*
X120457911Y-102388531D01*
X120552829Y-102519175D01*
X120680825Y-102647171D01*
X120811466Y-102742086D01*
X120203437Y-103350116D01*
X120345960Y-103456807D01*
X120345963Y-103456809D01*
X120597038Y-103593906D01*
X120597046Y-103593910D01*
X120865091Y-103693886D01*
X121144648Y-103754700D01*
X121430000Y-103775108D01*
X121715351Y-103754700D01*
X121994908Y-103693886D01*
X122262953Y-103593910D01*
X122262961Y-103593906D01*
X122514036Y-103456809D01*
X122514039Y-103456807D01*
X122656561Y-103350116D01*
X122048532Y-102742087D01*
X122179175Y-102647171D01*
X122307171Y-102519175D01*
X122402087Y-102388532D01*
X123010116Y-102996561D01*
X123116805Y-102854043D01*
X123163609Y-102768326D01*
X123208091Y-102726314D01*
X123268772Y-102718472D01*
X123322473Y-102747794D01*
X123348683Y-102803081D01*
X123349500Y-102815770D01*
X123349500Y-102901520D01*
X123349501Y-102901523D01*
X123364352Y-102995299D01*
X123364354Y-102995304D01*
X123421950Y-103108342D01*
X123511658Y-103198050D01*
X123624696Y-103255646D01*
X123718481Y-103270500D01*
X125281518Y-103270499D01*
X125281521Y-103270499D01*
X125281522Y-103270498D01*
X125328411Y-103263072D01*
X125375299Y-103255647D01*
X125375299Y-103255646D01*
X125375304Y-103255646D01*
X125488342Y-103198050D01*
X125578050Y-103108342D01*
X125635646Y-102995304D01*
X125650500Y-102901519D01*
X125650499Y-102166970D01*
X125664549Y-102123728D01*
X125664379Y-102123579D01*
X125650499Y-102073027D01*
X125650499Y-101338478D01*
X125650498Y-101338476D01*
X125635647Y-101244700D01*
X125635646Y-101244698D01*
X125635646Y-101244696D01*
X125578050Y-101131658D01*
X125488342Y-101041950D01*
X125375304Y-100984354D01*
X125375305Y-100984354D01*
X125281521Y-100969500D01*
X123718478Y-100969500D01*
X123718476Y-100969501D01*
X123624700Y-100984352D01*
X123624695Y-100984354D01*
X123511658Y-101041950D01*
X123511656Y-101041951D01*
X123461354Y-101092253D01*
X123406837Y-101120030D01*
X123346405Y-101110458D01*
X123303141Y-101067193D01*
X123298593Y-101056846D01*
X123253910Y-100937046D01*
X123253906Y-100937038D01*
X123116809Y-100685963D01*
X123116807Y-100685960D01*
X123010116Y-100543437D01*
X122402086Y-101151466D01*
X122307171Y-101020825D01*
X122179175Y-100892829D01*
X122048531Y-100797911D01*
X122656560Y-100189883D01*
X122514033Y-100083188D01*
X122262961Y-99946093D01*
X122262953Y-99946089D01*
X121994908Y-99846113D01*
X121715351Y-99785299D01*
X121430000Y-99764891D01*
X121144648Y-99785299D01*
X120865091Y-99846113D01*
X120597046Y-99946089D01*
X120597038Y-99946093D01*
X120345960Y-100083191D01*
X120345953Y-100083196D01*
X120203437Y-100189882D01*
X120811467Y-100797912D01*
X120680825Y-100892829D01*
X120552829Y-101020825D01*
X120457912Y-101151467D01*
X119849882Y-100543437D01*
X119743196Y-100685953D01*
X119743191Y-100685960D01*
X119606093Y-100937038D01*
X119606089Y-100937046D01*
X119506113Y-101205091D01*
X119445299Y-101484648D01*
X119424891Y-101770000D01*
X116750499Y-101770000D01*
X116750499Y-101658482D01*
X116750499Y-101658478D01*
X116750498Y-101658476D01*
X116735647Y-101564700D01*
X116735646Y-101564698D01*
X116735646Y-101564696D01*
X116678050Y-101451658D01*
X116588342Y-101361950D01*
X116475304Y-101304354D01*
X116475305Y-101304354D01*
X116381522Y-101289500D01*
X116140155Y-101289500D01*
X116081964Y-101270593D01*
X116046000Y-101221093D01*
X116046000Y-101159907D01*
X116081964Y-101110407D01*
X116098317Y-101100775D01*
X116127639Y-101087102D01*
X116306877Y-100961598D01*
X116461598Y-100806877D01*
X116587102Y-100627639D01*
X116608075Y-100582661D01*
X116649803Y-100537913D01*
X116697800Y-100525500D01*
X117424738Y-100525500D01*
X117424754Y-100525501D01*
X117430817Y-100525501D01*
X117569183Y-100525501D01*
X117674591Y-100497256D01*
X117702836Y-100489688D01*
X117822665Y-100420505D01*
X117920505Y-100322665D01*
X117920506Y-100322662D01*
X119322662Y-98920506D01*
X119322665Y-98920505D01*
X119420505Y-98822665D01*
X119489688Y-98702836D01*
X119512251Y-98618625D01*
X119545575Y-98567313D01*
X119569994Y-98552786D01*
X119577841Y-98549536D01*
X119703282Y-98453282D01*
X119799536Y-98327841D01*
X119860044Y-98181762D01*
X119875500Y-98064361D01*
X119875499Y-97585640D01*
X119860044Y-97468238D01*
X119831781Y-97400006D01*
X126795065Y-97400006D01*
X126814785Y-97726033D01*
X126814788Y-97726058D01*
X126873664Y-98047330D01*
X126873664Y-98047331D01*
X126970842Y-98359184D01*
X127104896Y-98657039D01*
X127104907Y-98657060D01*
X127273873Y-98936564D01*
X127273886Y-98936584D01*
X127421475Y-99124968D01*
X128563707Y-97982735D01*
X128660967Y-98116602D01*
X128783398Y-98239033D01*
X128917262Y-98336290D01*
X127775030Y-99478523D01*
X127963415Y-99626113D01*
X127963435Y-99626126D01*
X128242939Y-99795092D01*
X128242960Y-99795103D01*
X128540815Y-99929157D01*
X128852669Y-100026335D01*
X129173941Y-100085211D01*
X129173966Y-100085214D01*
X129499994Y-100104935D01*
X129500006Y-100104935D01*
X129826033Y-100085214D01*
X129826058Y-100085211D01*
X130147330Y-100026335D01*
X130147331Y-100026335D01*
X130459184Y-99929157D01*
X130757039Y-99795103D01*
X130757060Y-99795092D01*
X131036564Y-99626126D01*
X131036583Y-99626113D01*
X131224968Y-99478522D01*
X130082736Y-98336290D01*
X130216602Y-98239033D01*
X130339033Y-98116602D01*
X130436290Y-97982736D01*
X131578522Y-99124968D01*
X131726113Y-98936583D01*
X131726126Y-98936564D01*
X131895092Y-98657060D01*
X131895103Y-98657039D01*
X132029157Y-98359184D01*
X132126335Y-98047331D01*
X132126335Y-98047330D01*
X132185211Y-97726058D01*
X132185214Y-97726033D01*
X132204935Y-97400006D01*
X132204935Y-97399993D01*
X132185214Y-97073966D01*
X132185211Y-97073941D01*
X132126335Y-96752669D01*
X132126335Y-96752668D01*
X132029157Y-96440815D01*
X131895103Y-96142960D01*
X131895092Y-96142939D01*
X131726126Y-95863435D01*
X131726113Y-95863415D01*
X131578523Y-95675030D01*
X130436290Y-96817262D01*
X130339033Y-96683398D01*
X130216602Y-96560967D01*
X130082735Y-96463707D01*
X131224968Y-95321475D01*
X131036584Y-95173886D01*
X131036564Y-95173873D01*
X130757060Y-95004907D01*
X130757039Y-95004896D01*
X130459184Y-94870842D01*
X130147330Y-94773664D01*
X129826058Y-94714788D01*
X129826033Y-94714785D01*
X129500006Y-94695065D01*
X129499994Y-94695065D01*
X129173966Y-94714785D01*
X129173941Y-94714788D01*
X128852669Y-94773664D01*
X128852668Y-94773664D01*
X128540815Y-94870842D01*
X128242960Y-95004896D01*
X128242939Y-95004907D01*
X127963435Y-95173873D01*
X127963426Y-95173879D01*
X127775030Y-95321475D01*
X128917263Y-96463708D01*
X128783398Y-96560967D01*
X128660967Y-96683398D01*
X128563708Y-96817263D01*
X127421475Y-95675030D01*
X127273879Y-95863426D01*
X127273873Y-95863435D01*
X127104907Y-96142939D01*
X127104896Y-96142960D01*
X126970842Y-96440815D01*
X126873664Y-96752668D01*
X126873664Y-96752669D01*
X126814788Y-97073941D01*
X126814785Y-97073966D01*
X126795065Y-97399993D01*
X126795065Y-97400006D01*
X119831781Y-97400006D01*
X119831779Y-97400000D01*
X119799537Y-97322161D01*
X119799537Y-97322160D01*
X119703286Y-97196723D01*
X119703285Y-97196722D01*
X119703282Y-97196718D01*
X119703277Y-97196714D01*
X119703276Y-97196713D01*
X119577838Y-97100462D01*
X119556114Y-97091464D01*
X119509588Y-97051728D01*
X119495304Y-96992233D01*
X119518718Y-96935705D01*
X119556114Y-96908536D01*
X119569198Y-96903115D01*
X119577841Y-96899536D01*
X119703282Y-96803282D01*
X119799536Y-96677841D01*
X119860044Y-96531762D01*
X119875500Y-96414361D01*
X119875499Y-95935640D01*
X119860044Y-95818238D01*
X119799537Y-95672161D01*
X119799537Y-95672160D01*
X119703286Y-95546723D01*
X119703285Y-95546722D01*
X119703282Y-95546718D01*
X119703277Y-95546714D01*
X119703276Y-95546713D01*
X119577839Y-95450462D01*
X119574992Y-95448818D01*
X119573417Y-95447069D01*
X119572694Y-95446514D01*
X119572796Y-95446379D01*
X119534055Y-95403345D01*
X119525500Y-95363086D01*
X119525500Y-93756582D01*
X127525001Y-93756582D01*
X127531408Y-93827103D01*
X127531410Y-93827109D01*
X127581979Y-93989392D01*
X127581982Y-93989400D01*
X127669924Y-94134872D01*
X127790127Y-94255075D01*
X127935599Y-94343017D01*
X127935607Y-94343020D01*
X128097889Y-94393589D01*
X128097895Y-94393591D01*
X128168424Y-94399999D01*
X128249999Y-94399998D01*
X128250000Y-94399998D01*
X128250000Y-93750001D01*
X128249999Y-93750000D01*
X127525002Y-93750000D01*
X127525001Y-93750001D01*
X127525001Y-93756582D01*
X119525500Y-93756582D01*
X119525500Y-91258677D01*
X119544407Y-91200486D01*
X119554496Y-91188673D01*
X120137984Y-90605185D01*
X120737101Y-90006067D01*
X120791616Y-89978292D01*
X120852048Y-89987863D01*
X120887195Y-90017882D01*
X120921167Y-90064640D01*
X120921169Y-90064642D01*
X120921172Y-90064646D01*
X121060354Y-90203828D01*
X121219595Y-90319524D01*
X121291094Y-90355954D01*
X121334359Y-90399218D01*
X121343931Y-90459650D01*
X121316154Y-90514167D01*
X121291095Y-90532373D01*
X121167456Y-90595370D01*
X121167449Y-90595374D01*
X120995535Y-90720277D01*
X120845277Y-90870535D01*
X120720375Y-91042447D01*
X120623904Y-91231784D01*
X120558241Y-91433877D01*
X120547768Y-91499999D01*
X120547769Y-91500000D01*
X121595854Y-91500000D01*
X121557370Y-91566657D01*
X121525000Y-91687465D01*
X121525000Y-91812535D01*
X121557370Y-91933343D01*
X121595854Y-92000000D01*
X120547769Y-92000000D01*
X120558241Y-92066122D01*
X120623904Y-92268215D01*
X120720375Y-92457552D01*
X120845277Y-92629464D01*
X120995535Y-92779722D01*
X121167447Y-92904624D01*
X121356784Y-93001095D01*
X121558878Y-93066759D01*
X121750000Y-93097029D01*
X121750000Y-92154145D01*
X121816657Y-92192630D01*
X121937465Y-92225000D01*
X122062535Y-92225000D01*
X122183343Y-92192630D01*
X122250000Y-92154145D01*
X122250000Y-93097028D01*
X122441121Y-93066759D01*
X122643215Y-93001095D01*
X122832552Y-92904624D01*
X123004464Y-92779722D01*
X123154722Y-92629464D01*
X123279624Y-92457552D01*
X123376095Y-92268215D01*
X123441758Y-92066122D01*
X123452231Y-92000000D01*
X122404146Y-92000000D01*
X122442630Y-91933343D01*
X122475000Y-91812535D01*
X122475000Y-91687465D01*
X122442630Y-91566657D01*
X122404146Y-91500000D01*
X123452231Y-91500000D01*
X123452231Y-91499999D01*
X123441758Y-91433877D01*
X123376095Y-91231784D01*
X123279624Y-91042447D01*
X123154722Y-90870535D01*
X123004464Y-90720277D01*
X122832550Y-90595374D01*
X122832543Y-90595370D01*
X122708905Y-90532373D01*
X122665640Y-90489109D01*
X122656069Y-90428677D01*
X122683847Y-90374160D01*
X122708904Y-90355955D01*
X122780405Y-90319524D01*
X122939646Y-90203828D01*
X123078828Y-90064646D01*
X123194524Y-89905405D01*
X123233171Y-89829556D01*
X123276436Y-89786291D01*
X123312906Y-89777535D01*
X123312750Y-89776348D01*
X123319183Y-89775501D01*
X123424591Y-89747256D01*
X123452836Y-89739688D01*
X123572665Y-89670505D01*
X123670505Y-89572665D01*
X123670506Y-89572662D01*
X125420505Y-87822665D01*
X125422318Y-87819525D01*
X125489687Y-87702839D01*
X125489687Y-87702837D01*
X125489689Y-87702835D01*
X125525501Y-87569183D01*
X125525501Y-87430816D01*
X125525501Y-87424754D01*
X125525500Y-87424736D01*
X125525500Y-82930818D01*
X125524955Y-82928783D01*
X125522440Y-82919398D01*
X125489688Y-82797165D01*
X125489688Y-82797164D01*
X125420505Y-82677335D01*
X125322665Y-82579495D01*
X125322662Y-82579493D01*
X123920506Y-81177337D01*
X123920505Y-81177335D01*
X123822665Y-81079495D01*
X123822662Y-81079493D01*
X123702837Y-81010312D01*
X123702839Y-81010312D01*
X123688054Y-81006350D01*
X123674591Y-81002743D01*
X123569183Y-80974499D01*
X123430817Y-80974499D01*
X123424754Y-80974499D01*
X123424738Y-80974500D01*
X122258677Y-80974500D01*
X122200486Y-80955593D01*
X122188673Y-80945504D01*
X121054496Y-79811327D01*
X121026719Y-79756810D01*
X121025500Y-79741323D01*
X121025500Y-79493851D01*
X121044407Y-79435660D01*
X121093907Y-79399696D01*
X121155093Y-79399696D01*
X121169445Y-79405641D01*
X121356784Y-79501095D01*
X121558878Y-79566759D01*
X121750000Y-79597029D01*
X121750000Y-78654145D01*
X121816657Y-78692630D01*
X121937465Y-78725000D01*
X122062535Y-78725000D01*
X122183343Y-78692630D01*
X122250000Y-78654145D01*
X122250000Y-79597028D01*
X122441121Y-79566759D01*
X122643215Y-79501095D01*
X122832552Y-79404624D01*
X123004464Y-79279722D01*
X123154722Y-79129464D01*
X123279624Y-78957552D01*
X123376095Y-78768215D01*
X123441758Y-78566122D01*
X123452231Y-78500000D01*
X122404146Y-78500000D01*
X122442630Y-78433343D01*
X122475000Y-78312535D01*
X122475000Y-78187465D01*
X122442630Y-78066657D01*
X122404146Y-78000000D01*
X123452231Y-78000000D01*
X123452231Y-77999999D01*
X123441758Y-77933877D01*
X123376095Y-77731784D01*
X123279624Y-77542447D01*
X123154722Y-77370535D01*
X123004464Y-77220277D01*
X122832550Y-77095374D01*
X122832543Y-77095370D01*
X122708905Y-77032373D01*
X122665640Y-76989109D01*
X122656069Y-76928677D01*
X122683847Y-76874160D01*
X122708904Y-76855955D01*
X122780405Y-76819524D01*
X122939646Y-76703828D01*
X123078828Y-76564646D01*
X123194524Y-76405405D01*
X123283884Y-76230025D01*
X123344709Y-76042826D01*
X123347198Y-76027110D01*
X123375500Y-75848420D01*
X123375500Y-75651579D01*
X123344710Y-75457178D01*
X123335014Y-75427337D01*
X123283884Y-75269975D01*
X123194524Y-75094595D01*
X123078828Y-74935354D01*
X122939646Y-74796172D01*
X122780405Y-74680476D01*
X122780404Y-74680475D01*
X122780402Y-74680474D01*
X122601559Y-74589350D01*
X122602115Y-74588257D01*
X122559345Y-74551736D01*
X122545055Y-74492243D01*
X122568464Y-74435712D01*
X122601937Y-74411392D01*
X122601559Y-74410650D01*
X122605025Y-74408884D01*
X122780405Y-74319524D01*
X122939646Y-74203828D01*
X123078828Y-74064646D01*
X123194524Y-73905405D01*
X123283884Y-73730025D01*
X123344709Y-73542826D01*
X123349160Y-73514725D01*
X123375500Y-73348420D01*
X123375500Y-73151579D01*
X123344710Y-72957178D01*
X123342824Y-72951373D01*
X123283884Y-72769975D01*
X123194524Y-72594595D01*
X123078828Y-72435354D01*
X122939646Y-72296172D01*
X122780405Y-72180476D01*
X122780402Y-72180474D01*
X122777258Y-72178190D01*
X122777958Y-72177226D01*
X122741360Y-72134370D01*
X122736564Y-72073373D01*
X122768537Y-72021206D01*
X122822643Y-71998797D01*
X122822590Y-71998507D01*
X122823940Y-71998260D01*
X122825063Y-71997795D01*
X122827569Y-71997598D01*
X122985398Y-71951744D01*
X123126865Y-71868081D01*
X123243081Y-71751865D01*
X123326744Y-71610398D01*
X123372598Y-71452569D01*
X123375500Y-71415694D01*
X123375500Y-71025855D01*
X123376719Y-71010368D01*
X123400500Y-70860224D01*
X123400500Y-70639774D01*
X123376719Y-70489630D01*
X123375500Y-70474143D01*
X123375500Y-70084311D01*
X123372598Y-70047434D01*
X123372598Y-70047431D01*
X123326744Y-69889602D01*
X123243081Y-69748135D01*
X123126865Y-69631919D01*
X122985398Y-69548256D01*
X122827569Y-69502402D01*
X122827568Y-69502401D01*
X122827565Y-69502401D01*
X122804140Y-69500558D01*
X122790694Y-69499500D01*
X122790689Y-69499500D01*
X122654390Y-69499500D01*
X122609448Y-69488710D01*
X122537606Y-69452105D01*
X122537602Y-69452104D01*
X122537599Y-69452102D01*
X122327948Y-69383984D01*
X122110225Y-69349500D01*
X122110222Y-69349500D01*
X120871114Y-69349500D01*
X120812923Y-69330593D01*
X120801110Y-69320504D01*
X119429496Y-67948890D01*
X119401719Y-67894373D01*
X119400500Y-67878886D01*
X119400500Y-64621114D01*
X119419407Y-64562923D01*
X119429496Y-64551110D01*
X120301110Y-63679496D01*
X120355627Y-63651719D01*
X120371114Y-63650500D01*
X120826305Y-63650500D01*
X120884496Y-63669407D01*
X120920460Y-63718907D01*
X120920460Y-63780093D01*
X120896309Y-63819504D01*
X120845277Y-63870535D01*
X120720375Y-64042447D01*
X120623904Y-64231784D01*
X120558241Y-64433877D01*
X120547768Y-64499999D01*
X120547769Y-64500000D01*
X121595854Y-64500000D01*
X121557370Y-64566657D01*
X121525000Y-64687465D01*
X121525000Y-64812535D01*
X121557370Y-64933343D01*
X121595854Y-65000000D01*
X120547769Y-65000000D01*
X120558241Y-65066122D01*
X120623904Y-65268215D01*
X120720375Y-65457552D01*
X120845277Y-65629464D01*
X120995535Y-65779722D01*
X121167447Y-65904624D01*
X121356784Y-66001095D01*
X121558878Y-66066759D01*
X121750000Y-66097029D01*
X121750000Y-65154145D01*
X121816657Y-65192630D01*
X121937465Y-65225000D01*
X122062535Y-65225000D01*
X122183343Y-65192630D01*
X122250000Y-65154145D01*
X122250000Y-66097028D01*
X122441121Y-66066759D01*
X122643215Y-66001095D01*
X122832552Y-65904624D01*
X123004464Y-65779722D01*
X123154722Y-65629464D01*
X123279624Y-65457552D01*
X123376095Y-65268215D01*
X123441758Y-65066122D01*
X123452231Y-65000000D01*
X122404146Y-65000000D01*
X122442630Y-64933343D01*
X122475000Y-64812535D01*
X122475000Y-64687465D01*
X122442630Y-64566657D01*
X122404146Y-64500000D01*
X123452231Y-64500000D01*
X123452231Y-64499999D01*
X123441758Y-64433877D01*
X123376095Y-64231784D01*
X123279624Y-64042447D01*
X123154722Y-63870535D01*
X123103691Y-63819504D01*
X123075914Y-63764987D01*
X123085485Y-63704555D01*
X123128750Y-63661290D01*
X123173695Y-63650500D01*
X123635676Y-63650500D01*
X123635700Y-63650501D01*
X123639778Y-63650501D01*
X123860225Y-63650501D01*
X124016526Y-63625744D01*
X124077951Y-63616015D01*
X124287606Y-63547895D01*
X124484022Y-63447815D01*
X124521008Y-63420943D01*
X124662365Y-63318242D01*
X124818242Y-63162365D01*
X124818244Y-63162361D01*
X127842652Y-60137953D01*
X127897168Y-60110177D01*
X127957600Y-60119748D01*
X128000865Y-60163013D01*
X128010436Y-60192471D01*
X128030289Y-60317821D01*
X128091116Y-60505025D01*
X128178872Y-60677258D01*
X128180476Y-60680405D01*
X128296172Y-60839646D01*
X128435354Y-60978828D01*
X128594595Y-61094524D01*
X128595437Y-61094953D01*
X128595662Y-61095178D01*
X128597909Y-61096555D01*
X128597578Y-61097094D01*
X128638705Y-61138211D01*
X128649500Y-61183166D01*
X128649500Y-64831856D01*
X128630593Y-64890047D01*
X128607284Y-64912952D01*
X128428127Y-65038398D01*
X128273398Y-65193127D01*
X128147896Y-65372364D01*
X128147892Y-65372372D01*
X128055426Y-65570666D01*
X127998791Y-65782030D01*
X127979723Y-65999996D01*
X127979723Y-66000003D01*
X127998791Y-66217969D01*
X127998792Y-66217976D01*
X127998793Y-66217977D01*
X128055425Y-66429330D01*
X128147898Y-66627639D01*
X128273402Y-66806877D01*
X128428123Y-66961598D01*
X128428126Y-66961600D01*
X128428127Y-66961601D01*
X128446549Y-66974500D01*
X128592285Y-67076546D01*
X128629106Y-67125408D01*
X128634500Y-67157640D01*
X128634500Y-67649863D01*
X128634499Y-67649881D01*
X128634499Y-67655943D01*
X128634499Y-67814057D01*
X128675423Y-67966785D01*
X128688647Y-67989689D01*
X128688648Y-67989693D01*
X128730304Y-68061842D01*
X128754480Y-68103716D01*
X128866284Y-68215520D01*
X128866286Y-68215521D01*
X129911115Y-69260350D01*
X129938892Y-69314867D01*
X129929321Y-69375299D01*
X129886056Y-69418564D01*
X129825624Y-69428135D01*
X129811658Y-69424871D01*
X129647330Y-69373664D01*
X129326058Y-69314788D01*
X129326033Y-69314785D01*
X129000006Y-69295065D01*
X128999994Y-69295065D01*
X128673966Y-69314785D01*
X128673941Y-69314788D01*
X128352669Y-69373664D01*
X128352668Y-69373664D01*
X128040815Y-69470842D01*
X127742960Y-69604896D01*
X127742939Y-69604907D01*
X127463435Y-69773873D01*
X127463426Y-69773879D01*
X127275030Y-69921475D01*
X128417262Y-71063709D01*
X128283398Y-71160967D01*
X128160967Y-71283398D01*
X128063708Y-71417263D01*
X126921475Y-70275030D01*
X126773879Y-70463426D01*
X126773873Y-70463435D01*
X126604907Y-70742939D01*
X126604896Y-70742960D01*
X126470842Y-71040815D01*
X126373664Y-71352668D01*
X126373664Y-71352669D01*
X126314788Y-71673941D01*
X126314785Y-71673966D01*
X126295065Y-71999993D01*
X126295065Y-72000006D01*
X126314785Y-72326033D01*
X126314788Y-72326058D01*
X126373664Y-72647330D01*
X126373664Y-72647331D01*
X126470842Y-72959184D01*
X126604896Y-73257039D01*
X126604907Y-73257060D01*
X126773873Y-73536564D01*
X126773886Y-73536584D01*
X126921475Y-73724968D01*
X128063707Y-72582735D01*
X128160967Y-72716602D01*
X128283398Y-72839033D01*
X128417262Y-72936290D01*
X127275030Y-74078523D01*
X127463415Y-74226113D01*
X127463435Y-74226126D01*
X127742939Y-74395092D01*
X127742960Y-74395103D01*
X128040815Y-74529157D01*
X128352669Y-74626335D01*
X128673941Y-74685211D01*
X128673966Y-74685214D01*
X128999994Y-74704935D01*
X129000006Y-74704935D01*
X129326033Y-74685214D01*
X129326058Y-74685211D01*
X129647330Y-74626335D01*
X129647331Y-74626335D01*
X129811656Y-74575129D01*
X129872837Y-74575868D01*
X129921899Y-74612427D01*
X129940102Y-74670842D01*
X129920493Y-74728800D01*
X129911113Y-74739650D01*
X128831286Y-75819478D01*
X128831284Y-75819480D01*
X128831283Y-75819479D01*
X128719480Y-75931283D01*
X128684529Y-75991820D01*
X128652328Y-76025596D01*
X128649974Y-76027108D01*
X128562746Y-76102693D01*
X128562735Y-76102704D01*
X128468593Y-76211350D01*
X128468584Y-76211363D01*
X128406198Y-76308438D01*
X128406191Y-76308451D01*
X128346463Y-76439237D01*
X128313950Y-76549963D01*
X128313946Y-76549981D01*
X128293485Y-76692286D01*
X128293485Y-76807706D01*
X128293492Y-76807755D01*
X128294500Y-76821845D01*
X128294500Y-77178150D01*
X128293492Y-77192243D01*
X128293485Y-77192291D01*
X128293485Y-77307713D01*
X128313946Y-77450018D01*
X128313950Y-77450036D01*
X128346463Y-77560762D01*
X128346464Y-77560765D01*
X128346465Y-77560767D01*
X128383533Y-77641933D01*
X128406191Y-77691548D01*
X128406198Y-77691561D01*
X128468584Y-77788636D01*
X128468593Y-77788649D01*
X128562735Y-77897295D01*
X128562744Y-77897305D01*
X128565323Y-77899540D01*
X128596925Y-77951932D01*
X128599500Y-77974365D01*
X128599500Y-78289863D01*
X128599499Y-78289881D01*
X128599499Y-78295943D01*
X128599499Y-78454057D01*
X128640423Y-78606785D01*
X128654722Y-78631552D01*
X128654856Y-78631783D01*
X128654857Y-78631786D01*
X128719479Y-78743715D01*
X128777068Y-78801305D01*
X128804845Y-78855822D01*
X128805358Y-78883111D01*
X128799500Y-78931890D01*
X128799500Y-80193109D01*
X128799589Y-80194600D01*
X128799500Y-80194942D01*
X128799500Y-80196061D01*
X128799209Y-80196061D01*
X128784183Y-80253814D01*
X128736914Y-80292664D01*
X128700765Y-80299500D01*
X128356893Y-80299500D01*
X128268434Y-80310123D01*
X128127660Y-80365637D01*
X128127656Y-80365640D01*
X128007081Y-80457075D01*
X128007075Y-80457081D01*
X127915640Y-80577656D01*
X127915637Y-80577660D01*
X127860123Y-80718434D01*
X127849500Y-80806893D01*
X127849500Y-82068106D01*
X127860123Y-82156565D01*
X127915637Y-82297339D01*
X127915640Y-82297343D01*
X127990918Y-82396613D01*
X128011013Y-82454404D01*
X128007661Y-82482054D01*
X128003929Y-82495981D01*
X128002743Y-82500408D01*
X127974499Y-82605817D01*
X127974499Y-82605818D01*
X127974499Y-82752157D01*
X127974500Y-82752170D01*
X127974500Y-82863086D01*
X127955593Y-82921277D01*
X127925008Y-82948818D01*
X127922160Y-82950462D01*
X127796723Y-83046713D01*
X127796713Y-83046723D01*
X127700462Y-83172160D01*
X127700462Y-83172161D01*
X127639957Y-83318233D01*
X127639955Y-83318241D01*
X127624500Y-83435637D01*
X127624500Y-83914357D01*
X127624501Y-83914362D01*
X127639955Y-84031758D01*
X127639957Y-84031766D01*
X127700462Y-84177838D01*
X127700462Y-84177839D01*
X127782971Y-84285367D01*
X127796718Y-84303282D01*
X127796722Y-84303285D01*
X127796723Y-84303286D01*
X127799692Y-84305564D01*
X127922159Y-84399536D01*
X127933672Y-84404304D01*
X127943886Y-84408536D01*
X127990412Y-84448273D01*
X128004695Y-84507768D01*
X127981280Y-84564296D01*
X127943886Y-84591464D01*
X127922160Y-84600463D01*
X127796723Y-84696713D01*
X127796713Y-84696723D01*
X127700462Y-84822160D01*
X127700462Y-84822161D01*
X127639957Y-84968233D01*
X127639955Y-84968241D01*
X127624500Y-85085637D01*
X127624500Y-85564357D01*
X127624501Y-85564362D01*
X127639955Y-85681758D01*
X127639957Y-85681766D01*
X127700462Y-85827838D01*
X127700462Y-85827839D01*
X127731812Y-85868695D01*
X127796718Y-85953282D01*
X127796722Y-85953285D01*
X127796723Y-85953286D01*
X127826082Y-85975813D01*
X127922159Y-86049536D01*
X127922160Y-86049536D01*
X127922161Y-86049537D01*
X128045197Y-86100500D01*
X128068238Y-86110044D01*
X128177300Y-86124402D01*
X128232525Y-86150743D01*
X128234382Y-86152551D01*
X128814448Y-86732617D01*
X128842225Y-86787134D01*
X128836542Y-86838938D01*
X128810123Y-86905934D01*
X128799500Y-86994393D01*
X128799500Y-88255609D01*
X128799589Y-88257100D01*
X128799500Y-88257442D01*
X128799500Y-88258561D01*
X128799209Y-88258561D01*
X128784183Y-88316314D01*
X128736914Y-88355164D01*
X128700765Y-88362000D01*
X128356893Y-88362000D01*
X128268434Y-88372623D01*
X128127660Y-88428137D01*
X128127656Y-88428140D01*
X128007081Y-88519575D01*
X128007075Y-88519581D01*
X127915640Y-88640156D01*
X127915637Y-88640160D01*
X127860123Y-88780934D01*
X127849500Y-88869393D01*
X127849500Y-90130606D01*
X127860123Y-90219065D01*
X127915637Y-90359839D01*
X127915640Y-90359843D01*
X127978543Y-90442793D01*
X127998638Y-90500584D01*
X127995286Y-90528233D01*
X127974499Y-90605814D01*
X127974499Y-90752157D01*
X127974500Y-90752170D01*
X127974500Y-91038086D01*
X127955593Y-91096277D01*
X127925008Y-91123818D01*
X127922160Y-91125462D01*
X127796723Y-91221713D01*
X127796713Y-91221723D01*
X127700462Y-91347160D01*
X127700462Y-91347161D01*
X127639957Y-91493233D01*
X127639955Y-91493241D01*
X127624500Y-91610637D01*
X127624500Y-92089357D01*
X127624501Y-92089362D01*
X127639955Y-92206758D01*
X127639957Y-92206766D01*
X127700462Y-92352838D01*
X127700462Y-92352839D01*
X127796713Y-92478276D01*
X127796718Y-92478282D01*
X127873156Y-92536935D01*
X127873158Y-92536936D01*
X127907814Y-92587360D01*
X127906213Y-92648524D01*
X127868966Y-92697066D01*
X127864109Y-92700200D01*
X127790126Y-92744925D01*
X127669924Y-92865127D01*
X127581982Y-93010599D01*
X127581979Y-93010607D01*
X127531410Y-93172889D01*
X127531408Y-93172895D01*
X127525000Y-93243418D01*
X127525000Y-93249999D01*
X127525001Y-93250000D01*
X128651000Y-93250000D01*
X128709191Y-93268907D01*
X128745155Y-93318407D01*
X128750000Y-93349000D01*
X128750000Y-94399998D01*
X128750001Y-94399999D01*
X128831566Y-94399999D01*
X128831582Y-94399998D01*
X128902103Y-94393591D01*
X128902109Y-94393589D01*
X129064392Y-94343020D01*
X129064400Y-94343017D01*
X129209872Y-94255075D01*
X129330075Y-94134872D01*
X129418017Y-93989400D01*
X129418018Y-93989398D01*
X129455541Y-93868980D01*
X129490904Y-93819049D01*
X129548862Y-93799439D01*
X129607277Y-93817642D01*
X129641523Y-93860546D01*
X129700224Y-94002262D01*
X129700464Y-94002841D01*
X129796718Y-94128282D01*
X129796722Y-94128285D01*
X129796723Y-94128286D01*
X129798717Y-94129816D01*
X129922159Y-94224536D01*
X129922160Y-94224536D01*
X129922161Y-94224537D01*
X130068233Y-94285042D01*
X130068238Y-94285044D01*
X130185639Y-94300500D01*
X130814360Y-94300499D01*
X130931762Y-94285044D01*
X131077841Y-94224536D01*
X131203282Y-94128282D01*
X131252428Y-94064232D01*
X131302852Y-94029577D01*
X131330970Y-94025500D01*
X134852414Y-94025500D01*
X134910605Y-94044407D01*
X134922417Y-94054496D01*
X134996198Y-94128276D01*
X134997738Y-94129816D01*
X134997740Y-94129817D01*
X134997741Y-94129818D01*
X135148483Y-94224536D01*
X135150478Y-94225789D01*
X135218657Y-94249646D01*
X135320738Y-94285366D01*
X135320742Y-94285367D01*
X135320745Y-94285368D01*
X135500000Y-94305565D01*
X135679255Y-94285368D01*
X135849522Y-94225789D01*
X136002262Y-94129816D01*
X136129816Y-94002262D01*
X136225789Y-93849522D01*
X136285368Y-93679255D01*
X136305565Y-93500000D01*
X136285368Y-93320745D01*
X136225789Y-93150478D01*
X136137903Y-93010609D01*
X136129818Y-92997741D01*
X136129817Y-92997740D01*
X136129816Y-92997738D01*
X136002262Y-92870184D01*
X136002259Y-92870182D01*
X136002258Y-92870181D01*
X135849523Y-92774211D01*
X135679261Y-92714633D01*
X135679257Y-92714632D01*
X135500000Y-92694435D01*
X135320742Y-92714632D01*
X135320738Y-92714633D01*
X135150477Y-92774211D01*
X135150476Y-92774211D01*
X134997741Y-92870181D01*
X134997736Y-92870185D01*
X134922417Y-92945504D01*
X134867900Y-92973281D01*
X134852414Y-92974500D01*
X131330970Y-92974500D01*
X131272779Y-92955593D01*
X131252428Y-92935767D01*
X131228531Y-92904624D01*
X131203282Y-92871718D01*
X131203277Y-92871714D01*
X131203276Y-92871713D01*
X131077838Y-92775462D01*
X131056114Y-92766464D01*
X131009588Y-92726728D01*
X130995304Y-92667233D01*
X131018718Y-92610705D01*
X131056114Y-92583536D01*
X131069198Y-92578115D01*
X131077841Y-92574536D01*
X131203282Y-92478282D01*
X131299536Y-92352841D01*
X131360044Y-92206762D01*
X131375500Y-92089361D01*
X131375499Y-91610640D01*
X131360044Y-91493238D01*
X131299537Y-91347161D01*
X131299537Y-91347160D01*
X131203286Y-91221723D01*
X131203285Y-91221722D01*
X131203282Y-91221718D01*
X131203277Y-91221714D01*
X131203276Y-91221713D01*
X131077838Y-91125462D01*
X130931766Y-91064957D01*
X130931758Y-91064955D01*
X130814361Y-91049500D01*
X130185642Y-91049500D01*
X130185637Y-91049501D01*
X130068241Y-91064955D01*
X130068233Y-91064957D01*
X129922161Y-91125462D01*
X129922160Y-91125462D01*
X129796723Y-91221713D01*
X129796713Y-91221723D01*
X129728388Y-91310767D01*
X129677963Y-91345423D01*
X129649846Y-91349500D01*
X129350154Y-91349500D01*
X129291963Y-91330593D01*
X129271612Y-91310767D01*
X129203286Y-91221723D01*
X129203285Y-91221722D01*
X129203282Y-91221718D01*
X129203277Y-91221714D01*
X129203276Y-91221713D01*
X129077839Y-91125462D01*
X129074992Y-91123818D01*
X129073417Y-91122069D01*
X129072694Y-91121514D01*
X129072796Y-91121379D01*
X129034055Y-91078345D01*
X129025500Y-91038086D01*
X129025500Y-90878938D01*
X129037548Y-90833975D01*
X129037205Y-90833833D01*
X129038285Y-90831223D01*
X129038765Y-90829435D01*
X129039688Y-90827836D01*
X129039689Y-90827835D01*
X129075501Y-90694183D01*
X129075501Y-90555816D01*
X129075501Y-90549754D01*
X129075500Y-90549736D01*
X129075500Y-90536689D01*
X129094407Y-90478498D01*
X129095616Y-90476870D01*
X129129622Y-90432026D01*
X129184361Y-90359842D01*
X129239877Y-90219064D01*
X129247794Y-90153136D01*
X129650000Y-90153136D01*
X129652899Y-90189989D01*
X129698719Y-90347700D01*
X129698719Y-90347701D01*
X129782314Y-90489052D01*
X129898447Y-90605185D01*
X130039799Y-90688780D01*
X130197506Y-90734598D01*
X130197513Y-90734600D01*
X130200000Y-90734795D01*
X130700000Y-90734795D01*
X130702486Y-90734600D01*
X130702493Y-90734598D01*
X130860200Y-90688780D01*
X130860201Y-90688780D01*
X131001552Y-90605185D01*
X131117685Y-90489052D01*
X131201280Y-90347701D01*
X131201280Y-90347700D01*
X131247100Y-90189989D01*
X131250000Y-90153136D01*
X131250000Y-89750001D01*
X131249999Y-89750000D01*
X130700001Y-89750000D01*
X130700000Y-89750001D01*
X130700000Y-90734795D01*
X130200000Y-90734795D01*
X130200000Y-89750001D01*
X130199999Y-89750000D01*
X129650001Y-89750000D01*
X129650000Y-89750001D01*
X129650000Y-90153136D01*
X129247794Y-90153136D01*
X129250500Y-90130602D01*
X129250500Y-88869398D01*
X129250500Y-88869390D01*
X129250411Y-88867900D01*
X129250500Y-88867557D01*
X129250500Y-88866439D01*
X129250791Y-88866439D01*
X129265817Y-88808686D01*
X129313086Y-88769836D01*
X129349235Y-88763000D01*
X129551000Y-88763000D01*
X129609191Y-88781907D01*
X129645155Y-88831407D01*
X129650000Y-88862000D01*
X129650000Y-89249999D01*
X129650001Y-89250000D01*
X130199999Y-89250000D01*
X130200000Y-89249999D01*
X130200000Y-88265689D01*
X130200029Y-88265202D01*
X130700000Y-88265202D01*
X130700000Y-89249999D01*
X130700001Y-89250000D01*
X131249999Y-89250000D01*
X131250000Y-89249999D01*
X131250000Y-88846863D01*
X131247100Y-88810010D01*
X131201280Y-88652299D01*
X131201280Y-88652298D01*
X131117685Y-88510947D01*
X131001552Y-88394814D01*
X130860201Y-88311219D01*
X130860202Y-88311219D01*
X130702491Y-88265400D01*
X130700000Y-88265202D01*
X130200029Y-88265202D01*
X130200426Y-88258562D01*
X130200323Y-88258556D01*
X130200500Y-88255600D01*
X130200500Y-86994399D01*
X130200499Y-86994393D01*
X130189877Y-86905936D01*
X130142325Y-86785354D01*
X130134362Y-86765160D01*
X130134361Y-86765159D01*
X130134361Y-86765158D01*
X130043764Y-86645688D01*
X130027021Y-86611492D01*
X130025501Y-86605819D01*
X130025501Y-86605817D01*
X129989689Y-86472165D01*
X129989687Y-86472162D01*
X129989687Y-86472160D01*
X129920508Y-86352339D01*
X129920506Y-86352337D01*
X129920505Y-86352335D01*
X129681704Y-86113534D01*
X129653929Y-86059020D01*
X129663500Y-85998588D01*
X129706765Y-85955323D01*
X129767197Y-85945752D01*
X129811977Y-85964991D01*
X129849692Y-85993930D01*
X129922159Y-86049536D01*
X129922160Y-86049536D01*
X129922161Y-86049537D01*
X130045197Y-86100500D01*
X130068238Y-86110044D01*
X130185639Y-86125500D01*
X130814360Y-86125499D01*
X130931762Y-86110044D01*
X131077841Y-86049536D01*
X131203282Y-85953282D01*
X131299536Y-85827841D01*
X131360044Y-85681762D01*
X131375500Y-85564361D01*
X131375499Y-85085640D01*
X131360044Y-84968238D01*
X131308821Y-84844575D01*
X131299537Y-84822161D01*
X131299537Y-84822160D01*
X131203286Y-84696723D01*
X131203285Y-84696722D01*
X131203282Y-84696718D01*
X131203277Y-84696714D01*
X131203276Y-84696713D01*
X131077838Y-84600462D01*
X131056114Y-84591464D01*
X131009588Y-84551728D01*
X130995304Y-84492233D01*
X131018718Y-84435705D01*
X131056114Y-84408536D01*
X131069198Y-84403115D01*
X131077841Y-84399536D01*
X131203282Y-84303282D01*
X131252428Y-84239232D01*
X131302852Y-84204577D01*
X131330970Y-84200500D01*
X135166323Y-84200500D01*
X135224514Y-84219407D01*
X135236327Y-84229496D01*
X137079493Y-86072662D01*
X137079495Y-86072665D01*
X137177335Y-86170505D01*
X137297164Y-86239688D01*
X137430817Y-86275500D01*
X138214311Y-86275500D01*
X138272502Y-86294407D01*
X138308466Y-86343907D01*
X138312605Y-86362695D01*
X138316372Y-86394066D01*
X138371886Y-86534839D01*
X138371889Y-86534843D01*
X138460633Y-86651870D01*
X138480728Y-86709661D01*
X138480749Y-86711689D01*
X138480749Y-87024737D01*
X138480748Y-87024755D01*
X138480748Y-87030817D01*
X138480748Y-87169183D01*
X138508992Y-87274591D01*
X138512903Y-87289184D01*
X138516561Y-87302838D01*
X138587485Y-87425680D01*
X138600749Y-87475180D01*
X138600749Y-87649548D01*
X138581842Y-87707739D01*
X138552145Y-87734761D01*
X138514831Y-87756828D01*
X138403076Y-87868583D01*
X138322632Y-88004606D01*
X138322632Y-88004607D01*
X138278539Y-88156374D01*
X138275749Y-88191842D01*
X138275749Y-88818157D01*
X138278540Y-88853626D01*
X138278541Y-88853631D01*
X138322632Y-89005393D01*
X138403076Y-89141416D01*
X138403077Y-89141417D01*
X138403079Y-89141420D01*
X138514829Y-89253170D01*
X138650859Y-89333618D01*
X138802622Y-89377709D01*
X138838086Y-89380500D01*
X139414411Y-89380499D01*
X139449876Y-89377709D01*
X139601639Y-89333618D01*
X139737669Y-89253170D01*
X139760887Y-89229951D01*
X139815400Y-89202173D01*
X139875833Y-89211743D01*
X139900895Y-89229950D01*
X139998519Y-89327574D01*
X140142761Y-89416545D01*
X140303645Y-89469856D01*
X140402925Y-89479999D01*
X140426249Y-89479998D01*
X140926249Y-89479998D01*
X140926250Y-89479999D01*
X140949571Y-89479999D01*
X141048846Y-89469857D01*
X141048858Y-89469854D01*
X141209736Y-89416545D01*
X141353978Y-89327574D01*
X141473823Y-89207729D01*
X141562794Y-89063487D01*
X141616105Y-88902603D01*
X141626249Y-88803323D01*
X141626249Y-88755001D01*
X141626248Y-88755000D01*
X140926250Y-88755000D01*
X140926249Y-88755001D01*
X140926249Y-89479998D01*
X140426249Y-89479998D01*
X140426249Y-88254999D01*
X140926249Y-88254999D01*
X140926250Y-88255000D01*
X141626247Y-88255000D01*
X141626248Y-88254999D01*
X141626248Y-88206677D01*
X141616106Y-88107402D01*
X141616103Y-88107390D01*
X141562794Y-87946512D01*
X141473823Y-87802270D01*
X141353978Y-87682425D01*
X141209736Y-87593454D01*
X141048852Y-87540143D01*
X140949572Y-87530000D01*
X140926250Y-87530000D01*
X140926249Y-87530001D01*
X140926249Y-88254999D01*
X140426249Y-88254999D01*
X140426249Y-87530000D01*
X140426248Y-87529999D01*
X140402938Y-87530000D01*
X140402933Y-87530001D01*
X140303650Y-87540142D01*
X140303639Y-87540145D01*
X140142761Y-87593454D01*
X139998519Y-87682425D01*
X139998513Y-87682430D01*
X139900894Y-87780048D01*
X139846377Y-87807825D01*
X139785945Y-87798253D01*
X139760889Y-87780049D01*
X139737669Y-87756830D01*
X139700353Y-87734761D01*
X139659891Y-87688865D01*
X139651749Y-87649548D01*
X139651749Y-87297171D01*
X139651750Y-87297158D01*
X139651750Y-87150818D01*
X139643486Y-87119975D01*
X139615938Y-87017165D01*
X139615936Y-87017162D01*
X139615936Y-87017160D01*
X139545013Y-86894318D01*
X139531749Y-86844818D01*
X139531749Y-86711689D01*
X139550656Y-86653498D01*
X139551865Y-86651870D01*
X139586788Y-86605817D01*
X139640610Y-86534842D01*
X139696126Y-86394064D01*
X139706749Y-86305602D01*
X139706749Y-85194398D01*
X139705601Y-85184838D01*
X139717432Y-85124808D01*
X139733887Y-85103030D01*
X139782424Y-85054495D01*
X139836941Y-85026719D01*
X139852426Y-85025500D01*
X140114431Y-85025500D01*
X140172622Y-85044407D01*
X140208586Y-85093907D01*
X140212725Y-85136304D01*
X140205749Y-85194392D01*
X140205749Y-86305601D01*
X140216372Y-86394065D01*
X140271886Y-86534839D01*
X140271887Y-86534841D01*
X140271888Y-86534842D01*
X140363327Y-86655422D01*
X140483907Y-86746861D01*
X140483908Y-86746861D01*
X140483909Y-86746862D01*
X140530305Y-86765158D01*
X140624685Y-86802377D01*
X140713147Y-86813000D01*
X140713149Y-86813000D01*
X141099349Y-86813000D01*
X141099351Y-86813000D01*
X141187813Y-86802377D01*
X141328591Y-86746861D01*
X141449171Y-86655422D01*
X141540610Y-86534842D01*
X141596126Y-86394064D01*
X141599893Y-86362695D01*
X141625604Y-86307174D01*
X141679039Y-86277369D01*
X141698187Y-86275500D01*
X142080987Y-86275500D01*
X142081003Y-86275501D01*
X142087066Y-86275501D01*
X142225432Y-86275501D01*
X142330840Y-86247256D01*
X142359085Y-86239688D01*
X142478914Y-86170505D01*
X142511636Y-86137782D01*
X142566151Y-86110007D01*
X142626583Y-86119578D01*
X142660180Y-86147521D01*
X142677815Y-86170504D01*
X142702967Y-86203282D01*
X142828408Y-86299536D01*
X142828409Y-86299536D01*
X142828410Y-86299537D01*
X142974482Y-86360042D01*
X142974487Y-86360044D01*
X143091888Y-86375500D01*
X143720609Y-86375499D01*
X143838011Y-86360044D01*
X143984090Y-86299536D01*
X144109531Y-86203282D01*
X144205785Y-86077841D01*
X144266293Y-85931762D01*
X144281749Y-85814361D01*
X144281748Y-85335640D01*
X144266293Y-85218238D01*
X144256876Y-85195504D01*
X144205786Y-85072161D01*
X144205786Y-85072160D01*
X144109535Y-84946723D01*
X144109534Y-84946722D01*
X144109531Y-84946718D01*
X144109526Y-84946714D01*
X144109525Y-84946713D01*
X144038353Y-84892101D01*
X143984090Y-84850464D01*
X143984089Y-84850463D01*
X143984087Y-84850462D01*
X143962363Y-84841464D01*
X143915837Y-84801728D01*
X143901553Y-84742233D01*
X143924967Y-84685705D01*
X143962363Y-84658536D01*
X143975447Y-84653115D01*
X143984090Y-84649536D01*
X144109531Y-84553282D01*
X144205785Y-84427841D01*
X144266293Y-84281762D01*
X144281749Y-84164361D01*
X144281748Y-83685640D01*
X144266293Y-83568238D01*
X144239890Y-83504495D01*
X144205786Y-83422161D01*
X144205786Y-83422160D01*
X144109535Y-83296723D01*
X144109534Y-83296722D01*
X144109531Y-83296718D01*
X144109526Y-83296714D01*
X144109525Y-83296713D01*
X144006512Y-83217669D01*
X143984090Y-83200464D01*
X143984089Y-83200463D01*
X143984087Y-83200462D01*
X143838015Y-83139957D01*
X143838007Y-83139955D01*
X143720610Y-83124500D01*
X143091891Y-83124500D01*
X143091886Y-83124501D01*
X142974490Y-83139955D01*
X142974482Y-83139957D01*
X142828410Y-83200462D01*
X142828409Y-83200462D01*
X142702972Y-83296713D01*
X142702963Y-83296722D01*
X142653821Y-83360767D01*
X142603397Y-83395423D01*
X142575279Y-83399500D01*
X142556511Y-83399500D01*
X142556495Y-83399499D01*
X142550432Y-83399499D01*
X142412066Y-83399499D01*
X142330268Y-83421416D01*
X142278409Y-83435312D01*
X142158588Y-83504491D01*
X142158587Y-83504492D01*
X142158584Y-83504494D01*
X142158584Y-83504495D01*
X141945411Y-83717669D01*
X141775753Y-83887327D01*
X141721236Y-83915104D01*
X141660804Y-83905533D01*
X141617539Y-83862268D01*
X141606749Y-83817323D01*
X141606749Y-82919396D01*
X141606748Y-82919393D01*
X141605256Y-82906965D01*
X141596126Y-82830936D01*
X141542197Y-82694183D01*
X141540611Y-82690160D01*
X141540610Y-82690159D01*
X141540610Y-82690158D01*
X141449171Y-82569578D01*
X141328591Y-82478139D01*
X141328590Y-82478138D01*
X141328588Y-82478137D01*
X141187814Y-82422623D01*
X141099355Y-82412000D01*
X141099351Y-82412000D01*
X140976425Y-82412000D01*
X140918234Y-82393093D01*
X140882270Y-82343593D01*
X140882270Y-82282407D01*
X140906422Y-82242996D01*
X140952262Y-82197156D01*
X141101754Y-82047665D01*
X141170938Y-81927835D01*
X141206750Y-81794183D01*
X141206750Y-81655816D01*
X141206750Y-81649754D01*
X141206749Y-81649736D01*
X141206749Y-81605451D01*
X141225656Y-81547260D01*
X141255355Y-81520237D01*
X141292669Y-81498170D01*
X141404419Y-81386420D01*
X141448431Y-81311998D01*
X141494326Y-81271537D01*
X141508010Y-81266771D01*
X141580840Y-81247256D01*
X141609085Y-81239688D01*
X141728914Y-81170505D01*
X141826754Y-81072665D01*
X141826755Y-81072662D01*
X145072662Y-77826755D01*
X145072665Y-77826754D01*
X145170505Y-77728914D01*
X145239688Y-77609085D01*
X145247347Y-77580500D01*
X145252955Y-77559576D01*
X145275501Y-77475431D01*
X145275501Y-77331004D01*
X145275500Y-77330986D01*
X145275500Y-74120236D01*
X145294407Y-74062045D01*
X145324103Y-74035023D01*
X145386420Y-73998170D01*
X145498170Y-73886420D01*
X145578618Y-73750390D01*
X145622709Y-73598627D01*
X145625500Y-73563163D01*
X145625499Y-72986838D01*
X145622709Y-72951373D01*
X145578618Y-72799610D01*
X145570195Y-72785368D01*
X145498172Y-72663583D01*
X145498171Y-72663582D01*
X145498170Y-72663580D01*
X145474948Y-72640358D01*
X145447173Y-72585844D01*
X145456744Y-72525412D01*
X145474951Y-72500353D01*
X145572570Y-72402734D01*
X145572574Y-72402729D01*
X145661545Y-72258487D01*
X145714856Y-72097603D01*
X145725000Y-71998323D01*
X145725000Y-71975001D01*
X145724999Y-71975000D01*
X143775002Y-71975000D01*
X143775001Y-71975001D01*
X143775001Y-71998322D01*
X143785142Y-72097597D01*
X143785145Y-72097609D01*
X143838454Y-72258487D01*
X143861951Y-72296581D01*
X143876408Y-72356034D01*
X143853158Y-72412630D01*
X143801082Y-72444751D01*
X143740072Y-72440128D01*
X143707687Y-72418558D01*
X142794835Y-71505706D01*
X142779189Y-71474999D01*
X143775000Y-71474999D01*
X143775001Y-71475000D01*
X144499999Y-71475000D01*
X144500000Y-71474999D01*
X145000000Y-71474999D01*
X145000001Y-71475000D01*
X145724998Y-71475000D01*
X145724999Y-71474999D01*
X145724999Y-71451677D01*
X145714857Y-71352402D01*
X145714854Y-71352390D01*
X145661545Y-71191512D01*
X145572574Y-71047270D01*
X145452729Y-70927425D01*
X145308487Y-70838454D01*
X145147603Y-70785143D01*
X145048323Y-70775000D01*
X145000001Y-70775000D01*
X145000000Y-70775001D01*
X145000000Y-71474999D01*
X144500000Y-71474999D01*
X144500000Y-70774999D01*
X144451679Y-70775000D01*
X144451676Y-70775001D01*
X144352402Y-70785142D01*
X144352390Y-70785145D01*
X144191512Y-70838454D01*
X144047270Y-70927425D01*
X143927425Y-71047270D01*
X143838454Y-71191512D01*
X143785143Y-71352396D01*
X143775000Y-71451676D01*
X143775000Y-71474999D01*
X142779189Y-71474999D01*
X142767058Y-71451189D01*
X142776629Y-71390757D01*
X142794830Y-71365704D01*
X142826241Y-71334294D01*
X142885275Y-71218433D01*
X142900500Y-71122307D01*
X142900499Y-69977694D01*
X142885275Y-69881567D01*
X142885272Y-69881562D01*
X142885272Y-69881560D01*
X142826242Y-69765708D01*
X142826241Y-69765706D01*
X142734294Y-69673759D01*
X142734291Y-69673757D01*
X142618436Y-69614726D01*
X142618434Y-69614725D01*
X142522308Y-69599500D01*
X142077691Y-69599500D01*
X142077690Y-69599501D01*
X142016640Y-69609170D01*
X141985667Y-69609170D01*
X141924615Y-69599500D01*
X141924612Y-69599500D01*
X141575388Y-69599500D01*
X141575385Y-69599500D01*
X141515487Y-69608987D01*
X141484513Y-69608987D01*
X141424615Y-69599500D01*
X141424612Y-69599500D01*
X141075388Y-69599500D01*
X141075385Y-69599500D01*
X141015487Y-69608987D01*
X140984513Y-69608987D01*
X140924615Y-69599500D01*
X140924612Y-69599500D01*
X140575388Y-69599500D01*
X140575385Y-69599500D01*
X140515487Y-69608987D01*
X140484513Y-69608987D01*
X140424615Y-69599500D01*
X140424612Y-69599500D01*
X140075388Y-69599500D01*
X140075385Y-69599500D01*
X140015487Y-69608987D01*
X139984513Y-69608987D01*
X139924615Y-69599500D01*
X139924612Y-69599500D01*
X139575388Y-69599500D01*
X139575385Y-69599500D01*
X139515487Y-69608987D01*
X139484513Y-69608987D01*
X139424615Y-69599500D01*
X139424612Y-69599500D01*
X139075388Y-69599500D01*
X139075385Y-69599500D01*
X139015487Y-69608987D01*
X138984513Y-69608987D01*
X138924615Y-69599500D01*
X138924612Y-69599500D01*
X138575388Y-69599500D01*
X138575385Y-69599500D01*
X138515487Y-69608987D01*
X138484513Y-69608987D01*
X138424615Y-69599500D01*
X138424612Y-69599500D01*
X138075388Y-69599500D01*
X138075385Y-69599500D01*
X138014333Y-69609169D01*
X137983361Y-69609169D01*
X137922310Y-69599500D01*
X137477691Y-69599500D01*
X137381567Y-69614725D01*
X137381560Y-69614727D01*
X137265708Y-69673757D01*
X137173757Y-69765708D01*
X137114726Y-69881563D01*
X137114725Y-69881565D01*
X137099500Y-69977691D01*
X137099500Y-71116321D01*
X137080593Y-71174512D01*
X137070504Y-71186325D01*
X135589788Y-72667041D01*
X135535271Y-72694818D01*
X135508705Y-72695415D01*
X135500003Y-72694435D01*
X135500001Y-72694435D01*
X135500000Y-72694435D01*
X135410372Y-72704533D01*
X135320742Y-72714632D01*
X135320738Y-72714633D01*
X135150477Y-72774211D01*
X135150476Y-72774211D01*
X134997741Y-72870181D01*
X134870181Y-72997741D01*
X134774211Y-73150476D01*
X134774211Y-73150477D01*
X134714633Y-73320738D01*
X134714632Y-73320742D01*
X134694435Y-73500000D01*
X134714632Y-73679257D01*
X134714633Y-73679261D01*
X134774211Y-73849522D01*
X134774211Y-73849523D01*
X134869757Y-74001583D01*
X134870184Y-74002262D01*
X134997738Y-74129816D01*
X135150478Y-74225789D01*
X135218657Y-74249646D01*
X135320738Y-74285366D01*
X135320742Y-74285367D01*
X135320745Y-74285368D01*
X135500000Y-74305565D01*
X135679255Y-74285368D01*
X135849522Y-74225789D01*
X136002262Y-74129816D01*
X136129816Y-74002262D01*
X136166174Y-73944399D01*
X136213143Y-73905187D01*
X136274190Y-73901071D01*
X136325997Y-73933623D01*
X136333826Y-73944399D01*
X136369754Y-74001579D01*
X136370184Y-74002262D01*
X136497738Y-74129816D01*
X136650478Y-74225789D01*
X136718657Y-74249646D01*
X136820738Y-74285366D01*
X136820742Y-74285367D01*
X136820745Y-74285368D01*
X137000000Y-74305565D01*
X137000001Y-74305564D01*
X137000004Y-74305565D01*
X137000500Y-74305565D01*
X137000763Y-74305650D01*
X137005524Y-74306187D01*
X137005414Y-74307161D01*
X137058691Y-74324472D01*
X137094655Y-74373972D01*
X137099500Y-74404565D01*
X137099500Y-74866321D01*
X137080593Y-74924512D01*
X137070504Y-74936325D01*
X134339788Y-77667041D01*
X134285271Y-77694818D01*
X134258705Y-77695415D01*
X134250003Y-77694435D01*
X134250001Y-77694435D01*
X134250000Y-77694435D01*
X134160372Y-77704533D01*
X134070742Y-77714632D01*
X134070738Y-77714633D01*
X133900477Y-77774211D01*
X133900476Y-77774211D01*
X133747741Y-77870181D01*
X133620181Y-77997741D01*
X133524211Y-78150476D01*
X133524211Y-78150477D01*
X133464633Y-78320738D01*
X133464632Y-78320742D01*
X133444435Y-78500000D01*
X133464632Y-78679257D01*
X133464633Y-78679261D01*
X133524211Y-78849522D01*
X133524211Y-78849523D01*
X133620181Y-79002258D01*
X133620184Y-79002262D01*
X133747738Y-79129816D01*
X133900478Y-79225789D01*
X133968657Y-79249646D01*
X134070738Y-79285366D01*
X134070742Y-79285367D01*
X134070745Y-79285368D01*
X134250000Y-79305565D01*
X134429255Y-79285368D01*
X134599522Y-79225789D01*
X134752262Y-79129816D01*
X134879816Y-79002262D01*
X134975789Y-78849522D01*
X135031698Y-78689743D01*
X135035366Y-78679261D01*
X135035367Y-78679257D01*
X135035368Y-78679255D01*
X135055565Y-78500000D01*
X135054584Y-78491301D01*
X135066853Y-78431363D01*
X135082953Y-78410214D01*
X137555497Y-75937671D01*
X137610013Y-75909895D01*
X137670445Y-75919466D01*
X137713710Y-75962731D01*
X137724500Y-76007676D01*
X137724500Y-77611652D01*
X137705593Y-77669843D01*
X137656093Y-77705807D01*
X137636586Y-77710029D01*
X137595745Y-77714631D01*
X137595743Y-77714631D01*
X137425477Y-77774211D01*
X137425476Y-77774211D01*
X137272741Y-77870181D01*
X137145181Y-77997741D01*
X137049211Y-78150476D01*
X137049211Y-78150477D01*
X136989633Y-78320738D01*
X136989632Y-78320742D01*
X136969435Y-78500000D01*
X136989632Y-78679257D01*
X136989633Y-78679261D01*
X137049211Y-78849522D01*
X137049211Y-78849523D01*
X137145181Y-79002258D01*
X137145184Y-79002262D01*
X137272738Y-79129816D01*
X137425478Y-79225789D01*
X137493657Y-79249646D01*
X137595738Y-79285366D01*
X137595742Y-79285367D01*
X137595745Y-79285368D01*
X137775000Y-79305565D01*
X137954255Y-79285368D01*
X138124522Y-79225789D01*
X138277262Y-79129816D01*
X138404816Y-79002262D01*
X138428674Y-78964291D01*
X138475642Y-78925080D01*
X138536689Y-78920964D01*
X138588496Y-78953516D01*
X138596324Y-78964290D01*
X138620184Y-79002262D01*
X138747738Y-79129816D01*
X138900478Y-79225789D01*
X138968657Y-79249646D01*
X139070738Y-79285366D01*
X139070742Y-79285367D01*
X139070745Y-79285368D01*
X139250000Y-79305565D01*
X139429255Y-79285368D01*
X139599522Y-79225789D01*
X139752262Y-79129816D01*
X139879816Y-79002262D01*
X139975789Y-78849522D01*
X140031698Y-78689743D01*
X140035366Y-78679261D01*
X140035367Y-78679257D01*
X140035368Y-78679255D01*
X140055565Y-78500000D01*
X140035368Y-78320745D01*
X140032495Y-78312535D01*
X139981994Y-78168211D01*
X139975789Y-78150478D01*
X139967798Y-78137761D01*
X139879818Y-77997741D01*
X139879817Y-77997740D01*
X139879816Y-77997738D01*
X139752262Y-77870184D01*
X139752259Y-77870182D01*
X139752258Y-77870181D01*
X139599523Y-77774211D01*
X139429261Y-77714633D01*
X139429249Y-77714630D01*
X139363415Y-77707213D01*
X139307707Y-77681910D01*
X139277512Y-77628694D01*
X139275500Y-77608836D01*
X139275500Y-77338484D01*
X139294407Y-77280293D01*
X139343907Y-77244329D01*
X139405093Y-77244329D01*
X139454593Y-77280293D01*
X139458326Y-77285813D01*
X139491421Y-77338484D01*
X139507837Y-77364609D01*
X139635391Y-77492163D01*
X139635393Y-77492164D01*
X139635394Y-77492165D01*
X139744573Y-77560767D01*
X139788131Y-77588136D01*
X139802389Y-77593125D01*
X139958391Y-77647713D01*
X139958395Y-77647714D01*
X139958398Y-77647715D01*
X140137653Y-77667912D01*
X140316908Y-77647715D01*
X140487175Y-77588136D01*
X140639915Y-77492163D01*
X140767469Y-77364609D01*
X140863442Y-77211869D01*
X140923021Y-77041602D01*
X140943218Y-76862347D01*
X140923021Y-76683092D01*
X140910198Y-76646447D01*
X140876443Y-76549981D01*
X140863442Y-76512825D01*
X140863441Y-76512823D01*
X140811218Y-76429711D01*
X140796268Y-76370381D01*
X140819047Y-76313594D01*
X140825036Y-76307040D01*
X140879816Y-76252262D01*
X140975789Y-76099522D01*
X141035368Y-75929255D01*
X141055565Y-75750000D01*
X141035368Y-75570745D01*
X141021879Y-75532198D01*
X141020506Y-75471029D01*
X141055350Y-75420734D01*
X141113102Y-75400525D01*
X141115324Y-75400500D01*
X141272721Y-75400500D01*
X141330912Y-75419407D01*
X141332050Y-75420247D01*
X141361781Y-75442504D01*
X141498509Y-75493500D01*
X141498519Y-75493502D01*
X141558957Y-75499999D01*
X141600000Y-75499998D01*
X141600000Y-75402788D01*
X141618907Y-75344597D01*
X141630549Y-75332957D01*
X141629796Y-75332204D01*
X141635759Y-75326241D01*
X141680730Y-75281269D01*
X141735244Y-75253493D01*
X141795676Y-75263064D01*
X141820732Y-75281267D01*
X141865706Y-75326241D01*
X141865708Y-75326242D01*
X141871004Y-75331538D01*
X141898781Y-75386055D01*
X141900000Y-75401542D01*
X141900000Y-75499998D01*
X141900001Y-75499999D01*
X141941039Y-75499999D01*
X141941044Y-75499998D01*
X142001483Y-75493502D01*
X142001485Y-75493501D01*
X142138221Y-75442501D01*
X142167951Y-75420246D01*
X142225865Y-75400509D01*
X142227186Y-75400499D01*
X142522306Y-75400499D01*
X142522308Y-75400499D01*
X142542948Y-75397229D01*
X142618433Y-75385275D01*
X142734294Y-75326241D01*
X142826241Y-75234294D01*
X142885275Y-75118433D01*
X142900500Y-75022307D01*
X142900499Y-73877694D01*
X142885275Y-73781567D01*
X142885272Y-73781562D01*
X142885272Y-73781560D01*
X142826242Y-73665708D01*
X142826241Y-73665706D01*
X142734294Y-73573759D01*
X142734291Y-73573757D01*
X142618436Y-73514726D01*
X142618434Y-73514725D01*
X142522309Y-73499500D01*
X142227280Y-73499500D01*
X142169089Y-73480593D01*
X142167952Y-73479754D01*
X142138218Y-73457495D01*
X142001490Y-73406499D01*
X142001480Y-73406497D01*
X141941041Y-73400000D01*
X141900001Y-73400000D01*
X141900000Y-73400001D01*
X141900000Y-73498458D01*
X141881093Y-73556649D01*
X141871003Y-73568462D01*
X141820735Y-73618729D01*
X141766218Y-73646506D01*
X141705786Y-73636934D01*
X141680731Y-73618731D01*
X141635306Y-73573306D01*
X141635303Y-73573304D01*
X141629796Y-73567797D01*
X141632167Y-73565425D01*
X141604826Y-73527745D01*
X141600000Y-73497211D01*
X141600000Y-73400000D01*
X141599999Y-73399999D01*
X141558961Y-73400000D01*
X141558953Y-73400001D01*
X141498516Y-73406497D01*
X141498511Y-73406498D01*
X141361781Y-73457495D01*
X141332050Y-73479753D01*
X141274136Y-73499490D01*
X141272721Y-73499500D01*
X141075385Y-73499500D01*
X141015487Y-73508987D01*
X140984513Y-73508987D01*
X140924615Y-73499500D01*
X140924612Y-73499500D01*
X140575388Y-73499500D01*
X140575385Y-73499500D01*
X140515487Y-73508987D01*
X140484513Y-73508987D01*
X140424615Y-73499500D01*
X140424612Y-73499500D01*
X140388234Y-73499500D01*
X140330043Y-73480593D01*
X140294079Y-73431093D01*
X140289857Y-73389415D01*
X140305565Y-73250004D01*
X140305565Y-73250003D01*
X140294476Y-73151583D01*
X140285368Y-73070745D01*
X140231996Y-72918219D01*
X140230623Y-72857051D01*
X140265467Y-72806757D01*
X140323219Y-72786548D01*
X140336524Y-72787145D01*
X140359882Y-72789777D01*
X140499996Y-72805565D01*
X140499997Y-72805564D01*
X140500000Y-72805565D01*
X140679255Y-72785368D01*
X140849522Y-72725789D01*
X141002262Y-72629816D01*
X141129816Y-72502262D01*
X141225789Y-72349522D01*
X141285368Y-72179255D01*
X141305565Y-72000000D01*
X141304584Y-71991301D01*
X141316853Y-71931363D01*
X141332953Y-71910214D01*
X141452977Y-71790190D01*
X141507492Y-71762415D01*
X141567924Y-71771986D01*
X141592979Y-71790189D01*
X141948295Y-72145505D01*
X141948297Y-72145506D01*
X143400453Y-73597662D01*
X143400455Y-73597665D01*
X143498295Y-73695505D01*
X143618124Y-73764688D01*
X143618126Y-73764688D01*
X143618127Y-73764689D01*
X143646365Y-73772256D01*
X143646368Y-73772256D01*
X143751774Y-73800500D01*
X143751776Y-73800501D01*
X143894549Y-73800501D01*
X143952740Y-73819408D01*
X143979762Y-73849106D01*
X144001827Y-73886416D01*
X144001828Y-73886417D01*
X144001830Y-73886420D01*
X144113580Y-73998170D01*
X144175895Y-74035023D01*
X144216358Y-74080918D01*
X144224500Y-74120236D01*
X144224500Y-77147571D01*
X144205593Y-77205762D01*
X144195504Y-77217575D01*
X141421165Y-79991913D01*
X141366648Y-80019690D01*
X141306216Y-80010119D01*
X141298062Y-80004944D01*
X141298030Y-80005000D01*
X141156641Y-79921383D01*
X141156640Y-79921382D01*
X141156639Y-79921382D01*
X141080757Y-79899336D01*
X141004874Y-79877290D01*
X140982143Y-79875502D01*
X140969412Y-79874500D01*
X140969406Y-79874500D01*
X140393091Y-79874500D01*
X140357622Y-79877291D01*
X140357617Y-79877292D01*
X140205855Y-79921383D01*
X140069831Y-80001828D01*
X140069828Y-80001830D01*
X140046608Y-80025050D01*
X139992091Y-80052826D01*
X139931659Y-80043254D01*
X139906602Y-80025049D01*
X139808978Y-79927425D01*
X139664736Y-79838454D01*
X139503852Y-79785143D01*
X139404572Y-79775000D01*
X139381250Y-79775000D01*
X139381249Y-79775001D01*
X139381249Y-80901000D01*
X139362342Y-80959191D01*
X139312842Y-80995155D01*
X139282249Y-81000000D01*
X138181251Y-81000000D01*
X138181250Y-81000001D01*
X138181250Y-81048322D01*
X138191391Y-81147597D01*
X138191394Y-81147609D01*
X138244703Y-81308487D01*
X138333674Y-81452729D01*
X138453519Y-81572574D01*
X138597761Y-81661545D01*
X138748681Y-81711554D01*
X138797971Y-81747805D01*
X138816539Y-81806105D01*
X138797294Y-81864184D01*
X138787545Y-81875532D01*
X138683586Y-81979492D01*
X138683586Y-81979493D01*
X138683584Y-81979495D01*
X138683583Y-81979494D01*
X138585743Y-82077335D01*
X138516564Y-82197156D01*
X138516562Y-82197161D01*
X138516561Y-82197163D01*
X138516561Y-82197164D01*
X138508992Y-82225408D01*
X138481516Y-82327951D01*
X138480748Y-82330818D01*
X138480748Y-82477157D01*
X138480749Y-82477170D01*
X138480749Y-82513311D01*
X138461842Y-82571502D01*
X138460633Y-82573130D01*
X138371889Y-82690156D01*
X138371886Y-82690160D01*
X138316372Y-82830934D01*
X138305749Y-82919393D01*
X138305749Y-84030606D01*
X138316372Y-84119065D01*
X138371886Y-84259839D01*
X138371887Y-84259841D01*
X138371888Y-84259842D01*
X138463327Y-84380422D01*
X138583907Y-84471861D01*
X138654927Y-84499868D01*
X138702123Y-84538803D01*
X138717420Y-84598045D01*
X138694974Y-84654964D01*
X138688618Y-84661961D01*
X138683593Y-84666987D01*
X138683584Y-84666996D01*
X138683583Y-84666996D01*
X138620798Y-84729780D01*
X138587123Y-84751870D01*
X138583911Y-84753136D01*
X138583906Y-84753139D01*
X138463330Y-84844575D01*
X138463324Y-84844581D01*
X138371889Y-84965156D01*
X138371886Y-84965160D01*
X138316372Y-85105933D01*
X138312605Y-85137305D01*
X138286894Y-85192826D01*
X138233459Y-85222631D01*
X138214311Y-85224500D01*
X137758677Y-85224500D01*
X137700486Y-85205593D01*
X137688673Y-85195504D01*
X135845506Y-83352337D01*
X135845505Y-83352335D01*
X135747665Y-83254495D01*
X135627836Y-83185312D01*
X135627835Y-83185311D01*
X135627834Y-83185311D01*
X135598063Y-83177334D01*
X135494185Y-83149499D01*
X135494183Y-83149499D01*
X135355817Y-83149499D01*
X135349754Y-83149499D01*
X135349738Y-83149500D01*
X131330970Y-83149500D01*
X131272779Y-83130593D01*
X131252428Y-83110767D01*
X131203285Y-83046722D01*
X131203282Y-83046718D01*
X131203277Y-83046714D01*
X131203276Y-83046713D01*
X131077838Y-82950462D01*
X130931766Y-82889957D01*
X130931758Y-82889955D01*
X130814361Y-82874500D01*
X130185642Y-82874500D01*
X130185637Y-82874501D01*
X130068241Y-82889955D01*
X130068233Y-82889957D01*
X129922161Y-82950462D01*
X129922160Y-82950462D01*
X129796723Y-83046713D01*
X129796716Y-83046720D01*
X129698898Y-83174199D01*
X129648473Y-83208854D01*
X129609273Y-83212309D01*
X129563285Y-83207128D01*
X129399012Y-83225637D01*
X129339070Y-83213363D01*
X129302192Y-83176759D01*
X129299537Y-83172160D01*
X129203286Y-83046723D01*
X129203285Y-83046722D01*
X129203282Y-83046718D01*
X129203277Y-83046714D01*
X129203276Y-83046713D01*
X129072694Y-82946514D01*
X129074179Y-82944578D01*
X129040309Y-82906965D01*
X129033912Y-82846115D01*
X129039287Y-82828805D01*
X129039684Y-82827842D01*
X129039689Y-82827835D01*
X129075501Y-82694183D01*
X129075501Y-82555816D01*
X129075501Y-82549754D01*
X129075500Y-82549736D01*
X129075500Y-82474189D01*
X129094407Y-82415998D01*
X129095616Y-82414370D01*
X129118227Y-82384551D01*
X129184361Y-82297342D01*
X129239877Y-82156564D01*
X129247794Y-82090636D01*
X129650000Y-82090636D01*
X129652899Y-82127489D01*
X129698719Y-82285200D01*
X129698719Y-82285201D01*
X129782314Y-82426552D01*
X129898447Y-82542685D01*
X130039799Y-82626280D01*
X130197506Y-82672098D01*
X130197513Y-82672100D01*
X130200000Y-82672295D01*
X130700000Y-82672295D01*
X130702486Y-82672100D01*
X130702493Y-82672098D01*
X130860200Y-82626280D01*
X130860201Y-82626280D01*
X131001552Y-82542685D01*
X131117685Y-82426552D01*
X131201280Y-82285201D01*
X131201280Y-82285200D01*
X131247100Y-82127489D01*
X131250000Y-82090636D01*
X131250000Y-81687501D01*
X131249999Y-81687500D01*
X130700001Y-81687500D01*
X130700000Y-81687501D01*
X130700000Y-82672295D01*
X130200000Y-82672295D01*
X130200000Y-81687501D01*
X130199999Y-81687500D01*
X129650001Y-81687500D01*
X129650000Y-81687501D01*
X129650000Y-82090636D01*
X129247794Y-82090636D01*
X129250500Y-82068102D01*
X129250500Y-80806898D01*
X129250500Y-80806890D01*
X129250411Y-80805400D01*
X129250500Y-80805057D01*
X129250500Y-80803939D01*
X129250791Y-80803939D01*
X129265817Y-80746186D01*
X129313086Y-80707336D01*
X129349235Y-80700500D01*
X129551000Y-80700500D01*
X129609191Y-80719407D01*
X129645155Y-80768907D01*
X129650000Y-80799500D01*
X129650000Y-81187499D01*
X129650001Y-81187500D01*
X130199999Y-81187500D01*
X130200000Y-81187499D01*
X130200000Y-80203189D01*
X130200029Y-80202702D01*
X130700000Y-80202702D01*
X130700000Y-81187499D01*
X130700001Y-81187500D01*
X131249999Y-81187500D01*
X131250000Y-81187499D01*
X131250000Y-80784363D01*
X131247100Y-80747510D01*
X131201280Y-80589799D01*
X131201280Y-80589798D01*
X131148173Y-80499999D01*
X138181249Y-80499999D01*
X138181250Y-80500000D01*
X138881248Y-80500000D01*
X138881249Y-80499999D01*
X138881249Y-79775000D01*
X138881248Y-79774999D01*
X138857938Y-79775000D01*
X138857933Y-79775001D01*
X138758650Y-79785142D01*
X138758639Y-79785145D01*
X138597761Y-79838454D01*
X138453519Y-79927425D01*
X138333674Y-80047270D01*
X138244703Y-80191512D01*
X138191392Y-80352396D01*
X138181249Y-80451676D01*
X138181249Y-80499999D01*
X131148173Y-80499999D01*
X131117685Y-80448447D01*
X131001552Y-80332314D01*
X130860201Y-80248719D01*
X130860202Y-80248719D01*
X130702491Y-80202900D01*
X130700000Y-80202702D01*
X130200029Y-80202702D01*
X130200426Y-80196062D01*
X130200323Y-80196056D01*
X130200500Y-80193100D01*
X130200500Y-78931899D01*
X130200499Y-78931893D01*
X130191364Y-78855822D01*
X130189877Y-78843436D01*
X130134361Y-78702658D01*
X130120616Y-78684532D01*
X130100521Y-78626740D01*
X130100500Y-78624713D01*
X130100500Y-78595944D01*
X130092509Y-78566122D01*
X130062482Y-78454057D01*
X130059577Y-78443215D01*
X130036648Y-78403501D01*
X130023926Y-78343652D01*
X130048812Y-78287757D01*
X130101800Y-78257164D01*
X130122384Y-78255000D01*
X130571893Y-78255000D01*
X130714160Y-78234544D01*
X130714164Y-78234543D01*
X130852115Y-78194037D01*
X130982869Y-78134325D01*
X131103825Y-78056591D01*
X131105189Y-78055491D01*
X131106493Y-78054278D01*
X131156977Y-78010531D01*
X130216450Y-77070004D01*
X130188673Y-77015487D01*
X130191126Y-76999999D01*
X130853553Y-76999999D01*
X131446678Y-77593125D01*
X131484540Y-77464182D01*
X131505002Y-77321874D01*
X131505002Y-77174647D01*
X131505000Y-77174590D01*
X131505000Y-76825674D01*
X131505002Y-76825621D01*
X131505002Y-76678124D01*
X131485548Y-76542822D01*
X131485547Y-76542820D01*
X131484539Y-76535812D01*
X131446678Y-76406872D01*
X130853553Y-76999999D01*
X130191126Y-76999999D01*
X130198244Y-76955055D01*
X130216451Y-76929996D01*
X130500001Y-76646447D01*
X131156979Y-75989467D01*
X131103818Y-75943402D01*
X131103813Y-75943399D01*
X130982876Y-75865678D01*
X130982869Y-75865674D01*
X130852117Y-75805962D01*
X130773469Y-75782869D01*
X130722962Y-75748333D01*
X130702401Y-75690705D01*
X130719640Y-75631999D01*
X130731347Y-75617886D01*
X132368713Y-73980521D01*
X132368716Y-73980520D01*
X132480520Y-73868716D01*
X132558285Y-73734022D01*
X132559577Y-73731785D01*
X132600501Y-73579057D01*
X132600501Y-73420943D01*
X132600501Y-73414881D01*
X132600500Y-73414863D01*
X132600500Y-70420944D01*
X132600500Y-70420943D01*
X132559577Y-70268216D01*
X132480520Y-70131284D01*
X132368716Y-70019480D01*
X132368713Y-70019478D01*
X129864496Y-67515261D01*
X129836719Y-67460744D01*
X129835500Y-67445257D01*
X129835500Y-67157640D01*
X129854407Y-67099449D01*
X129877712Y-67076547D01*
X130041877Y-66961598D01*
X130196598Y-66806877D01*
X130322102Y-66627639D01*
X130335776Y-66598314D01*
X130377502Y-66553568D01*
X130437563Y-66541892D01*
X130493016Y-66567748D01*
X130522681Y-66621262D01*
X130524500Y-66640154D01*
X130524500Y-66881521D01*
X130524501Y-66881523D01*
X130539352Y-66975299D01*
X130539354Y-66975304D01*
X130596950Y-67088342D01*
X130686658Y-67178050D01*
X130799696Y-67235646D01*
X130893481Y-67250500D01*
X132656518Y-67250499D01*
X132656521Y-67250499D01*
X132656522Y-67250498D01*
X132703411Y-67243072D01*
X132750299Y-67235647D01*
X132750299Y-67235646D01*
X132750304Y-67235646D01*
X132863342Y-67178050D01*
X132953050Y-67088342D01*
X133010646Y-66975304D01*
X133025500Y-66881519D01*
X133025499Y-65118482D01*
X133025499Y-65118480D01*
X133025499Y-65118478D01*
X133025498Y-65118476D01*
X133010647Y-65024700D01*
X133010646Y-65024698D01*
X133010646Y-65024696D01*
X132953050Y-64911658D01*
X132863342Y-64821950D01*
X132750304Y-64764354D01*
X132750305Y-64764354D01*
X132656522Y-64749500D01*
X132656519Y-64749500D01*
X132449500Y-64749500D01*
X132391309Y-64730593D01*
X132355345Y-64681093D01*
X132350500Y-64650500D01*
X132350500Y-61372145D01*
X132369407Y-61313954D01*
X132418907Y-61277990D01*
X132441733Y-61273450D01*
X132452569Y-61272598D01*
X132610398Y-61226744D01*
X132751865Y-61143081D01*
X132868081Y-61026865D01*
X132951744Y-60885398D01*
X132997598Y-60727569D01*
X133000500Y-60690694D01*
X133000500Y-60599500D01*
X133019407Y-60541309D01*
X133068907Y-60505345D01*
X133099500Y-60500500D01*
X136528143Y-60500500D01*
X136586334Y-60519407D01*
X136616352Y-60554553D01*
X136621349Y-60564361D01*
X136678872Y-60677258D01*
X136680476Y-60680405D01*
X136796172Y-60839646D01*
X136935354Y-60978828D01*
X137093692Y-61093868D01*
X137129655Y-61143366D01*
X137134500Y-61173959D01*
X137134500Y-64842360D01*
X137115593Y-64900551D01*
X137092285Y-64923454D01*
X137077287Y-64933957D01*
X136928127Y-65038398D01*
X136773398Y-65193127D01*
X136647896Y-65372364D01*
X136647892Y-65372372D01*
X136555426Y-65570666D01*
X136498791Y-65782030D01*
X136479723Y-65999996D01*
X136479723Y-66000003D01*
X136498791Y-66217969D01*
X136498792Y-66217976D01*
X136498793Y-66217977D01*
X136555425Y-66429330D01*
X136647898Y-66627639D01*
X136773402Y-66806877D01*
X136928123Y-66961598D01*
X136928126Y-66961600D01*
X136928127Y-66961601D01*
X136946549Y-66974500D01*
X137107361Y-67087102D01*
X137305670Y-67179575D01*
X137517023Y-67236207D01*
X137517027Y-67236207D01*
X137517030Y-67236208D01*
X137734997Y-67255277D01*
X137735000Y-67255277D01*
X137735003Y-67255277D01*
X137952969Y-67236208D01*
X137952970Y-67236207D01*
X137952977Y-67236207D01*
X138164330Y-67179575D01*
X138362639Y-67087102D01*
X138541877Y-66961598D01*
X138696598Y-66806877D01*
X138822102Y-66627639D01*
X138835776Y-66598314D01*
X138877502Y-66553568D01*
X138937563Y-66541892D01*
X138993016Y-66567748D01*
X139022681Y-66621262D01*
X139024500Y-66640154D01*
X139024500Y-66881521D01*
X139024501Y-66881523D01*
X139039352Y-66975299D01*
X139039354Y-66975304D01*
X139096950Y-67088342D01*
X139186658Y-67178050D01*
X139299696Y-67235646D01*
X139393481Y-67250500D01*
X141156518Y-67250499D01*
X141156521Y-67250499D01*
X141156522Y-67250498D01*
X141203411Y-67243072D01*
X141250299Y-67235647D01*
X141250299Y-67235646D01*
X141250304Y-67235646D01*
X141363342Y-67178050D01*
X141453050Y-67088342D01*
X141510646Y-66975304D01*
X141525500Y-66881519D01*
X141525499Y-65118482D01*
X141525499Y-65118480D01*
X141525499Y-65118478D01*
X141525498Y-65118476D01*
X141510647Y-65024700D01*
X141510646Y-65024698D01*
X141510646Y-65024696D01*
X141453050Y-64911658D01*
X141363342Y-64821950D01*
X141250304Y-64764354D01*
X141250305Y-64764354D01*
X141156522Y-64749500D01*
X141156519Y-64749500D01*
X140949500Y-64749500D01*
X140891309Y-64730593D01*
X140855345Y-64681093D01*
X140850500Y-64650500D01*
X140850500Y-61372145D01*
X140869407Y-61313954D01*
X140918907Y-61277990D01*
X140941733Y-61273450D01*
X140952569Y-61272598D01*
X141110398Y-61226744D01*
X141251865Y-61143081D01*
X141368081Y-61026865D01*
X141451744Y-60885398D01*
X141497598Y-60727569D01*
X141500500Y-60690694D01*
X141500500Y-60599500D01*
X141519407Y-60541309D01*
X141568907Y-60505345D01*
X141599500Y-60500500D01*
X145028143Y-60500500D01*
X145086334Y-60519407D01*
X145116352Y-60554553D01*
X145121349Y-60564361D01*
X145178872Y-60677258D01*
X145180476Y-60680405D01*
X145296172Y-60839646D01*
X145435354Y-60978828D01*
X145594595Y-61094524D01*
X145595437Y-61094953D01*
X145595662Y-61095178D01*
X145597909Y-61096555D01*
X145597578Y-61097094D01*
X145638705Y-61138211D01*
X145649500Y-61183166D01*
X145649500Y-64831856D01*
X145630593Y-64890047D01*
X145607284Y-64912952D01*
X145428127Y-65038398D01*
X145273398Y-65193127D01*
X145147896Y-65372364D01*
X145147892Y-65372372D01*
X145055426Y-65570666D01*
X144998791Y-65782030D01*
X144979723Y-65999996D01*
X144979723Y-66000003D01*
X144998791Y-66217969D01*
X144998792Y-66217976D01*
X144998793Y-66217977D01*
X145055425Y-66429330D01*
X145147898Y-66627639D01*
X145273402Y-66806877D01*
X145428123Y-66961598D01*
X145428126Y-66961600D01*
X145428127Y-66961601D01*
X145446549Y-66974500D01*
X145607361Y-67087102D01*
X145805670Y-67179575D01*
X146017023Y-67236207D01*
X146017027Y-67236207D01*
X146017030Y-67236208D01*
X146234997Y-67255277D01*
X146235000Y-67255277D01*
X146235003Y-67255277D01*
X146452969Y-67236208D01*
X146452970Y-67236207D01*
X146452977Y-67236207D01*
X146664330Y-67179575D01*
X146862639Y-67087102D01*
X147041877Y-66961598D01*
X147196598Y-66806877D01*
X147322102Y-66627639D01*
X147335776Y-66598314D01*
X147377502Y-66553568D01*
X147437563Y-66541892D01*
X147493016Y-66567748D01*
X147522681Y-66621262D01*
X147524500Y-66640154D01*
X147524500Y-66881521D01*
X147524501Y-66881523D01*
X147539352Y-66975299D01*
X147539354Y-66975304D01*
X147596950Y-67088342D01*
X147686658Y-67178050D01*
X147799696Y-67235646D01*
X147893481Y-67250500D01*
X148154635Y-67250499D01*
X148212825Y-67269406D01*
X148240371Y-67299998D01*
X148288305Y-67383021D01*
X148294480Y-67393716D01*
X148406284Y-67505520D01*
X148406286Y-67505521D01*
X149769478Y-68868713D01*
X149769480Y-68868716D01*
X149881284Y-68980520D01*
X149881286Y-68980521D01*
X149959183Y-69025495D01*
X149959187Y-69025497D01*
X149959194Y-69025501D01*
X150018215Y-69059577D01*
X150170943Y-69100501D01*
X150170945Y-69100501D01*
X150335120Y-69100501D01*
X150335136Y-69100500D01*
X152725194Y-69100500D01*
X152783385Y-69119407D01*
X152810405Y-69149101D01*
X152876830Y-69261420D01*
X152970505Y-69355095D01*
X152998281Y-69409610D01*
X152999500Y-69425097D01*
X152999500Y-74418698D01*
X152980593Y-74476889D01*
X152931093Y-74512853D01*
X152926143Y-74514318D01*
X152786499Y-74551736D01*
X152775512Y-74554680D01*
X152606847Y-74640619D01*
X152606845Y-74640620D01*
X152459748Y-74759738D01*
X152459738Y-74759748D01*
X152340620Y-74906845D01*
X152340619Y-74906847D01*
X152254680Y-75075512D01*
X152205687Y-75258359D01*
X152203884Y-75281271D01*
X152199910Y-75331780D01*
X152199500Y-75336985D01*
X152199500Y-76463013D01*
X152205687Y-76541643D01*
X152205688Y-76541646D01*
X152211850Y-76564644D01*
X152254680Y-76724488D01*
X152324923Y-76862347D01*
X152340619Y-76893152D01*
X152340620Y-76893154D01*
X152459738Y-77040251D01*
X152459743Y-77040257D01*
X152459748Y-77040261D01*
X152606845Y-77159379D01*
X152606847Y-77159380D01*
X152606851Y-77159383D01*
X152775512Y-77245320D01*
X152958355Y-77294312D01*
X153036979Y-77300500D01*
X153611256Y-77300499D01*
X153669447Y-77319406D01*
X153705411Y-77368906D01*
X153705411Y-77430092D01*
X153681260Y-77469502D01*
X153231286Y-77919477D01*
X153231286Y-77919478D01*
X153231284Y-77919480D01*
X153231283Y-77919479D01*
X153119482Y-78031281D01*
X153119480Y-78031283D01*
X153119480Y-78031284D01*
X153104870Y-78056591D01*
X153083167Y-78094182D01*
X153083166Y-78094183D01*
X153040424Y-78168211D01*
X153040423Y-78168215D01*
X152999499Y-78320943D01*
X152999499Y-78320945D01*
X152999499Y-78487031D01*
X152999500Y-78487044D01*
X152999500Y-84773552D01*
X152980593Y-84831743D01*
X152947620Y-84860619D01*
X152831378Y-84923527D01*
X152831370Y-84923532D01*
X152648219Y-85066084D01*
X152648216Y-85066086D01*
X152648216Y-85066087D01*
X152566831Y-85154495D01*
X152491020Y-85236848D01*
X152481209Y-85251865D01*
X152364076Y-85431151D01*
X152301692Y-85573373D01*
X152270843Y-85643701D01*
X152213865Y-85868696D01*
X152194700Y-86100000D01*
X152213865Y-86331303D01*
X152229759Y-86394064D01*
X152270843Y-86556300D01*
X152314322Y-86655422D01*
X152364075Y-86768848D01*
X152364077Y-86768850D01*
X152406218Y-86833353D01*
X152422216Y-86892409D01*
X152400447Y-86949591D01*
X152349224Y-86983056D01*
X152323338Y-86986500D01*
X146538683Y-86986500D01*
X146529944Y-86986574D01*
X146525722Y-86986646D01*
X146516844Y-86986876D01*
X146372973Y-87012632D01*
X146306649Y-87034607D01*
X146306642Y-87034610D01*
X146175863Y-87099851D01*
X139761134Y-91540818D01*
X139761130Y-91540820D01*
X139761129Y-91540822D01*
X139715593Y-91579494D01*
X139684132Y-91606213D01*
X139650402Y-91641121D01*
X139650398Y-91641126D01*
X139587704Y-91720307D01*
X139587702Y-91720310D01*
X139526988Y-91853250D01*
X139526988Y-91853251D01*
X139507300Y-91920300D01*
X139507298Y-91920309D01*
X139486500Y-92064964D01*
X139486500Y-92064970D01*
X139486500Y-104876000D01*
X139498052Y-104983445D01*
X139498237Y-104985165D01*
X139509440Y-105036663D01*
X139544109Y-105140825D01*
X139544109Y-105140826D01*
X139562316Y-105169156D01*
X139623129Y-105263782D01*
X139668884Y-105316586D01*
X139779339Y-105412297D01*
X139912287Y-105473014D01*
X139979326Y-105492699D01*
X139979330Y-105492700D01*
X140013383Y-105497596D01*
X140123995Y-105513500D01*
X140124000Y-105513500D01*
X145375996Y-105513500D01*
X145376000Y-105513500D01*
X145485157Y-105501764D01*
X145536668Y-105490558D01*
X145640827Y-105455890D01*
X145763782Y-105376871D01*
X145816586Y-105331116D01*
X145912297Y-105220661D01*
X145913047Y-105219017D01*
X145914071Y-105217901D01*
X145916125Y-105214706D01*
X145916677Y-105215061D01*
X145954414Y-105173937D01*
X146014380Y-105161780D01*
X146070038Y-105187192D01*
X146086387Y-105206610D01*
X146123129Y-105263782D01*
X146168884Y-105316586D01*
X146279339Y-105412297D01*
X146412287Y-105473014D01*
X146479326Y-105492699D01*
X146479330Y-105492700D01*
X146513383Y-105497596D01*
X146623995Y-105513500D01*
X146624000Y-105513500D01*
X148100500Y-105513500D01*
X148158691Y-105532407D01*
X148194655Y-105581907D01*
X148199500Y-105612500D01*
X148199500Y-109986250D01*
X148199499Y-109986280D01*
X148199499Y-110210224D01*
X148233984Y-110427949D01*
X148302102Y-110637599D01*
X148302104Y-110637602D01*
X148302105Y-110637606D01*
X148402185Y-110834022D01*
X148531758Y-111012365D01*
X148687635Y-111168242D01*
X148687638Y-111168244D01*
X150931755Y-113412361D01*
X150931758Y-113412365D01*
X151087635Y-113568242D01*
X151087638Y-113568244D01*
X151087640Y-113568246D01*
X151183939Y-113638210D01*
X151183940Y-113638212D01*
X151265974Y-113697813D01*
X151265988Y-113697821D01*
X151462391Y-113797894D01*
X151462395Y-113797896D01*
X151672049Y-113866015D01*
X151759141Y-113879809D01*
X151889776Y-113900501D01*
X151889779Y-113900501D01*
X152114300Y-113900501D01*
X152114324Y-113900500D01*
X170385676Y-113900500D01*
X170385700Y-113900501D01*
X170389778Y-113900501D01*
X170610225Y-113900501D01*
X170740859Y-113879809D01*
X170827951Y-113866015D01*
X171037606Y-113797895D01*
X171234022Y-113697815D01*
X171316060Y-113638211D01*
X171412365Y-113568242D01*
X171568242Y-113412365D01*
X171568243Y-113412362D01*
X171573885Y-113406721D01*
X171573887Y-113406717D01*
X171830998Y-113149607D01*
X171885513Y-113121831D01*
X171945945Y-113131402D01*
X171989210Y-113174667D01*
X172000000Y-113219612D01*
X172000000Y-117901000D01*
X171981093Y-117959191D01*
X171931593Y-117995155D01*
X171901000Y-118000000D01*
X120099000Y-118000000D01*
X120040809Y-117981093D01*
X120004845Y-117931593D01*
X120000000Y-117901000D01*
X120000000Y-110000001D01*
X120000000Y-110000000D01*
X112099000Y-110000000D01*
X112040809Y-109981093D01*
X112004845Y-109931593D01*
X112000000Y-109901000D01*
X112000000Y-58099000D01*
X112018907Y-58040809D01*
X112068407Y-58004845D01*
X112099000Y-58000000D01*
X119999999Y-58000000D01*
X120000000Y-58000000D01*
X120000000Y-54460003D01*
X121744723Y-54460003D01*
X121763791Y-54677969D01*
X121763792Y-54677976D01*
X121763793Y-54677977D01*
X121820425Y-54889330D01*
X121912898Y-55087639D01*
X122038402Y-55266877D01*
X122193123Y-55421598D01*
X122372361Y-55547102D01*
X122372362Y-55547102D01*
X122372363Y-55547103D01*
X122372365Y-55547104D01*
X122401683Y-55560775D01*
X122446432Y-55602503D01*
X122458107Y-55662564D01*
X122432250Y-55718017D01*
X122378736Y-55747681D01*
X122359845Y-55749500D01*
X122118478Y-55749500D01*
X122118476Y-55749501D01*
X122024700Y-55764352D01*
X122024695Y-55764354D01*
X121911659Y-55821949D01*
X121821949Y-55911659D01*
X121764354Y-56024695D01*
X121749500Y-56118478D01*
X121749500Y-57881521D01*
X121749501Y-57881523D01*
X121764352Y-57975299D01*
X121764354Y-57975304D01*
X121821950Y-58088342D01*
X121911658Y-58178050D01*
X122024696Y-58235646D01*
X122118481Y-58250500D01*
X123881518Y-58250499D01*
X123881521Y-58250499D01*
X123881522Y-58250498D01*
X123928411Y-58243072D01*
X123975299Y-58235647D01*
X123975299Y-58235646D01*
X123975304Y-58235646D01*
X124088342Y-58178050D01*
X124178050Y-58088342D01*
X124235646Y-57975304D01*
X124250500Y-57881519D01*
X124250499Y-56118482D01*
X124250499Y-56118481D01*
X124250499Y-56118478D01*
X124250498Y-56118476D01*
X124235647Y-56024700D01*
X124235646Y-56024698D01*
X124235646Y-56024696D01*
X124178050Y-55911658D01*
X124088342Y-55821950D01*
X123975304Y-55764354D01*
X123975305Y-55764354D01*
X123881522Y-55749500D01*
X123640155Y-55749500D01*
X123581964Y-55730593D01*
X123546000Y-55681093D01*
X123546000Y-55619907D01*
X123581964Y-55570407D01*
X123598317Y-55560775D01*
X123627639Y-55547102D01*
X123806877Y-55421598D01*
X123961598Y-55266877D01*
X124087102Y-55087639D01*
X124179575Y-54889330D01*
X124236207Y-54677977D01*
X124240421Y-54629818D01*
X124255277Y-54460003D01*
X124255277Y-54459996D01*
X124236208Y-54242030D01*
X124236207Y-54242027D01*
X124236207Y-54242023D01*
X124179575Y-54030670D01*
X124087102Y-53832362D01*
X123961598Y-53653123D01*
X123806895Y-53498420D01*
X128849500Y-53498420D01*
X128880289Y-53692821D01*
X128941116Y-53880025D01*
X128989252Y-53974499D01*
X129030476Y-54055405D01*
X129146172Y-54214646D01*
X129285354Y-54353828D01*
X129444595Y-54469524D01*
X129619975Y-54558884D01*
X129807174Y-54619709D01*
X129807175Y-54619709D01*
X129807178Y-54619710D01*
X130001580Y-54650500D01*
X130001583Y-54650500D01*
X130998420Y-54650500D01*
X131192821Y-54619710D01*
X131192822Y-54619709D01*
X131192826Y-54619709D01*
X131380025Y-54558884D01*
X131555405Y-54469524D01*
X131714646Y-54353828D01*
X131853828Y-54214646D01*
X131969524Y-54055405D01*
X132058884Y-53880025D01*
X132119709Y-53692826D01*
X132125997Y-53653127D01*
X132150500Y-53498420D01*
X137349500Y-53498420D01*
X137380289Y-53692821D01*
X137441116Y-53880025D01*
X137489252Y-53974499D01*
X137530476Y-54055405D01*
X137646172Y-54214646D01*
X137785354Y-54353828D01*
X137944595Y-54469524D01*
X138119975Y-54558884D01*
X138307174Y-54619709D01*
X138307175Y-54619709D01*
X138307178Y-54619710D01*
X138501580Y-54650500D01*
X138501583Y-54650500D01*
X139498420Y-54650500D01*
X139692821Y-54619710D01*
X139692822Y-54619709D01*
X139692826Y-54619709D01*
X139880025Y-54558884D01*
X140055405Y-54469524D01*
X140214646Y-54353828D01*
X140353828Y-54214646D01*
X140469524Y-54055405D01*
X140558884Y-53880025D01*
X140619709Y-53692826D01*
X140625997Y-53653127D01*
X140650500Y-53498420D01*
X145849500Y-53498420D01*
X145880289Y-53692821D01*
X145941116Y-53880025D01*
X145989252Y-53974499D01*
X146030476Y-54055405D01*
X146146172Y-54214646D01*
X146285354Y-54353828D01*
X146444595Y-54469524D01*
X146619975Y-54558884D01*
X146807174Y-54619709D01*
X146807175Y-54619709D01*
X146807178Y-54619710D01*
X147001580Y-54650500D01*
X147001583Y-54650500D01*
X147998420Y-54650500D01*
X148192821Y-54619710D01*
X148192822Y-54619709D01*
X148192826Y-54619709D01*
X148380025Y-54558884D01*
X148555405Y-54469524D01*
X148671724Y-54385013D01*
X148729915Y-54366105D01*
X148788105Y-54385012D01*
X148813741Y-54412434D01*
X148849610Y-54469520D01*
X148870184Y-54502262D01*
X148997738Y-54629816D01*
X148997740Y-54629817D01*
X148997741Y-54629818D01*
X149150474Y-54725787D01*
X149150478Y-54725789D01*
X149218657Y-54749646D01*
X149320738Y-54785366D01*
X149320742Y-54785367D01*
X149320745Y-54785368D01*
X149500000Y-54805565D01*
X149679255Y-54785368D01*
X149849522Y-54725789D01*
X149947819Y-54664024D01*
X150007149Y-54649074D01*
X150063936Y-54671853D01*
X150084316Y-54695179D01*
X150103549Y-54725789D01*
X150120184Y-54752262D01*
X150247738Y-54879816D01*
X150247740Y-54879817D01*
X150247741Y-54879818D01*
X150284983Y-54903219D01*
X150400478Y-54975789D01*
X150440202Y-54989689D01*
X150570738Y-55035366D01*
X150570742Y-55035367D01*
X150570745Y-55035368D01*
X150750000Y-55055565D01*
X150929255Y-55035368D01*
X151099522Y-54975789D01*
X151252262Y-54879816D01*
X151379816Y-54752262D01*
X151475789Y-54599522D01*
X151535368Y-54429255D01*
X151555565Y-54250000D01*
X151554584Y-54241301D01*
X151566853Y-54181363D01*
X151582958Y-54160210D01*
X152438674Y-53304496D01*
X152493190Y-53276719D01*
X152508677Y-53275500D01*
X157174738Y-53275500D01*
X157174754Y-53275501D01*
X157180817Y-53275501D01*
X157319183Y-53275501D01*
X157425786Y-53246936D01*
X157425787Y-53246936D01*
X157452832Y-53239689D01*
X157452831Y-53239689D01*
X157452836Y-53239688D01*
X157572665Y-53170505D01*
X157670505Y-53072665D01*
X157670506Y-53072662D01*
X158052014Y-52691153D01*
X158052018Y-52691151D01*
X158060163Y-52683005D01*
X158060165Y-52683005D01*
X158146686Y-52596483D01*
X158178798Y-52575027D01*
X158240341Y-52549536D01*
X158365782Y-52453282D01*
X158462036Y-52327841D01*
X158522544Y-52181762D01*
X158538000Y-52064361D01*
X158537999Y-51435640D01*
X158522544Y-51318238D01*
X158496224Y-51254695D01*
X158462037Y-51172161D01*
X158462037Y-51172160D01*
X158365786Y-51046723D01*
X158365785Y-51046722D01*
X158365782Y-51046718D01*
X158365777Y-51046714D01*
X158365776Y-51046713D01*
X158240338Y-50950462D01*
X158094266Y-50889957D01*
X158094258Y-50889955D01*
X157976861Y-50874500D01*
X157498142Y-50874500D01*
X157498137Y-50874501D01*
X157380741Y-50889955D01*
X157380733Y-50889957D01*
X157234661Y-50950462D01*
X157234660Y-50950462D01*
X157109223Y-51046713D01*
X157109213Y-51046723D01*
X157012963Y-51172160D01*
X157003964Y-51193886D01*
X156964227Y-51240412D01*
X156904732Y-51254695D01*
X156848204Y-51231280D01*
X156821036Y-51193886D01*
X156813867Y-51176579D01*
X156812036Y-51172159D01*
X156715782Y-51046718D01*
X156715777Y-51046714D01*
X156715776Y-51046713D01*
X156590338Y-50950462D01*
X156444266Y-50889957D01*
X156444258Y-50889955D01*
X156326861Y-50874500D01*
X155848142Y-50874500D01*
X155848137Y-50874501D01*
X155730741Y-50889955D01*
X155730733Y-50889957D01*
X155584661Y-50950462D01*
X155584660Y-50950462D01*
X155459223Y-51046713D01*
X155459213Y-51046723D01*
X155362964Y-51172158D01*
X155361321Y-51175005D01*
X155359572Y-51176579D01*
X155359014Y-51177307D01*
X155358879Y-51177203D01*
X155315849Y-51215943D01*
X155275587Y-51224500D01*
X155247922Y-51224500D01*
X155189731Y-51205593D01*
X155162710Y-51175898D01*
X155124443Y-51111191D01*
X155013809Y-51000557D01*
X155013806Y-51000555D01*
X155013805Y-51000554D01*
X154879141Y-50920914D01*
X154879140Y-50920913D01*
X154879139Y-50920913D01*
X154804015Y-50899088D01*
X154728890Y-50877262D01*
X154706390Y-50875492D01*
X154693787Y-50874500D01*
X154693781Y-50874500D01*
X154131218Y-50874500D01*
X154096108Y-50877263D01*
X154096100Y-50877264D01*
X153945858Y-50920914D01*
X153945857Y-50920914D01*
X153811194Y-51000554D01*
X153811191Y-51000556D01*
X153811191Y-51000557D01*
X153700557Y-51111191D01*
X153700555Y-51111193D01*
X153696153Y-51115596D01*
X153694345Y-51113788D01*
X153652611Y-51142145D01*
X153591456Y-51140217D01*
X153555412Y-51114030D01*
X153553847Y-51115596D01*
X153549444Y-51111193D01*
X153549443Y-51111191D01*
X153438809Y-51000557D01*
X153438806Y-51000555D01*
X153438805Y-51000554D01*
X153304141Y-50920914D01*
X153304140Y-50920913D01*
X153304139Y-50920913D01*
X153229015Y-50899088D01*
X153153890Y-50877262D01*
X153131390Y-50875492D01*
X153118787Y-50874500D01*
X153118781Y-50874500D01*
X152556218Y-50874500D01*
X152521108Y-50877263D01*
X152521100Y-50877264D01*
X152370858Y-50920914D01*
X152370857Y-50920914D01*
X152236194Y-51000554D01*
X152125555Y-51111193D01*
X152072505Y-51200896D01*
X152026609Y-51241358D01*
X151987292Y-51249500D01*
X151684108Y-51249500D01*
X151606200Y-51270375D01*
X151556809Y-51283609D01*
X151477336Y-51329493D01*
X151477337Y-51329494D01*
X151442687Y-51349499D01*
X149621563Y-53170621D01*
X149567046Y-53198398D01*
X149540477Y-53198995D01*
X149500000Y-53194435D01*
X149320742Y-53214632D01*
X149258319Y-53236475D01*
X149197149Y-53237847D01*
X149146855Y-53203002D01*
X149127841Y-53158516D01*
X149119710Y-53107179D01*
X149119709Y-53107177D01*
X149119709Y-53107174D01*
X149058884Y-52919975D01*
X148969524Y-52744595D01*
X148853828Y-52585354D01*
X148714646Y-52446172D01*
X148555405Y-52330476D01*
X148555404Y-52330475D01*
X148555402Y-52330474D01*
X148380025Y-52241116D01*
X148192821Y-52180289D01*
X147998420Y-52149500D01*
X147998417Y-52149500D01*
X147001583Y-52149500D01*
X147001580Y-52149500D01*
X146807178Y-52180289D01*
X146619974Y-52241116D01*
X146444597Y-52330474D01*
X146285355Y-52446171D01*
X146146171Y-52585355D01*
X146030474Y-52744597D01*
X145941116Y-52919974D01*
X145880289Y-53107178D01*
X145849500Y-53301579D01*
X145849500Y-53498420D01*
X140650500Y-53498420D01*
X140650500Y-53301579D01*
X140619710Y-53107178D01*
X140611017Y-53080424D01*
X140558884Y-52919975D01*
X140469524Y-52744595D01*
X140353828Y-52585354D01*
X140214646Y-52446172D01*
X140055405Y-52330476D01*
X140055404Y-52330475D01*
X140055402Y-52330474D01*
X139880025Y-52241116D01*
X139692821Y-52180289D01*
X139498420Y-52149500D01*
X139498417Y-52149500D01*
X138501583Y-52149500D01*
X138501580Y-52149500D01*
X138307178Y-52180289D01*
X138119974Y-52241116D01*
X137944597Y-52330474D01*
X137785355Y-52446171D01*
X137646171Y-52585355D01*
X137530474Y-52744597D01*
X137441116Y-52919974D01*
X137380289Y-53107178D01*
X137349500Y-53301579D01*
X137349500Y-53498420D01*
X132150500Y-53498420D01*
X132150500Y-53301579D01*
X132119710Y-53107178D01*
X132111017Y-53080424D01*
X132058884Y-52919975D01*
X131969524Y-52744595D01*
X131853828Y-52585354D01*
X131714646Y-52446172D01*
X131555405Y-52330476D01*
X131555404Y-52330475D01*
X131555402Y-52330474D01*
X131380025Y-52241116D01*
X131192821Y-52180289D01*
X130998420Y-52149500D01*
X130998417Y-52149500D01*
X130001583Y-52149500D01*
X130001580Y-52149500D01*
X129807178Y-52180289D01*
X129619974Y-52241116D01*
X129444597Y-52330474D01*
X129285355Y-52446171D01*
X129146171Y-52585355D01*
X129030474Y-52744597D01*
X128941116Y-52919974D01*
X128880289Y-53107178D01*
X128849500Y-53301579D01*
X128849500Y-53498420D01*
X123806895Y-53498420D01*
X123806877Y-53498402D01*
X123806873Y-53498399D01*
X123806872Y-53498398D01*
X123651343Y-53389496D01*
X123627639Y-53372898D01*
X123429330Y-53280425D01*
X123429325Y-53280423D01*
X123427827Y-53279725D01*
X123383079Y-53237996D01*
X123371404Y-53177935D01*
X123397262Y-53122482D01*
X123427827Y-53100275D01*
X123429325Y-53099576D01*
X123429330Y-53099575D01*
X123627639Y-53007102D01*
X123806877Y-52881598D01*
X123961598Y-52726877D01*
X124087102Y-52547639D01*
X124179575Y-52349330D01*
X124236207Y-52137977D01*
X124236795Y-52131265D01*
X124255277Y-51920003D01*
X124255277Y-51919996D01*
X124236208Y-51702030D01*
X124236207Y-51702027D01*
X124236207Y-51702023D01*
X124179575Y-51490670D01*
X124119973Y-51362854D01*
X124087107Y-51292372D01*
X124087103Y-51292364D01*
X124086254Y-51291152D01*
X123961598Y-51113123D01*
X123806877Y-50958402D01*
X123806873Y-50958399D01*
X123806872Y-50958398D01*
X123687053Y-50874500D01*
X123627639Y-50832898D01*
X123429330Y-50740425D01*
X123217977Y-50683793D01*
X123217976Y-50683792D01*
X123217969Y-50683791D01*
X123000003Y-50664723D01*
X122999997Y-50664723D01*
X122782030Y-50683791D01*
X122570666Y-50740426D01*
X122372372Y-50832892D01*
X122372364Y-50832896D01*
X122193127Y-50958398D01*
X122038398Y-51113127D01*
X121912896Y-51292364D01*
X121912892Y-51292372D01*
X121820426Y-51490666D01*
X121763791Y-51702030D01*
X121744723Y-51919996D01*
X121744723Y-51920003D01*
X121763791Y-52137969D01*
X121763792Y-52137976D01*
X121763793Y-52137977D01*
X121820425Y-52349330D01*
X121912898Y-52547639D01*
X121939307Y-52585355D01*
X122015396Y-52694022D01*
X122038402Y-52726877D01*
X122193123Y-52881598D01*
X122372361Y-53007102D01*
X122570670Y-53099575D01*
X122570671Y-53099575D01*
X122572172Y-53100275D01*
X122616920Y-53142004D01*
X122628595Y-53202065D01*
X122602737Y-53257518D01*
X122572172Y-53279724D01*
X122372372Y-53372892D01*
X122372364Y-53372896D01*
X122193127Y-53498398D01*
X122038398Y-53653127D01*
X121912896Y-53832364D01*
X121912892Y-53832372D01*
X121820426Y-54030666D01*
X121763791Y-54242030D01*
X121744723Y-54459996D01*
X121744723Y-54460003D01*
X120000000Y-54460003D01*
X120000000Y-50099000D01*
X120018907Y-50040809D01*
X120068407Y-50004845D01*
X120099000Y-50000000D01*
X171901000Y-50000000D01*
X171959191Y-50018907D01*
G37*
%TD.AperFunction*%
%TA.AperFunction,Conductor*%
G36*
X155948267Y-91532407D02*
G01*
X155984231Y-91581907D01*
X155988068Y-91626589D01*
X155986500Y-91637494D01*
X155986500Y-91637498D01*
X155986500Y-91637500D01*
X155986500Y-103876000D01*
X155991740Y-103924737D01*
X155998237Y-103985165D01*
X156009440Y-104036663D01*
X156044109Y-104140825D01*
X156044109Y-104140826D01*
X156044110Y-104140827D01*
X156123129Y-104263782D01*
X156168884Y-104316586D01*
X156279339Y-104412297D01*
X156412287Y-104473014D01*
X156479326Y-104492699D01*
X156479330Y-104492700D01*
X156521325Y-104498737D01*
X156623995Y-104513500D01*
X156624000Y-104513500D01*
X162375996Y-104513500D01*
X162376000Y-104513500D01*
X162485157Y-104501764D01*
X162536668Y-104490558D01*
X162640827Y-104455890D01*
X162763782Y-104376871D01*
X162816586Y-104331116D01*
X162912297Y-104220661D01*
X162973014Y-104087713D01*
X162992699Y-104020674D01*
X162992700Y-104020670D01*
X163005619Y-103930817D01*
X163013500Y-103876005D01*
X163013500Y-91978705D01*
X163032407Y-91920514D01*
X163081907Y-91884550D01*
X163143093Y-91884550D01*
X163182501Y-91908699D01*
X163600582Y-92326780D01*
X163600588Y-92326785D01*
X163600606Y-92326802D01*
X163641472Y-92363510D01*
X163641480Y-92363517D01*
X163648936Y-92369526D01*
X163662117Y-92380148D01*
X163690341Y-92400500D01*
X163706701Y-92412297D01*
X163839649Y-92473014D01*
X163906688Y-92492699D01*
X163906692Y-92492700D01*
X163948687Y-92498737D01*
X164051357Y-92513500D01*
X164051362Y-92513500D01*
X170875996Y-92513500D01*
X170876000Y-92513500D01*
X170985157Y-92501764D01*
X171036668Y-92490558D01*
X171140827Y-92455890D01*
X171263782Y-92376871D01*
X171316586Y-92331116D01*
X171412297Y-92220661D01*
X171412297Y-92220659D01*
X171412300Y-92220657D01*
X171416125Y-92214706D01*
X171418330Y-92216123D01*
X171451818Y-92179636D01*
X171511784Y-92167485D01*
X171567441Y-92192902D01*
X171597528Y-92246179D01*
X171599500Y-92265840D01*
X171599500Y-109378886D01*
X171580593Y-109437077D01*
X171570504Y-109448890D01*
X169948890Y-111070504D01*
X169894373Y-111098281D01*
X169878886Y-111099500D01*
X152621114Y-111099500D01*
X152562923Y-111080593D01*
X152551110Y-111070504D01*
X151029496Y-109548890D01*
X151001719Y-109494373D01*
X151000500Y-109478886D01*
X151000500Y-109381521D01*
X151899500Y-109381521D01*
X151899501Y-109381523D01*
X151914352Y-109475299D01*
X151914354Y-109475304D01*
X151971950Y-109588342D01*
X152061658Y-109678050D01*
X152174696Y-109735646D01*
X152268481Y-109750500D01*
X153231518Y-109750499D01*
X153231521Y-109750499D01*
X153231522Y-109750498D01*
X153278411Y-109743072D01*
X153325299Y-109735647D01*
X153325299Y-109735646D01*
X153325304Y-109735646D01*
X153438342Y-109678050D01*
X153528050Y-109588342D01*
X153585646Y-109475304D01*
X153600500Y-109381519D01*
X153600500Y-108381521D01*
X155399500Y-108381521D01*
X155399501Y-108381523D01*
X155414352Y-108475299D01*
X155414354Y-108475304D01*
X155471950Y-108588342D01*
X155561658Y-108678050D01*
X155674696Y-108735646D01*
X155768481Y-108750500D01*
X156731518Y-108750499D01*
X156731521Y-108750499D01*
X156731522Y-108750498D01*
X156792912Y-108740776D01*
X156825299Y-108735647D01*
X156825299Y-108735646D01*
X156825304Y-108735646D01*
X156938342Y-108678050D01*
X157028050Y-108588342D01*
X157085646Y-108475304D01*
X157100500Y-108381521D01*
X168899500Y-108381521D01*
X168899501Y-108381523D01*
X168914352Y-108475299D01*
X168914354Y-108475304D01*
X168971950Y-108588342D01*
X169061658Y-108678050D01*
X169174696Y-108735646D01*
X169268481Y-108750500D01*
X170231518Y-108750499D01*
X170231521Y-108750499D01*
X170231522Y-108750498D01*
X170292912Y-108740776D01*
X170325299Y-108735647D01*
X170325299Y-108735646D01*
X170325304Y-108735646D01*
X170438342Y-108678050D01*
X170528050Y-108588342D01*
X170585646Y-108475304D01*
X170600500Y-108381519D01*
X170600499Y-106318482D01*
X170600499Y-106318481D01*
X170600499Y-106318478D01*
X170600498Y-106318476D01*
X170585647Y-106224700D01*
X170585646Y-106224698D01*
X170585646Y-106224696D01*
X170528050Y-106111658D01*
X170438342Y-106021950D01*
X170325304Y-105964354D01*
X170325305Y-105964354D01*
X170231521Y-105949500D01*
X169268478Y-105949500D01*
X169268476Y-105949501D01*
X169174700Y-105964352D01*
X169174695Y-105964354D01*
X169061659Y-106021949D01*
X168971949Y-106111659D01*
X168914354Y-106224695D01*
X168899500Y-106318478D01*
X168899500Y-108381521D01*
X157100500Y-108381521D01*
X157100500Y-108381519D01*
X157100499Y-106318482D01*
X157100499Y-106318481D01*
X157100499Y-106318478D01*
X157100498Y-106318476D01*
X157085647Y-106224700D01*
X157085646Y-106224698D01*
X157085646Y-106224696D01*
X157028050Y-106111658D01*
X156938342Y-106021950D01*
X156825304Y-105964354D01*
X156825305Y-105964354D01*
X156731521Y-105949500D01*
X155768478Y-105949500D01*
X155768476Y-105949501D01*
X155674700Y-105964352D01*
X155674695Y-105964354D01*
X155561659Y-106021949D01*
X155471949Y-106111659D01*
X155414354Y-106224695D01*
X155399500Y-106318478D01*
X155399500Y-108381521D01*
X153600500Y-108381521D01*
X153600499Y-107318482D01*
X153600499Y-107318481D01*
X153600499Y-107318478D01*
X153600498Y-107318476D01*
X153585647Y-107224700D01*
X153585646Y-107224698D01*
X153585646Y-107224696D01*
X153528050Y-107111658D01*
X153438342Y-107021950D01*
X153325304Y-106964354D01*
X153325305Y-106964354D01*
X153231521Y-106949500D01*
X152268478Y-106949500D01*
X152268476Y-106949501D01*
X152174700Y-106964352D01*
X152174695Y-106964354D01*
X152061659Y-107021949D01*
X151971949Y-107111659D01*
X151914354Y-107224695D01*
X151899500Y-107318478D01*
X151899500Y-109381521D01*
X151000500Y-109381521D01*
X151000500Y-105612500D01*
X151019407Y-105554309D01*
X151068907Y-105518345D01*
X151099500Y-105513500D01*
X152375996Y-105513500D01*
X152376000Y-105513500D01*
X152485157Y-105501764D01*
X152536668Y-105490558D01*
X152640827Y-105455890D01*
X152763782Y-105376871D01*
X152816586Y-105331116D01*
X152912297Y-105220661D01*
X152973014Y-105087713D01*
X152992699Y-105020674D01*
X152992700Y-105020670D01*
X153002528Y-104952311D01*
X153013500Y-104876005D01*
X153013500Y-91637502D01*
X153013500Y-91637500D01*
X153011950Y-91623080D01*
X153024530Y-91563202D01*
X153069903Y-91522154D01*
X153110383Y-91513500D01*
X155890076Y-91513500D01*
X155948267Y-91532407D01*
G37*
%TD.AperFunction*%
%TA.AperFunction,Conductor*%
G36*
X162664557Y-54912790D02*
G01*
X162671695Y-54917294D01*
X162671715Y-54917261D01*
X162797161Y-54989687D01*
X162797159Y-54989687D01*
X162797163Y-54989688D01*
X162797165Y-54989689D01*
X162930817Y-55025501D01*
X162930819Y-55025501D01*
X163075247Y-55025501D01*
X163075263Y-55025500D01*
X170741323Y-55025500D01*
X170799514Y-55044407D01*
X170811327Y-55054496D01*
X170945504Y-55188673D01*
X170973281Y-55243190D01*
X170974500Y-55258677D01*
X170974500Y-57924737D01*
X170974499Y-57924755D01*
X170974499Y-58069185D01*
X170999467Y-58162361D01*
X170999468Y-58162365D01*
X171010309Y-58202830D01*
X171010310Y-58202832D01*
X171010311Y-58202835D01*
X171010312Y-58202836D01*
X171079495Y-58322665D01*
X171079497Y-58322667D01*
X171177334Y-58420505D01*
X171177335Y-58420505D01*
X171177336Y-58420506D01*
X171677335Y-58920505D01*
X171677337Y-58920506D01*
X171677338Y-58920507D01*
X171677339Y-58920508D01*
X171797161Y-58989687D01*
X171797159Y-58989687D01*
X171797163Y-58989688D01*
X171797165Y-58989689D01*
X171930817Y-59025501D01*
X171930819Y-59025501D01*
X172075246Y-59025501D01*
X172075262Y-59025500D01*
X177321212Y-59025500D01*
X177379403Y-59044407D01*
X177412676Y-59086614D01*
X177440053Y-59152707D01*
X177450464Y-59177841D01*
X177491326Y-59231093D01*
X177540343Y-59294975D01*
X177546718Y-59303282D01*
X177672159Y-59399536D01*
X177683672Y-59404304D01*
X177693886Y-59408536D01*
X177740412Y-59448273D01*
X177754695Y-59507768D01*
X177731280Y-59564296D01*
X177693886Y-59591464D01*
X177672160Y-59600463D01*
X177546723Y-59696713D01*
X177546713Y-59696723D01*
X177450462Y-59822160D01*
X177450462Y-59822161D01*
X177389957Y-59968233D01*
X177389955Y-59968241D01*
X177374500Y-60085637D01*
X177374500Y-60564357D01*
X177374501Y-60564362D01*
X177389955Y-60681758D01*
X177389957Y-60681766D01*
X177450462Y-60827838D01*
X177450462Y-60827839D01*
X177546713Y-60953276D01*
X177546718Y-60953282D01*
X177546722Y-60953285D01*
X177546723Y-60953286D01*
X177580010Y-60978828D01*
X177642613Y-61026865D01*
X177677307Y-61053486D01*
X177675270Y-61056140D01*
X177707245Y-61091163D01*
X177714060Y-61151967D01*
X177683834Y-61205165D01*
X177667480Y-61217266D01*
X177611194Y-61250554D01*
X177500554Y-61361194D01*
X177420914Y-61495857D01*
X177420914Y-61495858D01*
X177377262Y-61646109D01*
X177374500Y-61681218D01*
X177374500Y-62243781D01*
X177377263Y-62278891D01*
X177377264Y-62278899D01*
X177420914Y-62429141D01*
X177420914Y-62429142D01*
X177500554Y-62563805D01*
X177500555Y-62563806D01*
X177500557Y-62563809D01*
X177546389Y-62609641D01*
X177574165Y-62664156D01*
X177564594Y-62724588D01*
X177546388Y-62749647D01*
X177426112Y-62869922D01*
X177337907Y-63012924D01*
X177285056Y-63172419D01*
X177275000Y-63270848D01*
X177275000Y-63287499D01*
X177275001Y-63287500D01*
X179224998Y-63287500D01*
X179224999Y-63287499D01*
X179224999Y-63270849D01*
X179214944Y-63172425D01*
X179214941Y-63172413D01*
X179162092Y-63012924D01*
X179073887Y-62869922D01*
X178953612Y-62749647D01*
X178925835Y-62695130D01*
X178935406Y-62634698D01*
X178953609Y-62609642D01*
X178999443Y-62563809D01*
X179079087Y-62429139D01*
X179122737Y-62278892D01*
X179125500Y-62243787D01*
X179125499Y-61681214D01*
X179122737Y-61646108D01*
X179079087Y-61495861D01*
X179022690Y-61400500D01*
X178999445Y-61361194D01*
X178999444Y-61361193D01*
X178999443Y-61361191D01*
X178888809Y-61250557D01*
X178888806Y-61250555D01*
X178888805Y-61250554D01*
X178832519Y-61217266D01*
X178792057Y-61171370D01*
X178786299Y-61110456D01*
X178817446Y-61057791D01*
X178822991Y-61053875D01*
X178822693Y-61053486D01*
X178827841Y-61049536D01*
X178953282Y-60953282D01*
X179049536Y-60827841D01*
X179110044Y-60681762D01*
X179125500Y-60564361D01*
X179125499Y-60085640D01*
X179110044Y-59968238D01*
X179100698Y-59945674D01*
X179049537Y-59822161D01*
X179049537Y-59822160D01*
X178953286Y-59696723D01*
X178953285Y-59696722D01*
X178953282Y-59696718D01*
X178953277Y-59696714D01*
X178953276Y-59696713D01*
X178827838Y-59600462D01*
X178806114Y-59591464D01*
X178759588Y-59551728D01*
X178745304Y-59492233D01*
X178768718Y-59435705D01*
X178806114Y-59408536D01*
X178819198Y-59403115D01*
X178827841Y-59399536D01*
X178953282Y-59303282D01*
X179049536Y-59177841D01*
X179110044Y-59031762D01*
X179125500Y-58914361D01*
X179125499Y-58435640D01*
X179110044Y-58318238D01*
X179062241Y-58202832D01*
X179049537Y-58172161D01*
X179049536Y-58172160D01*
X179049536Y-58172159D01*
X179039643Y-58159266D01*
X179019220Y-58101590D01*
X179036599Y-58042924D01*
X179085141Y-58005678D01*
X179118186Y-58000000D01*
X179901000Y-58000000D01*
X179959191Y-58018907D01*
X179995155Y-58068407D01*
X180000000Y-58099000D01*
X180000000Y-109901000D01*
X179981093Y-109959191D01*
X179931593Y-109995155D01*
X179901000Y-110000000D01*
X174499501Y-110000000D01*
X174441310Y-109981093D01*
X174405346Y-109931593D01*
X174400501Y-109901000D01*
X174400501Y-109886280D01*
X174400500Y-109886250D01*
X174400500Y-105249500D01*
X174419407Y-105191309D01*
X174468907Y-105155345D01*
X174499500Y-105150500D01*
X174640504Y-105150500D01*
X174698695Y-105169407D01*
X174725716Y-105199104D01*
X174756919Y-105251865D01*
X174873135Y-105368081D01*
X175014602Y-105451744D01*
X175172431Y-105497598D01*
X175209306Y-105500500D01*
X175209311Y-105500500D01*
X176790689Y-105500500D01*
X176790694Y-105500500D01*
X176827569Y-105497598D01*
X176985398Y-105451744D01*
X177126865Y-105368081D01*
X177243081Y-105251865D01*
X177326744Y-105110398D01*
X177372598Y-104952569D01*
X177375500Y-104915694D01*
X177375500Y-103584306D01*
X177372598Y-103547431D01*
X177326744Y-103389602D01*
X177243081Y-103248135D01*
X177126865Y-103131919D01*
X176985398Y-103048256D01*
X176929049Y-103031885D01*
X176878446Y-102997495D01*
X176857720Y-102939927D01*
X176874790Y-102881171D01*
X176898481Y-102856724D01*
X177004461Y-102779725D01*
X177154722Y-102629464D01*
X177279624Y-102457552D01*
X177376095Y-102268215D01*
X177441758Y-102066122D01*
X177452231Y-102000000D01*
X176404146Y-102000000D01*
X176442630Y-101933343D01*
X176475000Y-101812535D01*
X176475000Y-101687465D01*
X176442630Y-101566657D01*
X176404146Y-101500000D01*
X177452231Y-101500000D01*
X177452231Y-101499999D01*
X177441758Y-101433877D01*
X177376095Y-101231784D01*
X177279624Y-101042447D01*
X177154722Y-100870535D01*
X177004464Y-100720277D01*
X176832552Y-100595375D01*
X176643215Y-100498904D01*
X176441121Y-100433240D01*
X176250000Y-100402969D01*
X176250000Y-101345854D01*
X176183343Y-101307370D01*
X176062535Y-101275000D01*
X175937465Y-101275000D01*
X175816657Y-101307370D01*
X175750000Y-101345854D01*
X175750000Y-100402970D01*
X175749999Y-100402969D01*
X175558878Y-100433240D01*
X175356784Y-100498904D01*
X175167447Y-100595375D01*
X174995535Y-100720277D01*
X174845277Y-100870535D01*
X174720375Y-101042447D01*
X174623904Y-101231784D01*
X174593655Y-101324883D01*
X174557691Y-101374383D01*
X174499500Y-101393290D01*
X174441309Y-101374383D01*
X174405345Y-101324883D01*
X174400500Y-101294290D01*
X174400500Y-90526181D01*
X174419407Y-90467990D01*
X174468907Y-90432026D01*
X174530093Y-90432026D01*
X174579593Y-90467990D01*
X174592258Y-90491584D01*
X174666828Y-90691514D01*
X174666832Y-90691522D01*
X174797106Y-90930102D01*
X174797109Y-90930106D01*
X174797113Y-90930113D01*
X174960029Y-91147742D01*
X175152258Y-91339971D01*
X175369887Y-91502887D01*
X175369894Y-91502891D01*
X175369897Y-91502893D01*
X175608477Y-91633167D01*
X175608485Y-91633171D01*
X175608487Y-91633172D01*
X175863199Y-91728175D01*
X176128840Y-91785961D01*
X176400000Y-91805355D01*
X176671160Y-91785961D01*
X176936801Y-91728175D01*
X177191513Y-91633172D01*
X177430113Y-91502887D01*
X177647742Y-91339971D01*
X177839971Y-91147742D01*
X178002887Y-90930113D01*
X178133172Y-90691513D01*
X178228175Y-90436801D01*
X178285961Y-90171160D01*
X178305355Y-89900000D01*
X178285961Y-89628840D01*
X178228175Y-89363199D01*
X178133172Y-89108487D01*
X178133167Y-89108477D01*
X178002893Y-88869897D01*
X178002891Y-88869894D01*
X178002887Y-88869887D01*
X177839971Y-88652258D01*
X177647742Y-88460029D01*
X177430113Y-88297113D01*
X177430106Y-88297109D01*
X177430102Y-88297106D01*
X177191522Y-88166832D01*
X177191514Y-88166828D01*
X176936805Y-88071826D01*
X176936801Y-88071825D01*
X176671160Y-88014039D01*
X176671157Y-88014038D01*
X176671154Y-88014038D01*
X176400000Y-87994645D01*
X176128845Y-88014038D01*
X175863194Y-88071826D01*
X175608485Y-88166828D01*
X175608477Y-88166832D01*
X175369897Y-88297106D01*
X175369889Y-88297111D01*
X175369887Y-88297113D01*
X175283209Y-88362000D01*
X175152260Y-88460027D01*
X174960027Y-88652260D01*
X174929660Y-88692826D01*
X174797480Y-88869398D01*
X174797106Y-88869897D01*
X174666832Y-89108477D01*
X174666828Y-89108486D01*
X174592258Y-89308415D01*
X174554207Y-89356330D01*
X174495260Y-89372727D01*
X174437932Y-89351345D01*
X174404121Y-89300350D01*
X174400500Y-89273818D01*
X174400500Y-66046704D01*
X174400501Y-66046679D01*
X174400501Y-65822156D01*
X174366015Y-65604431D01*
X174366015Y-65604429D01*
X174297896Y-65394775D01*
X174280098Y-65359845D01*
X174197821Y-65198368D01*
X174197813Y-65198354D01*
X174139783Y-65118483D01*
X174139780Y-65118480D01*
X174068246Y-65020020D01*
X174068244Y-65020018D01*
X174068242Y-65020015D01*
X173912365Y-64864138D01*
X173912361Y-64864135D01*
X173229495Y-64181269D01*
X173201718Y-64126752D01*
X173200499Y-64111265D01*
X173200499Y-64100858D01*
X173200498Y-64100856D01*
X173185647Y-64007080D01*
X173185646Y-64007078D01*
X173185646Y-64007076D01*
X173128050Y-63894038D01*
X173038342Y-63804330D01*
X173037989Y-63804150D01*
X177275001Y-63804150D01*
X177285055Y-63902574D01*
X177285058Y-63902586D01*
X177337907Y-64062075D01*
X177426112Y-64205077D01*
X177544922Y-64323887D01*
X177687924Y-64412092D01*
X177847419Y-64464943D01*
X177945849Y-64474999D01*
X177999999Y-64474998D01*
X178000000Y-64474998D01*
X178500000Y-64474998D01*
X178500001Y-64474999D01*
X178554150Y-64474999D01*
X178652574Y-64464944D01*
X178652586Y-64464941D01*
X178812075Y-64412092D01*
X178955077Y-64323887D01*
X179073887Y-64205077D01*
X179162092Y-64062075D01*
X179214943Y-63902580D01*
X179225000Y-63804151D01*
X179225000Y-63787501D01*
X179224999Y-63787500D01*
X178500001Y-63787500D01*
X178500000Y-63787501D01*
X178500000Y-64474998D01*
X178000000Y-64474998D01*
X178000000Y-63787501D01*
X177999999Y-63787500D01*
X177275002Y-63787500D01*
X177275001Y-63787501D01*
X177275001Y-63804150D01*
X173037989Y-63804150D01*
X172925304Y-63746734D01*
X172925305Y-63746734D01*
X172831522Y-63731880D01*
X172831519Y-63731880D01*
X172752520Y-63731880D01*
X172707575Y-63721089D01*
X172537609Y-63634486D01*
X172537605Y-63634484D01*
X172327947Y-63566363D01*
X172310483Y-63563598D01*
X172310481Y-63563597D01*
X172310481Y-63563598D01*
X172110225Y-63531879D01*
X172110222Y-63531879D01*
X171889778Y-63531879D01*
X171885700Y-63531879D01*
X171885676Y-63531880D01*
X166667395Y-63531880D01*
X166455429Y-63565452D01*
X166446536Y-63566451D01*
X166343457Y-63573331D01*
X166343455Y-63573331D01*
X166323396Y-63577595D01*
X166291012Y-63579052D01*
X166253108Y-63574500D01*
X166253102Y-63574500D01*
X165866898Y-63574500D01*
X165866893Y-63574500D01*
X165778434Y-63585123D01*
X165637660Y-63640637D01*
X165637656Y-63640640D01*
X165517081Y-63732075D01*
X165517075Y-63732081D01*
X165503884Y-63749477D01*
X165453657Y-63784420D01*
X165392485Y-63783166D01*
X165346116Y-63749477D01*
X165332924Y-63732081D01*
X165332922Y-63732078D01*
X165212342Y-63640639D01*
X165212341Y-63640638D01*
X165212339Y-63640637D01*
X165071565Y-63585123D01*
X164983106Y-63574500D01*
X164983102Y-63574500D01*
X164596898Y-63574500D01*
X164596893Y-63574500D01*
X164508434Y-63585123D01*
X164367660Y-63640637D01*
X164367656Y-63640640D01*
X164247081Y-63732075D01*
X164247075Y-63732081D01*
X164233884Y-63749477D01*
X164183657Y-63784420D01*
X164122485Y-63783166D01*
X164076116Y-63749477D01*
X164062924Y-63732081D01*
X164062922Y-63732078D01*
X163942342Y-63640639D01*
X163942341Y-63640638D01*
X163942339Y-63640637D01*
X163801565Y-63585123D01*
X163713106Y-63574500D01*
X163713102Y-63574500D01*
X163326898Y-63574500D01*
X163326893Y-63574500D01*
X163238434Y-63585123D01*
X163097660Y-63640637D01*
X163097656Y-63640640D01*
X162977081Y-63732075D01*
X162977075Y-63732081D01*
X162963884Y-63749477D01*
X162913657Y-63784420D01*
X162852485Y-63783166D01*
X162806116Y-63749477D01*
X162792924Y-63732081D01*
X162792922Y-63732078D01*
X162672342Y-63640639D01*
X162672341Y-63640638D01*
X162672339Y-63640637D01*
X162531565Y-63585123D01*
X162443106Y-63574500D01*
X162443102Y-63574500D01*
X162056898Y-63574500D01*
X162056893Y-63574500D01*
X161968434Y-63585123D01*
X161827660Y-63640637D01*
X161827656Y-63640640D01*
X161707081Y-63732075D01*
X161707075Y-63732081D01*
X161615640Y-63852656D01*
X161615637Y-63852660D01*
X161560123Y-63993434D01*
X161549500Y-64081893D01*
X161549500Y-64250500D01*
X161530593Y-64308691D01*
X161481093Y-64344655D01*
X161450500Y-64349500D01*
X161339743Y-64349500D01*
X161281552Y-64330593D01*
X161269739Y-64320504D01*
X160629496Y-63680261D01*
X160601719Y-63625744D01*
X160600500Y-63610257D01*
X160600500Y-60868106D01*
X164089500Y-60868106D01*
X164100123Y-60956565D01*
X164155637Y-61097339D01*
X164155638Y-61097341D01*
X164155639Y-61097342D01*
X164247078Y-61217922D01*
X164367658Y-61309361D01*
X164367659Y-61309361D01*
X164367660Y-61309362D01*
X164379305Y-61313954D01*
X164508436Y-61364877D01*
X164596898Y-61375500D01*
X164596900Y-61375500D01*
X164983100Y-61375500D01*
X164983102Y-61375500D01*
X165071564Y-61364877D01*
X165082285Y-61360648D01*
X165143353Y-61356888D01*
X165149196Y-61358589D01*
X165157212Y-61361194D01*
X165172049Y-61366015D01*
X165389775Y-61400500D01*
X165389778Y-61400500D01*
X167110225Y-61400500D01*
X167219086Y-61383257D01*
X167327951Y-61366015D01*
X167537606Y-61297895D01*
X167734022Y-61197815D01*
X167912365Y-61068242D01*
X168068242Y-60912365D01*
X168197815Y-60734022D01*
X168297895Y-60537606D01*
X168366015Y-60327951D01*
X168396108Y-60137954D01*
X168400500Y-60110225D01*
X168400500Y-57364324D01*
X168400501Y-57364299D01*
X168400501Y-57139775D01*
X168367239Y-56929778D01*
X168366015Y-56922049D01*
X168358688Y-56899497D01*
X168358688Y-56899498D01*
X168297897Y-56712400D01*
X168297896Y-56712399D01*
X168297895Y-56712394D01*
X168197815Y-56515978D01*
X168068242Y-56337635D01*
X167912365Y-56181758D01*
X167912361Y-56181755D01*
X167858244Y-56127638D01*
X167858242Y-56127635D01*
X167702365Y-55971758D01*
X167524022Y-55842185D01*
X167524021Y-55842184D01*
X167524019Y-55842183D01*
X167434825Y-55796736D01*
X167327606Y-55742105D01*
X167327602Y-55742104D01*
X167327599Y-55742102D01*
X167117949Y-55673984D01*
X166900225Y-55639499D01*
X166900222Y-55639499D01*
X166679778Y-55639499D01*
X166675700Y-55639499D01*
X166675676Y-55639500D01*
X165383950Y-55639500D01*
X165275543Y-55657589D01*
X165274737Y-55657720D01*
X165172047Y-55673985D01*
X165168265Y-55674893D01*
X165168242Y-55674797D01*
X165159241Y-55676997D01*
X165155018Y-55677702D01*
X165057030Y-55711340D01*
X165055480Y-55711858D01*
X164962401Y-55742102D01*
X164962393Y-55742105D01*
X164958211Y-55744236D01*
X164945426Y-55749655D01*
X164935497Y-55753063D01*
X164849818Y-55799429D01*
X164847649Y-55800568D01*
X164765976Y-55842185D01*
X164765973Y-55842187D01*
X164757152Y-55848596D01*
X164746087Y-55855567D01*
X164731371Y-55863531D01*
X164659370Y-55919571D01*
X164656755Y-55921538D01*
X164587636Y-55971756D01*
X164575521Y-55983870D01*
X164566335Y-55991982D01*
X164548223Y-56006081D01*
X164548218Y-56006085D01*
X164490621Y-56068651D01*
X164487790Y-56071601D01*
X164431753Y-56127639D01*
X164418026Y-56146532D01*
X164410776Y-56155386D01*
X164391020Y-56176847D01*
X164391018Y-56176850D01*
X164347891Y-56242860D01*
X164345106Y-56246900D01*
X164302186Y-56305976D01*
X164288755Y-56332332D01*
X164283429Y-56341527D01*
X164264075Y-56371151D01*
X164264074Y-56371153D01*
X164234896Y-56437671D01*
X164232446Y-56442845D01*
X164202105Y-56502394D01*
X164202104Y-56502396D01*
X164202104Y-56502397D01*
X164202102Y-56502401D01*
X164191045Y-56536427D01*
X164187555Y-56545593D01*
X164170848Y-56583685D01*
X164170842Y-56583702D01*
X164154531Y-56648109D01*
X164152716Y-56654394D01*
X164133986Y-56712041D01*
X164133984Y-56712053D01*
X164127416Y-56753517D01*
X164125606Y-56762329D01*
X164113866Y-56808692D01*
X164108889Y-56868743D01*
X164108008Y-56876052D01*
X164099500Y-56929774D01*
X164099500Y-56977975D01*
X164099162Y-56986150D01*
X164094700Y-57039999D01*
X164099162Y-57093848D01*
X164099500Y-57102023D01*
X164099500Y-59042698D01*
X164098794Y-59054502D01*
X164089500Y-59131893D01*
X164089500Y-60868106D01*
X160600500Y-60868106D01*
X160600500Y-59420944D01*
X160600500Y-59420943D01*
X160582944Y-59355423D01*
X160559577Y-59268215D01*
X160528641Y-59214632D01*
X160526049Y-59210143D01*
X160507398Y-59177838D01*
X160480520Y-59131284D01*
X160368716Y-59019480D01*
X160368713Y-59019478D01*
X159484924Y-58135689D01*
X159457147Y-58081172D01*
X159466718Y-58020740D01*
X159484924Y-57995681D01*
X160768206Y-56712400D01*
X162068242Y-55412364D01*
X162549608Y-54930996D01*
X162604125Y-54903219D01*
X162664557Y-54912790D01*
G37*
%TD.AperFunction*%
%TA.AperFunction,Conductor*%
G36*
X153937077Y-58919407D02*
G01*
X153948890Y-58929496D01*
X154749376Y-59729982D01*
X154749379Y-59729986D01*
X154905256Y-59885863D01*
X154905259Y-59885865D01*
X154905261Y-59885867D01*
X154978788Y-59939286D01*
X155018636Y-59968238D01*
X155033528Y-59979057D01*
X155033529Y-59979059D01*
X155083595Y-60015434D01*
X155083599Y-60015436D01*
X155280015Y-60115516D01*
X155489669Y-60183636D01*
X155576761Y-60197430D01*
X155707396Y-60218121D01*
X155707399Y-60218121D01*
X155927842Y-60218121D01*
X156389778Y-60218121D01*
X156568055Y-60218121D01*
X156568079Y-60218122D01*
X156572157Y-60218122D01*
X156792604Y-60218122D01*
X156923238Y-60197430D01*
X157010330Y-60183636D01*
X157219985Y-60115516D01*
X157416401Y-60015436D01*
X157445274Y-59994457D01*
X157458511Y-59986346D01*
X157496301Y-59967091D01*
X157538337Y-59945674D01*
X157538337Y-59945673D01*
X157538342Y-59945671D01*
X157628050Y-59855963D01*
X157628052Y-59855958D01*
X157632516Y-59849815D01*
X157642603Y-59838002D01*
X157750621Y-59729986D01*
X157750622Y-59729983D01*
X157756257Y-59724349D01*
X157756261Y-59724344D01*
X158495681Y-58984924D01*
X158550198Y-58957147D01*
X158610630Y-58966718D01*
X158635689Y-58984924D01*
X159370504Y-59719739D01*
X159398281Y-59774256D01*
X159399500Y-59789743D01*
X159399500Y-63814863D01*
X159399499Y-63814881D01*
X159399499Y-63820943D01*
X159399499Y-63979057D01*
X159440423Y-64131785D01*
X159440424Y-64131788D01*
X159458238Y-64162641D01*
X159458239Y-64162644D01*
X159475662Y-64192821D01*
X159519480Y-64268716D01*
X159631284Y-64380520D01*
X159631286Y-64380521D01*
X160569478Y-65318713D01*
X160569480Y-65318716D01*
X160681284Y-65430520D01*
X160681286Y-65430521D01*
X160749631Y-65469980D01*
X160749635Y-65469982D01*
X160749642Y-65469986D01*
X160818215Y-65509577D01*
X160970942Y-65550500D01*
X160970943Y-65550500D01*
X161450500Y-65550500D01*
X161508691Y-65569407D01*
X161544655Y-65618907D01*
X161549500Y-65649500D01*
X161549500Y-65818106D01*
X161560123Y-65906565D01*
X161615637Y-66047339D01*
X161615638Y-66047341D01*
X161615639Y-66047342D01*
X161707078Y-66167922D01*
X161827658Y-66259361D01*
X161827659Y-66259361D01*
X161827660Y-66259362D01*
X161898047Y-66287119D01*
X161968436Y-66314877D01*
X162056898Y-66325500D01*
X162056900Y-66325500D01*
X162443100Y-66325500D01*
X162443102Y-66325500D01*
X162531564Y-66314877D01*
X162672342Y-66259361D01*
X162792922Y-66167922D01*
X162806117Y-66150521D01*
X162856341Y-66115580D01*
X162917513Y-66116832D01*
X162963882Y-66150521D01*
X162977078Y-66167922D01*
X163097658Y-66259361D01*
X163097659Y-66259361D01*
X163097660Y-66259362D01*
X163168047Y-66287119D01*
X163238436Y-66314877D01*
X163326898Y-66325500D01*
X163326900Y-66325500D01*
X163713100Y-66325500D01*
X163713102Y-66325500D01*
X163801564Y-66314877D01*
X163942342Y-66259361D01*
X164062922Y-66167922D01*
X164076117Y-66150521D01*
X164126341Y-66115580D01*
X164187513Y-66116832D01*
X164233882Y-66150521D01*
X164247078Y-66167922D01*
X164367658Y-66259361D01*
X164367659Y-66259361D01*
X164367660Y-66259362D01*
X164438047Y-66287119D01*
X164508436Y-66314877D01*
X164596898Y-66325500D01*
X164596900Y-66325500D01*
X164983100Y-66325500D01*
X164983102Y-66325500D01*
X165071564Y-66314877D01*
X165212342Y-66259361D01*
X165332922Y-66167922D01*
X165346117Y-66150521D01*
X165396341Y-66115580D01*
X165457513Y-66116832D01*
X165503882Y-66150521D01*
X165517078Y-66167922D01*
X165517081Y-66167924D01*
X165517082Y-66167925D01*
X165536953Y-66182994D01*
X165551949Y-66197042D01*
X165568884Y-66216586D01*
X165679339Y-66312297D01*
X165812287Y-66373014D01*
X165879326Y-66392699D01*
X165879330Y-66392700D01*
X165921325Y-66398737D01*
X166023995Y-66413500D01*
X166024000Y-66413500D01*
X166475996Y-66413500D01*
X166476000Y-66413500D01*
X166585157Y-66401764D01*
X166636668Y-66390558D01*
X166740827Y-66355890D01*
X166752177Y-66348595D01*
X166805700Y-66332880D01*
X171378886Y-66332880D01*
X171437077Y-66351787D01*
X171448890Y-66361876D01*
X171570504Y-66483490D01*
X171598281Y-66538007D01*
X171599500Y-66553494D01*
X171599500Y-85400500D01*
X171580593Y-85458691D01*
X171531093Y-85494655D01*
X171500500Y-85499500D01*
X154930585Y-85499500D01*
X154872394Y-85480593D01*
X154839923Y-85440268D01*
X154835924Y-85431151D01*
X154708979Y-85236847D01*
X154551784Y-85066087D01*
X154426061Y-84968233D01*
X154368629Y-84923532D01*
X154368621Y-84923527D01*
X154252380Y-84860619D01*
X154210202Y-84816295D01*
X154200500Y-84773552D01*
X154200500Y-78689743D01*
X154219407Y-78631552D01*
X154229496Y-78619739D01*
X155779231Y-77070004D01*
X157380520Y-75468716D01*
X157459577Y-75331784D01*
X157500501Y-75179057D01*
X157500501Y-75020942D01*
X157500501Y-75014880D01*
X157500500Y-75014862D01*
X157500500Y-69425097D01*
X157519407Y-69366906D01*
X157529490Y-69355099D01*
X157623170Y-69261420D01*
X157703618Y-69125390D01*
X157747709Y-68973627D01*
X157750500Y-68938163D01*
X157750499Y-68061838D01*
X157747709Y-68026373D01*
X157703618Y-67874610D01*
X157667805Y-67814054D01*
X157623172Y-67738583D01*
X157623171Y-67738582D01*
X157623170Y-67738580D01*
X157511420Y-67626830D01*
X157511417Y-67626828D01*
X157511416Y-67626827D01*
X157375392Y-67546383D01*
X157375391Y-67546382D01*
X157375390Y-67546382D01*
X157299508Y-67524336D01*
X157223625Y-67502290D01*
X157200894Y-67500502D01*
X157188163Y-67499500D01*
X157188157Y-67499500D01*
X156611842Y-67499500D01*
X156576373Y-67502291D01*
X156576368Y-67502292D01*
X156424606Y-67546383D01*
X156288582Y-67626828D01*
X156288579Y-67626830D01*
X156274292Y-67641117D01*
X156219774Y-67668894D01*
X156159343Y-67659320D01*
X156134286Y-67641116D01*
X155670505Y-67177335D01*
X155670505Y-67177334D01*
X155572667Y-67079497D01*
X155572665Y-67079495D01*
X155452836Y-67010312D01*
X155452834Y-67010311D01*
X155452832Y-67010310D01*
X155416671Y-67000621D01*
X155416670Y-67000621D01*
X155319185Y-66974499D01*
X155319183Y-66974499D01*
X155180817Y-66974499D01*
X155174754Y-66974499D01*
X155174738Y-66974500D01*
X151008678Y-66974500D01*
X150950487Y-66955593D01*
X150938674Y-66945504D01*
X150804496Y-66811326D01*
X150776719Y-66756809D01*
X150775500Y-66741322D01*
X150775500Y-60647585D01*
X150794407Y-60589394D01*
X150804490Y-60577587D01*
X150879816Y-60502262D01*
X150975789Y-60349522D01*
X151035368Y-60179255D01*
X151055565Y-60000000D01*
X151035368Y-59820745D01*
X150975789Y-59650478D01*
X150944362Y-59600463D01*
X150879818Y-59497741D01*
X150879817Y-59497740D01*
X150879816Y-59497738D01*
X150752262Y-59370184D01*
X150752259Y-59370182D01*
X150752258Y-59370181D01*
X150599523Y-59274211D01*
X150429261Y-59214633D01*
X150429257Y-59214632D01*
X150303829Y-59200500D01*
X150250000Y-59194435D01*
X150249999Y-59194435D01*
X150110584Y-59210143D01*
X150050642Y-59197869D01*
X150009362Y-59152707D01*
X150000500Y-59111765D01*
X150000500Y-59109311D01*
X149997598Y-59072434D01*
X149997598Y-59072431D01*
X149985784Y-59031766D01*
X149984434Y-59027120D01*
X149986356Y-58965965D01*
X150023857Y-58917619D01*
X150079503Y-58900500D01*
X153878886Y-58900500D01*
X153937077Y-58919407D01*
G37*
%TD.AperFunction*%
%TD*%
%TA.AperFunction,Conductor*%
%TO.N,/Vout-*%
G36*
X153060785Y-87509439D02*
G01*
X153132405Y-87539105D01*
X153326480Y-87585698D01*
X153363289Y-87594535D01*
X153600000Y-87613165D01*
X153836711Y-87594535D01*
X154067594Y-87539105D01*
X154110097Y-87521500D01*
X154139215Y-87509439D01*
X154186668Y-87500000D01*
X170876000Y-87500000D01*
X170943039Y-87519685D01*
X170988794Y-87572489D01*
X171000000Y-87624000D01*
X171000000Y-91876000D01*
X170980315Y-91943039D01*
X170927511Y-91988794D01*
X170876000Y-92000000D01*
X164051362Y-92000000D01*
X163984323Y-91980315D01*
X163963681Y-91963681D01*
X163000000Y-91000000D01*
X146500000Y-91000000D01*
X146499999Y-91000000D01*
X145500000Y-91999999D01*
X145500000Y-104876000D01*
X145480315Y-104943039D01*
X145427511Y-104988794D01*
X145376000Y-105000000D01*
X140124000Y-105000000D01*
X140056961Y-104980315D01*
X140011206Y-104927511D01*
X140000000Y-104876000D01*
X140000000Y-92064970D01*
X140019685Y-91997931D01*
X140053418Y-91963018D01*
X146468153Y-87522048D01*
X146534477Y-87500073D01*
X146538735Y-87500000D01*
X153013332Y-87500000D01*
X153060785Y-87509439D01*
G37*
%TD.AperFunction*%
%TD*%
%TA.AperFunction,Conductor*%
%TO.N,+BATT*%
G36*
X152443039Y-91533185D02*
G01*
X152488794Y-91585989D01*
X152500000Y-91637500D01*
X152500000Y-104876000D01*
X152480315Y-104943039D01*
X152427511Y-104988794D01*
X152376000Y-105000000D01*
X146624000Y-105000000D01*
X146556961Y-104980315D01*
X146511206Y-104927511D01*
X146500000Y-104876000D01*
X146500000Y-91777559D01*
X146519685Y-91710520D01*
X146536319Y-91689878D01*
X146676378Y-91549819D01*
X146737701Y-91516334D01*
X146764059Y-91513500D01*
X152376000Y-91513500D01*
X152443039Y-91533185D01*
G37*
%TD.AperFunction*%
%TD*%
%TA.AperFunction,Conductor*%
%TO.N,Net-(J1-Pin_2)*%
G36*
X162443039Y-91533185D02*
G01*
X162488794Y-91585989D01*
X162500000Y-91637500D01*
X162500000Y-103876000D01*
X162480315Y-103943039D01*
X162427511Y-103988794D01*
X162376000Y-104000000D01*
X156624000Y-104000000D01*
X156556961Y-103980315D01*
X156511206Y-103927511D01*
X156500000Y-103876000D01*
X156500000Y-91637500D01*
X156519685Y-91570461D01*
X156572489Y-91524706D01*
X156624000Y-91513500D01*
X162376000Y-91513500D01*
X162443039Y-91533185D01*
G37*
%TD.AperFunction*%
%TD*%
%TA.AperFunction,Conductor*%
%TO.N,+BATT*%
G36*
X166519886Y-64080926D02*
G01*
X166575619Y-64123063D01*
X166599725Y-64188642D01*
X166600000Y-64196900D01*
X166600000Y-65776000D01*
X166580315Y-65843039D01*
X166527511Y-65888794D01*
X166476000Y-65900000D01*
X166024000Y-65900000D01*
X165956961Y-65880315D01*
X165911206Y-65827511D01*
X165900000Y-65776000D01*
X165900000Y-64218156D01*
X165919685Y-64151117D01*
X165972489Y-64105362D01*
X166041647Y-64095418D01*
X166049767Y-64096863D01*
X166104513Y-64108500D01*
X166104514Y-64108500D01*
X166295486Y-64108500D01*
X166295487Y-64108500D01*
X166450220Y-64075610D01*
X166519886Y-64080926D01*
G37*
%TD.AperFunction*%
%TD*%
M02*
