%TF.GenerationSoftware,KiCad,Pcbnew,8.0.1*%
%TF.CreationDate,2024-08-29T16:15:39+09:00*%
%TF.ProjectId,PW-3-mini2-v1,50572d33-2d6d-4696-9e69-322d76312e6b,rev?*%
%TF.SameCoordinates,Original*%
%TF.FileFunction,Soldermask,Top*%
%TF.FilePolarity,Negative*%
%FSLAX46Y46*%
G04 Gerber Fmt 4.6, Leading zero omitted, Abs format (unit mm)*
G04 Created by KiCad (PCBNEW 8.0.1) date 2024-08-29 16:15:39*
%MOMM*%
%LPD*%
G01*
G04 APERTURE LIST*
G04 Aperture macros list*
%AMRoundRect*
0 Rectangle with rounded corners*
0 $1 Rounding radius*
0 $2 $3 $4 $5 $6 $7 $8 $9 X,Y pos of 4 corners*
0 Add a 4 corners polygon primitive as box body*
4,1,4,$2,$3,$4,$5,$6,$7,$8,$9,$2,$3,0*
0 Add four circle primitives for the rounded corners*
1,1,$1+$1,$2,$3*
1,1,$1+$1,$4,$5*
1,1,$1+$1,$6,$7*
1,1,$1+$1,$8,$9*
0 Add four rect primitives between the rounded corners*
20,1,$1+$1,$2,$3,$4,$5,0*
20,1,$1+$1,$4,$5,$6,$7,0*
20,1,$1+$1,$6,$7,$8,$9,0*
20,1,$1+$1,$8,$9,$2,$3,0*%
%AMFreePoly0*
4,1,19,0.500000,-0.750000,0.000000,-0.750000,0.000000,-0.744911,-0.071157,-0.744911,-0.207708,-0.704816,-0.327430,-0.627875,-0.420627,-0.520320,-0.479746,-0.390866,-0.500000,-0.250000,-0.500000,0.250000,-0.479746,0.390866,-0.420627,0.520320,-0.327430,0.627875,-0.207708,0.704816,-0.071157,0.744911,0.000000,0.744911,0.000000,0.750000,0.500000,0.750000,0.500000,-0.750000,0.500000,-0.750000,
$1*%
%AMFreePoly1*
4,1,19,0.000000,0.744911,0.071157,0.744911,0.207708,0.704816,0.327430,0.627875,0.420627,0.520320,0.479746,0.390866,0.500000,0.250000,0.500000,-0.250000,0.479746,-0.390866,0.420627,-0.520320,0.327430,-0.627875,0.207708,-0.704816,0.071157,-0.744911,0.000000,-0.744911,0.000000,-0.750000,-0.500000,-0.750000,-0.500000,0.750000,0.000000,0.750000,0.000000,0.744911,0.000000,0.744911,
$1*%
G04 Aperture macros list end*
%ADD10R,1.700000X1.700000*%
%ADD11O,1.700000X1.700000*%
%ADD12RoundRect,0.150000X0.150000X-0.587500X0.150000X0.587500X-0.150000X0.587500X-0.150000X-0.587500X0*%
%ADD13FreePoly0,0.000000*%
%ADD14FreePoly1,0.000000*%
%ADD15RoundRect,0.200000X0.275000X-0.200000X0.275000X0.200000X-0.275000X0.200000X-0.275000X-0.200000X0*%
%ADD16RoundRect,0.150000X0.150000X-0.512500X0.150000X0.512500X-0.150000X0.512500X-0.150000X-0.512500X0*%
%ADD17RoundRect,0.225000X0.225000X0.250000X-0.225000X0.250000X-0.225000X-0.250000X0.225000X-0.250000X0*%
%ADD18R,1.600000X1.600000*%
%ADD19C,1.600000*%
%ADD20RoundRect,0.225000X-0.250000X0.225000X-0.250000X-0.225000X0.250000X-0.225000X0.250000X0.225000X0*%
%ADD21RoundRect,0.200000X-0.275000X0.200000X-0.275000X-0.200000X0.275000X-0.200000X0.275000X0.200000X0*%
%ADD22O,2.000000X2.800000*%
%ADD23RoundRect,0.250000X-0.725000X0.600000X-0.725000X-0.600000X0.725000X-0.600000X0.725000X0.600000X0*%
%ADD24O,1.950000X1.700000*%
%ADD25R,0.900000X2.000000*%
%ADD26RoundRect,1.025000X1.025000X1.025000X-1.025000X1.025000X-1.025000X-1.025000X1.025000X-1.025000X0*%
%ADD27C,4.100000*%
%ADD28RoundRect,0.250000X0.725000X-0.600000X0.725000X0.600000X-0.725000X0.600000X-0.725000X-0.600000X0*%
%ADD29RoundRect,0.010000X-0.190000X-0.540000X0.190000X-0.540000X0.190000X0.540000X-0.190000X0.540000X0*%
%ADD30RoundRect,0.010000X0.190000X0.540000X-0.190000X0.540000X-0.190000X-0.540000X0.190000X-0.540000X0*%
%ADD31RoundRect,0.007500X-0.142500X-0.542500X0.142500X-0.542500X0.142500X0.542500X-0.142500X0.542500X0*%
%ADD32RoundRect,0.007500X0.142500X0.542500X-0.142500X0.542500X-0.142500X-0.542500X0.142500X-0.542500X0*%
%ADD33C,4.400000*%
%ADD34RoundRect,0.200000X0.200000X0.275000X-0.200000X0.275000X-0.200000X-0.275000X0.200000X-0.275000X0*%
%ADD35RoundRect,0.225000X-0.225000X-0.250000X0.225000X-0.250000X0.225000X0.250000X-0.225000X0.250000X0*%
%ADD36C,3.200000*%
%ADD37C,2.000000*%
%ADD38RoundRect,0.150000X0.150000X-0.825000X0.150000X0.825000X-0.150000X0.825000X-0.150000X-0.825000X0*%
%ADD39RoundRect,0.218750X-0.218750X-0.256250X0.218750X-0.256250X0.218750X0.256250X-0.218750X0.256250X0*%
%ADD40O,2.800000X2.000000*%
%ADD41RoundRect,0.250000X0.600000X0.725000X-0.600000X0.725000X-0.600000X-0.725000X0.600000X-0.725000X0*%
%ADD42O,1.700000X1.950000*%
%ADD43R,1.500000X1.500000*%
%ADD44C,1.500000*%
%ADD45C,3.000000*%
%ADD46RoundRect,0.218750X0.256250X-0.218750X0.256250X0.218750X-0.256250X0.218750X-0.256250X-0.218750X0*%
%ADD47O,2.300000X1.200000*%
%ADD48RoundRect,0.500000X0.500000X0.500000X-0.500000X0.500000X-0.500000X-0.500000X0.500000X-0.500000X0*%
%ADD49RoundRect,0.225000X0.225000X0.375000X-0.225000X0.375000X-0.225000X-0.375000X0.225000X-0.375000X0*%
G04 APERTURE END LIST*
D10*
%TO.C,SW2*%
X115500000Y-102540000D03*
D11*
X115500000Y-100000000D03*
X115500000Y-97460000D03*
%TD*%
D12*
%TO.C,Q1*%
X128550000Y-89500000D03*
X130450000Y-89500000D03*
X129500000Y-87625000D03*
%TD*%
D13*
%TO.C,JP10*%
X129200000Y-77000000D03*
D14*
X130500000Y-77000000D03*
%TD*%
D15*
%TO.C,R6*%
X119000000Y-97825000D03*
X119000000Y-96175000D03*
%TD*%
D16*
%TO.C,U1*%
X139006249Y-85750000D03*
X139956249Y-85750000D03*
X140906249Y-85750000D03*
X140906249Y-83475000D03*
X139006249Y-83475000D03*
%TD*%
D17*
%TO.C,C1*%
X140676249Y-88505000D03*
X139126249Y-88505000D03*
%TD*%
D15*
%TO.C,R1*%
X130500000Y-93500000D03*
X130500000Y-91850000D03*
%TD*%
D18*
%TO.C,C5*%
X156500000Y-58817621D03*
D19*
X156500000Y-61317621D03*
%TD*%
D20*
%TO.C,C3*%
X144750000Y-71725000D03*
X144750000Y-73275000D03*
%TD*%
D15*
%TO.C,R3*%
X130500000Y-85325000D03*
X130500000Y-83675000D03*
%TD*%
D21*
%TO.C,R8*%
X117000000Y-106462500D03*
X117000000Y-108112500D03*
%TD*%
D22*
%TO.C,J8*%
X115500000Y-63500000D03*
D23*
X122000000Y-62250000D03*
D24*
X122000000Y-64750000D03*
%TD*%
D25*
%TO.C,J1*%
X169750000Y-107350000D03*
X156250000Y-107350000D03*
D26*
X166600000Y-101350000D03*
D27*
X159400000Y-101350000D03*
%TD*%
D28*
%TO.C,J10*%
X176000000Y-104250000D03*
D24*
X176000000Y-101750000D03*
%TD*%
D29*
%TO.C,U2*%
X137700000Y-70550000D03*
D30*
X137700000Y-74450000D03*
D31*
X138250000Y-70550000D03*
D32*
X138250000Y-74450000D03*
D31*
X138750000Y-70550000D03*
D32*
X138750000Y-74450000D03*
D31*
X139250000Y-70550000D03*
D32*
X139250000Y-74450000D03*
D31*
X139750000Y-70550000D03*
D32*
X139750000Y-74450000D03*
D31*
X140250000Y-70550000D03*
D32*
X140250000Y-74450000D03*
D31*
X140750000Y-70550000D03*
D32*
X140750000Y-74450000D03*
D31*
X141250000Y-70550000D03*
D32*
X141250000Y-74450000D03*
D31*
X141750000Y-70550000D03*
D32*
X141750000Y-74450000D03*
D33*
X129500000Y-97400000D03*
X129000000Y-72000000D03*
D29*
X142300000Y-70550000D03*
D30*
X142300000Y-74450000D03*
%TD*%
D34*
%TO.C,R5*%
X157737500Y-51750000D03*
X156087500Y-51750000D03*
%TD*%
D35*
%TO.C,C2*%
X139131249Y-80750000D03*
X140681249Y-80750000D03*
%TD*%
D36*
%TO.C,H1*%
X116000000Y-54000000D03*
%TD*%
%TO.C,H2*%
X176000000Y-54000000D03*
%TD*%
D37*
%TO.C,L1*%
X165500000Y-57040000D03*
X165500000Y-51960000D03*
%TD*%
D38*
%TO.C,U3*%
X162250000Y-64950000D03*
X163520000Y-64950000D03*
X164790000Y-64950000D03*
X166060000Y-64950000D03*
X166060000Y-60000000D03*
X164790000Y-60000000D03*
X163520000Y-60000000D03*
X162250000Y-60000000D03*
%TD*%
D18*
%TO.C,C4*%
X172000000Y-64932380D03*
D19*
X172000000Y-62432380D03*
%TD*%
D39*
%TO.C,D2*%
X152837500Y-51750000D03*
X154412500Y-51750000D03*
%TD*%
D22*
%TO.C,J13*%
X115500000Y-88000000D03*
D23*
X122000000Y-84250000D03*
D24*
X122000000Y-86750000D03*
X122000000Y-89250000D03*
X122000000Y-91750000D03*
%TD*%
D10*
%TO.C,J3*%
X140275000Y-66000000D03*
D11*
X137735000Y-66000000D03*
%TD*%
D40*
%TO.C,J5*%
X147500000Y-53400000D03*
D41*
X148750000Y-59900000D03*
D42*
X146250000Y-59900000D03*
%TD*%
D21*
%TO.C,R9*%
X178250000Y-58675000D03*
X178250000Y-60325000D03*
%TD*%
D25*
%TO.C,J9*%
X152750000Y-108350000D03*
X139250000Y-108350000D03*
D26*
X142400000Y-102350000D03*
D27*
X149600000Y-102350000D03*
%TD*%
D10*
%TO.C,SW1*%
X123000000Y-57000000D03*
D11*
X123000000Y-54460000D03*
X123000000Y-51920000D03*
%TD*%
D43*
%TO.C,J11*%
X124500000Y-102120000D03*
D44*
X127000000Y-102120000D03*
X129000000Y-102120000D03*
X131500000Y-102120000D03*
X124500000Y-104740000D03*
X127000000Y-104740000D03*
X129000000Y-104740000D03*
X131500000Y-104740000D03*
D45*
X121430000Y-101770000D03*
X121430000Y-107450000D03*
X134570000Y-101770000D03*
X134570000Y-107450000D03*
%TD*%
D46*
%TO.C,D4*%
X178250000Y-63537500D03*
X178250000Y-61962500D03*
%TD*%
D10*
%TO.C,J4*%
X131775000Y-66000000D03*
D11*
X129235000Y-66000000D03*
%TD*%
D47*
%TO.C,F1*%
X159700000Y-95950000D03*
X159700000Y-92550000D03*
X149800000Y-95950000D03*
X149800000Y-92550000D03*
%TD*%
D22*
%TO.C,J12*%
X115500000Y-74500000D03*
D23*
X122000000Y-70750000D03*
D24*
X122000000Y-73250000D03*
X122000000Y-75750000D03*
X122000000Y-78250000D03*
%TD*%
D10*
%TO.C,J2*%
X148775000Y-66000000D03*
D11*
X146235000Y-66000000D03*
%TD*%
D12*
%TO.C,Q2*%
X128550000Y-81437500D03*
X130450000Y-81437500D03*
X129500000Y-79562500D03*
%TD*%
D36*
%TO.C,H4*%
X176000000Y-114000000D03*
%TD*%
D40*
%TO.C,J7*%
X130500000Y-53400000D03*
D41*
X131750000Y-59900000D03*
D42*
X129250000Y-59900000D03*
%TD*%
D21*
%TO.C,R4*%
X128500000Y-83675000D03*
X128500000Y-85325000D03*
%TD*%
D36*
%TO.C,H3*%
X116000000Y-114000000D03*
%TD*%
D45*
%TO.C,K1*%
X166260000Y-72100000D03*
X176400000Y-89900000D03*
X168800000Y-89900000D03*
D48*
X153600000Y-75900000D03*
D37*
X153600000Y-86100000D03*
%TD*%
D46*
%TO.C,D3*%
X115000000Y-108075000D03*
X115000000Y-106500000D03*
%TD*%
D40*
%TO.C,J6*%
X139000000Y-53400000D03*
D41*
X140250000Y-59900000D03*
D42*
X137750000Y-59900000D03*
%TD*%
D21*
%TO.C,R7*%
X143406249Y-83925000D03*
X143406249Y-85575000D03*
%TD*%
%TO.C,R2*%
X128500000Y-91850000D03*
X128500000Y-93500000D03*
%TD*%
D49*
%TO.C,D1*%
X156900000Y-68500000D03*
X153600000Y-68500000D03*
%TD*%
M02*
