%TF.GenerationSoftware,KiCad,Pcbnew,8.0.1*%
%TF.CreationDate,2024-08-29T16:15:39+09:00*%
%TF.ProjectId,PW-3-mini2-v1,50572d33-2d6d-4696-9e69-322d76312e6b,rev?*%
%TF.SameCoordinates,Original*%
%TF.FileFunction,Paste,Top*%
%TF.FilePolarity,Positive*%
%FSLAX46Y46*%
G04 Gerber Fmt 4.6, Leading zero omitted, Abs format (unit mm)*
G04 Created by KiCad (PCBNEW 8.0.1) date 2024-08-29 16:15:39*
%MOMM*%
%LPD*%
G01*
G04 APERTURE LIST*
G04 Aperture macros list*
%AMRoundRect*
0 Rectangle with rounded corners*
0 $1 Rounding radius*
0 $2 $3 $4 $5 $6 $7 $8 $9 X,Y pos of 4 corners*
0 Add a 4 corners polygon primitive as box body*
4,1,4,$2,$3,$4,$5,$6,$7,$8,$9,$2,$3,0*
0 Add four circle primitives for the rounded corners*
1,1,$1+$1,$2,$3*
1,1,$1+$1,$4,$5*
1,1,$1+$1,$6,$7*
1,1,$1+$1,$8,$9*
0 Add four rect primitives between the rounded corners*
20,1,$1+$1,$2,$3,$4,$5,0*
20,1,$1+$1,$4,$5,$6,$7,0*
20,1,$1+$1,$6,$7,$8,$9,0*
20,1,$1+$1,$8,$9,$2,$3,0*%
G04 Aperture macros list end*
%ADD10RoundRect,0.150000X0.150000X-0.587500X0.150000X0.587500X-0.150000X0.587500X-0.150000X-0.587500X0*%
%ADD11RoundRect,0.200000X0.275000X-0.200000X0.275000X0.200000X-0.275000X0.200000X-0.275000X-0.200000X0*%
%ADD12RoundRect,0.150000X0.150000X-0.512500X0.150000X0.512500X-0.150000X0.512500X-0.150000X-0.512500X0*%
%ADD13RoundRect,0.225000X0.225000X0.250000X-0.225000X0.250000X-0.225000X-0.250000X0.225000X-0.250000X0*%
%ADD14RoundRect,0.225000X-0.250000X0.225000X-0.250000X-0.225000X0.250000X-0.225000X0.250000X0.225000X0*%
%ADD15RoundRect,0.200000X-0.275000X0.200000X-0.275000X-0.200000X0.275000X-0.200000X0.275000X0.200000X0*%
%ADD16RoundRect,0.010000X-0.190000X-0.540000X0.190000X-0.540000X0.190000X0.540000X-0.190000X0.540000X0*%
%ADD17RoundRect,0.010000X0.190000X0.540000X-0.190000X0.540000X-0.190000X-0.540000X0.190000X-0.540000X0*%
%ADD18RoundRect,0.007500X-0.142500X-0.542500X0.142500X-0.542500X0.142500X0.542500X-0.142500X0.542500X0*%
%ADD19RoundRect,0.007500X0.142500X0.542500X-0.142500X0.542500X-0.142500X-0.542500X0.142500X-0.542500X0*%
%ADD20RoundRect,0.200000X0.200000X0.275000X-0.200000X0.275000X-0.200000X-0.275000X0.200000X-0.275000X0*%
%ADD21RoundRect,0.225000X-0.225000X-0.250000X0.225000X-0.250000X0.225000X0.250000X-0.225000X0.250000X0*%
%ADD22RoundRect,0.150000X0.150000X-0.825000X0.150000X0.825000X-0.150000X0.825000X-0.150000X-0.825000X0*%
%ADD23RoundRect,0.218750X-0.218750X-0.256250X0.218750X-0.256250X0.218750X0.256250X-0.218750X0.256250X0*%
%ADD24RoundRect,0.218750X0.256250X-0.218750X0.256250X0.218750X-0.256250X0.218750X-0.256250X-0.218750X0*%
%ADD25RoundRect,0.225000X0.225000X0.375000X-0.225000X0.375000X-0.225000X-0.375000X0.225000X-0.375000X0*%
G04 APERTURE END LIST*
D10*
%TO.C,Q1*%
X128550000Y-89500000D03*
X130450000Y-89500000D03*
X129500000Y-87625000D03*
%TD*%
D11*
%TO.C,R6*%
X119000000Y-97825000D03*
X119000000Y-96175000D03*
%TD*%
D12*
%TO.C,U1*%
X139006249Y-85750000D03*
X139956249Y-85750000D03*
X140906249Y-85750000D03*
X140906249Y-83475000D03*
X139006249Y-83475000D03*
%TD*%
D13*
%TO.C,C1*%
X140676249Y-88505000D03*
X139126249Y-88505000D03*
%TD*%
D11*
%TO.C,R1*%
X130500000Y-93500000D03*
X130500000Y-91850000D03*
%TD*%
D14*
%TO.C,C3*%
X144750000Y-71725000D03*
X144750000Y-73275000D03*
%TD*%
D11*
%TO.C,R3*%
X130500000Y-85325000D03*
X130500000Y-83675000D03*
%TD*%
D15*
%TO.C,R8*%
X117000000Y-106462500D03*
X117000000Y-108112500D03*
%TD*%
D16*
%TO.C,U2*%
X137700000Y-70550000D03*
D17*
X137700000Y-74450000D03*
D18*
X138250000Y-70550000D03*
D19*
X138250000Y-74450000D03*
D18*
X138750000Y-70550000D03*
D19*
X138750000Y-74450000D03*
D18*
X139250000Y-70550000D03*
D19*
X139250000Y-74450000D03*
D18*
X139750000Y-70550000D03*
D19*
X139750000Y-74450000D03*
D18*
X140250000Y-70550000D03*
D19*
X140250000Y-74450000D03*
D18*
X140750000Y-70550000D03*
D19*
X140750000Y-74450000D03*
D18*
X141250000Y-70550000D03*
D19*
X141250000Y-74450000D03*
D18*
X141750000Y-70550000D03*
D19*
X141750000Y-74450000D03*
D16*
X142300000Y-70550000D03*
D17*
X142300000Y-74450000D03*
%TD*%
D20*
%TO.C,R5*%
X157737500Y-51750000D03*
X156087500Y-51750000D03*
%TD*%
D21*
%TO.C,C2*%
X139131249Y-80750000D03*
X140681249Y-80750000D03*
%TD*%
D22*
%TO.C,U3*%
X162250000Y-64950000D03*
X163520000Y-64950000D03*
X164790000Y-64950000D03*
X166060000Y-64950000D03*
X166060000Y-60000000D03*
X164790000Y-60000000D03*
X163520000Y-60000000D03*
X162250000Y-60000000D03*
%TD*%
D23*
%TO.C,D2*%
X152837500Y-51750000D03*
X154412500Y-51750000D03*
%TD*%
D15*
%TO.C,R9*%
X178250000Y-58675000D03*
X178250000Y-60325000D03*
%TD*%
D24*
%TO.C,D4*%
X178250000Y-63537500D03*
X178250000Y-61962500D03*
%TD*%
D10*
%TO.C,Q2*%
X128550000Y-81437500D03*
X130450000Y-81437500D03*
X129500000Y-79562500D03*
%TD*%
D15*
%TO.C,R4*%
X128500000Y-83675000D03*
X128500000Y-85325000D03*
%TD*%
D24*
%TO.C,D3*%
X115000000Y-108075000D03*
X115000000Y-106500000D03*
%TD*%
D15*
%TO.C,R7*%
X143406249Y-83925000D03*
X143406249Y-85575000D03*
%TD*%
%TO.C,R2*%
X128500000Y-91850000D03*
X128500000Y-93500000D03*
%TD*%
D25*
%TO.C,D1*%
X156900000Y-68500000D03*
X153600000Y-68500000D03*
%TD*%
M02*
